<?xml version="1.0" encoding="UTF-8" standalone="no"?>
<!-- Created with Inkscape (http://www.inkscape.org/) -->

<svg
   width="296.60162pt"
   height="117.13746pt"
   viewBox="0 0 104.63446 41.323492"
   version="1.1"
   id="svg5"
   inkscape:version="1.1.2 (0a00cf5339, 2022-02-04)"
   sodipodi:docname="a4trees.svg"
   xmlns:inkscape="http://www.inkscape.org/namespaces/inkscape"
   xmlns:sodipodi="http://sodipodi.sourceforge.net/DTD/sodipodi-0.dtd"
   xmlns="http://www.w3.org/2000/svg"
   xmlns:svg="http://www.w3.org/2000/svg">
  <sodipodi:namedview
     id="namedview7"
     pagecolor="#ffffff"
     bordercolor="#666666"
     borderopacity="1.0"
     inkscape:pageshadow="2"
     inkscape:pageopacity="0.0"
     inkscape:pagecheckerboard="0"
     inkscape:document-units="mm"
     showgrid="false"
     inkscape:snap-global="false"
     inkscape:zoom="1.2944805"
     inkscape:cx="238.7058"
     inkscape:cy="56.39328"
     inkscape:window-width="1920"
     inkscape:window-height="1022"
     inkscape:window-x="0"
     inkscape:window-y="0"
     inkscape:window-maximized="1"
     inkscape:current-layer="layer1"
     units="pt"
     lock-margins="true"
     fit-margin-top="1"
     fit-margin-left="1"
     fit-margin-right="1"
     fit-margin-bottom="1" />
  <defs
     id="defs2" />
  <g
     inkscape:label="Layer 1"
     inkscape:groupmode="layer"
     id="layer1"
     transform="translate(-32.285998,-55.868534)">
    <g
       aria-label="S"
       id="text4610"
       style="font-style:italic;font-size:4.23333px;line-height:1.25;font-family:'Times New Roman';-inkscape-font-specification:'Times New Roman, Italic';font-variant-ligatures:none;stroke-width:0.264583">
      <path
         d="m 50.066781,59.152397 0.23151,-1.039729 h 0.07028 q -0.01447,0.150895 -0.01447,0.250113 0,0.283187 0.179834,0.460954 0.181901,0.177767 0.473356,0.177767 0.270784,0 0.411344,-0.165365 0.14056,-0.167431 0.14056,-0.384472 0,-0.14056 -0.06408,-0.256315 -0.09715,-0.171566 -0.518831,-0.60358 -0.204638,-0.206706 -0.262516,-0.307992 -0.09508,-0.167431 -0.09508,-0.351399 0,-0.293522 0.219108,-0.502295 0.219108,-0.208772 0.562239,-0.208772 0.115756,0 0.219108,0.02274 0.06408,0.0124 0.233578,0.08268 0.119889,0.04754 0.132291,0.05168 0.02894,0.0062 0.06408,0.0062 0.05994,0 0.103353,-0.03101 0.04341,-0.03101 0.101285,-0.132291 h 0.07855 L 52.1173,57.151487 h -0.07028 q 0.0083,-0.124024 0.0083,-0.200505 0,-0.250113 -0.165364,-0.409277 -0.165365,-0.159163 -0.436149,-0.159163 -0.214974,0 -0.349333,0.126091 -0.134358,0.12609 -0.134358,0.291454 0,0.144694 0.08475,0.276986 0.08682,0.130224 0.394808,0.42788 0.310058,0.295589 0.401009,0.463021 0.09095,0.165364 0.09095,0.353466 0,0.212907 -0.113688,0.413411 -0.111621,0.198438 -0.322461,0.307992 -0.210839,0.109554 -0.460953,0.109554 -0.124023,0 -0.23151,-0.02274 -0.107487,-0.02274 -0.343132,-0.111621 -0.08062,-0.03101 -0.134358,-0.03101 -0.121956,0 -0.190169,0.165365 z"
         id="path84" />
    </g>
    <g
       aria-label="E"
       id="text6938"
       style="font-style:italic;font-size:4.23333px;line-height:1.25;font-family:'Times New Roman';-inkscape-font-specification:'Times New Roman, Italic';font-variant-ligatures:none;stroke-width:0.264583">
      <path
         d="m 51.703778,71.486952 -0.320393,1.107942 h 0.262516 q 0.281119,0 0.40721,-0.08475 0.12609,-0.08682 0.217041,-0.318327 h 0.07648 l -0.287321,1.016992 h -0.08268 q 0.03721,-0.128158 0.03721,-0.219108 0,-0.08888 -0.03721,-0.142627 -0.03514,-0.05374 -0.09922,-0.07855 -0.06201,-0.02687 -0.264583,-0.02687 h -0.26665 l -0.270784,0.928108 q -0.03927,0.134359 -0.03927,0.204639 0,0.05374 0.05168,0.09508 0.03514,0.02894 0.1757,0.02894 h 0.248046 q 0.403076,0 0.644922,-0.142627 0.243912,-0.142627 0.436148,-0.496093 h 0.07648 l -0.264583,0.77928 h -2.166274 l 0.02687,-0.07648 q 0.16123,-0.0041 0.217041,-0.02894 0.08268,-0.03721 0.119889,-0.09508 0.05581,-0.08475 0.132291,-0.355533 l 0.49196,-1.690852 q 0.05788,-0.204638 0.05788,-0.312125 0,-0.07855 -0.05581,-0.121956 -0.05374,-0.04548 -0.212907,-0.04548 h -0.04341 l 0.0248,-0.07648 h 2.013313 l -0.173633,0.675928 h -0.07648 q 0.01447,-0.09508 0.01447,-0.159164 0,-0.109554 -0.05374,-0.183968 -0.07028,-0.09508 -0.204639,-0.144694 -0.09922,-0.03721 -0.456819,-0.03721 z"
         id="path87" />
    </g>
    <g
       aria-label="F"
       id="text9120"
       style="font-style:italic;font-size:4.23333px;line-height:1.25;font-family:'Times New Roman';-inkscape-font-specification:'Times New Roman, Italic';font-variant-ligatures:none;stroke-width:0.264583">
      <path
         d="m 66.222911,71.484885 -0.330728,1.110009 h 0.367935 q 0.248047,0 0.370003,-0.07648 0.124024,-0.07648 0.254248,-0.326595 h 0.07855 l -0.291455,1.021126 h -0.08268 q 0.03101,-0.124024 0.03101,-0.204639 0,-0.12609 -0.08475,-0.194303 -0.08268,-0.07028 -0.312126,-0.07028 h -0.37207 l -0.243912,0.845426 q -0.06615,0.225309 -0.06615,0.299723 0,0.07648 0.05581,0.117822 0.05788,0.04134 0.279052,0.05581 l -0.02481,0.07648 H 64.7429 l 0.02687,-0.07648 q 0.161231,-0.0041 0.214974,-0.02894 0.08268,-0.03514 0.121956,-0.09508 0.05581,-0.08475 0.132292,-0.349332 l 0.494026,-1.688784 q 0.05994,-0.204639 0.05994,-0.320394 0,-0.05374 -0.02687,-0.09095 -0.02687,-0.03927 -0.08061,-0.05788 -0.05168,-0.0186 -0.208773,-0.0186 l 0.02481,-0.07648 h 2.174542 l -0.206705,0.709 h -0.07855 q 0.02274,-0.128157 0.02274,-0.210839 0,-0.136426 -0.07648,-0.214974 -0.07441,-0.08061 -0.192236,-0.113688 -0.08268,-0.02067 -0.370003,-0.02067 z"
         id="path90" />
    </g>
    <g
       id="text27972"
       style="font-style:italic;font-size:4.23333px;line-height:1.25;font-family:'Times New Roman';-inkscape-font-specification:'Times New Roman, Italic';font-variant-ligatures:none;stroke-width:0.264583" />
    <g
       aria-label="1"
       id="text31660"
       style="font-style:italic;font-size:4.23333px;line-height:1.25;font-family:'Times New Roman';-inkscape-font-specification:'Times New Roman, Italic';font-variant-ligatures:none;stroke-width:0.264583">
      <path
         d="m 51.711015,93.999825 v 2.455662 h 0.595312 q 0.06201,0 0.08888,0.02481 0.02687,0.02274 0.02687,0.06201 0,0.03721 -0.02687,0.06201 -0.02687,0.02481 -0.08888,0.02481 H 50.94207 q -0.06201,0 -0.08888,-0.02481 -0.02687,-0.0248 -0.02687,-0.06201 0,-0.03928 0.02687,-0.06201 0.02687,-0.02481 0.08888,-0.02481 h 0.595312 v -2.215883 l -0.566373,0.177766 q -0.04134,0.0124 -0.05994,0.0124 -0.03101,0 -0.05788,-0.02481 -0.02481,-0.02687 -0.02481,-0.06201 0,-0.03101 0.02067,-0.05788 0.01654,-0.01654 0.06821,-0.03514 z"
         style="font-style:normal;font-family:'Courier New';-inkscape-font-specification:'Courier New, Normal'"
         id="path94" />
    </g>
    <g
       aria-label="0"
       id="text33756"
       style="font-style:italic;font-size:4.23333px;line-height:1.25;font-family:'Times New Roman';-inkscape-font-specification:'Times New Roman, Italic';font-variant-ligatures:none;stroke-width:0.264583">
      <path
         d="m 62.196137,95.100532 v 0.429947 q 0,0.560172 -0.26665,0.886767 -0.208772,0.256315 -0.527099,0.256315 -0.152962,0 -0.289388,-0.06201 -0.134358,-0.05994 -0.229443,-0.169498 -0.05995,-0.06821 -0.132292,-0.219108 -0.07028,-0.150895 -0.101285,-0.276986 -0.04754,-0.177766 -0.04754,-0.415478 v -0.429947 q 0,-0.562239 0.266651,-0.888834 0.208772,-0.256315 0.527099,-0.256315 0.155029,0 0.289388,0.06201 0.134358,0.05994 0.229443,0.169498 0.06201,0.07028 0.132291,0.221175 0.07028,0.150895 0.103353,0.274919 0.04548,0.177766 0.04548,0.417545 z m -0.173632,0.02274 q 0,-0.245979 -0.07028,-0.456819 -0.06821,-0.212907 -0.155029,-0.338997 -0.05168,-0.07235 -0.134359,-0.124023 -0.117822,-0.07235 -0.264583,-0.07235 -0.291455,0 -0.456819,0.297656 -0.165365,0.297656 -0.165365,0.69453 v 0.382406 q 0,0.245979 0.06821,0.458886 0.07028,0.212907 0.159163,0.338997 0.04961,0.07028 0.132292,0.121956 0.117822,0.07441 0.26665,0.07441 0.289388,0 0.454752,-0.297656 0.165365,-0.299723 0.165365,-0.696597 z"
         style="font-style:normal;font-family:'Courier New';-inkscape-font-specification:'Courier New, Normal'"
         id="path97" />
    </g>
    <g
       aria-label="ε"
       id="text29311"
       style="font-size:4.23333px;line-height:125%;-inkscape-font-specification:'sans-serif, Normal';letter-spacing:0px;word-spacing:0px;stroke-width:0.264583px">
      <path
         d="m 69.103087,90.254772 q -0.40721,-0.144694 -0.40721,-0.438216 0,-0.23151 0.214974,-0.370003 0.217041,-0.138493 0.537435,-0.138493 0.291454,0 0.46302,0.09715 0.171566,0.09508 0.171566,0.229443 0,0.07028 -0.05374,0.124023 -0.05374,0.05168 -0.124023,0.05168 -0.115755,0 -0.190169,-0.161231 -0.103353,-0.223242 -0.310059,-0.223242 -0.163297,0 -0.268717,0.107487 -0.10542,0.107487 -0.10542,0.299723 0,0.378272 0.390674,0.378272 0.04134,0 0.09508,-0.0083 0.09302,-0.0124 0.144694,-0.0124 0.126091,0 0.126091,0.07235 0,0.08061 -0.128158,0.08061 -0.04547,0 -0.136425,-0.01447 -0.06821,-0.0124 -0.10542,-0.0124 -0.413411,0 -0.413411,0.42168 0,0.204638 0.109554,0.330729 0.109554,0.124023 0.305924,0.124023 0.245979,0 0.326595,-0.254248 0.04134,-0.134358 0.09095,-0.186035 0.05168,-0.05168 0.136426,-0.05168 0.07028,0 0.12609,0.05168 0.05788,0.04961 0.05788,0.128158 0,0.188102 -0.21084,0.312125 -0.21084,0.121956 -0.510563,0.121956 -0.328662,0 -0.584976,-0.157096 -0.254248,-0.157096 -0.254248,-0.419612 0,-0.328662 0.506428,-0.483691 z"
         style="font-family:'Times New Roman';-inkscape-font-specification:'Times New Roman, Normal'"
         id="path100" />
    </g>
    <g
       aria-label="F"
       id="text36490"
       style="font-style:italic;font-size:4.23333px;line-height:1.25;font-family:'Times New Roman';-inkscape-font-specification:'Times New Roman, Italic';font-variant-ligatures:none;stroke-width:0.264583">
      <path
         d="m 69.390407,80.191924 -0.330729,1.110009 h 0.367936 q 0.248047,0 0.370003,-0.07648 0.124023,-0.07648 0.254248,-0.326595 h 0.07855 l -0.291455,1.021126 h -0.08268 q 0.03101,-0.124024 0.03101,-0.204639 0,-0.12609 -0.08475,-0.194303 -0.08268,-0.07028 -0.312126,-0.07028 h -0.37207 l -0.243912,0.845426 q -0.06615,0.225309 -0.06615,0.299723 0,0.07648 0.05581,0.117822 0.05788,0.04134 0.279053,0.05581 l -0.02481,0.07648 h -1.107942 l 0.02687,-0.07648 q 0.16123,-0.0041 0.214974,-0.02894 0.08268,-0.03514 0.121956,-0.09509 0.05581,-0.08475 0.132292,-0.349332 l 0.494026,-1.688785 q 0.05994,-0.204638 0.05994,-0.320393 0,-0.05374 -0.02687,-0.09095 -0.02687,-0.03927 -0.08061,-0.05788 -0.05168,-0.0186 -0.208773,-0.0186 l 0.02481,-0.07648 h 2.174542 l -0.206705,0.709 h -0.07855 q 0.02274,-0.128157 0.02274,-0.210839 0,-0.136426 -0.07648,-0.214974 -0.07441,-0.08062 -0.192236,-0.113688 -0.08268,-0.02067 -0.370003,-0.02067 z"
         id="path103" />
    </g>
    <path
       style="font-variation-settings:normal;opacity:1;vector-effect:none;fill:none;fill-opacity:1;stroke:#000000;stroke-width:0.141111;stroke-linecap:butt;stroke-linejoin:miter;stroke-miterlimit:4;stroke-dasharray:none;stroke-dashoffset:0;stroke-opacity:1;-inkscape-stroke:none;stop-color:#000000;stop-opacity:1"
       d="m 69.376972,83.761012 v 4.234161"
       id="path36527" />
    <path
       style="font-variation-settings:normal;opacity:1;vector-effect:none;fill:none;fill-opacity:1;stroke:#000000;stroke-width:0.141111;stroke-linecap:butt;stroke-linejoin:miter;stroke-miterlimit:4;stroke-dasharray:none;stroke-dashoffset:0;stroke-opacity:1;-inkscape-stroke:none;stop-color:#000000;stop-opacity:1"
       d="M 66.374736,74.540982 68.4454,78.888414"
       id="path36642" />
    <path
       style="font-variation-settings:normal;opacity:1;vector-effect:none;fill:none;fill-opacity:1;stroke:#000000;stroke-width:0.141111;stroke-linecap:butt;stroke-linejoin:miter;stroke-miterlimit:4;stroke-dasharray:none;stroke-dashoffset:0;stroke-opacity:1;-inkscape-stroke:none;stop-color:#000000;stop-opacity:1"
       d="m 65.319329,74.811542 c 0,0 -2.498903,3.212768 -3.371713,6.286569 -0.653269,2.141635 -0.534111,11.776266 -0.534111,11.776266"
       id="path36749"
       sodipodi:nodetypes="ccc" />
    <path
       style="font-variation-settings:normal;opacity:1;vector-effect:none;fill:none;fill-opacity:1;stroke:#000000;stroke-width:0.141111;stroke-linecap:butt;stroke-linejoin:miter;stroke-miterlimit:4;stroke-dasharray:none;stroke-dashoffset:0;stroke-opacity:1;-inkscape-stroke:none;stop-color:#000000;stop-opacity:1"
       d="M 51.624196,75.20312 V 92.84887"
       id="path37442" />
    <g
       aria-label="E"
       id="text37526"
       style="font-style:italic;font-size:4.23333px;line-height:1.25;font-family:'Times New Roman';-inkscape-font-specification:'Times New Roman, Italic';font-variant-ligatures:none;stroke-width:0.264583">
      <path
         d="m 42.685125,71.486952 -0.320394,1.107942 h 0.262516 q 0.28112,0 0.40721,-0.08475 0.12609,-0.08682 0.217041,-0.318327 h 0.07648 l -0.287321,1.016992 h -0.08268 q 0.03721,-0.128158 0.03721,-0.219108 0,-0.08888 -0.03721,-0.142627 -0.03514,-0.05374 -0.09922,-0.07855 -0.06201,-0.02687 -0.264583,-0.02687 h -0.26665 l -0.270784,0.928108 q -0.03927,0.134359 -0.03927,0.204639 0,0.05374 0.05168,0.09508 0.03514,0.02894 0.1757,0.02894 h 0.248046 q 0.403076,0 0.644922,-0.142627 0.243912,-0.142627 0.436148,-0.496093 h 0.07648 l -0.264584,0.77928 h -2.166274 l 0.02687,-0.07648 q 0.16123,-0.0041 0.217041,-0.02894 0.08268,-0.03721 0.119889,-0.09508 0.05581,-0.08475 0.132292,-0.355533 l 0.491959,-1.690852 q 0.05788,-0.204638 0.05788,-0.312125 0,-0.07855 -0.05581,-0.121956 -0.05374,-0.04548 -0.212907,-0.04548 h -0.04341 l 0.02481,-0.07648 h 2.013312 l -0.173633,0.675928 h -0.07648 q 0.01447,-0.09508 0.01447,-0.159164 0,-0.109554 -0.05374,-0.183968 -0.07028,-0.09508 -0.204639,-0.144694 -0.09922,-0.03721 -0.456819,-0.03721 z"
         id="path106" />
    </g>
    <g
       aria-label="1"
       id="text37530"
       style="font-style:italic;font-size:4.23333px;line-height:1.25;font-family:'Times New Roman';-inkscape-font-specification:'Times New Roman, Italic';font-variant-ligatures:none;stroke-width:0.264583">
      <path
         d="m 42.692361,93.999825 v 2.455662 h 0.595312 q 0.06201,0 0.08888,0.02481 0.02687,0.02274 0.02687,0.06201 0,0.03721 -0.02687,0.06201 -0.02687,0.02481 -0.08888,0.02481 h -1.364257 q -0.06201,0 -0.08888,-0.02481 -0.02687,-0.0248 -0.02687,-0.06201 0,-0.03928 0.02687,-0.06201 0.02687,-0.02481 0.08888,-0.02481 h 0.595312 v -2.215883 l -0.566373,0.177766 q -0.04134,0.0124 -0.05994,0.0124 -0.03101,0 -0.05788,-0.02481 -0.02481,-0.02687 -0.02481,-0.06201 0,-0.03101 0.02067,-0.05788 0.01654,-0.01654 0.06821,-0.03514 z"
         style="font-style:normal;font-family:'Courier New';-inkscape-font-specification:'Courier New, Normal'"
         id="path109" />
    </g>
    <path
       style="font-variation-settings:normal;opacity:1;vector-effect:none;fill:none;fill-opacity:1;stroke:#000000;stroke-width:0.141111;stroke-linecap:butt;stroke-linejoin:miter;stroke-miterlimit:4;stroke-dasharray:none;stroke-dashoffset:0;stroke-opacity:1;-inkscape-stroke:none;stop-color:#000000;stop-opacity:1"
       d="M 42.60554,75.20312 V 92.84887"
       id="path37532" />
    <g
       aria-label="E"
       id="text37536"
       style="font-style:italic;font-size:4.23333px;line-height:1.25;font-family:'Times New Roman';-inkscape-font-specification:'Times New Roman, Italic';font-variant-ligatures:none;stroke-width:0.264583">
      <path
         d="m 34.104318,71.486952 -0.320394,1.107942 h 0.262516 q 0.28112,0 0.40721,-0.08475 0.126091,-0.08682 0.217041,-0.318327 h 0.07648 l -0.287321,1.016992 h -0.08268 q 0.03721,-0.128158 0.03721,-0.219108 0,-0.08888 -0.03721,-0.142627 -0.03514,-0.05374 -0.09922,-0.07855 -0.06201,-0.02687 -0.264584,-0.02687 h -0.26665 l -0.270784,0.928108 q -0.03927,0.134359 -0.03927,0.204639 0,0.05374 0.05168,0.09508 0.03514,0.02894 0.1757,0.02894 h 0.248047 q 0.403076,0 0.644921,-0.142627 0.243913,-0.142627 0.436149,-0.496093 h 0.07648 l -0.264583,0.77928 h -2.166275 l 0.02687,-0.07648 q 0.161231,-0.0041 0.217041,-0.02894 0.08268,-0.03721 0.119889,-0.09508 0.05581,-0.08475 0.132292,-0.355533 l 0.491959,-1.690852 q 0.05788,-0.204638 0.05788,-0.312125 0,-0.07855 -0.05581,-0.121956 -0.05374,-0.04548 -0.212907,-0.04548 h -0.04341 l 0.02481,-0.07648 h 2.013312 l -0.173633,0.675928 h -0.07648 q 0.01447,-0.09508 0.01447,-0.159164 0,-0.109554 -0.05374,-0.183968 -0.07028,-0.09508 -0.204638,-0.144694 -0.09922,-0.03721 -0.45682,-0.03721 z"
         id="path112" />
    </g>
    <g
       aria-label="1"
       id="text37540"
       style="font-style:italic;font-size:4.23333px;line-height:1.25;font-family:'Times New Roman';-inkscape-font-specification:'Times New Roman, Italic';font-variant-ligatures:none;stroke-width:0.264583">
      <path
         d="m 34.111554,93.999825 v 2.455662 h 0.595312 q 0.06201,0 0.08888,0.02481 0.02687,0.02274 0.02687,0.06201 0,0.03721 -0.02687,0.06201 -0.02687,0.02481 -0.08888,0.02481 h -1.364257 q -0.06201,0 -0.08888,-0.02481 -0.02687,-0.0248 -0.02687,-0.06201 0,-0.03928 0.02687,-0.06201 0.02687,-0.02481 0.08888,-0.02481 h 0.595312 v -2.215883 l -0.566373,0.177766 q -0.04134,0.0124 -0.05994,0.0124 -0.03101,0 -0.05788,-0.02481 -0.02481,-0.02687 -0.02481,-0.06201 0,-0.03101 0.02067,-0.05788 0.01654,-0.01654 0.06821,-0.03514 z"
         style="font-style:normal;font-family:'Courier New';-inkscape-font-specification:'Courier New, Normal'"
         id="path115" />
    </g>
    <path
       style="font-variation-settings:normal;opacity:1;vector-effect:none;fill:none;fill-opacity:1;stroke:#000000;stroke-width:0.141111;stroke-linecap:butt;stroke-linejoin:miter;stroke-miterlimit:4;stroke-dasharray:none;stroke-dashoffset:0;stroke-opacity:1;-inkscape-stroke:none;stop-color:#000000;stop-opacity:1"
       d="M 34.024735,75.20312 V 92.84887"
       id="path37542" />
    <path
       style="font-variation-settings:normal;opacity:1;vector-effect:none;fill:none;fill-opacity:1;stroke:#000000;stroke-width:0.141111;stroke-linecap:butt;stroke-linejoin:miter;stroke-miterlimit:4;stroke-dasharray:none;stroke-dashoffset:0;stroke-opacity:1;-inkscape-stroke:none;stop-color:#000000;stop-opacity:1"
       d="M 50.058467,60 35.160002,70.736099"
       id="path37577"
       sodipodi:nodetypes="cc" />
    <path
       style="font-variation-settings:normal;opacity:1;vector-effect:none;fill:none;fill-opacity:1;stroke:#000000;stroke-width:0.141111;stroke-linecap:butt;stroke-linejoin:miter;stroke-miterlimit:4;stroke-dasharray:none;stroke-dashoffset:0;stroke-opacity:1;-inkscape-stroke:none;stop-color:#000000;stop-opacity:1"
       d="M 50.676266,60 43.060725,70.661079"
       id="path37579"
       sodipodi:nodetypes="cc" />
    <path
       style="font-variation-settings:normal;opacity:1;vector-effect:none;fill:none;fill-opacity:1;stroke:#000000;stroke-width:0.141111;stroke-linecap:butt;stroke-linejoin:miter;stroke-miterlimit:4;stroke-dasharray:none;stroke-dashoffset:0;stroke-opacity:1;-inkscape-stroke:none;stop-color:#000000;stop-opacity:1"
       d="m 51.175469,60 0.690774,10.755062"
       id="path37581"
       sodipodi:nodetypes="cc" />
    <path
       style="font-variation-settings:normal;opacity:1;vector-effect:none;fill:none;fill-opacity:1;stroke:#000000;stroke-width:0.141111;stroke-linecap:butt;stroke-linejoin:miter;stroke-miterlimit:4;stroke-dasharray:none;stroke-dashoffset:0;stroke-opacity:1;-inkscape-stroke:none;stop-color:#000000;stop-opacity:1"
       d="m 51.858118,60 13.59114,10.277785"
       id="path37583"
       sodipodi:nodetypes="cc" />
    <g
       aria-label="E"
       id="text37944"
       style="font-style:italic;font-size:4.23333px;line-height:1.25;font-family:'Times New Roman';-inkscape-font-specification:'Times New Roman, Italic';font-variant-ligatures:none;stroke-width:0.264583">
      <path
         d="m 94.749585,71.65264 -0.320393,1.107942 h 0.262516 q 0.281119,0 0.40721,-0.08475 0.12609,-0.08682 0.217041,-0.318326 h 0.07648 l -0.287321,1.016991 h -0.08268 q 0.03721,-0.128157 0.03721,-0.219108 0,-0.08888 -0.03721,-0.142626 -0.03514,-0.05374 -0.09922,-0.07855 -0.06201,-0.02687 -0.264583,-0.02687 h -0.26665 L 94.1212,73.835451 q -0.03927,0.134358 -0.03927,0.204638 0,0.05374 0.05168,0.09509 0.03514,0.02894 0.1757,0.02894 h 0.248046 q 0.403076,0 0.644922,-0.142626 0.243912,-0.142627 0.436148,-0.496094 h 0.07648 l -0.264583,0.77928 h -2.166274 l 0.02687,-0.07648 q 0.16123,-0.0041 0.217041,-0.02894 0.08268,-0.03721 0.119889,-0.09508 0.05581,-0.08475 0.132291,-0.355534 l 0.49196,-1.690851 q 0.05788,-0.204639 0.05788,-0.312126 0,-0.07855 -0.05581,-0.121956 -0.05374,-0.04547 -0.212907,-0.04547 h -0.04341 l 0.0248,-0.07648 h 2.013312 l -0.173632,0.675927 h -0.07648 q 0.01447,-0.09508 0.01447,-0.159163 0,-0.109554 -0.05374,-0.183968 -0.07028,-0.09508 -0.204639,-0.144694 -0.09922,-0.03721 -0.456819,-0.03721 z"
         id="path118" />
    </g>
    <g
       aria-label="0"
       id="text37948"
       style="font-style:italic;font-size:4.23333px;line-height:1.25;font-family:'Times New Roman';-inkscape-font-specification:'Times New Roman, Italic';font-variant-ligatures:none;stroke-width:0.264583">
      <path
         d="m 90.728997,95.266219 v 0.429948 q 0,0.560172 -0.26665,0.886767 -0.208773,0.256315 -0.527099,0.256315 -0.152962,0 -0.289388,-0.06201 -0.134359,-0.05994 -0.229443,-0.169499 -0.05994,-0.06821 -0.132292,-0.219108 -0.07028,-0.150895 -0.101285,-0.276985 -0.04754,-0.177767 -0.04754,-0.415478 v -0.429948 q 0,-0.562239 0.26665,-0.888834 0.208773,-0.256314 0.5271,-0.256314 0.155029,0 0.289387,0.06201 0.134359,0.05994 0.229444,0.169499 0.06201,0.07028 0.132291,0.221175 0.07028,0.150895 0.103353,0.274918 0.04548,0.177767 0.04548,0.417545 z m -0.173633,0.02274 q 0,-0.24598 -0.07028,-0.456819 -0.06821,-0.212907 -0.15503,-0.338997 -0.05168,-0.07235 -0.134358,-0.124024 -0.117822,-0.07235 -0.264583,-0.07235 -0.291455,0 -0.45682,0.297656 -0.165364,0.297656 -0.165364,0.694531 v 0.382405 q 0,0.24598 0.06821,0.458887 0.07028,0.212906 0.159163,0.338997 0.04961,0.07028 0.132292,0.121956 0.117822,0.07441 0.26665,0.07441 0.289388,0 0.454752,-0.297656 0.165364,-0.299723 0.165364,-0.696598 z"
         style="font-style:normal;font-family:'Courier New';-inkscape-font-specification:'Courier New, Normal'"
         id="path121" />
    </g>
    <g
       aria-label="E"
       id="text37956"
       style="font-style:italic;font-size:4.23333px;line-height:1.25;font-family:'Times New Roman';-inkscape-font-specification:'Times New Roman, Italic';font-variant-ligatures:none;stroke-width:0.264583">
      <path
         d="m 97.917073,80.359679 -0.320393,1.107942 h 0.262516 q 0.281119,0 0.40721,-0.08475 0.12609,-0.08682 0.217041,-0.318326 h 0.07648 l -0.287321,1.016991 h -0.08268 q 0.03721,-0.128157 0.03721,-0.219108 0,-0.08888 -0.03721,-0.142627 -0.03514,-0.05374 -0.09922,-0.07855 -0.06201,-0.02687 -0.264583,-0.02687 h -0.26665 l -0.270784,0.928108 q -0.03928,0.134358 -0.03928,0.204638 0,0.05374 0.05168,0.09508 0.03514,0.02894 0.1757,0.02894 h 0.248046 q 0.403076,0 0.644922,-0.142626 0.243912,-0.142627 0.436148,-0.496094 h 0.07648 l -0.264583,0.77928 h -2.166274 l 0.02687,-0.07648 q 0.16123,-0.0041 0.217041,-0.02894 0.08268,-0.03721 0.119889,-0.09508 0.05581,-0.08475 0.132291,-0.355534 l 0.49196,-1.690851 q 0.05788,-0.204639 0.05788,-0.312126 0,-0.07855 -0.05581,-0.121956 -0.05374,-0.04548 -0.212907,-0.04548 h -0.04341 l 0.0248,-0.07648 h 2.013313 l -0.173633,0.675927 h -0.07648 q 0.01447,-0.09508 0.01447,-0.159163 0,-0.109554 -0.05374,-0.183968 -0.07028,-0.09508 -0.204639,-0.144694 -0.09922,-0.03721 -0.456819,-0.03721 z"
         id="path124" />
    </g>
    <path
       style="font-variation-settings:normal;opacity:1;vector-effect:none;fill:none;fill-opacity:1;stroke:#000000;stroke-width:0.141111;stroke-linecap:butt;stroke-linejoin:miter;stroke-miterlimit:4;stroke-dasharray:none;stroke-dashoffset:0;stroke-opacity:1;-inkscape-stroke:none;stop-color:#000000;stop-opacity:1"
       d="M 97.909832,83.926693 V 93.01953"
       id="path37958"
       sodipodi:nodetypes="cc" />
    <path
       style="font-variation-settings:normal;opacity:1;vector-effect:none;fill:none;fill-opacity:1;stroke:#000000;stroke-width:0.141111;stroke-linecap:butt;stroke-linejoin:miter;stroke-miterlimit:4;stroke-dasharray:none;stroke-dashoffset:0;stroke-opacity:1;-inkscape-stroke:none;stop-color:#000000;stop-opacity:1"
       d="m 94.907602,74.706663 2.07066,4.347432"
       id="path37960" />
    <path
       style="font-variation-settings:normal;opacity:1;vector-effect:none;fill:none;fill-opacity:1;stroke:#000000;stroke-width:0.141111;stroke-linecap:butt;stroke-linejoin:miter;stroke-miterlimit:4;stroke-dasharray:none;stroke-dashoffset:0;stroke-opacity:1;-inkscape-stroke:none;stop-color:#000000;stop-opacity:1"
       d="m 93.852192,74.977223 c 0,0 -2.4989,3.212768 -3.37171,6.286569 -0.65327,2.141635 -0.53412,11.755738 -0.53412,11.755738"
       id="path37962"
       sodipodi:nodetypes="ccc" />
    <g
       aria-label="1"
       id="text38046"
       style="font-style:italic;font-size:4.23333px;line-height:1.25;font-family:'Times New Roman';-inkscape-font-specification:'Times New Roman, Italic';font-variant-ligatures:none;stroke-width:0.264583">
      <path
         d="m 98.04886,94.147942 v 2.455662 h 0.595312 q 0.06201,0 0.08888,0.02481 0.02687,0.02274 0.02687,0.06201 0,0.03721 -0.02687,0.06201 -0.02687,0.02481 -0.08888,0.02481 h -1.364257 q -0.06201,0 -0.08888,-0.02481 -0.02687,-0.0248 -0.02687,-0.06201 0,-0.03927 0.02687,-0.06201 0.02687,-0.02481 0.08888,-0.02481 h 0.595312 v -2.215883 l -0.566373,0.177766 q -0.04134,0.0124 -0.05994,0.0124 -0.03101,0 -0.05788,-0.02481 -0.0248,-0.02687 -0.0248,-0.06201 0,-0.031 0.02067,-0.05788 0.01654,-0.01654 0.06821,-0.03514 z"
         style="font-style:normal;font-family:'Courier New';-inkscape-font-specification:'Courier New, Normal'"
         id="path127" />
    </g>
    <g
       aria-label="E"
       id="text42085"
       style="font-style:italic;font-size:4.23333px;line-height:1.25;font-family:'Times New Roman';-inkscape-font-specification:'Times New Roman, Italic';font-variant-ligatures:none;stroke-width:0.264583">
      <path
         d="m 109.09198,71.65264 -0.32039,1.107942 h 0.26252 q 0.28112,0 0.40721,-0.08475 0.12609,-0.08682 0.21704,-0.318326 h 0.0765 l -0.28732,1.016991 h -0.0827 q 0.0372,-0.128157 0.0372,-0.219108 0,-0.08888 -0.0372,-0.142626 -0.0351,-0.05374 -0.0992,-0.07855 -0.062,-0.02687 -0.26459,-0.02687 h -0.26665 l -0.27078,0.928108 q -0.0393,0.134358 -0.0393,0.204638 0,0.05374 0.0517,0.09509 0.0351,0.02894 0.1757,0.02894 h 0.24805 q 0.40307,0 0.64492,-0.142626 0.24391,-0.142627 0.43615,-0.496094 h 0.0765 l -0.26458,0.77928 h -2.16628 l 0.0269,-0.07648 q 0.16123,-0.0041 0.21705,-0.02894 0.0827,-0.03721 0.11988,-0.09508 0.0558,-0.08475 0.1323,-0.355534 l 0.49196,-1.690851 q 0.0579,-0.204639 0.0579,-0.312126 0,-0.07855 -0.0558,-0.121956 -0.0537,-0.04547 -0.2129,-0.04547 h -0.0434 l 0.0248,-0.07648 h 2.01331 l -0.17363,0.675927 h -0.0765 q 0.0145,-0.09508 0.0145,-0.159163 0,-0.109554 -0.0537,-0.183968 -0.0703,-0.09508 -0.20464,-0.144694 -0.0992,-0.03721 -0.45682,-0.03721 z"
         id="path130" />
    </g>
    <g
       aria-label="0"
       id="text42089"
       style="font-style:italic;font-size:4.23333px;line-height:1.25;font-family:'Times New Roman';-inkscape-font-specification:'Times New Roman, Italic';font-variant-ligatures:none;stroke-width:0.264583">
      <path
         d="m 105.0714,95.266219 v 0.429948 q 0,0.560172 -0.26665,0.886767 -0.20878,0.256315 -0.5271,0.256315 -0.15296,0 -0.28939,-0.06201 -0.13436,-0.05994 -0.22944,-0.169499 -0.06,-0.06821 -0.1323,-0.219108 -0.0703,-0.150895 -0.10128,-0.276985 -0.0475,-0.177767 -0.0475,-0.415478 v -0.429948 q 0,-0.562239 0.26665,-0.888834 0.20877,-0.256314 0.5271,-0.256314 0.15503,0 0.28938,0.06201 0.13436,0.05994 0.22945,0.169499 0.062,0.07028 0.13229,0.221175 0.0703,0.150895 0.10335,0.274918 0.0455,0.177767 0.0455,0.417545 z m -0.17364,0.02274 q 0,-0.24598 -0.0703,-0.456819 -0.0682,-0.212907 -0.15503,-0.338997 -0.0517,-0.07235 -0.13435,-0.124024 -0.11783,-0.07235 -0.26459,-0.07235 -0.29145,0 -0.45682,0.297656 -0.16536,0.297656 -0.16536,0.694531 v 0.382405 q 0,0.24598 0.0682,0.458887 0.0703,0.212906 0.15917,0.338997 0.0496,0.07028 0.13229,0.121956 0.11782,0.07441 0.26665,0.07441 0.28939,0 0.45475,-0.297656 0.16536,-0.299723 0.16536,-0.696598 z"
         style="font-style:normal;font-family:'Courier New';-inkscape-font-specification:'Courier New, Normal'"
         id="path133" />
    </g>
    <g
       aria-label="E"
       id="text42093"
       style="font-style:italic;font-size:4.23333px;line-height:1.25;font-family:'Times New Roman';-inkscape-font-specification:'Times New Roman, Italic';font-variant-ligatures:none;stroke-width:0.264583">
      <path
         d="m 112.25949,80.359679 -0.3204,1.107942 h 0.26252 q 0.28112,0 0.40721,-0.08475 0.12609,-0.08682 0.21704,-0.318326 h 0.0765 l -0.28732,1.016991 h -0.0827 q 0.0372,-0.128157 0.0372,-0.219108 0,-0.08888 -0.0372,-0.142627 -0.0351,-0.05374 -0.0992,-0.07855 -0.062,-0.02687 -0.26458,-0.02687 h -0.26665 l -0.27079,0.928108 q -0.0393,0.134358 -0.0393,0.204638 0,0.05374 0.0517,0.09508 0.0351,0.02894 0.1757,0.02894 h 0.24804 q 0.40308,0 0.64492,-0.142626 0.24392,-0.142627 0.43615,-0.496094 h 0.0765 l -0.26458,0.77928 h -2.16627 l 0.0269,-0.07648 q 0.16123,-0.0041 0.21704,-0.02894 0.0827,-0.03721 0.11989,-0.09508 0.0558,-0.08475 0.13229,-0.355534 l 0.49196,-1.690851 q 0.0579,-0.204639 0.0579,-0.312126 0,-0.07855 -0.0558,-0.121956 -0.0537,-0.04548 -0.21291,-0.04548 h -0.0434 l 0.0248,-0.07648 h 2.01331 l -0.17364,0.675927 h -0.0765 q 0.0145,-0.09508 0.0145,-0.159163 0,-0.109554 -0.0537,-0.183968 -0.0703,-0.09508 -0.20464,-0.144694 -0.0992,-0.03721 -0.45682,-0.03721 z"
         id="path136" />
    </g>
    <path
       style="font-variation-settings:normal;opacity:1;vector-effect:none;fill:none;fill-opacity:1;stroke:#000000;stroke-width:0.141111;stroke-linecap:butt;stroke-linejoin:miter;stroke-miterlimit:4;stroke-dasharray:none;stroke-dashoffset:0;stroke-opacity:1;-inkscape-stroke:none;stop-color:#000000;stop-opacity:1"
       d="M 112.25224,83.926693 V 93.01953"
       id="path42095"
       sodipodi:nodetypes="cc" />
    <path
       style="font-variation-settings:normal;opacity:1;vector-effect:none;fill:none;fill-opacity:1;stroke:#000000;stroke-width:0.141111;stroke-linecap:butt;stroke-linejoin:miter;stroke-miterlimit:4;stroke-dasharray:none;stroke-dashoffset:0;stroke-opacity:1;-inkscape-stroke:none;stop-color:#000000;stop-opacity:1"
       d="m 109.25001,74.706663 2.07066,4.347432"
       id="path42097" />
    <path
       style="font-variation-settings:normal;opacity:1;vector-effect:none;fill:none;fill-opacity:1;stroke:#000000;stroke-width:0.141111;stroke-linecap:butt;stroke-linejoin:miter;stroke-miterlimit:4;stroke-dasharray:none;stroke-dashoffset:0;stroke-opacity:1;-inkscape-stroke:none;stop-color:#000000;stop-opacity:1"
       d="m 108.1946,74.977223 c 0,0 -2.4989,3.212768 -3.37171,6.286569 -0.65327,2.141635 -0.53412,11.755738 -0.53412,11.755738"
       id="path42099"
       sodipodi:nodetypes="ccc" />
    <g
       aria-label="1"
       id="text42103"
       style="font-style:italic;font-size:4.23333px;line-height:1.25;font-family:'Times New Roman';-inkscape-font-specification:'Times New Roman, Italic';font-variant-ligatures:none;stroke-width:0.264583">
      <path
         d="m 112.39128,94.147942 v 2.455662 h 0.59531 q 0.062,0 0.0889,0.02481 0.0269,0.02274 0.0269,0.06201 0,0.03721 -0.0269,0.06201 -0.0269,0.02481 -0.0889,0.02481 h -1.36425 q -0.062,0 -0.0889,-0.02481 -0.0269,-0.0248 -0.0269,-0.06201 0,-0.03927 0.0269,-0.06201 0.0269,-0.02481 0.0889,-0.02481 h 0.59531 v -2.215883 l -0.56637,0.177766 q -0.0413,0.0124 -0.06,0.0124 -0.031,0 -0.0579,-0.02481 -0.0248,-0.02687 -0.0248,-0.06201 0,-0.031 0.0207,-0.05788 0.0165,-0.01654 0.0682,-0.03514 z"
         style="font-style:normal;font-family:'Courier New';-inkscape-font-specification:'Courier New, Normal'"
         id="path139" />
    </g>
    <g
       aria-label="E"
       id="text42107"
       style="font-style:italic;font-size:4.23333px;line-height:1.25;font-family:'Times New Roman';-inkscape-font-specification:'Times New Roman, Italic';font-variant-ligatures:none;stroke-width:0.264583">
      <path
         d="m 123.76529,71.65264 -0.3204,1.107942 h 0.26252 q 0.28112,0 0.40721,-0.08475 0.12609,-0.08682 0.21704,-0.318326 h 0.0765 l -0.28732,1.016991 h -0.0827 q 0.0372,-0.128157 0.0372,-0.219108 0,-0.08888 -0.0372,-0.142626 -0.0351,-0.05374 -0.0992,-0.07855 -0.062,-0.02687 -0.26458,-0.02687 h -0.26665 l -0.27079,0.928108 q -0.0393,0.134358 -0.0393,0.204638 0,0.05374 0.0517,0.09509 0.0351,0.02894 0.1757,0.02894 h 0.24805 q 0.40308,0 0.64492,-0.142626 0.24391,-0.142627 0.43615,-0.496094 h 0.0765 l -0.26458,0.77928 h -2.16628 l 0.0269,-0.07648 q 0.16123,-0.0041 0.21704,-0.02894 0.0827,-0.03721 0.11989,-0.09508 0.0558,-0.08475 0.13229,-0.355534 l 0.49196,-1.690851 q 0.0579,-0.204639 0.0579,-0.312126 0,-0.07855 -0.0558,-0.121956 -0.0537,-0.04547 -0.2129,-0.04547 h -0.0434 l 0.0248,-0.07648 h 2.01332 l -0.17364,0.675927 h -0.0765 q 0.0145,-0.09508 0.0145,-0.159163 0,-0.109554 -0.0537,-0.183968 -0.0703,-0.09508 -0.20464,-0.144694 -0.0992,-0.03721 -0.45682,-0.03721 z"
         id="path142" />
    </g>
    <g
       aria-label="0"
       id="text42111"
       style="font-style:italic;font-size:4.23333px;line-height:1.25;font-family:'Times New Roman';-inkscape-font-specification:'Times New Roman, Italic';font-variant-ligatures:none;stroke-width:0.264583">
      <path
         d="m 119.74471,95.266219 v 0.429948 q 0,0.560172 -0.26665,0.886767 -0.20878,0.256315 -0.5271,0.256315 -0.15297,0 -0.28939,-0.06201 -0.13436,-0.05994 -0.22944,-0.169499 -0.06,-0.06821 -0.1323,-0.219108 -0.0703,-0.150895 -0.10128,-0.276985 -0.0475,-0.177767 -0.0475,-0.415478 v -0.429948 q 0,-0.562239 0.26665,-0.888834 0.20877,-0.256314 0.5271,-0.256314 0.15502,0 0.28938,0.06201 0.13436,0.05994 0.22945,0.169499 0.062,0.07028 0.13229,0.221175 0.0703,0.150895 0.10335,0.274918 0.0455,0.177767 0.0455,0.417545 z m -0.17364,0.02274 q 0,-0.24598 -0.0703,-0.456819 -0.0682,-0.212907 -0.15503,-0.338997 -0.0517,-0.07235 -0.13435,-0.124024 -0.11783,-0.07235 -0.26459,-0.07235 -0.29145,0 -0.45682,0.297656 -0.16536,0.297656 -0.16536,0.694531 v 0.382405 q 0,0.24598 0.0682,0.458887 0.0703,0.212906 0.15916,0.338997 0.0496,0.07028 0.1323,0.121956 0.11782,0.07441 0.26665,0.07441 0.28938,0 0.45475,-0.297656 0.16536,-0.299723 0.16536,-0.696598 z"
         style="font-style:normal;font-family:'Courier New';-inkscape-font-specification:'Courier New, Normal'"
         id="path145" />
    </g>
    <g
       aria-label="E"
       id="text42115"
       style="font-style:italic;font-size:4.23333px;line-height:1.25;font-family:'Times New Roman';-inkscape-font-specification:'Times New Roman, Italic';font-variant-ligatures:none;stroke-width:0.264583">
      <path
         d="m 126.93277,80.359679 -0.32039,1.107942 h 0.26252 q 0.28112,0 0.40721,-0.08475 0.12609,-0.08682 0.21704,-0.318326 h 0.0765 l -0.28732,1.016991 h -0.0827 q 0.0372,-0.128157 0.0372,-0.219108 0,-0.08888 -0.0372,-0.142627 -0.0351,-0.05374 -0.0992,-0.07855 -0.062,-0.02687 -0.26459,-0.02687 h -0.26665 l -0.27078,0.928108 q -0.0393,0.134358 -0.0393,0.204638 0,0.05374 0.0517,0.09508 0.0351,0.02894 0.1757,0.02894 h 0.24805 q 0.40307,0 0.64492,-0.142626 0.24391,-0.142627 0.43615,-0.496094 h 0.0765 l -0.26458,0.77928 h -2.16628 l 0.0269,-0.07648 q 0.16123,-0.0041 0.21704,-0.02894 0.0827,-0.03721 0.11989,-0.09508 0.0558,-0.08475 0.1323,-0.355534 l 0.49195,-1.690851 q 0.0579,-0.204639 0.0579,-0.312126 0,-0.07855 -0.0558,-0.121956 -0.0537,-0.04548 -0.2129,-0.04548 h -0.0434 l 0.0248,-0.07648 h 2.01331 l -0.17363,0.675927 h -0.0765 q 0.0145,-0.09508 0.0145,-0.159163 0,-0.109554 -0.0537,-0.183968 -0.0703,-0.09508 -0.20464,-0.144694 -0.0992,-0.03721 -0.45682,-0.03721 z"
         id="path148" />
    </g>
    <path
       style="font-variation-settings:normal;opacity:1;vector-effect:none;fill:none;fill-opacity:1;stroke:#000000;stroke-width:0.141111;stroke-linecap:butt;stroke-linejoin:miter;stroke-miterlimit:4;stroke-dasharray:none;stroke-dashoffset:0;stroke-opacity:1;-inkscape-stroke:none;stop-color:#000000;stop-opacity:1"
       d="M 126.92554,83.926693 V 93.01953"
       id="path42117"
       sodipodi:nodetypes="cc" />
    <path
       style="font-variation-settings:normal;opacity:1;vector-effect:none;fill:none;fill-opacity:1;stroke:#000000;stroke-width:0.141111;stroke-linecap:butt;stroke-linejoin:miter;stroke-miterlimit:4;stroke-dasharray:none;stroke-dashoffset:0;stroke-opacity:1;-inkscape-stroke:none;stop-color:#000000;stop-opacity:1"
       d="m 123.92331,74.706663 2.07066,4.347432"
       id="path42119" />
    <path
       style="font-variation-settings:normal;opacity:1;vector-effect:none;fill:none;fill-opacity:1;stroke:#000000;stroke-width:0.141111;stroke-linecap:butt;stroke-linejoin:miter;stroke-miterlimit:4;stroke-dasharray:none;stroke-dashoffset:0;stroke-opacity:1;-inkscape-stroke:none;stop-color:#000000;stop-opacity:1"
       d="m 122.8679,74.977223 c 0,0 -2.4989,3.212768 -3.37171,6.286569 -0.65327,2.141635 -0.53412,11.755738 -0.53412,11.755738"
       id="path42121"
       sodipodi:nodetypes="ccc" />
    <g
       aria-label="1"
       id="text42125"
       style="font-style:italic;font-size:4.23333px;line-height:1.25;font-family:'Times New Roman';-inkscape-font-specification:'Times New Roman, Italic';font-variant-ligatures:none;stroke-width:0.264583">
      <path
         d="m 127.06457,94.147942 v 2.455662 h 0.59531 q 0.062,0 0.0889,0.02481 0.0269,0.02274 0.0269,0.06201 0,0.03721 -0.0269,0.06201 -0.0269,0.02481 -0.0889,0.02481 h -1.36426 q -0.062,0 -0.0889,-0.02481 -0.0269,-0.0248 -0.0269,-0.06201 0,-0.03927 0.0269,-0.06201 0.0269,-0.02481 0.0889,-0.02481 h 0.59532 v -2.215883 l -0.56638,0.177766 q -0.0413,0.0124 -0.0599,0.0124 -0.031,0 -0.0579,-0.02481 -0.0248,-0.02687 -0.0248,-0.06201 0,-0.031 0.0207,-0.05788 0.0165,-0.01654 0.0682,-0.03514 z"
         style="font-style:normal;font-family:'Courier New';-inkscape-font-specification:'Courier New, Normal'"
         id="path151" />
    </g>
    <g
       aria-label="ε"
       id="text42137"
       style="font-size:4.23333px;line-height:125%;-inkscape-font-specification:'sans-serif, Normal';letter-spacing:0px;word-spacing:0px;stroke-width:0.264583px">
      <path
         d="m 134.82722,81.850414 q -0.40721,-0.144694 -0.40721,-0.438216 0,-0.23151 0.21497,-0.370003 0.21704,-0.138493 0.53743,-0.138493 0.29146,0 0.46302,0.09715 0.17157,0.09508 0.17157,0.229443 0,0.07028 -0.0537,0.124024 -0.0538,0.05168 -0.12403,0.05168 -0.11575,0 -0.19017,-0.16123 -0.10335,-0.223242 -0.31005,-0.223242 -0.1633,0 -0.26872,0.107486 -0.10542,0.107487 -0.10542,0.299724 0,0.378271 0.39067,0.378271 0.0413,0 0.0951,-0.0083 0.093,-0.0124 0.14469,-0.0124 0.12609,0 0.12609,0.07235 0,0.08061 -0.12816,0.08061 -0.0455,0 -0.13642,-0.01447 -0.0682,-0.0124 -0.10542,-0.0124 -0.41341,0 -0.41341,0.421679 0,0.204638 0.10955,0.330729 0.10956,0.124023 0.30593,0.124023 0.24598,0 0.32659,-0.254248 0.0413,-0.134358 0.091,-0.186035 0.0517,-0.05168 0.13643,-0.05168 0.0703,0 0.12609,0.05168 0.0579,0.04961 0.0579,0.128158 0,0.188102 -0.21084,0.312125 -0.21083,0.121956 -0.51056,0.121956 -0.32866,0 -0.58497,-0.157096 -0.25425,-0.157096 -0.25425,-0.419612 0,-0.328662 0.50643,-0.483691 z"
         style="font-family:'Times New Roman';-inkscape-font-specification:'Times New Roman, Normal'"
         id="path154" />
    </g>
    <g
       aria-label="F"
       id="text42141"
       style="font-style:italic;font-size:4.23333px;line-height:1.25;font-family:'Times New Roman';-inkscape-font-specification:'Times New Roman, Italic';font-variant-ligatures:none;stroke-width:0.264583">
      <path
         d="m 135.11454,71.787566 -0.33073,1.110009 h 0.36794 q 0.24805,0 0.37,-0.07648 0.12403,-0.07648 0.25425,-0.326595 h 0.0785 l -0.29146,1.021126 h -0.0827 q 0.031,-0.124024 0.031,-0.204639 0,-0.12609 -0.0847,-0.194303 -0.0827,-0.07028 -0.31213,-0.07028 h -0.37207 l -0.24391,0.845426 q -0.0661,0.225309 -0.0661,0.299723 0,0.07648 0.0558,0.117822 0.0579,0.04134 0.27905,0.05581 l -0.0248,0.07648 h -1.10794 l 0.0269,-0.07648 q 0.16123,-0.0041 0.21498,-0.02894 0.0827,-0.03514 0.12195,-0.09508 0.0558,-0.08475 0.1323,-0.349332 l 0.49402,-1.688785 q 0.0599,-0.204638 0.0599,-0.320393 0,-0.05374 -0.0269,-0.09095 -0.0269,-0.03927 -0.0806,-0.05788 -0.0517,-0.0186 -0.20877,-0.0186 l 0.0248,-0.07648 h 2.17454 l -0.2067,0.709 h -0.0786 q 0.0227,-0.128157 0.0227,-0.210839 0,-0.136426 -0.0765,-0.214974 -0.0744,-0.08062 -0.19224,-0.113688 -0.0827,-0.02067 -0.37,-0.02067 z"
         id="path157" />
    </g>
    <path
       style="font-variation-settings:normal;opacity:1;vector-effect:none;fill:none;fill-opacity:1;stroke:#000000;stroke-width:0.141111;stroke-linecap:butt;stroke-linejoin:miter;stroke-miterlimit:4;stroke-dasharray:none;stroke-dashoffset:0;stroke-opacity:1;-inkscape-stroke:none;stop-color:#000000;stop-opacity:1"
       d="M 135.10111,75.356649 V 79.59081"
       id="path42143" />
    <g
       aria-label="S"
       id="text42631"
       style="font-style:italic;font-size:4.23333px;line-height:1.25;font-family:'Times New Roman';-inkscape-font-specification:'Times New Roman, Italic';font-variant-ligatures:none;stroke-width:0.264583">
      <path
         d="m 116.17815,59.152397 0.23151,-1.039729 h 0.0703 q -0.0145,0.150895 -0.0145,0.250113 0,0.283187 0.17983,0.460954 0.1819,0.177767 0.47336,0.177767 0.27078,0 0.41134,-0.165365 0.14056,-0.167431 0.14056,-0.384472 0,-0.14056 -0.0641,-0.256315 -0.0971,-0.171566 -0.51883,-0.60358 -0.20464,-0.206706 -0.26251,-0.307992 -0.0951,-0.167431 -0.0951,-0.351399 0,-0.293522 0.21911,-0.502295 0.21911,-0.208772 0.56224,-0.208772 0.11575,0 0.21911,0.02274 0.0641,0.0124 0.23357,0.08268 0.11989,0.04754 0.13229,0.05168 0.0289,0.0062 0.0641,0.0062 0.06,0 0.10336,-0.03101 0.0434,-0.03101 0.10128,-0.132291 h 0.0786 l -0.21497,0.930175 h -0.0703 q 0.008,-0.124024 0.008,-0.200505 0,-0.250113 -0.16536,-0.409277 -0.16536,-0.159163 -0.43615,-0.159163 -0.21497,0 -0.34933,0.126091 -0.13436,0.12609 -0.13436,0.291454 0,0.144694 0.0847,0.276986 0.0868,0.130224 0.39481,0.42788 0.31006,0.295589 0.40101,0.463021 0.091,0.165364 0.091,0.353466 0,0.212907 -0.11369,0.413411 -0.11162,0.198438 -0.32246,0.307992 -0.21084,0.109554 -0.46096,0.109554 -0.12402,0 -0.23151,-0.02274 -0.10748,-0.02274 -0.34313,-0.111621 -0.0806,-0.03101 -0.13436,-0.03101 -0.12195,0 -0.19017,0.165365 z"
         id="path160" />
    </g>
    <path
       style="font-variation-settings:normal;opacity:1;vector-effect:none;fill:none;fill-opacity:1;stroke:#000000;stroke-width:0.141111;stroke-linecap:butt;stroke-linejoin:miter;stroke-miterlimit:4;stroke-dasharray:none;stroke-dashoffset:0;stroke-opacity:1;-inkscape-stroke:none;stop-color:#000000;stop-opacity:1"
       d="M 116.32375,60 95.693975,71.059216"
       id="path42666"
       sodipodi:nodetypes="cc" />
    <path
       style="font-variation-settings:normal;opacity:1;vector-effect:none;fill:none;fill-opacity:1;stroke:#000000;stroke-width:0.141111;stroke-linecap:butt;stroke-linejoin:miter;stroke-miterlimit:4;stroke-dasharray:none;stroke-dashoffset:0;stroke-opacity:1;-inkscape-stroke:none;stop-color:#000000;stop-opacity:1"
       d="m 116.83282,60 -7.22465,11.030723"
       id="path42668"
       sodipodi:nodetypes="cc" />
    <path
       style="font-variation-settings:normal;opacity:1;vector-effect:none;fill:none;fill-opacity:1;stroke:#000000;stroke-width:0.141111;stroke-linecap:butt;stroke-linejoin:miter;stroke-miterlimit:4;stroke-dasharray:none;stroke-dashoffset:0;stroke-opacity:1;-inkscape-stroke:none;stop-color:#000000;stop-opacity:1"
       d="m 117.43899,60 6.38407,10.961024"
       id="path42670"
       sodipodi:nodetypes="cc" />
    <path
       style="font-variation-settings:normal;opacity:1;vector-effect:none;fill:none;fill-opacity:1;stroke:#000000;stroke-width:0.141111;stroke-linecap:butt;stroke-linejoin:miter;stroke-miterlimit:4;stroke-dasharray:none;stroke-dashoffset:0;stroke-opacity:1;-inkscape-stroke:none;stop-color:#000000;stop-opacity:1"
       d="m 118.02001,60 16.91844,11.074824"
       id="path42672"
       sodipodi:nodetypes="cc" />
  </g>
</svg>
