<?xml version="1.0" encoding="UTF-8" standalone="no"?>
<!-- Created with Inkscape (http://www.inkscape.org/) -->

<svg
   width="104.81935pt"
   height="108.35465pt"
   viewBox="0 0 36.977938 38.225113"
   version="1.1"
   id="svg8"
   inkscape:version="1.1.2 (0a00cf5339, 2022-02-04)"
   sodipodi:docname="book1_16a.svg"
   inkscape:export-filename="/home/srt/classes/452/tex/final_pda.png"
   inkscape:export-xdpi="118.92"
   inkscape:export-ydpi="118.92"
   xmlns:inkscape="http://www.inkscape.org/namespaces/inkscape"
   xmlns:sodipodi="http://sodipodi.sourceforge.net/DTD/sodipodi-0.dtd"
   xmlns="http://www.w3.org/2000/svg"
   xmlns:svg="http://www.w3.org/2000/svg"
   xmlns:rdf="http://www.w3.org/1999/02/22-rdf-syntax-ns#"
   xmlns:cc="http://creativecommons.org/ns#"
   xmlns:dc="http://purl.org/dc/elements/1.1/">
  <defs
     id="defs2">
    <marker
       inkscape:stockid="Arrow1Lend"
       orient="auto"
       refY="0"
       refX="0"
       id="marker3736"
       style="overflow:visible"
       inkscape:isstock="true">
      <path
         id="path3734"
         d="M 0,0 5,-5 -12.5,0 5,5 Z"
         style="fill:#000000;fill-opacity:1;fill-rule:evenodd;stroke:#000000;stroke-width:1pt;stroke-opacity:1"
         transform="matrix(-0.8,0,0,-0.8,-10,0)"
         inkscape:connector-curvature="0" />
    </marker>
    <inkscape:path-effect
       effect="spiro"
       id="path-effect3726"
       is_visible="true"
       lpeversion="0" />
    <marker
       inkscape:isstock="true"
       style="overflow:visible"
       id="marker2300"
       refX="0"
       refY="0"
       orient="auto"
       inkscape:stockid="Arrow1Lend">
      <path
         inkscape:connector-curvature="0"
         transform="matrix(-0.8,0,0,-0.8,-10,0)"
         style="fill:#060606;fill-opacity:1;fill-rule:evenodd;stroke:#060606;stroke-width:1pt;stroke-opacity:1"
         d="M 0,0 5,-5 -12.5,0 5,5 Z"
         id="path2298" />
    </marker>
    <inkscape:path-effect
       effect="spiro"
       id="path-effect2290"
       is_visible="true"
       lpeversion="0" />
    <inkscape:path-effect
       effect="spiro"
       id="path-effect2286"
       is_visible="true"
       lpeversion="0" />
    <marker
       inkscape:stockid="Arrow1Lend"
       orient="auto"
       refY="0"
       refX="0"
       id="marker6028"
       style="overflow:visible"
       inkscape:isstock="true">
      <path
         id="path6026"
         d="M 0,0 5,-5 -12.5,0 5,5 Z"
         style="fill:#000000;fill-opacity:1;fill-rule:evenodd;stroke:#000000;stroke-width:1pt;stroke-opacity:1"
         transform="matrix(-0.8,0,0,-0.8,-10,0)"
         inkscape:connector-curvature="0" />
    </marker>
    <marker
       inkscape:isstock="true"
       style="overflow:visible"
       id="marker3669"
       refX="0"
       refY="0"
       orient="auto"
       inkscape:stockid="Arrow1Lend">
      <path
         transform="matrix(-0.8,0,0,-0.8,-10,0)"
         style="fill:#000000;fill-opacity:1;fill-rule:evenodd;stroke:#000000;stroke-width:1pt;stroke-opacity:1"
         d="M 0,0 5,-5 -12.5,0 5,5 Z"
         id="path3667"
         inkscape:connector-curvature="0" />
    </marker>
    <marker
       inkscape:isstock="true"
       style="overflow:visible"
       id="marker3111"
       refX="0"
       refY="0"
       orient="auto"
       inkscape:stockid="Arrow1Lend">
      <path
         transform="matrix(-0.8,0,0,-0.8,-10,0)"
         style="fill:#000000;fill-opacity:1;fill-rule:evenodd;stroke:#000000;stroke-width:1pt;stroke-opacity:1"
         d="M 0,0 5,-5 -12.5,0 5,5 Z"
         id="path3109"
         inkscape:connector-curvature="0" />
    </marker>
    <marker
       inkscape:stockid="Arrow1Mend"
       orient="auto"
       refY="0"
       refX="0"
       id="marker1546"
       style="overflow:visible"
       inkscape:isstock="true">
      <path
         id="path1544"
         d="M 0,0 5,-5 -12.5,0 5,5 Z"
         style="fill:#000000;fill-opacity:1;fill-rule:evenodd;stroke:#000000;stroke-width:1pt;stroke-opacity:1"
         transform="matrix(-0.4,0,0,-0.4,-4,0)"
         inkscape:connector-curvature="0" />
    </marker>
    <marker
       inkscape:isstock="true"
       style="overflow:visible"
       id="marker3691"
       refX="0"
       refY="0"
       orient="auto"
       inkscape:stockid="Arrow1Mstart">
      <path
         transform="matrix(0.4,0,0,0.4,4,0)"
         style="fill:#000000;fill-opacity:1;fill-rule:evenodd;stroke:#000000;stroke-width:1pt;stroke-opacity:1"
         d="M 0,0 5,-5 -12.5,0 5,5 Z"
         id="path3689"
         inkscape:connector-curvature="0" />
    </marker>
    <marker
       inkscape:stockid="Arrow1Mend"
       orient="auto"
       refY="0"
       refX="0"
       id="marker3231"
       style="overflow:visible"
       inkscape:isstock="true">
      <path
         id="path3229"
         d="M 0,0 5,-5 -12.5,0 5,5 Z"
         style="fill:#000000;fill-opacity:1;fill-rule:evenodd;stroke:#000000;stroke-width:1pt;stroke-opacity:1"
         transform="matrix(-0.4,0,0,-0.4,-4,0)"
         inkscape:connector-curvature="0" />
    </marker>
    <marker
       inkscape:isstock="true"
       style="overflow:visible"
       id="marker2864"
       refX="0"
       refY="0"
       orient="auto"
       inkscape:stockid="Arrow1Mend">
      <path
         transform="matrix(-0.4,0,0,-0.4,-4,0)"
         style="fill:#000000;fill-opacity:1;fill-rule:evenodd;stroke:#000000;stroke-width:1pt;stroke-opacity:1"
         d="M 0,0 5,-5 -12.5,0 5,5 Z"
         id="path2862"
         inkscape:connector-curvature="0" />
    </marker>
    <marker
       inkscape:isstock="true"
       style="overflow:visible"
       id="marker2598"
       refX="0"
       refY="0"
       orient="auto"
       inkscape:stockid="Arrow1Mend">
      <path
         transform="matrix(-0.4,0,0,-0.4,-4,0)"
         style="fill:#000000;fill-opacity:1;fill-rule:evenodd;stroke:#000000;stroke-width:1pt;stroke-opacity:1"
         d="M 0,0 5,-5 -12.5,0 5,5 Z"
         id="path2596"
         inkscape:connector-curvature="0" />
    </marker>
    <marker
       inkscape:isstock="true"
       style="overflow:visible"
       id="marker2922-2"
       refX="0"
       refY="0"
       orient="auto"
       inkscape:stockid="Arrow1Mstart">
      <path
         inkscape:connector-curvature="0"
         transform="matrix(0.4,0,0,0.4,4,0)"
         style="fill:#000000;fill-opacity:1;fill-rule:evenodd;stroke:#000000;stroke-width:1pt;stroke-opacity:1"
         d="M 0,0 5,-5 -12.5,0 5,5 Z"
         id="path2920-2" />
    </marker>
    <marker
       inkscape:isstock="true"
       style="overflow:visible"
       id="marker3669-7"
       refX="0"
       refY="0"
       orient="auto"
       inkscape:stockid="Arrow1Lend">
      <path
         inkscape:connector-curvature="0"
         transform="matrix(-0.8,0,0,-0.8,-10,0)"
         style="fill:#000000;fill-opacity:1;fill-rule:evenodd;stroke:#000000;stroke-width:1pt;stroke-opacity:1"
         d="M 0,0 5,-5 -12.5,0 5,5 Z"
         id="path3667-3" />
    </marker>
    <marker
       inkscape:isstock="true"
       style="overflow:visible"
       id="marker2300-8"
       refX="0"
       refY="0"
       orient="auto"
       inkscape:stockid="Arrow1Lend">
      <path
         inkscape:connector-curvature="0"
         transform="matrix(-0.8,0,0,-0.8,-10,0)"
         style="fill:#060606;fill-opacity:1;fill-rule:evenodd;stroke:#060606;stroke-width:1pt;stroke-opacity:1"
         d="M 0,0 5,-5 -12.5,0 5,5 Z"
         id="path2298-8" />
    </marker>
    <inkscape:path-effect
       effect="spiro"
       id="path-effect2290-6"
       is_visible="true"
       lpeversion="0" />
    <marker
       inkscape:isstock="true"
       style="overflow:visible"
       id="marker2406-7"
       refX="0"
       refY="0"
       orient="auto"
       inkscape:stockid="Arrow1Lend">
      <path
         inkscape:connector-curvature="0"
         transform="matrix(-0.8,0,0,-0.8,-10,0)"
         style="fill:#060606;fill-opacity:1;fill-rule:evenodd;stroke:#060606;stroke-width:1pt;stroke-opacity:1"
         d="M 0,0 5,-5 -12.5,0 5,5 Z"
         id="path2404-7" />
    </marker>
    <inkscape:path-effect
       effect="spiro"
       id="path-effect2286-4"
       is_visible="true"
       lpeversion="0" />
    <marker
       inkscape:stockid="Arrow1Lend"
       orient="auto"
       refY="0"
       refX="0"
       id="marker3736-3"
       style="overflow:visible"
       inkscape:isstock="true">
      <path
         id="path3734-8"
         d="M 0,0 5,-5 -12.5,0 5,5 Z"
         style="fill:#000000;fill-opacity:1;fill-rule:evenodd;stroke:#000000;stroke-width:1pt;stroke-opacity:1"
         transform="matrix(-0.8,0,0,-0.8,-10,0)"
         inkscape:connector-curvature="0" />
    </marker>
    <marker
       inkscape:stockid="Arrow1Lend"
       orient="auto"
       refY="0"
       refX="0"
       id="marker15037"
       style="overflow:visible"
       inkscape:isstock="true">
      <path
         id="path15035"
         d="M 0,0 5,-5 -12.5,0 5,5 Z"
         style="fill:#000000;fill-opacity:1;fill-rule:evenodd;stroke:#000000;stroke-width:1pt;stroke-opacity:1"
         transform="matrix(-0.8,0,0,-0.8,-10,0)"
         inkscape:connector-curvature="0" />
    </marker>
  </defs>
  <sodipodi:namedview
     id="base"
     pagecolor="#ffffff"
     bordercolor="#666666"
     borderopacity="1.0"
     inkscape:pageopacity="0.0"
     inkscape:pageshadow="2"
     inkscape:zoom="5.8953698"
     inkscape:cx="74.465218"
     inkscape:cy="72.260098"
     inkscape:document-units="mm"
     inkscape:current-layer="layer1"
     showgrid="false"
     inkscape:window-width="1920"
     inkscape:window-height="1022"
     inkscape:window-x="0"
     inkscape:window-y="0"
     inkscape:window-maximized="1"
     fit-margin-top="1"
     fit-margin-left="1"
     fit-margin-right="1"
     fit-margin-bottom="1"
     units="pt"
     inkscape:pagecheckerboard="0"
     lock-margins="true" />
  <metadata
     id="metadata5">
    <rdf:RDF>
      <cc:Work
         rdf:about="">
        <dc:format>image/svg+xml</dc:format>
        <dc:type
           rdf:resource="http://purl.org/dc/dcmitype/StillImage" />
      </cc:Work>
    </rdf:RDF>
  </metadata>
  <g
     inkscape:groupmode="layer"
     id="layer2"
     inkscape:label="arcs"
     transform="translate(-32.740497,-28.138248)">
    <g
       id="text1350"
       style="font-size:3.52778px;line-height:125%;-inkscape-font-specification:'sans-serif, Normal';text-align:center;letter-spacing:0px;word-spacing:0px;text-anchor:middle;stroke-width:0.264583px" />
    <g
       aria-label="a"
       transform="rotate(-0.51795775)"
       id="text1983-3-9-3"
       style="font-size:4.23333px;line-height:125%;font-family:'Courier New';-inkscape-font-specification:'Courier New, Normal';letter-spacing:0px;word-spacing:0px;stroke-width:0.264583px">
      <path
         d="M 52.312667,39.790169 V 39.58174 q -0.315226,0.265273 -0.673516,0.265273 -0.260105,0 -0.406522,-0.130914 -0.146417,-0.132636 -0.146417,-0.323839 0,-0.210151 0.192926,-0.366903 0.192925,-0.156752 0.563273,-0.156752 0.09991,0 0.217041,0.01378 0.117134,0.01206 0.253215,0.03962 v -0.234267 q 0,-0.118855 -0.110243,-0.206705 -0.110243,-0.08785 -0.330729,-0.08785 -0.16881,0 -0.473701,0.09818 -0.05512,0.01723 -0.07062,0.01723 -0.02756,0 -0.04823,-0.02067 -0.01895,-0.02067 -0.01895,-0.05168 0,-0.02928 0.01722,-0.04651 0.02412,-0.02584 0.194648,-0.07062 0.268718,-0.07235 0.406522,-0.07235 0.273885,0 0.427192,0.136081 0.153307,0.134359 0.153307,0.304891 v 0.957738 h 0.192925 q 0.0534,0 0.07579,0.02067 0.02239,0.01895 0.02239,0.05168 0,0.03101 -0.02239,0.05168 -0.02239,0.02067 -0.07579,0.02067 z m 0,-0.720026 q -0.10163,-0.02928 -0.215319,-0.04306 -0.113688,-0.01378 -0.239434,-0.01378 -0.315226,0 -0.492649,0.136082 -0.134359,0.10163 -0.134359,0.242879 0,0.130914 0.101631,0.220486 0.103353,0.08957 0.299723,0.08957 0.187758,0 0.347955,-0.07407 0.16192,-0.07579 0.332452,-0.239434 z"
         style="font-size:3.52778px"
         id="path99" />
    </g>
    <g
       aria-label="a,b"
       id="text1983-1-4-0-5"
       style="font-size:4.23333px;line-height:125%;font-family:'Courier New';-inkscape-font-specification:'Courier New, Normal';letter-spacing:0px;word-spacing:0px;stroke-width:0.264583px">
      <path
         d="m 64.080447,30.652824 v -0.208428 q -0.315226,0.265273 -0.673516,0.265273 -0.260105,0 -0.406522,-0.130914 -0.146416,-0.132636 -0.146416,-0.323839 0,-0.210151 0.192925,-0.366903 0.192926,-0.156752 0.563274,-0.156752 0.09991,0 0.217041,0.01378 0.117133,0.01206 0.253214,0.03962 v -0.234267 q 0,-0.118856 -0.110243,-0.206706 -0.110243,-0.08785 -0.330729,-0.08785 -0.16881,0 -0.473701,0.09819 -0.05512,0.01722 -0.07062,0.01722 -0.02756,0 -0.04823,-0.02067 -0.01895,-0.02067 -0.01895,-0.05168 0,-0.02928 0.01723,-0.04651 0.02412,-0.02584 0.194648,-0.07062 0.268717,-0.07235 0.406521,-0.07235 0.273885,0 0.427192,0.136081 0.153307,0.134359 0.153307,0.304891 v 0.957737 h 0.192926 q 0.0534,0 0.07579,0.02067 0.02239,0.01895 0.02239,0.05168 0,0.03101 -0.02239,0.05168 -0.02239,0.02067 -0.07579,0.02067 z m 0,-0.720025 q -0.10163,-0.02928 -0.215318,-0.04306 -0.113688,-0.01378 -0.239434,-0.01378 -0.315227,0 -0.492649,0.136081 -0.134359,0.101631 -0.134359,0.24288 0,0.130913 0.10163,0.220486 0.103353,0.08957 0.299724,0.08957 0.187757,0 0.347954,-0.07407 0.16192,-0.07579 0.332452,-0.239434 z"
         style="font-size:3.52778px"
         id="path102" />
      <path
         d="m 65.029572,30.465067 v -0.187758 h 0.184313 0.18259 v 0.313504 q 0,0.266995 -0.0844,0.399631 -0.08441,0.134359 -0.282498,0.18259 v 0 -0.163642 0 q 0.10852,-0.01895 0.149862,-0.120578 0.03273,-0.07751 0.03962,-0.23599 h -0.0052 -0.184313 z"
         style="font-family:Helvetica;-inkscape-font-specification:Helvetica"
         id="path104" />
      <path
         d="m 66.216408,28.491026 v 0.959459 q 0.261827,-0.341064 0.632175,-0.341064 0.316949,0 0.542603,0.230821 0.225654,0.229099 0.225654,0.563274 0,0.337619 -0.229099,0.571886 -0.227376,0.234267 -0.539158,0.234267 -0.37896,0 -0.632175,-0.341065 v 0.28422 h -0.339342 q -0.05168,0 -0.07407,-0.02067 -0.02239,-0.02067 -0.02239,-0.05168 0,-0.03273 0.02239,-0.05168 0.02239,-0.02067 0.07407,-0.02067 h 0.194648 v -1.870688 h -0.194648 q -0.05168,0 -0.07407,-0.02067 -0.02239,-0.02067 -0.02239,-0.0534 0,-0.03101 0.02239,-0.05168 0.02239,-0.02067 0.07407,-0.02067 z m 1.255738,1.41938 q 0,-0.273885 -0.187758,-0.463366 -0.187758,-0.191203 -0.43925,-0.191203 -0.251492,0 -0.43925,0.191203 -0.187758,0.189481 -0.187758,0.463366 0,0.273885 0.187758,0.465088 0.187758,0.18948 0.43925,0.18948 0.251492,0 0.43925,-0.18948 0.187758,-0.191203 0.187758,-0.465088 z"
         style="font-size:3.52778px"
         id="path106" />
    </g>
    <path
       style="font-variation-settings:normal;fill:none;fill-opacity:1;stroke:#000000;stroke-width:0.14;stroke-linecap:butt;stroke-linejoin:miter;stroke-miterlimit:4;stroke-dasharray:none;stroke-dashoffset:0;stroke-opacity:1;marker-end:url(#marker3736-3);stop-color:#000000"
       d="m 40.959006,63.382963 c 0,0 -3.256067,-7.40601 -3.264219,-10.69511 -0.0082,-3.2891 1.330967,-7.0386 1.583955,-7.58475 0.254387,-0.53976 0.553952,-1.14805 0.553952,-1.14805"
       id="path14664"
       sodipodi:nodetypes="czcc" />
    <path
       style="font-variation-settings:normal;fill:none;fill-opacity:1;stroke:#000000;stroke-width:0.14;stroke-linecap:butt;stroke-linejoin:miter;stroke-miterlimit:4;stroke-dasharray:none;stroke-dashoffset:0;stroke-opacity:1;marker-end:url(#marker3736-3);stop-color:#000000"
       d="m 63.695983,37.631314 c 0,0 -1.357132,-1.75876 -1.284545,-3.65561 0.07259,-1.89684 1.4388,-2.5298 2.963956,-2.54177 1.525156,-0.012 2.811721,1.47067 2.566917,2.7505 -0.265922,0.77609 -0.713057,2.06795 -0.713057,2.06795"
       id="path14666"
       sodipodi:nodetypes="czzcc" />
    <path
       style="font-variation-settings:normal;fill:none;fill-opacity:1;stroke:#000000;stroke-width:0.14;stroke-linecap:butt;stroke-linejoin:miter;stroke-miterlimit:4;stroke-dasharray:none;stroke-dashoffset:0;stroke-opacity:1;marker-end:url(#marker3736-3);stop-color:#000000"
       d="m 42.21814,39.176748 c 0,0 3.256067,7.40601 3.264219,10.69511 0.0082,3.2891 -1.330967,7.0386 -1.583955,7.58475 -0.254387,0.53976 -0.553952,1.14805 -0.553952,1.14805"
       id="path44499"
       sodipodi:nodetypes="czcc" />
    <path
       style="font-variation-settings:normal;opacity:1;fill:none;fill-opacity:1;stroke:#000000;stroke-width:0.141111;stroke-linecap:butt;stroke-linejoin:miter;stroke-miterlimit:4;stroke-dasharray:none;stroke-dashoffset:0;stroke-opacity:1;marker-end:url(#marker3736);stop-color:#000000;stop-opacity:1"
       d="M 44.747067,40.03273 H 61.209976"
       id="path44534" />
    <path
       style="font-variation-settings:normal;fill:none;fill-opacity:1;stroke:#000000;stroke-width:0.14;stroke-linecap:butt;stroke-linejoin:miter;stroke-miterlimit:4;stroke-dasharray:none;stroke-dashoffset:0;stroke-opacity:1;marker-end:url(#marker3736-3);stop-color:#000000"
       d="m 63.622896,59.726697 c 0,0 -1.357132,-1.75876 -1.284545,-3.65561 0.07259,-1.89684 1.4388,-2.5298 2.963956,-2.54177 1.525156,-0.012 2.811721,1.47067 2.566917,2.7505 -0.265922,0.77609 -0.713057,2.06795 -0.713057,2.06795"
       id="path44649"
       sodipodi:nodetypes="czzcc" />
    <path
       style="font-variation-settings:normal;opacity:1;fill:none;fill-opacity:1;stroke:#000000;stroke-width:0.141111;stroke-linecap:butt;stroke-linejoin:miter;stroke-miterlimit:4;stroke-dasharray:none;stroke-dashoffset:0;stroke-opacity:1;marker-end:url(#marker3736);stop-color:#000000;stop-opacity:1"
       d="M 44.747067,62.107662 H 61.209976"
       id="path44764" />
    <g
       aria-label="b"
       transform="rotate(-0.51795775)"
       id="text54208"
       style="font-size:4.23333px;line-height:125%;font-family:'Courier New';-inkscape-font-specification:'Courier New, Normal';letter-spacing:0px;word-spacing:0px;stroke-width:0.264583px">
      <path
         d="m 35.431048,52.467798 v 0.95946 q 0.261827,-0.341065 0.632175,-0.341065 0.316949,0 0.542603,0.230821 0.225654,0.229099 0.225654,0.563274 0,0.33762 -0.229099,0.571886 -0.227376,0.234267 -0.539158,0.234267 -0.37896,0 -0.632175,-0.341065 v 0.284221 h -0.339342 q -0.05168,0 -0.07407,-0.02067 -0.02239,-0.02067 -0.02239,-0.05168 0,-0.03273 0.02239,-0.05168 0.02239,-0.02067 0.07407,-0.02067 h 0.194648 v -1.870688 h -0.194648 q -0.05168,0 -0.07407,-0.02067 -0.02239,-0.02067 -0.02239,-0.0534 0,-0.03101 0.02239,-0.05168 0.02239,-0.02067 0.07407,-0.02067 z m 1.255738,1.41938 q 0,-0.273885 -0.187758,-0.463365 -0.187758,-0.191203 -0.43925,-0.191203 -0.251492,0 -0.43925,0.191203 -0.187757,0.18948 -0.187757,0.463365 0,0.273885 0.187757,0.465088 0.187758,0.189481 0.43925,0.189481 0.251492,0 0.43925,-0.189481 0.187758,-0.191203 0.187758,-0.465088 z"
         style="font-size:3.52778px"
         id="path109" />
    </g>
    <g
       aria-label="a,b"
       id="text60284"
       style="font-size:4.23333px;line-height:125%;font-family:'Courier New';-inkscape-font-specification:'Courier New, Normal';letter-spacing:0px;word-spacing:0px;stroke-width:0.264583px">
      <path
         d="m 64.080447,52.764446 v -0.208428 q -0.315226,0.265272 -0.673516,0.265272 -0.260105,0 -0.406522,-0.130913 -0.146416,-0.132637 -0.146416,-0.32384 0,-0.21015 0.192925,-0.366902 0.192926,-0.156752 0.563274,-0.156752 0.09991,0 0.217041,0.01378 0.117133,0.01206 0.253214,0.03962 v -0.234267 q 0,-0.118856 -0.110243,-0.206706 -0.110243,-0.08785 -0.330729,-0.08785 -0.16881,0 -0.473701,0.09819 -0.05512,0.01723 -0.07062,0.01723 -0.02756,0 -0.04823,-0.02067 -0.01895,-0.02067 -0.01895,-0.05168 0,-0.02928 0.01723,-0.04651 0.02412,-0.02584 0.194648,-0.07062 0.268717,-0.07235 0.406521,-0.07235 0.273885,0 0.427192,0.136082 0.153307,0.134359 0.153307,0.304891 v 0.957737 h 0.192926 q 0.0534,0 0.07579,0.02067 0.02239,0.01895 0.02239,0.05168 0,0.03101 -0.02239,0.05168 -0.02239,0.02067 -0.07579,0.02067 z m 0,-0.720025 q -0.10163,-0.02928 -0.215318,-0.04306 -0.113688,-0.01378 -0.239434,-0.01378 -0.315227,0 -0.492649,0.136081 -0.134359,0.10163 -0.134359,0.242879 0,0.130914 0.10163,0.220487 0.103353,0.08957 0.299724,0.08957 0.187757,0 0.347954,-0.07407 0.16192,-0.07579 0.332452,-0.239435 z"
         style="font-size:3.52778px"
         id="path112" />
      <path
         d="m 65.029572,52.576688 v -0.187757 h 0.184313 0.18259 v 0.313503 q 0,0.266996 -0.0844,0.399632 -0.08441,0.134359 -0.282498,0.18259 v 0 -0.163642 0 q 0.10852,-0.01895 0.149862,-0.120579 0.03273,-0.07751 0.03962,-0.235989 h -0.0052 -0.184313 z"
         style="font-family:Helvetica;-inkscape-font-specification:Helvetica"
         id="path114" />
      <path
         d="m 66.216408,50.602647 v 0.95946 q 0.261827,-0.341065 0.632175,-0.341065 0.316949,0 0.542603,0.230822 0.225654,0.229099 0.225654,0.563274 0,0.337619 -0.229099,0.571886 -0.227376,0.234266 -0.539158,0.234266 -0.37896,0 -0.632175,-0.341064 v 0.28422 h -0.339342 q -0.05168,0 -0.07407,-0.02067 -0.02239,-0.02067 -0.02239,-0.05168 0,-0.03273 0.02239,-0.05168 0.02239,-0.02067 0.07407,-0.02067 h 0.194648 v -1.870688 h -0.194648 q -0.05168,0 -0.07407,-0.02067 -0.02239,-0.02067 -0.02239,-0.0534 0,-0.03101 0.02239,-0.05168 0.02239,-0.02067 0.07407,-0.02067 z m 1.255738,1.419381 q 0,-0.273886 -0.187758,-0.463366 -0.187758,-0.191203 -0.43925,-0.191203 -0.251492,0 -0.43925,0.191203 -0.187758,0.18948 -0.187758,0.463366 0,0.273885 0.187758,0.465088 0.187758,0.18948 0.43925,0.18948 0.251492,0 0.43925,-0.18948 0.187758,-0.191203 0.187758,-0.465088 z"
         style="font-size:3.52778px"
         id="path116" />
    </g>
    <g
       aria-label="a"
       transform="rotate(-0.51795775)"
       id="text60290"
       style="font-size:4.23333px;line-height:125%;font-family:'Courier New';-inkscape-font-specification:'Courier New, Normal';letter-spacing:0px;word-spacing:0px;stroke-width:0.264583px">
      <path
         d="M 52.312667,39.790169 V 39.58174 q -0.315226,0.265273 -0.673516,0.265273 -0.260105,0 -0.406522,-0.130914 -0.146417,-0.132636 -0.146417,-0.323839 0,-0.210151 0.192926,-0.366903 0.192925,-0.156752 0.563273,-0.156752 0.09991,0 0.217041,0.01378 0.117134,0.01206 0.253215,0.03962 v -0.234267 q 0,-0.118855 -0.110243,-0.206705 -0.110243,-0.08785 -0.330729,-0.08785 -0.16881,0 -0.473701,0.09818 -0.05512,0.01723 -0.07062,0.01723 -0.02756,0 -0.04823,-0.02067 -0.01895,-0.02067 -0.01895,-0.05168 0,-0.02928 0.01722,-0.04651 0.02412,-0.02584 0.194648,-0.07062 0.268718,-0.07235 0.406522,-0.07235 0.273885,0 0.427192,0.136081 0.153307,0.134359 0.153307,0.304891 v 0.957738 h 0.192925 q 0.0534,0 0.07579,0.02067 0.02239,0.01895 0.02239,0.05168 0,0.03101 -0.02239,0.05168 -0.02239,0.02067 -0.07579,0.02067 z m 0,-0.720026 q -0.10163,-0.02928 -0.215319,-0.04306 -0.113688,-0.01378 -0.239434,-0.01378 -0.315226,0 -0.492649,0.136082 -0.134359,0.10163 -0.134359,0.242879 0,0.130914 0.101631,0.220486 0.103353,0.08957 0.299723,0.08957 0.187758,0 0.347955,-0.07407 0.16192,-0.07579 0.332452,-0.239434 z"
         style="font-size:3.52778px"
         id="path119" />
    </g>
    <g
       aria-label="a"
       transform="rotate(-0.51795775)"
       id="text60296"
       style="font-size:4.23333px;line-height:125%;font-family:'Courier New';-inkscape-font-specification:'Courier New, Normal';letter-spacing:0px;word-spacing:0px;stroke-width:0.264583px">
      <path
         d="m 52.111736,62.016357 v -0.208428 q -0.315227,0.265273 -0.673517,0.265273 -0.260105,0 -0.406522,-0.130914 -0.146416,-0.132636 -0.146416,-0.323839 0,-0.210151 0.192925,-0.366903 0.192926,-0.156752 0.563274,-0.156752 0.09991,0 0.217041,0.01378 0.117133,0.01206 0.253215,0.03962 v -0.234267 q 0,-0.118856 -0.110244,-0.206706 -0.110243,-0.08785 -0.330729,-0.08785 -0.16881,0 -0.473701,0.09819 -0.05512,0.01722 -0.07062,0.01722 -0.02756,0 -0.04823,-0.02067 -0.01895,-0.02067 -0.01895,-0.05168 0,-0.02928 0.01723,-0.04651 0.02412,-0.02584 0.194648,-0.07062 0.268717,-0.07235 0.406521,-0.07235 0.273886,0 0.427192,0.136081 0.153307,0.134359 0.153307,0.304891 v 0.957737 h 0.192926 q 0.0534,0 0.07579,0.02067 0.02239,0.01895 0.02239,0.05168 0,0.03101 -0.02239,0.05168 -0.02239,0.02067 -0.07579,0.02067 z m 0,-0.720025 q -0.101631,-0.02928 -0.215319,-0.04306 -0.113688,-0.01378 -0.239434,-0.01378 -0.315227,0 -0.492649,0.136081 -0.134359,0.101631 -0.134359,0.24288 0,0.130913 0.10163,0.220486 0.103353,0.08957 0.299724,0.08957 0.187758,0 0.347955,-0.07407 0.161919,-0.07579 0.332452,-0.239434 z"
         style="font-size:3.52778px"
         id="path122" />
    </g>
    <g
       aria-label="b"
       transform="rotate(-0.51795775)"
       id="text60302"
       style="font-size:4.23333px;line-height:125%;font-family:'Courier New';-inkscape-font-specification:'Courier New, Normal';letter-spacing:0px;word-spacing:0px;stroke-width:0.264583px">
      <path
         d="m 35.431048,52.467798 v 0.95946 q 0.261827,-0.341065 0.632175,-0.341065 0.316949,0 0.542603,0.230821 0.225654,0.229099 0.225654,0.563274 0,0.33762 -0.229099,0.571886 -0.227376,0.234267 -0.539158,0.234267 -0.37896,0 -0.632175,-0.341065 v 0.284221 h -0.339342 q -0.05168,0 -0.07407,-0.02067 -0.02239,-0.02067 -0.02239,-0.05168 0,-0.03273 0.02239,-0.05168 0.02239,-0.02067 0.07407,-0.02067 h 0.194648 v -1.870688 h -0.194648 q -0.05168,0 -0.07407,-0.02067 -0.02239,-0.02067 -0.02239,-0.0534 0,-0.03101 0.02239,-0.05168 0.02239,-0.02067 0.07407,-0.02067 z m 1.255738,1.41938 q 0,-0.273885 -0.187758,-0.463365 -0.187758,-0.191203 -0.43925,-0.191203 -0.251492,0 -0.43925,0.191203 -0.187757,0.18948 -0.187757,0.463365 0,0.273885 0.187757,0.465088 0.187758,0.189481 0.43925,0.189481 0.251492,0 0.43925,-0.189481 0.187758,-0.191203 0.187758,-0.465088 z"
         style="font-size:3.52778px"
         id="path125" />
    </g>
    <g
       aria-label="b"
       transform="rotate(-0.51795775)"
       id="text60308"
       style="font-size:4.23333px;line-height:125%;font-family:'Courier New';-inkscape-font-specification:'Courier New, Normal';letter-spacing:0px;word-spacing:0px;stroke-width:0.264583px">
      <path
         d="m 45.86555,47.372244 v 0.959459 q 0.261827,-0.341064 0.632175,-0.341064 0.316949,0 0.542603,0.230821 0.225654,0.229099 0.225654,0.563274 0,0.337619 -0.229099,0.571886 -0.227377,0.234266 -0.539158,0.234266 -0.378961,0 -0.632175,-0.341064 v 0.28422 h -0.339342 q -0.05168,0 -0.07407,-0.02067 -0.02239,-0.02067 -0.02239,-0.05168 0,-0.03273 0.02239,-0.05168 0.02239,-0.02067 0.07407,-0.02067 h 0.194648 V 47.51866 h -0.194648 q -0.05168,0 -0.07407,-0.02067 -0.02239,-0.02067 -0.02239,-0.0534 0,-0.03101 0.02239,-0.05168 0.02239,-0.02067 0.07407,-0.02067 z m 1.255738,1.41938 q 0,-0.273885 -0.187758,-0.463366 -0.187758,-0.191203 -0.43925,-0.191203 -0.251492,0 -0.43925,0.191203 -0.187758,0.189481 -0.187758,0.463366 0,0.273885 0.187758,0.465088 0.187758,0.18948 0.43925,0.18948 0.251492,0 0.43925,-0.18948 0.187758,-0.191203 0.187758,-0.465088 z"
         style="font-size:3.52778px"
         id="path128" />
    </g>
  </g>
  <g
     inkscape:label="Layer 1"
     inkscape:groupmode="layer"
     id="layer1"
     transform="translate(-32.740497,-28.138248)">
    <g
       id="g4492"
       transform="translate(6.783963,-4.4184113)" />
    <g
       id="g32297"
       transform="translate(10.642916,0.04701261)">
      <path
         id="path825-6"
         style="fill:#d9d9d9;stroke:#000000;stroke-width:0.176389"
         d="m 58.634546,39.985718 a 3.8805556,3.8805556 0 0 1 -3.880556,3.880555 3.8805556,3.8805556 0 0 1 -3.880555,-3.880555 3.8805556,3.8805556 0 0 1 3.880555,-3.880556 3.8805556,3.8805556 0 0 1 3.880556,3.880556 z" />
      <path
         id="path825-7-5"
         style="fill:none;stroke:#000000;stroke-width:0.176389"
         d="m 57.92899,39.985718 a 3.175,3.175 0 0 1 -3.175,3.175 3.175,3.175 0 0 1 -3.175,-3.175 3.175,3.175 0 0 1 3.175,-3.175 3.175,3.175 0 0 1 3.175,3.175 z" />
      <g
         aria-label="{1,2}"
         id="text10575"
         style="font-size:6.35px;line-height:1.25;font-family:Helvetica;-inkscape-font-specification:'Helvetica, Normal';font-variant-ligatures:none;stroke-width:0.264583">
        <path
           d="m 52.745061,41.32485 v 0.04823 q -0.230132,-0.03169 -0.374826,-0.187413 -0.143316,-0.15434 -0.143316,-0.343131 0,-0.09922 0.03169,-0.230133 0.03169,-0.132291 0.03169,-0.205327 0,-0.09922 -0.08406,-0.184657 -0.08268,-0.08682 -0.230132,-0.106109 v -0.0565 q 0.14745,-0.01929 0.230132,-0.104731 0.08406,-0.08544 0.08406,-0.186035 0,-0.07304 -0.03169,-0.20395 -0.03169,-0.130913 -0.03169,-0.23151 0,-0.187413 0.143316,-0.343131 0.144694,-0.155719 0.374826,-0.186035 v 0.04823 q -0.16123,0.03858 -0.237022,0.126779 -0.07441,0.08682 -0.07441,0.191548 0,0.0813 0.03032,0.214973 0.03169,0.132292 0.03169,0.225998 0,0.139182 -0.101975,0.270096 -0.101975,0.130913 -0.304546,0.202571 0.198437,0.07304 0.30179,0.206706 0.104731,0.133669 0.104731,0.272851 0,0.09371 -0.03169,0.225998 -0.03032,0.13367 -0.03032,0.214974 0,0.104731 0.07441,0.191547 0.07579,0.08819 0.237022,0.128158 z"
           style="font-size:2.82222px;font-family:'Times New Roman';-inkscape-font-specification:'Times New Roman, Normal'"
           id="path133" />
        <path
           d="m 53.271472,39.078649 0.454752,-0.221864 h 0.04547 v 1.577853 q 0,0.157096 0.0124,0.195681 0.01378,0.03858 0.05512,0.05926 0.04134,0.02067 0.16812,0.02343 v 0.05099 h -0.702799 v -0.05099 q 0.132292,-0.0028 0.170877,-0.02205 0.03859,-0.02067 0.05374,-0.05374 0.01516,-0.03445 0.01516,-0.202571 v -1.008724 q 0,-0.203949 -0.01378,-0.261827 -0.0096,-0.0441 -0.03583,-0.06477 -0.02481,-0.02067 -0.06063,-0.02067 -0.05099,0 -0.141938,0.04272 z"
           style="font-size:2.82222px;font-family:'Times New Roman';-inkscape-font-specification:'Times New Roman, Normal'"
           id="path135" />
        <path
           d="m 54.503437,41.233899 v -0.06063 q 0.141938,-0.04685 0.219108,-0.146072 0.07855,-0.09784 0.07855,-0.208084 0,-0.02618 -0.0124,-0.0441 -0.0096,-0.0124 -0.01929,-0.0124 -0.01516,0 -0.06615,0.02756 -0.02481,0.0124 -0.05237,0.0124 -0.06752,0 -0.107487,-0.03996 -0.03996,-0.03996 -0.03996,-0.110243 0,-0.06752 0.05099,-0.115755 0.05237,-0.04823 0.12678,-0.04823 0.09095,0 0.16123,0.07993 0.07166,0.07855 0.07166,0.209462 0,0.141938 -0.09922,0.263205 -0.09784,0.122645 -0.311436,0.192925 z"
           style="font-size:2.82222px;font-family:'Times New Roman';-inkscape-font-specification:'Times New Roman, Normal'"
           id="path137" />
        <path
           d="m 56.351385,40.404321 -0.130914,0.359667 h -1.10243 v -0.05099 q 0.486447,-0.443728 0.684885,-0.724847 0.198437,-0.28112 0.198437,-0.514008 0,-0.177767 -0.108865,-0.292144 -0.108865,-0.114377 -0.260449,-0.114377 -0.137804,0 -0.248047,0.0813 -0.108865,0.07993 -0.16123,0.235644 h -0.05099 q 0.03445,-0.254937 0.176388,-0.391362 0.143316,-0.136426 0.356912,-0.136426 0.227376,0 0.37896,0.146072 0.152962,0.146072 0.152962,0.344509 0,0.141938 -0.06614,0.283876 -0.101975,0.223242 -0.330729,0.472667 -0.343132,0.374826 -0.42857,0.451996 h 0.487825 q 0.148828,0 0.208084,-0.01102 0.06063,-0.01102 0.108865,-0.0441 0.04823,-0.03445 0.08406,-0.09646 z"
           style="font-size:2.82222px;font-family:'Times New Roman';-inkscape-font-specification:'Times New Roman, Normal'"
           id="path139" />
        <path
           d="m 56.71243,38.852651 v -0.04823 q 0.230133,0.03032 0.373448,0.186035 0.144694,0.15434 0.144694,0.344509 0,0.09922 -0.03169,0.230132 -0.03169,0.130914 -0.03169,0.20395 0,0.09922 0.08268,0.186035 0.08406,0.08544 0.23151,0.104731 v 0.0565 q -0.14745,0.01929 -0.23151,0.106109 -0.08268,0.08544 -0.08268,0.184657 0,0.07304 0.03169,0.205327 0.03169,0.130914 0.03169,0.230133 0,0.187413 -0.144694,0.343131 -0.143315,0.155718 -0.373448,0.187413 v -0.04823 q 0.161231,-0.03996 0.235645,-0.12678 0.07579,-0.08682 0.07579,-0.192925 0,-0.0813 -0.0317,-0.214974 -0.03169,-0.132291 -0.03169,-0.22462 0,-0.14056 0.101975,-0.271473 0.103353,-0.130914 0.305924,-0.202572 -0.198437,-0.07304 -0.303168,-0.206705 -0.104731,-0.13367 -0.104731,-0.272852 0,-0.09371 0.03169,-0.225998 0.0317,-0.133669 0.0317,-0.214973 0,-0.104731 -0.07579,-0.191548 -0.07441,-0.08819 -0.235645,-0.126779 z"
           style="font-size:2.82222px;font-family:'Times New Roman';-inkscape-font-specification:'Times New Roman, Normal'"
           id="path141" />
      </g>
    </g>
    <g
       id="g32302"
       transform="translate(-22.516056,13.782361)">
      <path
         id="circle31256"
         style="fill:#d9d9d9;stroke:#000000;stroke-width:0.176389"
         d="m 67.627798,48.259472 a 3.8805556,3.8805556 0 0 1 -3.880556,3.880556 3.8805556,3.8805556 0 0 1 -3.880556,-3.880556 3.8805556,3.8805556 0 0 1 3.880556,-3.880556 3.8805556,3.8805556 0 0 1 3.880556,3.880556 z" />
      <g
         aria-label="{2}"
         id="text31260"
         style="font-size:6.35px;line-height:1.25;font-family:Helvetica;-inkscape-font-specification:'Helvetica, Normal';font-variant-ligatures:none;stroke-width:0.264583">
        <path
           d="m 62.764055,49.572829 v 0.05125 q -0.244516,-0.03368 -0.398253,-0.199126 -0.152273,-0.163987 -0.152273,-0.364577 0,-0.10542 0.03368,-0.244516 0.03368,-0.14056 0.03368,-0.21816 0,-0.10542 -0.08931,-0.196198 -0.08785,-0.09224 -0.244515,-0.112741 v -0.06003 q 0.156665,-0.0205 0.244515,-0.111276 0.08931,-0.09078 0.08931,-0.197663 0,-0.0776 -0.03368,-0.216696 -0.03368,-0.139096 -0.03368,-0.24598 0,-0.199126 0.152273,-0.364577 0.153737,-0.165451 0.398253,-0.197662 v 0.05125 q -0.171308,0.041 -0.251837,0.134703 -0.07906,0.09224 -0.07906,0.203519 0,0.08638 0.03221,0.228409 0.03368,0.14056 0.03368,0.240123 0,0.147881 -0.108348,0.286977 -0.108349,0.139096 -0.323581,0.215232 0.21084,0.0776 0.320652,0.219625 0.111277,0.142024 0.111277,0.289905 0,0.09956 -0.03368,0.240123 -0.03221,0.142024 -0.03221,0.228409 0,0.111277 0.07906,0.203519 0.08053,0.09371 0.251837,0.136168 z"
           style="font-size:2.99861px;font-family:'Times New Roman';-inkscape-font-specification:'Times New Roman, Normal'"
           id="path145" />
        <path
           d="m 64.346817,48.594766 -0.139096,0.382147 h -1.171332 v -0.05417 q 0.516851,-0.471461 0.72769,-0.77015 0.21084,-0.29869 0.21084,-0.546134 0,-0.188877 -0.115669,-0.310403 -0.115669,-0.121526 -0.276727,-0.121526 -0.146417,0 -0.26355,0.08639 -0.115669,0.08492 -0.171307,0.250372 h -0.05417 q 0.0366,-0.27087 0.187413,-0.415823 0.152273,-0.144952 0.379219,-0.144952 0.241587,0 0.402645,0.155202 0.162522,0.155201 0.162522,0.366041 0,0.150809 -0.07028,0.301618 -0.108349,0.237195 -0.3514,0.502208 -0.364577,0.398253 -0.455355,0.480247 h 0.518314 q 0.15813,0 0.221089,-0.01171 0.06442,-0.01171 0.115669,-0.04685 0.05125,-0.0366 0.08931,-0.102492 z"
           style="font-size:2.99861px;font-family:'Times New Roman';-inkscape-font-specification:'Times New Roman, Normal'"
           id="path147" />
        <path
           d="m 64.730428,46.946117 v -0.05125 q 0.244516,0.03221 0.396789,0.197662 0.153737,0.163987 0.153737,0.366041 0,0.10542 -0.03367,0.244516 -0.03368,0.139096 -0.03368,0.216696 0,0.10542 0.08785,0.197663 0.08931,0.09078 0.245979,0.111276 v 0.06003 q -0.156665,0.0205 -0.245979,0.112741 -0.08785,0.09078 -0.08785,0.196198 0,0.0776 0.03368,0.21816 0.03367,0.139096 0.03367,0.244516 0,0.199126 -0.153737,0.364577 -0.152273,0.165451 -0.396789,0.199126 v -0.05125 q 0.171308,-0.04246 0.250372,-0.134704 0.08053,-0.09224 0.08053,-0.204983 0,-0.08638 -0.03368,-0.228409 -0.03368,-0.14056 -0.03368,-0.238659 0,-0.149345 0.108348,-0.288441 0.109813,-0.139096 0.325045,-0.215232 -0.21084,-0.0776 -0.322116,-0.219625 -0.111277,-0.142024 -0.111277,-0.289905 0,-0.09956 0.03368,-0.240123 0.03368,-0.142024 0.03368,-0.228409 0,-0.111277 -0.08053,-0.203519 -0.07906,-0.09371 -0.250372,-0.134703 z"
           style="font-size:2.99861px;font-family:'Times New Roman';-inkscape-font-specification:'Times New Roman, Normal'"
           id="path149" />
      </g>
    </g>
    <g
       id="g1334">
      <path
         id="path825"
         style="fill:#d9d9d9;stroke:#000000;stroke-width:0.176389"
         d="m 45.228574,39.993294 a 3.8805556,3.8805556 0 0 1 -3.880555,3.880555 3.8805556,3.8805556 0 0 1 -3.880556,-3.880555 3.8805556,3.8805556 0 0 1 3.880556,-3.880556 3.8805556,3.8805556 0 0 1 3.880555,3.880556 z" />
      <g
         aria-label="{1}"
         id="text29724"
         style="font-size:6.35px;line-height:1.25;font-family:Helvetica;-inkscape-font-specification:'Helvetica, Normal';font-variant-ligatures:none;stroke-width:0.264583">
        <path
           d="m 40.364831,41.30665 v 0.05125 q -0.244515,-0.03368 -0.398252,-0.199126 -0.152274,-0.163987 -0.152274,-0.364577 0,-0.10542 0.03368,-0.244516 0.03368,-0.14056 0.03368,-0.21816 0,-0.10542 -0.08931,-0.196199 -0.08785,-0.09224 -0.244516,-0.11274 v -0.06003 q 0.156666,-0.0205 0.244516,-0.111277 0.08931,-0.09078 0.08931,-0.197662 0,-0.0776 -0.03368,-0.216696 -0.03368,-0.139096 -0.03368,-0.24598 0,-0.199126 0.152274,-0.364577 0.153737,-0.165451 0.398252,-0.197662 v 0.05125 q -0.171307,0.041 -0.251836,0.134704 -0.07906,0.09224 -0.07906,0.203519 0,0.08638 0.03221,0.228409 0.03368,0.14056 0.03368,0.240123 0,0.147881 -0.108349,0.286977 -0.108348,0.139095 -0.32358,0.215232 0.21084,0.0776 0.320652,0.219625 0.111277,0.142024 0.111277,0.289904 0,0.09956 -0.03368,0.240123 -0.03221,0.142024 -0.03221,0.22841 0,0.111277 0.07906,0.203519 0.08053,0.09371 0.251836,0.136167 z"
           style="font-size:2.99861px;font-family:'Times New Roman';-inkscape-font-specification:'Times New Roman, Normal'"
           id="path153" />
        <path
           d="m 40.924142,38.920061 0.483175,-0.23573 h 0.04832 V 40.3608 q 0,0.166915 0.01318,0.207911 0.01464,0.041 0.05857,0.06296 0.04393,0.02196 0.178629,0.02489 v 0.05417 h -0.746725 v -0.05417 q 0.14056,-0.0029 0.181557,-0.02343 0.041,-0.02196 0.0571,-0.0571 0.01611,-0.0366 0.01611,-0.215232 v -1.071769 q 0,-0.216696 -0.01464,-0.278191 -0.01025,-0.04685 -0.03807,-0.06882 -0.02636,-0.02196 -0.06442,-0.02196 -0.05417,0 -0.150809,0.04539 z"
           style="font-size:2.99861px;font-family:'Times New Roman';-inkscape-font-specification:'Times New Roman, Normal'"
           id="path155" />
        <path
           d="m 42.331205,38.679938 v -0.05125 q 0.244515,0.03221 0.396789,0.197662 0.153737,0.163986 0.153737,0.366041 0,0.10542 -0.03368,0.244516 -0.03368,0.139095 -0.03368,0.216696 0,0.10542 0.08785,0.197662 0.08931,0.09078 0.24598,0.111277 v 0.06003 q -0.156666,0.0205 -0.24598,0.11274 -0.08785,0.09078 -0.08785,0.196199 0,0.0776 0.03368,0.21816 0.03368,0.139096 0.03368,0.244516 0,0.199126 -0.153737,0.364577 -0.152274,0.16545 -0.396789,0.199126 v -0.05125 q 0.171307,-0.04246 0.250372,-0.134703 0.08053,-0.09224 0.08053,-0.204983 0,-0.08639 -0.03368,-0.22841 -0.03368,-0.140559 -0.03368,-0.238658 0,-0.149345 0.108348,-0.288441 0.109812,-0.139096 0.325044,-0.215232 -0.210839,-0.0776 -0.322116,-0.219625 -0.111276,-0.142024 -0.111276,-0.289905 0,-0.09956 0.03368,-0.240123 0.03368,-0.142024 0.03368,-0.228409 0,-0.111277 -0.08053,-0.203519 -0.07906,-0.09371 -0.250372,-0.134704 z"
           style="font-size:2.99861px;font-family:'Times New Roman';-inkscape-font-specification:'Times New Roman, Normal'"
           id="path157" />
      </g>
      <path
         id="circle32291"
         style="fill:none;stroke:#000000;stroke-width:0.176389"
         d="m 44.523019,39.993294 a 3.175,3.175 0 0 1 -3.175,3.175 3.175,3.175 0 0 1 -3.175,-3.175 3.175,3.175 0 0 1 3.175,-3.175 3.175,3.175 0 0 1 3.175,3.175 z" />
    </g>
    <g
       id="g44422"
       transform="translate(16.322665,8.9606638)">
      <path
         id="circle32313"
         style="fill:#d9d9d9;stroke:#000000;stroke-width:0.176389"
         d="m 52.954797,53.081169 a 3.8805556,3.8805556 0 0 1 -3.880555,3.880556 3.8805556,3.8805556 0 0 1 -3.880556,-3.880556 3.8805556,3.8805556 0 0 1 3.880556,-3.880556 3.8805556,3.8805556 0 0 1 3.880555,3.880556 z" />
      <g
         aria-label="∅"
         id="text32317"
         style="font-size:6.35px;line-height:1.25;-inkscape-font-specification:'sans-serif, Normal';font-variant-ligatures:none;stroke-width:0.264583">
        <path
           d="m 49.654052,52.170457 0.130311,-0.161058 h 0.155201 l -0.187413,0.229874 q 0.153738,0.121525 0.254765,0.300153 0.146416,0.260622 0.146416,0.541741 0,0.28112 -0.146416,0.541742 -0.146417,0.259157 -0.40411,0.398252 -0.257693,0.139096 -0.528563,0.139096 -0.273799,0 -0.531492,-0.139096 -0.08199,-0.04393 -0.152273,-0.101027 l -0.184485,0.22841 h -0.153737 l 0.248908,-0.307475 q -0.09224,-0.09663 -0.161059,-0.219625 -0.144952,-0.259157 -0.144952,-0.540277 0,-0.281119 0.144952,-0.540276 0.144953,-0.260622 0.402646,-0.399717 0.257693,-0.139096 0.531492,-0.139096 0.27087,0 0.528563,0.139096 0.02636,0.01464 0.05125,0.02928 z m -1.229899,1.518339 1.106909,-1.366066 -0.0205,-0.01171 q -0.212304,-0.114205 -0.436321,-0.114205 -0.225482,0 -0.43925,0.115669 -0.212304,0.114205 -0.332365,0.329437 -0.118598,0.212304 -0.120062,0.439249 0.0015,0.226946 0.120062,0.43925 0.05271,0.09371 0.121525,0.168379 z m 1.206472,-1.298714 -1.117157,1.379243 q 0.0571,0.04539 0.122989,0.08053 0.212304,0.115669 0.437786,0.115669 0.224017,0 0.436321,-0.114205 0.212304,-0.115669 0.33383,-0.330901 0.120061,-0.212304 0.121525,-0.43925 -0.0015,-0.226945 -0.121525,-0.439249 -0.08492,-0.150809 -0.213769,-0.251836 z"
           style="font-size:2.99861px"
           id="path162" />
      </g>
    </g>
    <path
       style="font-variation-settings:normal;opacity:1;fill:none;fill-opacity:1;stroke:#000000;stroke-width:0.141111;stroke-linecap:butt;stroke-linejoin:miter;stroke-miterlimit:4;stroke-dasharray:none;stroke-dashoffset:0;stroke-opacity:1;marker-end:url(#marker3736);stop-color:#000000;stop-opacity:1"
       d="m 33.093275,39.799706 h 4.10621"
       id="path3871" />
  </g>
</svg>
