<?xml version="1.0" encoding="UTF-8" standalone="no"?>
<!-- Created with Inkscape (http://www.inkscape.org/) -->

<svg
   width="131.12329pt"
   height="111.90495pt"
   viewBox="0 0 46.257384 39.477574"
   version="1.1"
   id="svg8"
   inkscape:version="1.1.2 (0a00cf5339, 2022-02-04)"
   sodipodi:docname="book1_16b.svg"
   inkscape:export-filename="/home/srt/classes/452/tex/final_pda.png"
   inkscape:export-xdpi="118.92"
   inkscape:export-ydpi="118.92"
   xmlns:inkscape="http://www.inkscape.org/namespaces/inkscape"
   xmlns:sodipodi="http://sodipodi.sourceforge.net/DTD/sodipodi-0.dtd"
   xmlns="http://www.w3.org/2000/svg"
   xmlns:svg="http://www.w3.org/2000/svg"
   xmlns:rdf="http://www.w3.org/1999/02/22-rdf-syntax-ns#"
   xmlns:cc="http://creativecommons.org/ns#"
   xmlns:dc="http://purl.org/dc/elements/1.1/">
  <defs
     id="defs2">
    <marker
       inkscape:stockid="Arrow1Lend"
       orient="auto"
       refY="0"
       refX="0"
       id="marker3736"
       style="overflow:visible"
       inkscape:isstock="true">
      <path
         id="path3734"
         d="M 0,0 5,-5 -12.5,0 5,5 Z"
         style="fill:#000000;fill-opacity:1;fill-rule:evenodd;stroke:#000000;stroke-width:1pt;stroke-opacity:1"
         transform="matrix(-0.8,0,0,-0.8,-10,0)"
         inkscape:connector-curvature="0" />
    </marker>
    <inkscape:path-effect
       effect="spiro"
       id="path-effect3726"
       is_visible="true"
       lpeversion="0" />
    <marker
       inkscape:isstock="true"
       style="overflow:visible"
       id="marker2300"
       refX="0"
       refY="0"
       orient="auto"
       inkscape:stockid="Arrow1Lend">
      <path
         inkscape:connector-curvature="0"
         transform="matrix(-0.8,0,0,-0.8,-10,0)"
         style="fill:#060606;fill-opacity:1;fill-rule:evenodd;stroke:#060606;stroke-width:1pt;stroke-opacity:1"
         d="M 0,0 5,-5 -12.5,0 5,5 Z"
         id="path2298" />
    </marker>
    <inkscape:path-effect
       effect="spiro"
       id="path-effect2290"
       is_visible="true"
       lpeversion="0" />
    <inkscape:path-effect
       effect="spiro"
       id="path-effect2286"
       is_visible="true"
       lpeversion="0" />
    <marker
       inkscape:stockid="Arrow1Lend"
       orient="auto"
       refY="0"
       refX="0"
       id="marker6028"
       style="overflow:visible"
       inkscape:isstock="true">
      <path
         id="path6026"
         d="M 0,0 5,-5 -12.5,0 5,5 Z"
         style="fill:#000000;fill-opacity:1;fill-rule:evenodd;stroke:#000000;stroke-width:1pt;stroke-opacity:1"
         transform="matrix(-0.8,0,0,-0.8,-10,0)"
         inkscape:connector-curvature="0" />
    </marker>
    <marker
       inkscape:isstock="true"
       style="overflow:visible"
       id="marker3669"
       refX="0"
       refY="0"
       orient="auto"
       inkscape:stockid="Arrow1Lend">
      <path
         transform="matrix(-0.8,0,0,-0.8,-10,0)"
         style="fill:#000000;fill-opacity:1;fill-rule:evenodd;stroke:#000000;stroke-width:1pt;stroke-opacity:1"
         d="M 0,0 5,-5 -12.5,0 5,5 Z"
         id="path3667"
         inkscape:connector-curvature="0" />
    </marker>
    <marker
       inkscape:isstock="true"
       style="overflow:visible"
       id="marker3111"
       refX="0"
       refY="0"
       orient="auto"
       inkscape:stockid="Arrow1Lend">
      <path
         transform="matrix(-0.8,0,0,-0.8,-10,0)"
         style="fill:#000000;fill-opacity:1;fill-rule:evenodd;stroke:#000000;stroke-width:1pt;stroke-opacity:1"
         d="M 0,0 5,-5 -12.5,0 5,5 Z"
         id="path3109"
         inkscape:connector-curvature="0" />
    </marker>
    <marker
       inkscape:stockid="Arrow1Mend"
       orient="auto"
       refY="0"
       refX="0"
       id="marker1546"
       style="overflow:visible"
       inkscape:isstock="true">
      <path
         id="path1544"
         d="M 0,0 5,-5 -12.5,0 5,5 Z"
         style="fill:#000000;fill-opacity:1;fill-rule:evenodd;stroke:#000000;stroke-width:1pt;stroke-opacity:1"
         transform="matrix(-0.4,0,0,-0.4,-4,0)"
         inkscape:connector-curvature="0" />
    </marker>
    <marker
       inkscape:isstock="true"
       style="overflow:visible"
       id="marker3691"
       refX="0"
       refY="0"
       orient="auto"
       inkscape:stockid="Arrow1Mstart">
      <path
         transform="matrix(0.4,0,0,0.4,4,0)"
         style="fill:#000000;fill-opacity:1;fill-rule:evenodd;stroke:#000000;stroke-width:1pt;stroke-opacity:1"
         d="M 0,0 5,-5 -12.5,0 5,5 Z"
         id="path3689"
         inkscape:connector-curvature="0" />
    </marker>
    <marker
       inkscape:stockid="Arrow1Mend"
       orient="auto"
       refY="0"
       refX="0"
       id="marker3231"
       style="overflow:visible"
       inkscape:isstock="true">
      <path
         id="path3229"
         d="M 0,0 5,-5 -12.5,0 5,5 Z"
         style="fill:#000000;fill-opacity:1;fill-rule:evenodd;stroke:#000000;stroke-width:1pt;stroke-opacity:1"
         transform="matrix(-0.4,0,0,-0.4,-4,0)"
         inkscape:connector-curvature="0" />
    </marker>
    <marker
       inkscape:isstock="true"
       style="overflow:visible"
       id="marker2864"
       refX="0"
       refY="0"
       orient="auto"
       inkscape:stockid="Arrow1Mend">
      <path
         transform="matrix(-0.4,0,0,-0.4,-4,0)"
         style="fill:#000000;fill-opacity:1;fill-rule:evenodd;stroke:#000000;stroke-width:1pt;stroke-opacity:1"
         d="M 0,0 5,-5 -12.5,0 5,5 Z"
         id="path2862"
         inkscape:connector-curvature="0" />
    </marker>
    <marker
       inkscape:isstock="true"
       style="overflow:visible"
       id="marker2598"
       refX="0"
       refY="0"
       orient="auto"
       inkscape:stockid="Arrow1Mend">
      <path
         transform="matrix(-0.4,0,0,-0.4,-4,0)"
         style="fill:#000000;fill-opacity:1;fill-rule:evenodd;stroke:#000000;stroke-width:1pt;stroke-opacity:1"
         d="M 0,0 5,-5 -12.5,0 5,5 Z"
         id="path2596"
         inkscape:connector-curvature="0" />
    </marker>
    <marker
       inkscape:isstock="true"
       style="overflow:visible"
       id="marker2922-2"
       refX="0"
       refY="0"
       orient="auto"
       inkscape:stockid="Arrow1Mstart">
      <path
         inkscape:connector-curvature="0"
         transform="matrix(0.4,0,0,0.4,4,0)"
         style="fill:#000000;fill-opacity:1;fill-rule:evenodd;stroke:#000000;stroke-width:1pt;stroke-opacity:1"
         d="M 0,0 5,-5 -12.5,0 5,5 Z"
         id="path2920-2" />
    </marker>
    <marker
       inkscape:isstock="true"
       style="overflow:visible"
       id="marker3669-7"
       refX="0"
       refY="0"
       orient="auto"
       inkscape:stockid="Arrow1Lend">
      <path
         inkscape:connector-curvature="0"
         transform="matrix(-0.8,0,0,-0.8,-10,0)"
         style="fill:#000000;fill-opacity:1;fill-rule:evenodd;stroke:#000000;stroke-width:1pt;stroke-opacity:1"
         d="M 0,0 5,-5 -12.5,0 5,5 Z"
         id="path3667-3" />
    </marker>
    <marker
       inkscape:isstock="true"
       style="overflow:visible"
       id="marker2300-8"
       refX="0"
       refY="0"
       orient="auto"
       inkscape:stockid="Arrow1Lend">
      <path
         inkscape:connector-curvature="0"
         transform="matrix(-0.8,0,0,-0.8,-10,0)"
         style="fill:#060606;fill-opacity:1;fill-rule:evenodd;stroke:#060606;stroke-width:1pt;stroke-opacity:1"
         d="M 0,0 5,-5 -12.5,0 5,5 Z"
         id="path2298-8" />
    </marker>
    <inkscape:path-effect
       effect="spiro"
       id="path-effect2290-6"
       is_visible="true"
       lpeversion="0" />
    <marker
       inkscape:isstock="true"
       style="overflow:visible"
       id="marker2406-7"
       refX="0"
       refY="0"
       orient="auto"
       inkscape:stockid="Arrow1Lend">
      <path
         inkscape:connector-curvature="0"
         transform="matrix(-0.8,0,0,-0.8,-10,0)"
         style="fill:#060606;fill-opacity:1;fill-rule:evenodd;stroke:#060606;stroke-width:1pt;stroke-opacity:1"
         d="M 0,0 5,-5 -12.5,0 5,5 Z"
         id="path2404-7" />
    </marker>
    <inkscape:path-effect
       effect="spiro"
       id="path-effect2286-4"
       is_visible="true"
       lpeversion="0" />
    <marker
       inkscape:stockid="Arrow1Lend"
       orient="auto"
       refY="0"
       refX="0"
       id="marker3736-3"
       style="overflow:visible"
       inkscape:isstock="true">
      <path
         id="path3734-8"
         d="M 0,0 5,-5 -12.5,0 5,5 Z"
         style="fill:#000000;fill-opacity:1;fill-rule:evenodd;stroke:#000000;stroke-width:1pt;stroke-opacity:1"
         transform="matrix(-0.8,0,0,-0.8,-10,0)"
         inkscape:connector-curvature="0" />
    </marker>
    <marker
       inkscape:stockid="Arrow1Lend"
       orient="auto"
       refY="0"
       refX="0"
       id="marker15037"
       style="overflow:visible"
       inkscape:isstock="true">
      <path
         id="path15035"
         d="M 0,0 5,-5 -12.5,0 5,5 Z"
         style="fill:#000000;fill-opacity:1;fill-rule:evenodd;stroke:#000000;stroke-width:1pt;stroke-opacity:1"
         transform="matrix(-0.8,0,0,-0.8,-10,0)"
         inkscape:connector-curvature="0" />
    </marker>
  </defs>
  <sodipodi:namedview
     id="base"
     pagecolor="#ffffff"
     bordercolor="#666666"
     borderopacity="1.0"
     inkscape:pageopacity="0.0"
     inkscape:pageshadow="2"
     inkscape:zoom="2.8388513"
     inkscape:cx="92.643105"
     inkscape:cy="69.74652"
     inkscape:document-units="mm"
     inkscape:current-layer="layer1"
     showgrid="false"
     inkscape:window-width="1920"
     inkscape:window-height="1022"
     inkscape:window-x="0"
     inkscape:window-y="0"
     inkscape:window-maximized="1"
     fit-margin-top="1"
     fit-margin-left="1"
     fit-margin-right="1"
     fit-margin-bottom="1"
     units="pt"
     inkscape:pagecheckerboard="0"
     lock-margins="true" />
  <metadata
     id="metadata5">
    <rdf:RDF>
      <cc:Work
         rdf:about="">
        <dc:format>image/svg+xml</dc:format>
        <dc:type
           rdf:resource="http://purl.org/dc/dcmitype/StillImage" />
      </cc:Work>
    </rdf:RDF>
  </metadata>
  <g
     inkscape:groupmode="layer"
     id="layer2"
     inkscape:label="arcs"
     transform="translate(-32.274557,-60.81018)">
    <g
       id="text1350"
       style="font-size:3.52778px;line-height:125%;-inkscape-font-specification:'sans-serif, Normal';text-align:center;letter-spacing:0px;word-spacing:0px;text-anchor:middle;stroke-width:0.264583px" />
    <path
       style="font-variation-settings:normal;fill:none;fill-opacity:1;stroke:#000000;stroke-width:0.14;stroke-linecap:butt;stroke-linejoin:miter;stroke-miterlimit:4;stroke-dasharray:none;stroke-dashoffset:0;stroke-opacity:1;marker-end:url(#marker3736-3);stop-color:#000000"
       d="m 65.428393,69.434862 c 0,0 -1.357132,-1.75876 -1.284545,-3.65561 0.07259,-1.89684 1.4388,-2.5298 2.963956,-2.54177 1.525156,-0.012 2.811721,1.47067 2.566917,2.7505 -0.265922,0.77609 -0.713057,2.06795 -0.713057,2.06795"
       id="path44649"
       sodipodi:nodetypes="czzcc" />
    <path
       style="font-variation-settings:normal;opacity:1;fill:none;fill-opacity:1;stroke:#000000;stroke-width:0.141111;stroke-linecap:butt;stroke-linejoin:miter;stroke-miterlimit:4;stroke-dasharray:none;stroke-dashoffset:0;stroke-opacity:1;marker-end:url(#marker3736);stop-color:#000000;stop-opacity:1"
       d="M 44.990652,73.393524 H 61.453561"
       id="path44764" />
    <g
       aria-label="a,b"
       id="text60284"
       style="font-size:4.23333px;line-height:125%;font-family:MaplePi;-inkscape-font-specification:'MaplePi, Normal';letter-spacing:0px;word-spacing:0px;stroke-width:0.264583px">
      <path
         d="m 50.656795,91.107216 v -0.208429 q -0.315227,0.265273 -0.673517,0.265273 -0.260105,0 -0.406521,-0.130914 -0.146417,-0.132636 -0.146417,-0.323839 0,-0.210151 0.192925,-0.366903 0.192926,-0.156752 0.563274,-0.156752 0.09991,0 0.217041,0.01378 0.117133,0.01206 0.253215,0.03962 v -0.234266 q 0,-0.118856 -0.110243,-0.206706 -0.110243,-0.08785 -0.33073,-0.08785 -0.16881,0 -0.473701,0.09819 -0.05512,0.01723 -0.07062,0.01723 -0.02756,0 -0.04823,-0.02067 -0.01895,-0.02067 -0.01895,-0.05168 0,-0.02928 0.01723,-0.04651 0.02412,-0.02584 0.194648,-0.07062 0.268718,-0.07235 0.406521,-0.07235 0.273886,0 0.427193,0.136081 0.153306,0.134359 0.153306,0.304892 v 0.957737 h 0.192926 q 0.0534,0 0.07579,0.02067 0.02239,0.01895 0.02239,0.05168 0,0.03101 -0.02239,0.05168 -0.02239,0.02067 -0.07579,0.02067 z m 0,-0.720026 q -0.101631,-0.02928 -0.215319,-0.04306 -0.113688,-0.01378 -0.239434,-0.01378 -0.315227,0 -0.492649,0.136082 -0.134359,0.10163 -0.134359,0.242879 0,0.130914 0.10163,0.220486 0.103353,0.08957 0.299724,0.08957 0.187758,0 0.347955,-0.07407 0.161919,-0.07579 0.332452,-0.239434 z"
         style="font-size:3.52778px;font-family:'Courier New';-inkscape-font-specification:'Courier New, Normal'"
         id="path99" />
      <path
         d="M 51.605919,90.919458 V 90.7317 h 0.184313 0.18259 v 0.313504 q 0,0.266995 -0.08441,0.399631 -0.0844,0.134359 -0.282498,0.182591 v 0 -0.163643 0 q 0.108521,-0.01895 0.149862,-0.120578 0.03273,-0.07751 0.03962,-0.235989 h -0.0052 -0.184313 z"
         style="font-family:Helvetica;-inkscape-font-specification:Helvetica"
         id="path101" />
      <path
         d="m 52.792755,88.945417 v 0.95946 q 0.261828,-0.341065 0.632176,-0.341065 0.316949,0 0.542603,0.230822 0.225653,0.229099 0.225653,0.563273 0,0.33762 -0.229099,0.571886 -0.227376,0.234267 -0.539157,0.234267 -0.378961,0 -0.632176,-0.341065 v 0.284221 h -0.339342 q -0.05168,0 -0.07407,-0.02067 -0.02239,-0.02067 -0.02239,-0.05168 0,-0.03273 0.02239,-0.05168 0.02239,-0.02067 0.07407,-0.02067 h 0.194648 v -1.870688 h -0.194648 q -0.05168,0 -0.07407,-0.02067 -0.02239,-0.02067 -0.02239,-0.0534 0,-0.03101 0.02239,-0.05168 0.02239,-0.02067 0.07407,-0.02067 z m 1.255738,1.41938 q 0,-0.273885 -0.187758,-0.463365 -0.187757,-0.191203 -0.439249,-0.191203 -0.251493,0 -0.43925,0.191203 -0.187758,0.18948 -0.187758,0.463365 0,0.273886 0.187758,0.465089 0.187757,0.18948 0.43925,0.18948 0.251492,0 0.439249,-0.18948 0.187758,-0.191203 0.187758,-0.465089 z"
         style="font-size:3.52778px;font-family:'Courier New';-inkscape-font-specification:'Courier New, Normal'"
         id="path103" />
    </g>
    <g
       aria-label="a"
       transform="rotate(-0.51795775)"
       id="text60296"
       style="font-size:4.23333px;line-height:125%;font-family:MaplePi;-inkscape-font-specification:'MaplePi, Normal';letter-spacing:0px;word-spacing:0px;stroke-width:0.264583px">
      <path
         d="m 54.764964,73.255516 v -0.208428 q -0.315226,0.265272 -0.673516,0.265272 -0.260105,0 -0.406522,-0.130914 -0.146416,-0.132636 -0.146416,-0.323839 0,-0.210151 0.192925,-0.366903 0.192925,-0.156752 0.563273,-0.156752 0.09991,0 0.217042,0.01378 0.117133,0.01206 0.253214,0.03962 v -0.234266 q 0,-0.118856 -0.110243,-0.206706 -0.110243,-0.08785 -0.330729,-0.08785 -0.16881,0 -0.473701,0.09819 -0.05512,0.01723 -0.07062,0.01723 -0.02756,0 -0.04823,-0.02067 -0.01895,-0.02067 -0.01895,-0.05168 0,-0.02928 0.01722,-0.04651 0.02412,-0.02584 0.194648,-0.07063 0.268718,-0.07235 0.406522,-0.07235 0.273885,0 0.427192,0.136082 0.153307,0.134358 0.153307,0.304891 v 0.957737 h 0.192925 q 0.0534,0 0.07579,0.02067 0.02239,0.01895 0.02239,0.05168 0,0.03101 -0.02239,0.05168 -0.02239,0.02067 -0.07579,0.02067 z m 0,-0.720025 q -0.10163,-0.02928 -0.215318,-0.04306 -0.113689,-0.01378 -0.239435,-0.01378 -0.315226,0 -0.492649,0.136081 -0.134358,0.10163 -0.134358,0.242879 0,0.130914 0.10163,0.220487 0.103353,0.08957 0.299724,0.08957 0.187757,0 0.347954,-0.07407 0.16192,-0.07579 0.332452,-0.239434 z"
         style="font-size:3.52778px;font-family:'Courier New';-inkscape-font-specification:'Courier New, Normal'"
         id="path106" />
    </g>
    <g
       aria-label="b"
       transform="rotate(-0.51795775)"
       id="text60308"
       style="font-size:4.23333px;line-height:125%;font-family:MaplePi;-inkscape-font-specification:'MaplePi, Normal';letter-spacing:0px;word-spacing:0px;stroke-width:0.264583px">
      <path
         d="m 44.28052,82.398557 v 0.95946 q 0.261827,-0.341065 0.632175,-0.341065 0.316949,0 0.542603,0.230822 0.225654,0.229099 0.225654,0.563273 0,0.33762 -0.229099,0.571887 -0.227376,0.234266 -0.539158,0.234266 -0.37896,0 -0.632175,-0.341064 v 0.28422 h -0.339342 q -0.05168,0 -0.07407,-0.02067 -0.02239,-0.02067 -0.02239,-0.05168 0,-0.03273 0.02239,-0.05168 0.02239,-0.02067 0.07407,-0.02067 h 0.194648 v -1.870688 h -0.194648 q -0.05168,0 -0.07407,-0.02067 -0.02239,-0.02067 -0.02239,-0.0534 0,-0.03101 0.02239,-0.05168 0.02239,-0.02067 0.07407,-0.02067 z m 1.255738,1.419381 q 0,-0.273886 -0.187758,-0.463366 -0.187758,-0.191203 -0.43925,-0.191203 -0.251492,0 -0.43925,0.191203 -0.187757,0.18948 -0.187757,0.463366 0,0.273885 0.187757,0.465088 0.187758,0.18948 0.43925,0.18948 0.251492,0 0.43925,-0.18948 0.187758,-0.191203 0.187758,-0.465088 z"
         style="font-size:3.52778px;font-family:'Courier New';-inkscape-font-specification:'Courier New, Normal'"
         id="path109" />
    </g>
    <path
       style="font-variation-settings:normal;opacity:1;fill:none;fill-opacity:1;stroke:#000000;stroke-width:0.141111;stroke-linecap:butt;stroke-linejoin:miter;stroke-miterlimit:4;stroke-dasharray:none;stroke-dashoffset:0;stroke-opacity:1;marker-end:url(#marker3736);stop-color:#000000;stop-opacity:1"
       d="M 43.928734,72.449463 V 88.912372"
       id="path9012" />
    <g
       aria-label="b"
       transform="rotate(-0.51795775)"
       id="text9018"
       style="font-size:4.23333px;line-height:125%;font-family:MaplePi;-inkscape-font-specification:'MaplePi, Normal';letter-spacing:0px;word-spacing:0px;stroke-width:0.264583px">
      <path
         d="m 67.816001,82.611326 v 0.95946 q 0.261827,-0.341065 0.632175,-0.341065 0.316949,0 0.542603,0.230821 0.225654,0.229099 0.225654,0.563274 0,0.33762 -0.229099,0.571886 -0.227377,0.234267 -0.539158,0.234267 -0.378961,0 -0.632175,-0.341065 v 0.284221 h -0.339343 q -0.05168,0 -0.07407,-0.02067 -0.02239,-0.02067 -0.02239,-0.05168 0,-0.03273 0.02239,-0.05168 0.02239,-0.02067 0.07407,-0.02067 h 0.194648 v -1.870688 h -0.194648 q -0.05168,0 -0.07407,-0.02067 -0.02239,-0.02067 -0.02239,-0.0534 0,-0.03101 0.02239,-0.05168 0.02239,-0.02067 0.07407,-0.02067 z m 1.255738,1.41938 q 0,-0.273885 -0.187758,-0.463366 -0.187758,-0.191202 -0.43925,-0.191202 -0.251492,0 -0.43925,0.191202 -0.187758,0.189481 -0.187758,0.463366 0,0.273885 0.187758,0.465088 0.187758,0.189481 0.43925,0.189481 0.251492,0 0.43925,-0.189481 0.187758,-0.191203 0.187758,-0.465088 z"
         style="font-size:3.52778px;font-family:'Courier New';-inkscape-font-specification:'Courier New, Normal'"
         id="path112" />
    </g>
    <path
       style="font-variation-settings:normal;opacity:1;fill:none;fill-opacity:1;stroke:#000000;stroke-width:0.141111;stroke-linecap:butt;stroke-linejoin:miter;stroke-miterlimit:4;stroke-dasharray:none;stroke-dashoffset:0;stroke-opacity:1;marker-end:url(#marker3736);stop-color:#000000;stop-opacity:1"
       d="M 67.465179,72.449463 V 88.912372"
       id="path9020" />
    <g
       aria-label="a"
       transform="rotate(-0.51795775)"
       id="text9026"
       style="font-size:4.23333px;line-height:125%;font-family:MaplePi;-inkscape-font-specification:'MaplePi, Normal';letter-spacing:0px;word-spacing:0px;stroke-width:0.264583px">
      <path
         d="m 67.121383,63.319614 v -0.208428 q -0.315227,0.265273 -0.673517,0.265273 -0.260105,0 -0.406521,-0.130914 -0.146417,-0.132636 -0.146417,-0.323839 0,-0.210151 0.192926,-0.366903 0.192925,-0.156752 0.563273,-0.156752 0.09991,0 0.217041,0.01378 0.117134,0.01206 0.253215,0.03962 v -0.234267 q 0,-0.118856 -0.110243,-0.206706 -0.110243,-0.08785 -0.33073,-0.08785 -0.168809,0 -0.473701,0.09819 -0.05512,0.01723 -0.07062,0.01723 -0.02756,0 -0.04823,-0.02067 -0.01895,-0.02067 -0.01895,-0.05168 0,-0.02928 0.01722,-0.04651 0.02412,-0.02584 0.194648,-0.07062 0.268718,-0.07235 0.406522,-0.07235 0.273885,0 0.427192,0.136081 0.153307,0.134359 0.153307,0.304891 v 0.957737 h 0.192925 q 0.0534,0 0.07579,0.02067 0.02239,0.01895 0.02239,0.05168 0,0.03101 -0.02239,0.05168 -0.02239,0.02067 -0.07579,0.02067 z m 0,-0.720025 q -0.10163,-0.02928 -0.215319,-0.04306 -0.113688,-0.01378 -0.239434,-0.01378 -0.315226,0 -0.492649,0.136081 -0.134359,0.101631 -0.134359,0.24288 0,0.130913 0.101631,0.220486 0.103353,0.08957 0.299723,0.08957 0.187758,0 0.347955,-0.07407 0.16192,-0.07579 0.332452,-0.239434 z"
         style="font-size:3.52778px;font-family:'Courier New';-inkscape-font-specification:'Courier New, Normal'"
         id="path115" />
    </g>
    <path
       style="font-variation-settings:normal;opacity:1;fill:none;fill-opacity:1;stroke:#000000;stroke-width:0.141111;stroke-linecap:butt;stroke-linejoin:miter;stroke-miterlimit:4;stroke-dasharray:none;stroke-dashoffset:0;stroke-opacity:1;marker-end:url(#marker3736);stop-color:#000000;stop-opacity:1"
       d="M 64.368018,92.284402 47.610507,77.515276"
       id="path9061" />
    <g
       aria-label="a"
       transform="rotate(-0.51795775)"
       id="text9180"
       style="font-size:4.23333px;line-height:125%;font-family:MaplePi;-inkscape-font-specification:'MaplePi, Normal';letter-spacing:0px;word-spacing:0px;stroke-width:0.264583px">
      <path
         d="m 58.119178,85.874115 v -0.208428 q -0.315226,0.265272 -0.673517,0.265272 -0.260104,0 -0.406521,-0.130914 -0.146417,-0.132636 -0.146417,-0.323839 0,-0.210151 0.192926,-0.366903 0.192925,-0.156752 0.563273,-0.156752 0.09991,0 0.217041,0.01378 0.117134,0.01206 0.253215,0.03962 v -0.234266 q 0,-0.118856 -0.110243,-0.206706 -0.110243,-0.08785 -0.330729,-0.08785 -0.16881,0 -0.473701,0.09819 -0.05512,0.01723 -0.07062,0.01723 -0.02756,0 -0.04823,-0.02067 -0.01895,-0.02067 -0.01895,-0.05168 0,-0.02928 0.01722,-0.04651 0.02412,-0.02584 0.194648,-0.07062 0.268718,-0.07235 0.406522,-0.07235 0.273885,0 0.427192,0.136082 0.153307,0.134358 0.153307,0.304891 v 0.957737 h 0.192925 q 0.0534,0 0.07579,0.02067 0.02239,0.01895 0.02239,0.05168 0,0.03101 -0.02239,0.05168 -0.02239,0.02067 -0.07579,0.02067 z m 0,-0.720025 q -0.10163,-0.02928 -0.215319,-0.04306 -0.113688,-0.01378 -0.239434,-0.01378 -0.315226,0 -0.492649,0.136082 -0.134359,0.10163 -0.134359,0.242879 0,0.130914 0.101631,0.220486 0.103353,0.08957 0.299723,0.08957 0.187758,0 0.347955,-0.07407 0.16192,-0.07579 0.332452,-0.239434 z"
         style="font-size:3.52778px;font-family:'Courier New';-inkscape-font-specification:'Courier New, Normal'"
         id="path118" />
    </g>
    <path
       style="font-variation-settings:normal;fill:none;fill-opacity:1;stroke:#000000;stroke-width:0.14;stroke-linecap:butt;stroke-linejoin:miter;stroke-miterlimit:4;stroke-dasharray:none;stroke-dashoffset:0;stroke-opacity:1;marker-end:url(#marker3736-3);stop-color:#000000"
       d="m 47.741642,93.024083 c 0,0 1.75876,-1.357132 3.65561,-1.284545 1.89684,0.07259 2.5298,1.4388 2.54177,2.963956 0.012,1.525156 -1.47067,2.811721 -2.7505,2.566917 -0.77609,-0.265922 -2.06795,-0.713057 -2.06795,-0.713057"
       id="path9182"
       sodipodi:nodetypes="czzcc" />
    <path
       style="font-variation-settings:normal;fill:none;fill-opacity:1;stroke:#000000;stroke-width:0.14;stroke-linecap:butt;stroke-linejoin:miter;stroke-miterlimit:4;stroke-dasharray:none;stroke-dashoffset:0;stroke-opacity:1;marker-end:url(#marker3736-3);stop-color:#000000"
       d="m 70.990368,93.024083 c 0,0 1.75876,-1.357132 3.65561,-1.284545 1.89684,0.07259 2.5298,1.4388 2.54177,2.963956 0.012,1.525156 -1.47067,2.811721 -2.7505,2.566917 -0.77609,-0.265922 -2.06795,-0.713057 -2.06795,-0.713057"
       id="path9184"
       sodipodi:nodetypes="czzcc" />
    <g
       aria-label="b"
       transform="rotate(-0.51795775)"
       id="text9190"
       style="font-size:4.23333px;line-height:125%;font-family:MaplePi;-inkscape-font-specification:'MaplePi, Normal';letter-spacing:0px;word-spacing:0px;stroke-width:0.264583px">
      <path
         d="m 75.942175,90.670591 v 0.95946 q 0.261828,-0.341065 0.632176,-0.341065 0.316949,0 0.542603,0.230822 0.225654,0.229099 0.225654,0.563273 0,0.33762 -0.229099,0.571886 -0.227377,0.234267 -0.539158,0.234267 -0.378961,0 -0.632176,-0.341065 v 0.284221 h -0.339342 q -0.05168,0 -0.07407,-0.02067 -0.02239,-0.02067 -0.02239,-0.05168 0,-0.03273 0.02239,-0.05168 0.02239,-0.02067 0.07407,-0.02067 h 0.194648 v -1.870688 h -0.194648 q -0.05168,0 -0.07407,-0.02067 -0.02239,-0.02067 -0.02239,-0.0534 0,-0.03101 0.02239,-0.05168 0.02239,-0.02067 0.07407,-0.02067 z m 1.255739,1.41938 q 0,-0.273885 -0.187758,-0.463365 -0.187758,-0.191203 -0.43925,-0.191203 -0.251492,0 -0.43925,0.191203 -0.187758,0.18948 -0.187758,0.463365 0,0.273886 0.187758,0.465088 0.187758,0.189481 0.43925,0.189481 0.251492,0 0.43925,-0.189481 0.187758,-0.191202 0.187758,-0.465088 z"
         style="font-size:3.52778px;font-family:'Courier New';-inkscape-font-specification:'Courier New, Normal'"
         id="path121" />
    </g>
    <path
       style="font-variation-settings:normal;opacity:1;fill:none;fill-opacity:1;stroke:#000000;stroke-width:0.141111;stroke-linecap:butt;stroke-linejoin:miter;stroke-miterlimit:4;stroke-dasharray:none;stroke-dashoffset:0;stroke-opacity:1;marker-end:url(#marker3736);stop-color:#000000;stop-opacity:1"
       d="m 32.627335,73.557366 h 5.5402"
       id="path1195" />
  </g>
  <g
     inkscape:label="Layer 1"
     inkscape:groupmode="layer"
     id="layer1"
     transform="translate(-32.274557,-60.81018)">
    <g
       id="g8593"
       transform="translate(10.444425,8.0100923)">
      <path
         id="circle5215"
         style="fill:#d9d9d9;stroke:#000000;stroke-width:0.176389"
         d="m 62.134232,86.458916 a 5.3777776,5.3777776 0 0 1 -5.377778,5.377777 5.3777776,5.3777776 0 0 1 -5.377777,-5.377777 5.3777776,5.3777776 0 0 1 5.377777,-5.377778 5.3777776,5.3777776 0 0 1 5.377778,5.377778 z" />
      <path
         id="circle5217"
         style="fill:none;stroke:#000000;stroke-width:0.176389"
         d="m 61.454002,86.458916 a 4.6975479,4.6975479 0 0 1 -4.697548,4.697548 4.6975479,4.6975479 0 0 1 -4.697547,-4.697548 4.6975479,4.6975479 0 0 1 4.697547,-4.697548 4.6975479,4.6975479 0 0 1 4.697548,4.697548 z" />
      <g
         aria-label="{2,3}"
         id="text5305"
         style="font-size:6.35px;line-height:1.25;font-family:Helvetica;-inkscape-font-specification:'Helvetica, Normal';font-variant-ligatures:none;stroke-width:0.264583">
        <path
           d="m 54.64879,87.772269 v 0.05125 q -0.244516,-0.03368 -0.398253,-0.199126 -0.152273,-0.163987 -0.152273,-0.364577 0,-0.10542 0.03368,-0.244516 0.03368,-0.14056 0.03368,-0.21816 0,-0.10542 -0.08931,-0.196198 -0.08785,-0.09224 -0.244515,-0.112741 v -0.06003 q 0.156665,-0.0205 0.244515,-0.111276 0.08931,-0.09078 0.08931,-0.197663 0,-0.0776 -0.03368,-0.216696 -0.03368,-0.139096 -0.03368,-0.24598 0,-0.199126 0.152273,-0.364577 0.153737,-0.165451 0.398253,-0.197662 v 0.05125 q -0.171307,0.041 -0.251837,0.134703 -0.07906,0.09224 -0.07906,0.203519 0,0.08639 0.03221,0.228409 0.03368,0.14056 0.03368,0.240123 0,0.147881 -0.108348,0.286977 -0.108348,0.139096 -0.323581,0.215232 0.21084,0.0776 0.320652,0.219625 0.111277,0.142024 0.111277,0.289905 0,0.09956 -0.03368,0.240123 -0.03221,0.142024 -0.03221,0.228409 0,0.111277 0.07906,0.203519 0.08053,0.09371 0.251837,0.136168 z"
           style="font-size:2.99861px;font-family:'Times New Roman';-inkscape-font-specification:'Times New Roman, Normal'"
           id="path126" />
        <path
           d="m 56.231552,86.794206 -0.139095,0.382147 h -1.171332 v -0.05417 q 0.51685,-0.471461 0.72769,-0.77015 0.210839,-0.29869 0.210839,-0.546134 0,-0.188877 -0.115669,-0.310403 -0.115669,-0.121526 -0.276727,-0.121526 -0.146416,0 -0.26355,0.08639 -0.115669,0.08492 -0.171307,0.250372 h -0.05417 q 0.0366,-0.27087 0.187413,-0.415823 0.152273,-0.144952 0.379219,-0.144952 0.241587,0 0.402645,0.155202 0.162523,0.155201 0.162523,0.366041 0,0.150809 -0.07028,0.301618 -0.108349,0.237195 -0.3514,0.502208 -0.364577,0.398253 -0.455355,0.480247 h 0.518314 q 0.15813,0 0.221089,-0.01171 0.06442,-0.01171 0.115669,-0.04685 0.05125,-0.0366 0.08931,-0.102492 z"
           style="font-size:2.99861px;font-family:'Times New Roman';-inkscape-font-specification:'Times New Roman, Normal'"
           id="path128" />
        <path
           d="m 56.517064,87.675634 v -0.06442 q 0.150809,-0.04978 0.232803,-0.155201 0.08346,-0.103956 0.08346,-0.221089 0,-0.02782 -0.01318,-0.04685 -0.01025,-0.01318 -0.0205,-0.01318 -0.01611,0 -0.07028,0.02928 -0.02636,0.01318 -0.05564,0.01318 -0.07174,0 -0.114205,-0.04246 -0.04246,-0.04246 -0.04246,-0.117133 0,-0.07174 0.05417,-0.12299 0.05564,-0.05125 0.134704,-0.05125 0.09663,0 0.171307,0.08492 0.07614,0.08346 0.07614,0.222553 0,0.150809 -0.105419,0.279656 -0.103956,0.13031 -0.330902,0.204983 z"
           style="font-size:2.99861px;font-family:'Times New Roman';-inkscape-font-specification:'Times New Roman, Normal'"
           id="path130" />
        <path
           d="m 57.257932,85.5687 q 0.08492,-0.20059 0.213768,-0.308939 0.130311,-0.109812 0.323581,-0.109812 0.238658,0 0.366041,0.155202 0.09663,0.115669 0.09663,0.247443 0,0.216697 -0.272335,0.448035 0.183021,0.07174 0.276727,0.204983 0.09371,0.133239 0.09371,0.313331 0,0.257693 -0.163987,0.446571 -0.213768,0.245979 -0.619342,0.245979 -0.20059,0 -0.273798,-0.04978 -0.07174,-0.04978 -0.07174,-0.106884 0,-0.04246 0.03368,-0.07467 0.03514,-0.03221 0.08346,-0.03221 0.0366,0 0.07467,0.01171 0.02489,0.0073 0.112741,0.05417 0.08785,0.04539 0.121525,0.05417 0.05418,0.01611 0.11567,0.01611 0.149344,0 0.259157,-0.115669 0.111276,-0.115669 0.111276,-0.273799 0,-0.115669 -0.05125,-0.225481 -0.03807,-0.08199 -0.08346,-0.124454 -0.06296,-0.05857 -0.172771,-0.10542 -0.109813,-0.04832 -0.224018,-0.04832 h -0.04685 v -0.04392 q 0.115669,-0.01464 0.231338,-0.08346 0.117133,-0.06882 0.169843,-0.165451 0.05271,-0.09664 0.05271,-0.212304 0,-0.150809 -0.09517,-0.243051 -0.09371,-0.09371 -0.234267,-0.09371 -0.226945,0 -0.379219,0.243052 z"
           style="font-size:2.99861px;font-family:'Times New Roman';-inkscape-font-specification:'Times New Roman, Normal'"
           id="path132" />
        <path
           d="m 58.864121,85.145557 v -0.05125 q 0.244516,0.03221 0.396789,0.197662 0.153737,0.163987 0.153737,0.366041 0,0.10542 -0.03368,0.244516 -0.03368,0.139096 -0.03368,0.216696 0,0.10542 0.08785,0.197663 0.08931,0.09078 0.24598,0.111276 v 0.06003 q -0.156666,0.0205 -0.24598,0.112741 -0.08785,0.09078 -0.08785,0.196198 0,0.0776 0.03368,0.21816 0.03368,0.139096 0.03368,0.244516 0,0.199126 -0.153737,0.364577 -0.152273,0.165451 -0.396789,0.199126 v -0.05125 q 0.171307,-0.04246 0.250372,-0.134704 0.08053,-0.09224 0.08053,-0.204983 0,-0.08638 -0.03368,-0.228409 -0.03368,-0.14056 -0.03368,-0.238659 0,-0.149345 0.108348,-0.288441 0.109812,-0.139096 0.325045,-0.215232 -0.21084,-0.0776 -0.322117,-0.219625 -0.111276,-0.142024 -0.111276,-0.289905 0,-0.09956 0.03368,-0.240123 0.03368,-0.142024 0.03368,-0.228409 0,-0.111277 -0.08053,-0.203519 -0.07906,-0.09371 -0.250372,-0.134703 z"
           style="font-size:2.99861px;font-family:'Times New Roman';-inkscape-font-specification:'Times New Roman, Normal'"
           id="path134" />
      </g>
    </g>
    <g
       id="text817"
       style="font-size:4.23333px;line-height:125%;font-family:MaplePi;-inkscape-font-specification:MaplePi;letter-spacing:0px;word-spacing:0px;stroke-width:0.264583px" />
    <g
       id="g4492"
       transform="translate(6.783963,-4.4184113)" />
    <g
       id="g8610"
       transform="translate(0.59291607,33.223427)">
      <path
         id="path825-6"
         style="fill:#d9d9d9;stroke:#000000;stroke-width:0.176389"
         d="m 71.985741,40.170097 a 5.3777776,5.3777776 0 0 1 -5.377777,5.377778 5.3777776,5.3777776 0 0 1 -5.377778,-5.377778 5.3777776,5.3777776 0 0 1 5.377778,-5.377777 5.3777776,5.3777776 0 0 1 5.377777,5.377777 z" />
      <path
         id="path825-7-5"
         style="fill:none;stroke:#000000;stroke-width:0.176389"
         d="m 71.305511,40.170097 a 4.6975479,4.6975479 0 0 1 -4.697547,4.697548 4.6975479,4.6975479 0 0 1 -4.697548,-4.697548 4.6975479,4.6975479 0 0 1 4.697548,-4.697548 4.6975479,4.6975479 0 0 1 4.697547,4.697548 z" />
      <g
         aria-label="{1,2,3}"
         id="text10575"
         style="font-size:6.35px;line-height:1.25;font-family:Helvetica;-inkscape-font-specification:'Helvetica, Normal';font-variant-ligatures:none;stroke-width:0.264583">
        <path
           d="m 63.375818,41.483454 v 0.05125 q -0.244516,-0.03368 -0.398253,-0.199127 -0.152273,-0.163986 -0.152273,-0.364577 0,-0.10542 0.03368,-0.244515 0.03368,-0.14056 0.03368,-0.218161 0,-0.10542 -0.08931,-0.196198 -0.08785,-0.09224 -0.244515,-0.112741 v -0.06003 q 0.156665,-0.0205 0.244515,-0.111277 0.08931,-0.09078 0.08931,-0.197662 0,-0.0776 -0.03368,-0.216697 -0.03368,-0.139095 -0.03368,-0.245979 0,-0.199127 0.152273,-0.364578 0.153737,-0.16545 0.398253,-0.197662 v 0.05125 q -0.171308,0.041 -0.251837,0.134703 -0.07906,0.09224 -0.07906,0.203519 0,0.08639 0.03221,0.22841 0.03368,0.14056 0.03368,0.240123 0,0.147881 -0.108348,0.286976 -0.108349,0.139096 -0.323581,0.215233 0.21084,0.0776 0.320652,0.219624 0.111277,0.142024 0.111277,0.289905 0,0.09956 -0.03368,0.240123 -0.03221,0.142024 -0.03221,0.22841 0,0.111276 0.07906,0.203519 0.08053,0.09371 0.251837,0.136167 z"
           style="font-size:2.99861px;font-family:'Times New Roman';-inkscape-font-specification:'Times New Roman, Normal'"
           id="path140" />
        <path
           d="m 63.935129,39.096865 0.483174,-0.235731 h 0.04832 v 1.676469 q 0,0.166915 0.01318,0.207912 0.01464,0.041 0.05857,0.06296 0.04393,0.02196 0.178628,0.02489 v 0.05417 h -0.746724 v -0.05417 q 0.14056,-0.0029 0.181556,-0.02343 0.041,-0.02196 0.0571,-0.0571 0.0161,-0.0366 0.0161,-0.215233 v -1.071768 q 0,-0.216697 -0.01464,-0.278192 -0.01025,-0.04685 -0.03807,-0.06882 -0.02635,-0.02196 -0.06442,-0.02196 -0.05417,0 -0.150809,0.04539 z"
           style="font-size:2.99861px;font-family:'Times New Roman';-inkscape-font-specification:'Times New Roman, Normal'"
           id="path142" />
        <path
           d="m 65.244092,41.386819 v -0.06442 q 0.150809,-0.04978 0.232802,-0.155202 0.08346,-0.103955 0.08346,-0.221088 0,-0.02782 -0.01318,-0.04685 -0.01025,-0.01318 -0.0205,-0.01318 -0.01611,0 -0.07028,0.02928 -0.02635,0.01318 -0.05564,0.01318 -0.07174,0 -0.114205,-0.04246 -0.04246,-0.04246 -0.04246,-0.117133 0,-0.07174 0.05417,-0.12299 0.05564,-0.05125 0.134703,-0.05125 0.09664,0 0.171308,0.08492 0.07614,0.08346 0.07614,0.222554 0,0.150809 -0.10542,0.279655 -0.103955,0.130311 -0.330901,0.204983 z"
           style="font-size:2.99861px;font-family:'Times New Roman';-inkscape-font-specification:'Times New Roman, Normal'"
           id="path144" />
        <path
           d="m 67.207538,40.505392 -0.139096,0.382147 H 65.89711 v -0.05417 q 0.51685,-0.471461 0.72769,-0.770151 0.21084,-0.29869 0.21084,-0.546134 0,-0.188877 -0.115669,-0.310403 -0.115669,-0.121525 -0.276728,-0.121525 -0.146416,0 -0.263549,0.08638 -0.115669,0.08492 -0.171308,0.250373 h -0.05417 q 0.0366,-0.270871 0.187413,-0.415823 0.152274,-0.144953 0.379219,-0.144953 0.241587,0 0.402646,0.155202 0.162522,0.155201 0.162522,0.366041 0,0.150809 -0.07028,0.301618 -0.108348,0.237195 -0.3514,0.502209 -0.364577,0.398253 -0.455355,0.480246 h 0.518315 q 0.158129,0 0.221088,-0.01171 0.06442,-0.01171 0.115669,-0.04685 0.05125,-0.0366 0.08931,-0.102491 z"
           style="font-size:2.99861px;font-family:'Times New Roman';-inkscape-font-specification:'Times New Roman, Normal'"
           id="path146" />
        <path
           d="m 67.49305,41.386819 v -0.06442 q 0.150809,-0.04978 0.232802,-0.155202 0.08346,-0.103955 0.08346,-0.221088 0,-0.02782 -0.01318,-0.04685 -0.01025,-0.01318 -0.0205,-0.01318 -0.01611,0 -0.07028,0.02928 -0.02635,0.01318 -0.05564,0.01318 -0.07174,0 -0.114204,-0.04246 -0.04246,-0.04246 -0.04246,-0.117133 0,-0.07174 0.05417,-0.12299 0.05564,-0.05125 0.134703,-0.05125 0.09663,0 0.171307,0.08492 0.07614,0.08346 0.07614,0.222554 0,0.150809 -0.10542,0.279655 -0.103956,0.130311 -0.330901,0.204983 z"
           style="font-size:2.99861px;font-family:'Times New Roman';-inkscape-font-specification:'Times New Roman, Normal'"
           id="path148" />
        <path
           d="m 68.233917,39.279886 q 0.08492,-0.200591 0.213768,-0.308939 0.130311,-0.109813 0.323581,-0.109813 0.238659,0 0.366041,0.155202 0.09663,0.115669 0.09663,0.247444 0,0.216696 -0.272335,0.448034 0.183021,0.07174 0.276727,0.204983 0.09371,0.13324 0.09371,0.313332 0,0.257693 -0.163986,0.44657 -0.213769,0.24598 -0.619342,0.24598 -0.200591,0 -0.273799,-0.04978 -0.07174,-0.04978 -0.07174,-0.106884 0,-0.04246 0.03368,-0.07467 0.03514,-0.03221 0.08346,-0.03221 0.0366,0 0.07467,0.01171 0.02489,0.0073 0.112741,0.05418 0.08785,0.04539 0.121526,0.05417 0.05417,0.01611 0.115669,0.01611 0.149345,0 0.259157,-0.11567 0.111277,-0.115669 0.111277,-0.273798 0,-0.115669 -0.05125,-0.225482 -0.03807,-0.08199 -0.08346,-0.124454 -0.06296,-0.05857 -0.172771,-0.10542 -0.109812,-0.04832 -0.224017,-0.04832 h -0.04685 v -0.04392 q 0.115669,-0.01464 0.231338,-0.08346 0.117134,-0.06882 0.169844,-0.16545 0.05271,-0.09664 0.05271,-0.212304 0,-0.150809 -0.09517,-0.243052 -0.09371,-0.09371 -0.234267,-0.09371 -0.226945,0 -0.379218,0.243051 z"
           style="font-size:2.99861px;font-family:'Times New Roman';-inkscape-font-specification:'Times New Roman, Normal'"
           id="path150" />
        <path
           d="m 69.840107,38.856742 v -0.05125 q 0.244515,0.03221 0.396788,0.197662 0.153738,0.163987 0.153738,0.366042 0,0.10542 -0.03368,0.244515 -0.03368,0.139096 -0.03368,0.216697 0,0.10542 0.08785,0.197662 0.08931,0.09078 0.24598,0.111277 v 0.06003 q -0.156666,0.0205 -0.24598,0.112741 -0.08785,0.09078 -0.08785,0.196198 0,0.0776 0.03368,0.218161 0.03368,0.139095 0.03368,0.244515 0,0.199127 -0.153738,0.364577 -0.152273,0.165451 -0.396788,0.199127 v -0.05125 q 0.171307,-0.04246 0.250372,-0.134703 0.08053,-0.09224 0.08053,-0.204983 0,-0.08639 -0.03368,-0.22841 -0.03368,-0.14056 -0.03368,-0.238659 0,-0.149345 0.108348,-0.28844 0.109813,-0.139096 0.325045,-0.215233 -0.21084,-0.0776 -0.322116,-0.219624 -0.111277,-0.142024 -0.111277,-0.289905 0,-0.09956 0.03368,-0.240123 0.03368,-0.142024 0.03368,-0.22841 0,-0.111276 -0.08053,-0.203519 -0.07906,-0.09371 -0.250372,-0.134703 z"
           style="font-size:2.99861px;font-family:'Times New Roman';-inkscape-font-specification:'Times New Roman, Normal'"
           id="path152" />
      </g>
    </g>
    <g
       id="g8598"
       transform="translate(-22.834824,23.709685)">
      <path
         id="circle5204"
         style="fill:#d9d9d9;stroke:#000000;stroke-width:0.176389"
         d="m 72.141335,70.759323 a 5.3777776,5.3777776 0 0 1 -5.377778,5.377778 5.3777776,5.3777776 0 0 1 -5.377777,-5.377778 5.3777776,5.3777776 0 0 1 5.377777,-5.377777 5.3777776,5.3777776 0 0 1 5.377778,5.377777 z" />
      <g
         aria-label="∅"
         id="text32317"
         style="font-size:6.35px;line-height:1.25;font-family:cmmi12;-inkscape-font-specification:cmmi12;font-variant-ligatures:none;stroke-width:0.264583">
        <path
           d="m 67.343364,69.848611 0.130311,-0.161058 h 0.155201 l -0.187413,0.229874 q 0.153738,0.121525 0.254765,0.300153 0.146416,0.260622 0.146416,0.541741 0,0.28112 -0.146416,0.541742 -0.146417,0.259157 -0.40411,0.398252 -0.257693,0.139096 -0.528563,0.139096 -0.273799,0 -0.531492,-0.139096 -0.08199,-0.04393 -0.152273,-0.101027 l -0.184485,0.22841 h -0.153737 l 0.248908,-0.307475 q -0.09224,-0.09663 -0.161059,-0.219625 -0.144952,-0.259157 -0.144952,-0.540277 0,-0.281119 0.144952,-0.540276 0.144953,-0.260622 0.402646,-0.399717 0.257693,-0.139096 0.531492,-0.139096 0.27087,0 0.528563,0.139096 0.02635,0.01464 0.05125,0.02928 z m -1.229899,1.518339 1.106909,-1.366066 -0.0205,-0.01171 q -0.212304,-0.114205 -0.436321,-0.114205 -0.225482,0 -0.43925,0.115669 -0.212304,0.114205 -0.332365,0.329437 -0.118598,0.212304 -0.120062,0.439249 0.0015,0.226946 0.120062,0.43925 0.05271,0.09371 0.121525,0.168379 z m 1.206472,-1.298714 -1.117157,1.379243 q 0.0571,0.04539 0.122989,0.08053 0.212304,0.115669 0.437786,0.115669 0.224017,0 0.436321,-0.114205 0.212304,-0.115669 0.33383,-0.330901 0.120061,-0.212304 0.121525,-0.43925 -0.0015,-0.226945 -0.121525,-0.439249 -0.08492,-0.150809 -0.213769,-0.251836 z"
           style="font-size:2.99861px;font-family:sans-serif;-inkscape-font-specification:'sans-serif, Normal'"
           id="path156" />
      </g>
    </g>
    <g
       id="g8604">
      <path
         id="circle5211"
         style="fill:#d9d9d9;stroke:#000000;stroke-width:0.176389"
         d="m 49.306511,73.393524 a 5.3777776,5.3777776 0 0 1 -5.377777,5.377778 5.3777776,5.3777776 0 0 1 -5.377778,-5.377778 5.3777776,5.3777776 0 0 1 5.377778,-5.377777 5.3777776,5.3777776 0 0 1 5.377777,5.377777 z" />
      <path
         id="circle5213"
         style="fill:none;stroke:#000000;stroke-width:0.176389"
         d="m 48.626282,73.393524 a 4.6975479,4.6975479 0 0 1 -4.697548,4.697548 4.6975479,4.6975479 0 0 1 -4.697548,-4.697548 4.6975479,4.6975479 0 0 1 4.697548,-4.697548 4.6975479,4.6975479 0 0 1 4.697548,4.697548 z" />
      <g
         aria-label="{1,2}"
         id="text5301"
         style="font-size:6.35px;line-height:1.25;font-family:Helvetica;-inkscape-font-specification:'Helvetica, Normal';font-variant-ligatures:none;stroke-width:0.264583">
        <path
           d="m 41.821069,74.706877 v 0.05125 q -0.244515,-0.03368 -0.398253,-0.199127 -0.152273,-0.163986 -0.152273,-0.364577 0,-0.10542 0.03368,-0.244515 0.03368,-0.14056 0.03368,-0.218161 0,-0.10542 -0.08931,-0.196198 -0.08785,-0.09224 -0.244516,-0.112741 v -0.06003 q 0.156666,-0.0205 0.244516,-0.111277 0.08931,-0.09078 0.08931,-0.197662 0,-0.0776 -0.03368,-0.216697 -0.03368,-0.139095 -0.03368,-0.245979 0,-0.199127 0.152273,-0.364578 0.153738,-0.16545 0.398253,-0.197662 v 0.05125 q -0.171307,0.041 -0.251836,0.134703 -0.07906,0.09224 -0.07906,0.203519 0,0.08639 0.03221,0.22841 0.03368,0.14056 0.03368,0.240123 0,0.147881 -0.108348,0.286976 -0.108348,0.139096 -0.32358,0.215233 0.210839,0.0776 0.320652,0.219624 0.111276,0.142024 0.111276,0.289905 0,0.09956 -0.03368,0.240123 -0.03221,0.142024 -0.03221,0.22841 0,0.111276 0.07906,0.203519 0.08053,0.09371 0.251836,0.136167 z"
           style="font-size:2.99861px;font-family:'Times New Roman';-inkscape-font-specification:'Times New Roman, Normal'"
           id="path161" />
        <path
           d="m 42.38038,72.320288 0.483175,-0.235731 h 0.04832 v 1.676469 q 0,0.166915 0.01318,0.207912 0.01464,0.041 0.05857,0.06296 0.04393,0.02196 0.178628,0.02489 v 0.05417 H 42.41552 v -0.05417 q 0.14056,-0.0029 0.181557,-0.02343 0.041,-0.02196 0.0571,-0.0571 0.01611,-0.0366 0.01611,-0.215233 v -1.071768 q 0,-0.216697 -0.01464,-0.278192 -0.01025,-0.04685 -0.03807,-0.06882 -0.02636,-0.02196 -0.06442,-0.02196 -0.05417,0 -0.150809,0.04539 z"
           style="font-size:2.99861px;font-family:'Times New Roman';-inkscape-font-specification:'Times New Roman, Normal'"
           id="path163" />
        <path
           d="m 43.689344,74.610242 v -0.06442 q 0.150809,-0.04978 0.232802,-0.155202 0.08346,-0.103955 0.08346,-0.221088 0,-0.02782 -0.01318,-0.04685 -0.01025,-0.01318 -0.0205,-0.01318 -0.01611,0 -0.07028,0.02928 -0.02636,0.01318 -0.05564,0.01318 -0.07174,0 -0.114205,-0.04246 -0.04246,-0.04246 -0.04246,-0.117133 0,-0.07175 0.05417,-0.12299 0.05564,-0.05125 0.134703,-0.05125 0.09663,0 0.171307,0.08492 0.07614,0.08346 0.07614,0.222554 0,0.150809 -0.10542,0.279655 -0.103956,0.130311 -0.330901,0.204983 z"
           style="font-size:2.99861px;font-family:'Times New Roman';-inkscape-font-specification:'Times New Roman, Normal'"
           id="path165" />
        <path
           d="m 45.652789,73.728815 -0.139096,0.382147 h -1.171332 v -0.05417 q 0.516851,-0.471461 0.72769,-0.770151 0.21084,-0.29869 0.21084,-0.546134 0,-0.188877 -0.115669,-0.310403 -0.115669,-0.121525 -0.276727,-0.121525 -0.146417,0 -0.26355,0.08638 -0.115669,0.08492 -0.171307,0.250373 h -0.05417 q 0.0366,-0.270871 0.187413,-0.415823 0.152273,-0.144953 0.379219,-0.144953 0.241587,0 0.402645,0.155202 0.162522,0.155201 0.162522,0.366041 0,0.150809 -0.07028,0.301618 -0.108348,0.237195 -0.351399,0.502209 -0.364577,0.398253 -0.455355,0.480246 h 0.518314 q 0.15813,0 0.221089,-0.01171 0.06442,-0.01171 0.115669,-0.04685 0.05125,-0.0366 0.08931,-0.102491 z"
           style="font-size:2.99861px;font-family:'Times New Roman';-inkscape-font-specification:'Times New Roman, Normal'"
           id="path167" />
        <path
           d="m 46.0364,72.080165 v -0.05125 q 0.244516,0.03221 0.396789,0.197662 0.153737,0.163987 0.153737,0.366042 0,0.10542 -0.03367,0.244515 -0.03368,0.139096 -0.03368,0.216697 0,0.10542 0.08785,0.197662 0.08931,0.09078 0.245979,0.111277 v 0.06003 q -0.156665,0.0205 -0.245979,0.112741 -0.08785,0.09078 -0.08785,0.196198 0,0.0776 0.03368,0.218161 0.03367,0.139095 0.03367,0.244515 0,0.199127 -0.153737,0.364577 -0.152273,0.165451 -0.396789,0.199127 v -0.05125 q 0.171308,-0.04246 0.250373,-0.134703 0.08053,-0.09224 0.08053,-0.204983 0,-0.08639 -0.03368,-0.22841 -0.03368,-0.14056 -0.03368,-0.238659 0,-0.149345 0.108348,-0.28844 0.109813,-0.139096 0.325045,-0.215233 -0.21084,-0.0776 -0.322116,-0.219624 -0.111277,-0.142024 -0.111277,-0.289905 0,-0.09956 0.03368,-0.240123 0.03368,-0.142024 0.03368,-0.22841 0,-0.111276 -0.08053,-0.203519 -0.07906,-0.09371 -0.250373,-0.134703 z"
           style="font-size:2.99861px;font-family:'Times New Roman';-inkscape-font-specification:'Times New Roman, Normal'"
           id="path169" />
      </g>
    </g>
  </g>
</svg>
