<?xml version="1.0" encoding="UTF-8" standalone="no"?>
<!-- Created with Inkscape (http://www.inkscape.org/) -->

<svg
   width="45.487522pt"
   height="94.652252pt"
   viewBox="0 0 16.046987 33.391211"
   version="1.1"
   id="svg5"
   inkscape:version="1.1.2 (0a00cf5339, 2022-02-04)"
   sodipodi:docname="book2_1b.svg"
   xmlns:inkscape="http://www.inkscape.org/namespaces/inkscape"
   xmlns:sodipodi="http://sodipodi.sourceforge.net/DTD/sodipodi-0.dtd"
   xmlns="http://www.w3.org/2000/svg"
   xmlns:svg="http://www.w3.org/2000/svg">
  <sodipodi:namedview
     id="namedview7"
     pagecolor="#ffffff"
     bordercolor="#666666"
     borderopacity="1.0"
     inkscape:pageshadow="2"
     inkscape:pageopacity="0.0"
     inkscape:pagecheckerboard="0"
     inkscape:document-units="mm"
     showgrid="false"
     inkscape:zoom="2.4393304"
     inkscape:cx="-24.186965"
     inkscape:cy="97.567759"
     inkscape:window-width="1920"
     inkscape:window-height="1022"
     inkscape:window-x="0"
     inkscape:window-y="0"
     inkscape:window-maximized="1"
     inkscape:current-layer="layer1"
     inkscape:snap-global="false"
     lock-margins="true"
     units="pt"
     fit-margin-top="1"
     fit-margin-left="1"
     fit-margin-right="1"
     fit-margin-bottom="1" />
  <defs
     id="defs2" />
  <g
     inkscape:label="Layer 1"
     inkscape:groupmode="layer"
     id="layer1"
     transform="translate(-62.711876,-50.834812)">
    <g
       aria-label="E"
       id="text14792"
       style="font-style:italic;font-size:4.23333px;line-height:1.25;font-family:'Times New Roman';-inkscape-font-specification:'Times New Roman, Italic';font-variant-ligatures:none;stroke-width:0.264583">
      <path
         d="m 64.61081,58.952021 -0.320393,1.107942 h 0.262516 q 0.281119,0 0.40721,-0.08475 0.12609,-0.08682 0.217041,-0.318327 h 0.07648 l -0.287321,1.016991 h -0.08268 q 0.03721,-0.128157 0.03721,-0.219107 0,-0.08888 -0.03721,-0.142627 -0.03514,-0.05374 -0.09922,-0.07855 -0.06201,-0.02687 -0.264583,-0.02687 h -0.26665 l -0.270784,0.928108 q -0.03927,0.134358 -0.03927,0.204638 0,0.05374 0.05168,0.09509 0.03514,0.02894 0.1757,0.02894 h 0.248046 q 0.403076,0 0.644922,-0.142627 0.243912,-0.142627 0.436148,-0.496093 h 0.07648 l -0.264583,0.779279 h -2.166274 l 0.02687,-0.07648 q 0.16123,-0.0041 0.217041,-0.02894 0.08268,-0.03721 0.119889,-0.09509 0.05581,-0.08475 0.132291,-0.355533 l 0.49196,-1.690852 q 0.05788,-0.204638 0.05788,-0.312125 0,-0.07855 -0.05581,-0.121957 -0.05374,-0.04548 -0.212907,-0.04548 h -0.04341 l 0.0248,-0.07648 h 2.013313 l -0.173633,0.675927 h -0.07648 q 0.01447,-0.09508 0.01447,-0.159163 0,-0.109554 -0.05374,-0.183968 -0.07028,-0.09508 -0.204639,-0.144694 -0.09922,-0.03721 -0.456819,-0.03721 z"
         id="path32" />
    </g>
    <g
       aria-label="T"
       id="text14796"
       style="font-style:italic;font-size:4.23333px;line-height:1.25;font-family:'Times New Roman';-inkscape-font-specification:'Times New Roman, Italic';font-variant-ligatures:none;stroke-width:0.264583">
      <path
         d="m 63.628959,66.371298 h 2.129067 l -0.229443,0.74414 h -0.07855 q 0.03927,-0.163298 0.03927,-0.291455 0,-0.150895 -0.09302,-0.227376 -0.07028,-0.05788 -0.361735,-0.05788 h -0.221175 l -0.553971,1.93063 q -0.10542,0.363802 -0.10542,0.448551 0,0.07855 0.06615,0.130224 0.06615,0.04961 0.233577,0.04961 h 0.09508 l -0.02481,0.07648 h -1.219563 l 0.02274,-0.07648 h 0.05374 q 0.161231,0 0.248047,-0.05168 0.05994,-0.03514 0.107487,-0.12609 0.04961,-0.09302 0.136426,-0.390673 l 0.580842,-1.990575 h -0.167431 q -0.241846,0 -0.390674,0.06201 -0.146761,0.06201 -0.237711,0.179834 -0.09095,0.117822 -0.148828,0.334863 h -0.07648 z"
         id="path35" />
    </g>
    <g
       aria-label="F"
       id="text14800"
       style="font-style:italic;font-size:4.23333px;line-height:1.25;font-family:'Times New Roman';-inkscape-font-specification:'Times New Roman, Italic';font-variant-ligatures:none;stroke-width:0.264583">
      <path
         d="m 64.544666,74.090293 -0.330729,1.110009 h 0.367936 q 0.248047,0 0.370003,-0.07648 0.124023,-0.07648 0.254248,-0.326595 h 0.07855 l -0.291455,1.021126 h -0.08268 q 0.03101,-0.124024 0.03101,-0.204639 0,-0.12609 -0.08475,-0.194303 -0.08268,-0.07028 -0.312125,-0.07028 h -0.37207 l -0.243913,0.845426 q -0.06614,0.225309 -0.06614,0.299723 0,0.07648 0.05581,0.117822 0.05788,0.04134 0.279053,0.05581 l -0.02481,0.07648 h -1.107942 l 0.02687,-0.07648 q 0.16123,-0.0041 0.214974,-0.02894 0.08268,-0.03514 0.121956,-0.09508 0.05581,-0.08475 0.132291,-0.349332 l 0.494027,-1.688785 q 0.05994,-0.204638 0.05994,-0.320393 0,-0.05374 -0.02687,-0.09095 -0.02687,-0.03927 -0.08062,-0.05788 -0.05168,-0.0186 -0.208772,-0.0186 l 0.02481,-0.07648 h 2.174542 l -0.206706,0.709 h -0.07855 q 0.02274,-0.128157 0.02274,-0.21084 0,-0.136425 -0.07648,-0.214973 -0.07441,-0.08062 -0.192236,-0.113688 -0.08268,-0.02067 -0.370003,-0.02067 z"
         id="path38" />
    </g>
    <g
       aria-label="a"
       id="text14804"
       style="font-style:italic;font-size:4.23333px;line-height:1.25;font-family:'Times New Roman';-inkscape-font-specification:'Times New Roman, Italic';font-variant-ligatures:none;stroke-width:0.264583">
      <path
         d="m 65.004583,83.805031 v -0.250114 q -0.378271,0.318327 -0.808218,0.318327 -0.312126,0 -0.487826,-0.157097 -0.175699,-0.159163 -0.175699,-0.388606 0,-0.252181 0.23151,-0.440283 0.23151,-0.188102 0.675927,-0.188102 0.119889,0 0.260449,0.01654 0.14056,0.01447 0.303857,0.04754 v -0.28112 q 0,-0.142627 -0.132291,-0.248046 -0.132292,-0.10542 -0.396875,-0.10542 -0.202571,0 -0.56844,0.117822 -0.06615,0.02067 -0.08475,0.02067 -0.03307,0 -0.05788,-0.0248 -0.02274,-0.02481 -0.02274,-0.06201 0,-0.03514 0.02067,-0.05581 0.02894,-0.03101 0.233577,-0.08475 0.322461,-0.08682 0.487825,-0.08682 0.328662,0 0.51263,0.163297 0.183968,0.161231 0.183968,0.365869 v 1.149283 h 0.23151 q 0.06408,0 0.09095,0.02481 0.02687,0.02274 0.02687,0.06201 0,0.03721 -0.02687,0.06201 -0.02687,0.02481 -0.09095,0.02481 z m 0,-0.864029 q -0.121956,-0.03514 -0.258382,-0.05168 -0.136425,-0.01654 -0.28732,-0.01654 -0.378272,0 -0.591178,0.163297 -0.161231,0.121956 -0.161231,0.291455 0,0.157096 0.121957,0.264583 0.124023,0.107487 0.359667,0.107487 0.225309,0 0.417546,-0.08888 0.194303,-0.09095 0.398941,-0.287321 z"
         style="font-style:normal;font-family:'Courier New';-inkscape-font-specification:'Courier New, Normal'"
         id="path41" />
    </g>
    <path
       style="font-variation-settings:normal;opacity:1;vector-effect:none;fill:none;fill-opacity:1;stroke:#000000;stroke-width:0.141111;stroke-linecap:butt;stroke-linejoin:miter;stroke-miterlimit:4;stroke-dasharray:none;stroke-dashoffset:0;stroke-opacity:1;-inkscape-stroke:none;stop-color:#000000;stop-opacity:1"
       d="m 64.531229,62.208702 v 3.557952"
       id="path14806" />
    <path
       style="font-variation-settings:normal;opacity:1;vector-effect:none;fill:none;fill-opacity:1;stroke:#000000;stroke-width:0.141111;stroke-linecap:butt;stroke-linejoin:miter;stroke-miterlimit:4;stroke-dasharray:none;stroke-dashoffset:0;stroke-opacity:1;-inkscape-stroke:none;stop-color:#000000;stop-opacity:1"
       d="m 64.531229,69.740293 v 3.635103"
       id="path14808" />
    <path
       style="font-variation-settings:normal;opacity:1;vector-effect:none;fill:none;fill-opacity:1;stroke:#000000;stroke-width:0.141111;stroke-linecap:butt;stroke-linejoin:miter;stroke-miterlimit:4;stroke-dasharray:none;stroke-dashoffset:0;stroke-opacity:1;-inkscape-stroke:none;stop-color:#000000;stop-opacity:1"
       d="M 64.531229,77.250462 V 81"
       id="path14810"
       sodipodi:nodetypes="cc" />
    <g
       aria-label="T"
       id="text14814"
       style="font-style:italic;font-size:4.23333px;line-height:1.25;font-family:'Times New Roman';-inkscape-font-specification:'Times New Roman, Italic';font-variant-ligatures:none;stroke-width:0.264583">
      <path
         d="m 76.037239,58.81743 h 2.129067 l -0.229443,0.74414 h -0.07855 q 0.03928,-0.163297 0.03928,-0.291455 0,-0.150895 -0.09302,-0.227376 -0.07028,-0.05788 -0.361735,-0.05788 h -0.221175 l -0.553971,1.93063 q -0.105419,0.363801 -0.105419,0.448551 0,0.07855 0.06615,0.130224 0.06615,0.04961 0.233578,0.04961 h 0.09508 l -0.0248,0.07648 h -1.219563 l 0.02274,-0.07648 h 0.05374 q 0.16123,0 0.248047,-0.05168 0.05994,-0.03514 0.107486,-0.12609 0.04961,-0.09302 0.136426,-0.390674 l 0.580843,-1.990574 h -0.167432 q -0.241845,0 -0.390673,0.06201 -0.146761,0.06201 -0.237712,0.179834 -0.09095,0.117822 -0.148828,0.334863 h -0.07648 z"
         id="path44" />
    </g>
    <g
       aria-label="F"
       id="text14818"
       style="font-style:italic;font-size:4.23333px;line-height:1.25;font-family:'Times New Roman';-inkscape-font-specification:'Times New Roman, Italic';font-variant-ligatures:none;stroke-width:0.264583">
      <path
         d="m 76.952945,66.536422 -0.330729,1.110009 h 0.367936 q 0.248047,0 0.370003,-0.07648 0.124024,-0.07648 0.254248,-0.326595 h 0.07855 l -0.291455,1.021125 h -0.08268 q 0.03101,-0.124023 0.03101,-0.204638 0,-0.126091 -0.08475,-0.194303 -0.08268,-0.07028 -0.312126,-0.07028 h -0.37207 l -0.243912,0.845425 q -0.06615,0.22531 -0.06615,0.299724 0,0.07648 0.05581,0.117822 0.05788,0.04134 0.279053,0.05581 l -0.02481,0.07648 h -1.107941 l 0.02687,-0.07648 q 0.161231,-0.0041 0.214974,-0.02894 0.08268,-0.03514 0.121956,-0.09508 0.05581,-0.08475 0.132292,-0.349333 L 76.463053,66.9519 q 0.05994,-0.204638 0.05994,-0.320394 0,-0.05374 -0.02687,-0.09095 -0.02687,-0.03927 -0.08062,-0.05788 -0.05168,-0.0186 -0.208773,-0.0186 l 0.02481,-0.07648 h 2.174542 l -0.206705,0.709 h -0.07855 q 0.02274,-0.128157 0.02274,-0.21084 0,-0.136425 -0.07648,-0.214973 -0.07441,-0.08062 -0.192236,-0.113689 -0.08268,-0.02067 -0.370003,-0.02067 z"
         id="path47" />
    </g>
    <g
       aria-label="a"
       id="text14822"
       style="font-style:italic;font-size:4.23333px;line-height:1.25;font-family:'Times New Roman';-inkscape-font-specification:'Times New Roman, Italic';font-variant-ligatures:none;stroke-width:0.264583">
      <path
         d="m 77.412863,83.805031 v -0.250114 q -0.378271,0.318327 -0.808219,0.318327 -0.312125,0 -0.487825,-0.157097 -0.1757,-0.159163 -0.1757,-0.388606 0,-0.252181 0.23151,-0.440283 0.231511,-0.188102 0.675928,-0.188102 0.119889,0 0.260449,0.01654 0.140559,0.01447 0.303857,0.04754 v -0.28112 q 0,-0.142627 -0.132292,-0.248046 -0.132291,-0.10542 -0.396875,-0.10542 -0.202571,0 -0.56844,0.117822 -0.06615,0.02067 -0.08475,0.02067 -0.03307,0 -0.05788,-0.0248 -0.02274,-0.02481 -0.02274,-0.06201 0,-0.03514 0.02067,-0.05581 0.02894,-0.03101 0.233578,-0.08475 0.32246,-0.08682 0.487825,-0.08682 0.328662,0 0.512629,0.163297 0.183968,0.161231 0.183968,0.365869 v 1.149283 h 0.231511 q 0.06408,0 0.09095,0.02481 0.02687,0.02274 0.02687,0.06201 0,0.03721 -0.02687,0.06201 -0.02687,0.02481 -0.09095,0.02481 z m 0,-0.864029 q -0.121957,-0.03514 -0.258382,-0.05168 -0.136426,-0.01654 -0.287321,-0.01654 -0.378271,0 -0.591178,0.163297 -0.16123,0.121956 -0.16123,0.291455 0,0.157096 0.121956,0.264583 0.124023,0.107487 0.359668,0.107487 0.225309,0 0.417545,-0.08888 0.194303,-0.09095 0.398942,-0.287321 z"
         style="font-style:normal;font-family:'Courier New';-inkscape-font-specification:'Courier New, Normal'"
         id="path50" />
    </g>
    <path
       style="font-variation-settings:normal;opacity:1;vector-effect:none;fill:none;fill-opacity:1;stroke:#000000;stroke-width:0.141111;stroke-linecap:butt;stroke-linejoin:miter;stroke-miterlimit:4;stroke-dasharray:none;stroke-dashoffset:0;stroke-opacity:1;-inkscape-stroke:none;stop-color:#000000;stop-opacity:1"
       d="m 76.939513,62.186424 v 3.635103"
       id="path14824" />
    <path
       style="font-variation-settings:normal;opacity:1;vector-effect:none;fill:none;fill-opacity:1;stroke:#000000;stroke-width:0.141111;stroke-linecap:butt;stroke-linejoin:miter;stroke-miterlimit:4;stroke-dasharray:none;stroke-dashoffset:0;stroke-opacity:1;-inkscape-stroke:none;stop-color:#000000;stop-opacity:1"
       d="M 76.939513,69.696593 V 81"
       id="path14826"
       sodipodi:nodetypes="cc" />
    <g
       aria-label="E"
       id="text15081"
       style="font-style:italic;font-size:4.23333px;line-height:1.25;font-family:'Times New Roman';-inkscape-font-specification:'Times New Roman, Italic';font-variant-ligatures:none;stroke-width:0.264583">
      <path
         d="m 70.814946,51.338484 -0.320393,1.107942 h 0.262516 q 0.281119,0 0.40721,-0.08475 0.12609,-0.08682 0.217041,-0.318327 h 0.07648 l -0.287321,1.016992 h -0.08268 q 0.03721,-0.128158 0.03721,-0.219108 0,-0.08888 -0.03721,-0.142627 -0.03514,-0.05374 -0.09922,-0.07855 -0.06201,-0.02687 -0.264583,-0.02687 h -0.26665 l -0.270785,0.928108 q -0.03927,0.134359 -0.03927,0.204639 0,0.05374 0.05168,0.09508 0.03514,0.02894 0.1757,0.02894 h 0.248046 q 0.403076,0 0.644922,-0.142627 0.243912,-0.142627 0.436148,-0.496093 h 0.07648 l -0.264583,0.77928 h -2.166274 l 0.02687,-0.07648 q 0.16123,-0.0041 0.217041,-0.02894 0.08268,-0.03721 0.119889,-0.09509 0.05581,-0.08475 0.132291,-0.355533 l 0.49196,-1.690852 q 0.05788,-0.204638 0.05788,-0.312125 0,-0.07855 -0.05581,-0.121956 -0.05374,-0.04548 -0.212907,-0.04548 h -0.04341 l 0.0248,-0.07648 h 2.013312 l -0.173632,0.675927 h -0.07648 q 0.01447,-0.09508 0.01447,-0.159163 0,-0.109554 -0.05374,-0.183968 -0.07028,-0.09508 -0.204639,-0.144694 -0.09922,-0.03721 -0.456819,-0.03721 z"
         id="path53" />
    </g>
    <g
       aria-label="+"
       id="text15085"
       style="font-style:italic;font-size:4.23333px;line-height:1.25;font-family:'Times New Roman';-inkscape-font-specification:'Times New Roman, Italic';font-variant-ligatures:none;stroke-width:0.264583">
      <path
         d="m 70.688012,82.68262 v 0.868163 q 0,0.06201 -0.02481,0.08888 -0.02481,0.02687 -0.06408,0.02687 -0.03721,0 -0.06201,-0.02687 -0.0248,-0.02687 -0.0248,-0.08888 V 82.68262 h -0.768945 q -0.06201,0 -0.08888,-0.02274 -0.02687,-0.02481 -0.02687,-0.06408 0,-0.03927 0.02687,-0.06201 0.02687,-0.02481 0.08888,-0.02481 h 0.768945 v -0.864029 q 0,-0.06201 0.0248,-0.08888 0.02481,-0.02687 0.06408,-0.02687 0.03721,0 0.06201,0.02687 0.02481,0.02687 0.02481,0.08888 v 0.864029 h 0.768944 q 0.06201,0 0.08888,0.02481 0.02687,0.02274 0.02687,0.06201 0,0.03927 -0.02687,0.06408 -0.02687,0.02274 -0.08888,0.02274 z"
         style="font-style:normal;font-family:'Courier New';-inkscape-font-specification:'Courier New, Normal'"
         id="path56" />
    </g>
    <path
       style="font-variation-settings:normal;opacity:1;vector-effect:none;fill:none;fill-opacity:1;stroke:#000000;stroke-width:0.141111;stroke-linecap:butt;stroke-linejoin:miter;stroke-miterlimit:4;stroke-dasharray:none;stroke-dashoffset:0;stroke-opacity:1;-inkscape-stroke:none;stop-color:#000000;stop-opacity:1"
       d="M 70.602847,54.75 V 81"
       id="path17892"
       sodipodi:nodetypes="cc" />
    <path
       style="font-variation-settings:normal;opacity:1;vector-effect:none;fill:none;fill-opacity:1;stroke:#000000;stroke-width:0.141111;stroke-linecap:butt;stroke-linejoin:miter;stroke-miterlimit:4;stroke-dasharray:none;stroke-dashoffset:0;stroke-opacity:1;-inkscape-stroke:none;stop-color:#000000;stop-opacity:1"
       d="m 70.00138,54.75 -4.793162,3.845812"
       id="path18064"
       sodipodi:nodetypes="cc" />
    <path
       style="font-variation-settings:normal;opacity:1;vector-effect:none;fill:none;fill-opacity:1;stroke:#000000;stroke-width:0.141111;stroke-linecap:butt;stroke-linejoin:miter;stroke-miterlimit:4;stroke-dasharray:none;stroke-dashoffset:0;stroke-opacity:1;-inkscape-stroke:none;stop-color:#000000;stop-opacity:1"
       d="m 71.193514,54.75 5.571908,3.721963"
       id="path18066"
       sodipodi:nodetypes="cc" />
  </g>
</svg>
