<?xml version="1.0" encoding="UTF-8" standalone="no"?>
<!-- Created with Inkscape (http://www.inkscape.org/) -->

<svg
   width="80.645462pt"
   height="127.61124pt"
   viewBox="0 0 28.449928 45.018408"
   version="1.1"
   id="svg5"
   inkscape:version="1.1.2 (0a00cf5339, 2022-02-04)"
   sodipodi:docname="book2_1c.svg"
   xmlns:inkscape="http://www.inkscape.org/namespaces/inkscape"
   xmlns:sodipodi="http://sodipodi.sourceforge.net/DTD/sodipodi-0.dtd"
   xmlns="http://www.w3.org/2000/svg"
   xmlns:svg="http://www.w3.org/2000/svg">
  <sodipodi:namedview
     id="namedview7"
     pagecolor="#ffffff"
     bordercolor="#666666"
     borderopacity="1.0"
     inkscape:pageshadow="2"
     inkscape:pageopacity="0.0"
     inkscape:pagecheckerboard="0"
     inkscape:document-units="mm"
     showgrid="false"
     inkscape:zoom="2.4393304"
     inkscape:cx="-68.461411"
     inkscape:cy="151.68097"
     inkscape:window-width="1920"
     inkscape:window-height="1022"
     inkscape:window-x="0"
     inkscape:window-y="0"
     inkscape:window-maximized="1"
     inkscape:current-layer="layer1"
     inkscape:snap-global="false"
     lock-margins="true"
     units="pt"
     fit-margin-top="1"
     fit-margin-left="1"
     fit-margin-right="1"
     fit-margin-bottom="1" />
  <defs
     id="defs2" />
  <g
     inkscape:label="Layer 1"
     inkscape:groupmode="layer"
     id="layer1"
     transform="translate(-95.915024,-39.207614)">
    <g
       aria-label="E"
       id="text18324"
       style="font-style:italic;font-size:4.23333px;line-height:1.25;font-family:'Times New Roman';-inkscape-font-specification:'Times New Roman, Italic';font-variant-ligatures:none;stroke-width:0.264583">
      <path
         d="m 97.813962,58.952021 -0.320393,1.107942 h 0.262516 q 0.281119,0 0.40721,-0.08475 0.12609,-0.08682 0.21704,-0.318327 h 0.07648 l -0.28732,1.016991 h -0.08268 q 0.03721,-0.128157 0.03721,-0.219107 0,-0.08888 -0.03721,-0.142627 -0.03514,-0.05374 -0.09922,-0.07855 -0.06201,-0.02687 -0.264583,-0.02687 h -0.26665 l -0.270785,0.928108 q -0.03927,0.134358 -0.03927,0.204638 0,0.05374 0.05168,0.09509 0.03514,0.02894 0.175699,0.02894 h 0.248047 q 0.403076,0 0.644921,-0.142627 0.243913,-0.142627 0.436149,-0.496093 h 0.07648 l -0.264583,0.779279 H 96.34842 l 0.02687,-0.07648 q 0.16123,-0.0041 0.21704,-0.02894 0.08268,-0.03721 0.11989,-0.09509 0.05581,-0.08475 0.132291,-0.355533 l 0.491959,-1.690852 q 0.05788,-0.204638 0.05788,-0.312125 0,-0.07855 -0.05581,-0.121957 -0.05374,-0.04548 -0.212906,-0.04548 h -0.04341 l 0.02481,-0.07648 h 2.013312 l -0.173632,0.675927 h -0.07648 q 0.01447,-0.09508 0.01447,-0.159163 0,-0.109554 -0.05374,-0.183968 -0.07028,-0.09508 -0.204638,-0.144694 -0.09922,-0.03721 -0.456819,-0.03721 z"
         id="path47" />
    </g>
    <g
       aria-label="T"
       id="text18328"
       style="font-style:italic;font-size:4.23333px;line-height:1.25;font-family:'Times New Roman';-inkscape-font-specification:'Times New Roman, Italic';font-variant-ligatures:none;stroke-width:0.264583">
      <path
         d="m 96.832107,66.371298 h 2.129067 l -0.229443,0.74414 h -0.07855 q 0.03927,-0.163298 0.03927,-0.291455 0,-0.150895 -0.09302,-0.227376 -0.07028,-0.05788 -0.361735,-0.05788 H 98.01653 l -0.553971,1.93063 q -0.10542,0.363802 -0.10542,0.448551 0,0.07855 0.06615,0.130224 0.06615,0.04961 0.233577,0.04961 h 0.09508 l -0.02481,0.07648 h -1.219563 l 0.02274,-0.07648 h 0.05374 q 0.161231,0 0.248047,-0.05168 0.05995,-0.03514 0.107487,-0.12609 0.04961,-0.09302 0.136426,-0.390673 l 0.580842,-1.990575 h -0.167431 q -0.241846,0 -0.390674,0.06201 -0.146761,0.06201 -0.237711,0.179834 -0.09095,0.117822 -0.148828,0.334863 h -0.07648 z"
         id="path50" />
    </g>
    <g
       aria-label="F"
       id="text18332"
       style="font-style:italic;font-size:4.23333px;line-height:1.25;font-family:'Times New Roman';-inkscape-font-specification:'Times New Roman, Italic';font-variant-ligatures:none;stroke-width:0.264583">
      <path
         d="m 97.747814,74.090293 -0.330729,1.110009 h 0.367936 q 0.248046,0 0.370003,-0.07648 0.124023,-0.07648 0.254248,-0.326595 h 0.07855 l -0.291455,1.021126 h -0.08268 q 0.03101,-0.124024 0.03101,-0.204639 0,-0.12609 -0.08475,-0.194303 -0.08268,-0.07028 -0.312125,-0.07028 h -0.37207 l -0.243913,0.845426 q -0.06615,0.225309 -0.06615,0.299723 0,0.07648 0.05581,0.117822 0.05788,0.04134 0.279052,0.05581 l -0.0248,0.07648 h -1.107942 l 0.02687,-0.07648 q 0.16123,-0.0041 0.214974,-0.02894 0.08268,-0.03514 0.121956,-0.09508 0.05581,-0.08475 0.132291,-0.349332 l 0.494027,-1.688785 q 0.05994,-0.204638 0.05994,-0.320393 0,-0.05374 -0.02687,-0.09095 -0.02687,-0.03927 -0.08062,-0.05788 -0.05168,-0.0186 -0.208772,-0.0186 l 0.0248,-0.07648 h 2.174543 l -0.206706,0.709 H 98.9157 q 0.02274,-0.128157 0.02274,-0.21084 0,-0.136425 -0.07648,-0.214973 -0.07441,-0.08062 -0.192236,-0.113688 -0.08268,-0.02067 -0.370003,-0.02067 z"
         id="path53" />
    </g>
    <g
       aria-label="a"
       id="text18336"
       style="font-style:italic;font-size:4.23333px;line-height:1.25;font-family:'Times New Roman';-inkscape-font-specification:'Times New Roman, Italic';font-variant-ligatures:none;stroke-width:0.264583">
      <path
         d="m 98.207731,83.805031 v -0.250114 q -0.378271,0.318327 -0.808219,0.318327 -0.312125,0 -0.487825,-0.157097 -0.175699,-0.159163 -0.175699,-0.388606 0,-0.252181 0.23151,-0.440283 0.23151,-0.188102 0.675927,-0.188102 0.119889,0 0.260449,0.01654 0.14056,0.01447 0.303857,0.04754 v -0.28112 q 0,-0.142627 -0.132291,-0.248046 -0.132292,-0.10542 -0.396875,-0.10542 -0.202572,0 -0.56844,0.117822 -0.06615,0.02067 -0.08475,0.02067 -0.03307,0 -0.05788,-0.0248 -0.02274,-0.02481 -0.02274,-0.06201 0,-0.03514 0.02067,-0.05581 0.02894,-0.03101 0.233577,-0.08475 0.322461,-0.08682 0.487825,-0.08682 0.328662,0 0.51263,0.163297 0.183968,0.161231 0.183968,0.365869 v 1.149283 h 0.23151 q 0.06408,0 0.09095,0.02481 0.02687,0.02274 0.02687,0.06201 0,0.03721 -0.02687,0.06201 -0.02687,0.02481 -0.09095,0.02481 z m 0,-0.864029 q -0.121956,-0.03514 -0.258382,-0.05168 -0.136425,-0.01654 -0.287321,-0.01654 -0.378271,0 -0.591177,0.163297 -0.161231,0.121956 -0.161231,0.291455 0,0.157096 0.121957,0.264583 0.124023,0.107487 0.359667,0.107487 0.225309,0 0.417545,-0.08888 0.194304,-0.09095 0.398942,-0.287321 z"
         style="font-style:normal;font-family:'Courier New';-inkscape-font-specification:'Courier New, Normal'"
         id="path56" />
    </g>
    <path
       style="font-variation-settings:normal;opacity:1;vector-effect:none;fill:none;fill-opacity:1;stroke:#000000;stroke-width:0.141111;stroke-linecap:butt;stroke-linejoin:miter;stroke-miterlimit:4;stroke-dasharray:none;stroke-dashoffset:0;stroke-opacity:1;-inkscape-stroke:none;stop-color:#000000;stop-opacity:1"
       d="m 97.73438,62.208702 v 3.557952"
       id="path18338" />
    <path
       style="font-variation-settings:normal;opacity:1;vector-effect:none;fill:none;fill-opacity:1;stroke:#000000;stroke-width:0.141111;stroke-linecap:butt;stroke-linejoin:miter;stroke-miterlimit:4;stroke-dasharray:none;stroke-dashoffset:0;stroke-opacity:1;-inkscape-stroke:none;stop-color:#000000;stop-opacity:1"
       d="m 97.73438,69.740293 v 3.635103"
       id="path18340" />
    <path
       style="font-variation-settings:normal;opacity:1;vector-effect:none;fill:none;fill-opacity:1;stroke:#000000;stroke-width:0.141111;stroke-linecap:butt;stroke-linejoin:miter;stroke-miterlimit:4;stroke-dasharray:none;stroke-dashoffset:0;stroke-opacity:1;-inkscape-stroke:none;stop-color:#000000;stop-opacity:1"
       d="M 97.73438,77.250462 V 81"
       id="path18342"
       sodipodi:nodetypes="cc" />
    <g
       aria-label="T"
       id="text18346"
       style="font-style:italic;font-size:4.23333px;line-height:1.25;font-family:'Times New Roman';-inkscape-font-specification:'Times New Roman, Italic';font-variant-ligatures:none;stroke-width:0.264583">
      <path
         d="m 109.24039,58.81743 h 2.12906 l -0.22944,0.74414 h -0.0786 q 0.0393,-0.163297 0.0393,-0.291455 0,-0.150895 -0.093,-0.227376 -0.0703,-0.05788 -0.36174,-0.05788 h -0.22117 l -0.55397,1.93063 q -0.10542,0.363801 -0.10542,0.448551 0,0.07855 0.0661,0.130224 0.0662,0.04961 0.23358,0.04961 h 0.0951 l -0.0248,0.07648 h -1.21956 l 0.0227,-0.07648 h 0.0537 q 0.16123,0 0.24805,-0.05168 0.0599,-0.03514 0.10748,-0.12609 0.0496,-0.09302 0.13643,-0.390674 l 0.58084,-1.990574 h -0.16743 q -0.24185,0 -0.39067,0.06201 -0.14676,0.06201 -0.23771,0.179834 -0.091,0.117822 -0.14883,0.334863 h -0.0765 z"
         id="path59" />
    </g>
    <g
       aria-label="F"
       id="text18350"
       style="font-style:italic;font-size:4.23333px;line-height:1.25;font-family:'Times New Roman';-inkscape-font-specification:'Times New Roman, Italic';font-variant-ligatures:none;stroke-width:0.264583">
      <path
         d="m 110.15609,66.536422 -0.33073,1.110009 h 0.36793 q 0.24805,0 0.37001,-0.07648 0.12402,-0.07648 0.25424,-0.326595 h 0.0786 l -0.29145,1.021125 h -0.0827 q 0.031,-0.124023 0.031,-0.204638 0,-0.126091 -0.0847,-0.194303 -0.0827,-0.07028 -0.31212,-0.07028 h -0.37207 l -0.24392,0.845425 q -0.0661,0.22531 -0.0661,0.299724 0,0.07648 0.0558,0.117822 0.0579,0.04134 0.27905,0.05581 l -0.0248,0.07648 h -1.10795 l 0.0269,-0.07648 q 0.16123,-0.0041 0.21497,-0.02894 0.0827,-0.03514 0.12196,-0.09508 0.0558,-0.08475 0.13229,-0.349333 l 0.49402,-1.688784 q 0.06,-0.204638 0.06,-0.320394 0,-0.05374 -0.0269,-0.09095 -0.0269,-0.03927 -0.0806,-0.05788 -0.0517,-0.0186 -0.20877,-0.0186 l 0.0248,-0.07648 h 2.17455 l -0.20671,0.709 h -0.0785 q 0.0227,-0.128157 0.0227,-0.21084 0,-0.136425 -0.0765,-0.214973 -0.0744,-0.08062 -0.19224,-0.113689 -0.0827,-0.02067 -0.37,-0.02067 z"
         id="path62" />
    </g>
    <g
       aria-label="a"
       id="text18354"
       style="font-style:italic;font-size:4.23333px;line-height:1.25;font-family:'Times New Roman';-inkscape-font-specification:'Times New Roman, Italic';font-variant-ligatures:none;stroke-width:0.264583">
      <path
         d="m 110.61601,83.805031 v -0.250114 q -0.37827,0.318327 -0.80822,0.318327 -0.31212,0 -0.48782,-0.157097 -0.1757,-0.159163 -0.1757,-0.388606 0,-0.252181 0.23151,-0.440283 0.23151,-0.188102 0.67592,-0.188102 0.11989,0 0.26045,0.01654 0.14056,0.01447 0.30386,0.04754 v -0.28112 q 0,-0.142627 -0.13229,-0.248046 -0.13229,-0.10542 -0.39688,-0.10542 -0.20257,0 -0.56844,0.117822 -0.0661,0.02067 -0.0847,0.02067 -0.0331,0 -0.0579,-0.0248 -0.0227,-0.02481 -0.0227,-0.06201 0,-0.03514 0.0207,-0.05581 0.0289,-0.03101 0.23358,-0.08475 0.32246,-0.08682 0.48782,-0.08682 0.32866,0 0.51263,0.163297 0.18397,0.161231 0.18397,0.365869 v 1.149283 h 0.23151 q 0.0641,0 0.091,0.02481 0.0269,0.02274 0.0269,0.06201 0,0.03721 -0.0269,0.06201 -0.0269,0.02481 -0.091,0.02481 z m 0,-0.864029 q -0.12196,-0.03514 -0.25838,-0.05168 -0.13643,-0.01654 -0.28732,-0.01654 -0.37827,0 -0.59118,0.163297 -0.16123,0.121956 -0.16123,0.291455 0,0.157096 0.12196,0.264583 0.12402,0.107487 0.35966,0.107487 0.22531,0 0.41755,-0.08888 0.1943,-0.09095 0.39894,-0.287321 z"
         style="font-style:normal;font-family:'Courier New';-inkscape-font-specification:'Courier New, Normal'"
         id="path65" />
    </g>
    <path
       style="font-variation-settings:normal;opacity:1;vector-effect:none;fill:none;fill-opacity:1;stroke:#000000;stroke-width:0.141111;stroke-linecap:butt;stroke-linejoin:miter;stroke-miterlimit:4;stroke-dasharray:none;stroke-dashoffset:0;stroke-opacity:1;-inkscape-stroke:none;stop-color:#000000;stop-opacity:1"
       d="m 110.14266,62.186424 v 3.635103"
       id="path18356" />
    <path
       style="font-variation-settings:normal;opacity:1;vector-effect:none;fill:none;fill-opacity:1;stroke:#000000;stroke-width:0.141111;stroke-linecap:butt;stroke-linejoin:miter;stroke-miterlimit:4;stroke-dasharray:none;stroke-dashoffset:0;stroke-opacity:1;-inkscape-stroke:none;stop-color:#000000;stop-opacity:1"
       d="M 110.14266,69.696593 V 81"
       id="path18358"
       sodipodi:nodetypes="cc" />
    <g
       aria-label="E"
       id="text18362"
       style="font-style:italic;font-size:4.23333px;line-height:1.25;font-family:'Times New Roman';-inkscape-font-specification:'Times New Roman, Italic';font-variant-ligatures:none;stroke-width:0.264583">
      <path
         d="m 104.01809,51.338484 -0.32039,1.107942 h 0.26252 q 0.28112,0 0.40721,-0.08475 0.12609,-0.08682 0.21704,-0.318327 h 0.0765 l -0.28732,1.016992 h -0.0827 q 0.0372,-0.128158 0.0372,-0.219108 0,-0.08888 -0.0372,-0.142627 -0.0351,-0.05374 -0.0992,-0.07855 -0.062,-0.02687 -0.26459,-0.02687 h -0.26665 l -0.27078,0.928108 q -0.0393,0.134359 -0.0393,0.204639 0,0.05374 0.0517,0.09508 0.0351,0.02894 0.1757,0.02894 h 0.24805 q 0.40307,0 0.64492,-0.142627 0.24391,-0.142627 0.43615,-0.496093 h 0.0765 l -0.26458,0.77928 h -2.16628 l 0.0269,-0.07648 q 0.16123,-0.0041 0.21704,-0.02894 0.0827,-0.03721 0.11989,-0.09509 0.0558,-0.08475 0.1323,-0.355533 l 0.49195,-1.690852 q 0.0579,-0.204638 0.0579,-0.312125 0,-0.07855 -0.0558,-0.121956 -0.0537,-0.04548 -0.21291,-0.04548 h -0.0434 l 0.0248,-0.07648 h 2.01331 l -0.17363,0.675927 h -0.0765 q 0.0145,-0.09508 0.0145,-0.159163 0,-0.109554 -0.0537,-0.183968 -0.0703,-0.09508 -0.20464,-0.144694 -0.0992,-0.03721 -0.45682,-0.03721 z"
         id="path68" />
    </g>
    <g
       aria-label="+"
       id="text18366"
       style="font-style:italic;font-size:4.23333px;line-height:1.25;font-family:'Times New Roman';-inkscape-font-specification:'Times New Roman, Italic';font-variant-ligatures:none;stroke-width:0.264583">
      <path
         d="m 103.89115,82.68262 v 0.868163 q 0,0.06201 -0.0248,0.08888 -0.0248,0.02687 -0.0641,0.02687 -0.0372,0 -0.062,-0.02687 -0.0248,-0.02687 -0.0248,-0.08888 V 82.68262 h -0.76894 q -0.062,0 -0.0889,-0.02274 -0.0269,-0.02481 -0.0269,-0.06408 0,-0.03927 0.0269,-0.06201 0.0269,-0.02481 0.0889,-0.02481 h 0.76894 v -0.864029 q 0,-0.06201 0.0248,-0.08888 0.0248,-0.02687 0.0641,-0.02687 0.0372,0 0.062,0.02687 0.0248,0.02687 0.0248,0.08888 v 0.864029 h 0.76895 q 0.062,0 0.0889,0.02481 0.0269,0.02274 0.0269,0.06201 0,0.03927 -0.0269,0.06408 -0.0269,0.02274 -0.0889,0.02274 z"
         style="font-style:normal;font-family:'Courier New';-inkscape-font-specification:'Courier New, Normal'"
         id="path71" />
    </g>
    <path
       style="font-variation-settings:normal;opacity:1;vector-effect:none;fill:none;fill-opacity:1;stroke:#000000;stroke-width:0.141111;stroke-linecap:butt;stroke-linejoin:miter;stroke-miterlimit:4;stroke-dasharray:none;stroke-dashoffset:0;stroke-opacity:1;-inkscape-stroke:none;stop-color:#000000;stop-opacity:1"
       d="M 103.806,54.75 V 81"
       id="path18368"
       sodipodi:nodetypes="cc" />
    <path
       style="font-variation-settings:normal;opacity:1;vector-effect:none;fill:none;fill-opacity:1;stroke:#000000;stroke-width:0.141111;stroke-linecap:butt;stroke-linejoin:miter;stroke-miterlimit:4;stroke-dasharray:none;stroke-dashoffset:0;stroke-opacity:1;-inkscape-stroke:none;stop-color:#000000;stop-opacity:1"
       d="m 103.20453,54.75 -4.793161,3.845812"
       id="path18370"
       sodipodi:nodetypes="cc" />
    <path
       style="font-variation-settings:normal;opacity:1;vector-effect:none;fill:none;fill-opacity:1;stroke:#000000;stroke-width:0.141111;stroke-linecap:butt;stroke-linejoin:miter;stroke-miterlimit:4;stroke-dasharray:none;stroke-dashoffset:0;stroke-opacity:1;-inkscape-stroke:none;stop-color:#000000;stop-opacity:1"
       d="m 104.39666,54.75 5.57191,3.721963"
       id="path18372"
       sodipodi:nodetypes="cc" />
    <g
       aria-label="T"
       id="text18376"
       style="font-style:italic;font-size:4.23333px;line-height:1.25;font-family:'Times New Roman';-inkscape-font-specification:'Times New Roman, Italic';font-variant-ligatures:none;stroke-width:0.264583">
      <path
         d="m 121.64333,58.81743 h 2.12907 l -0.22944,0.74414 h -0.0785 q 0.0393,-0.163297 0.0393,-0.291455 0,-0.150895 -0.093,-0.227376 -0.0703,-0.05788 -0.36174,-0.05788 h -0.22117 l -0.55398,1.93063 q -0.10541,0.363801 -0.10541,0.448551 0,0.07855 0.0661,0.130224 0.0661,0.04961 0.23358,0.04961 h 0.0951 l -0.0248,0.07648 h -1.21956 l 0.0227,-0.07648 h 0.0538 q 0.16123,0 0.24804,-0.05168 0.06,-0.03514 0.10749,-0.12609 0.0496,-0.09302 0.13643,-0.390674 l 0.58084,-1.990574 h -0.16743 q -0.24185,0 -0.39068,0.06201 -0.14676,0.06201 -0.23771,0.179834 -0.0909,0.117822 -0.14883,0.334863 h -0.0765 z"
         id="path74" />
    </g>
    <g
       aria-label="F"
       id="text18380"
       style="font-style:italic;font-size:4.23333px;line-height:1.25;font-family:'Times New Roman';-inkscape-font-specification:'Times New Roman, Italic';font-variant-ligatures:none;stroke-width:0.264583">
      <path
         d="m 122.55903,66.536422 -0.33073,1.110009 h 0.36794 q 0.24805,0 0.37,-0.07648 0.12403,-0.07648 0.25425,-0.326595 h 0.0786 l -0.29146,1.021125 h -0.0827 q 0.031,-0.124023 0.031,-0.204638 0,-0.126091 -0.0847,-0.194303 -0.0827,-0.07028 -0.31213,-0.07028 h -0.37207 l -0.24391,0.845425 q -0.0661,0.22531 -0.0661,0.299724 0,0.07648 0.0558,0.117822 0.0579,0.04134 0.27906,0.05581 l -0.0248,0.07648 h -1.10794 l 0.0269,-0.07648 q 0.16123,-0.0041 0.21498,-0.02894 0.0827,-0.03514 0.12195,-0.09508 0.0558,-0.08475 0.13229,-0.349333 l 0.49403,-1.688784 q 0.0599,-0.204638 0.0599,-0.320394 0,-0.05374 -0.0269,-0.09095 -0.0269,-0.03927 -0.0806,-0.05788 -0.0517,-0.0186 -0.20878,-0.0186 l 0.0248,-0.07648 h 2.17454 l -0.2067,0.709 h -0.0785 q 0.0227,-0.128157 0.0227,-0.21084 0,-0.136425 -0.0765,-0.214973 -0.0744,-0.08062 -0.19223,-0.113689 -0.0827,-0.02067 -0.37,-0.02067 z"
         id="path77" />
    </g>
    <g
       aria-label="a"
       id="text18384"
       style="font-style:italic;font-size:4.23333px;line-height:1.25;font-family:'Times New Roman';-inkscape-font-specification:'Times New Roman, Italic';font-variant-ligatures:none;stroke-width:0.264583">
      <path
         d="m 123.01896,83.805031 v -0.250114 q -0.37827,0.318327 -0.80822,0.318327 -0.31213,0 -0.48783,-0.157097 -0.1757,-0.159163 -0.1757,-0.388606 0,-0.252181 0.23151,-0.440283 0.23151,-0.188102 0.67593,-0.188102 0.11989,0 0.26045,0.01654 0.14056,0.01447 0.30386,0.04754 v -0.28112 q 0,-0.142627 -0.13229,-0.248046 -0.1323,-0.10542 -0.39688,-0.10542 -0.20257,0 -0.56844,0.117822 -0.0662,0.02067 -0.0847,0.02067 -0.0331,0 -0.0579,-0.0248 -0.0227,-0.02481 -0.0227,-0.06201 0,-0.03514 0.0207,-0.05581 0.0289,-0.03101 0.23357,-0.08475 0.32246,-0.08682 0.48783,-0.08682 0.32866,0 0.51263,0.163297 0.18397,0.161231 0.18397,0.365869 v 1.149283 h 0.23151 q 0.0641,0 0.091,0.02481 0.0269,0.02274 0.0269,0.06201 0,0.03721 -0.0269,0.06201 -0.0269,0.02481 -0.091,0.02481 z m 0,-0.864029 q -0.12196,-0.03514 -0.25838,-0.05168 -0.13643,-0.01654 -0.28733,-0.01654 -0.37827,0 -0.59117,0.163297 -0.16123,0.121956 -0.16123,0.291455 0,0.157096 0.12195,0.264583 0.12403,0.107487 0.35967,0.107487 0.22531,0 0.41755,-0.08888 0.1943,-0.09095 0.39894,-0.287321 z"
         style="font-style:normal;font-family:'Courier New';-inkscape-font-specification:'Courier New, Normal'"
         id="path80" />
    </g>
    <path
       style="font-variation-settings:normal;opacity:1;vector-effect:none;fill:none;fill-opacity:1;stroke:#000000;stroke-width:0.141111;stroke-linecap:butt;stroke-linejoin:miter;stroke-miterlimit:4;stroke-dasharray:none;stroke-dashoffset:0;stroke-opacity:1;-inkscape-stroke:none;stop-color:#000000;stop-opacity:1"
       d="m 122.5456,62.186424 v 3.635103"
       id="path18386" />
    <path
       style="font-variation-settings:normal;opacity:1;vector-effect:none;fill:none;fill-opacity:1;stroke:#000000;stroke-width:0.141111;stroke-linecap:butt;stroke-linejoin:miter;stroke-miterlimit:4;stroke-dasharray:none;stroke-dashoffset:0;stroke-opacity:1;-inkscape-stroke:none;stop-color:#000000;stop-opacity:1"
       d="M 122.5456,69.696593 V 81"
       id="path18388"
       sodipodi:nodetypes="cc" />
    <g
       aria-label="E"
       id="text18392"
       style="font-style:italic;font-size:4.23333px;line-height:1.25;font-family:'Times New Roman';-inkscape-font-specification:'Times New Roman, Italic';font-variant-ligatures:none;stroke-width:0.264583">
      <path
         d="m 116.42104,39.711287 -0.32039,1.107942 h 0.26251 q 0.28112,0 0.40721,-0.08475 0.12609,-0.08682 0.21704,-0.318327 h 0.0765 l -0.28732,1.016991 h -0.0827 q 0.0372,-0.128157 0.0372,-0.219107 0,-0.08888 -0.0372,-0.142627 -0.0351,-0.05374 -0.0992,-0.07855 -0.062,-0.02687 -0.26458,-0.02687 h -0.26665 l -0.27078,0.928108 q -0.0393,0.134358 -0.0393,0.204638 0,0.05374 0.0517,0.09508 0.0351,0.02894 0.1757,0.02894 h 0.24804 q 0.40308,0 0.64493,-0.142627 0.24391,-0.142627 0.43614,-0.496094 h 0.0765 l -0.26459,0.77928 h -2.16627 l 0.0269,-0.07648 q 0.16123,-0.0041 0.21704,-0.02894 0.0827,-0.03721 0.11989,-0.09508 0.0558,-0.08475 0.13229,-0.355534 l 0.49196,-1.690851 q 0.0579,-0.204638 0.0579,-0.312125 0,-0.07855 -0.0558,-0.121957 -0.0538,-0.04547 -0.21291,-0.04547 h -0.0434 l 0.0248,-0.07648 h 2.01331 l -0.17363,0.675927 h -0.0765 q 0.0145,-0.09508 0.0145,-0.159163 0,-0.109554 -0.0538,-0.183968 -0.0703,-0.09509 -0.20464,-0.144694 -0.0992,-0.03721 -0.45682,-0.03721 z"
         id="path83" />
    </g>
    <g
       aria-label="+"
       id="text18396"
       style="font-style:italic;font-size:4.23333px;line-height:1.25;font-family:'Times New Roman';-inkscape-font-specification:'Times New Roman, Italic';font-variant-ligatures:none;stroke-width:0.264583">
      <path
         d="m 116.2941,82.68262 v 0.868163 q 0,0.06201 -0.0248,0.08888 -0.0248,0.02687 -0.0641,0.02687 -0.0372,0 -0.062,-0.02687 -0.0248,-0.02687 -0.0248,-0.08888 V 82.68262 h -0.76895 q -0.062,0 -0.0889,-0.02274 -0.0269,-0.02481 -0.0269,-0.06408 0,-0.03927 0.0269,-0.06201 0.0269,-0.02481 0.0889,-0.02481 h 0.76895 v -0.864029 q 0,-0.06201 0.0248,-0.08888 0.0248,-0.02687 0.0641,-0.02687 0.0372,0 0.062,0.02687 0.0248,0.02687 0.0248,0.08888 v 0.864029 h 0.76894 q 0.062,0 0.0889,0.02481 0.0269,0.02274 0.0269,0.06201 0,0.03927 -0.0269,0.06408 -0.0269,0.02274 -0.0889,0.02274 z"
         style="font-style:normal;font-family:'Courier New';-inkscape-font-specification:'Courier New, Normal'"
         id="path86" />
    </g>
    <path
       style="font-variation-settings:normal;opacity:1;vector-effect:none;fill:none;fill-opacity:1;stroke:#000000;stroke-width:0.141111;stroke-linecap:butt;stroke-linejoin:miter;stroke-miterlimit:4;stroke-dasharray:none;stroke-dashoffset:0;stroke-opacity:1;-inkscape-stroke:none;stop-color:#000000;stop-opacity:1"
       d="M 116.20894,42.876934 V 81"
       id="path18398"
       sodipodi:nodetypes="cc" />
    <path
       style="font-variation-settings:normal;opacity:1;vector-effect:none;fill:none;fill-opacity:1;stroke:#000000;stroke-width:0.141111;stroke-linecap:butt;stroke-linejoin:miter;stroke-miterlimit:4;stroke-dasharray:none;stroke-dashoffset:0;stroke-opacity:1;-inkscape-stroke:none;stop-color:#000000;stop-opacity:1"
       d="m 116.66638,42.908896 5.70513,15.563067"
       id="path18400"
       sodipodi:nodetypes="cc" />
    <path
       style="font-variation-settings:normal;opacity:1;vector-effect:none;fill:none;fill-opacity:1;stroke:#000000;stroke-width:0.141111;stroke-linecap:butt;stroke-linejoin:miter;stroke-miterlimit:4;stroke-dasharray:none;stroke-dashoffset:0;stroke-opacity:1;-inkscape-stroke:none;stop-color:#000000;stop-opacity:1"
       d="M 115.77778,42.910812 104.6079,50.695767"
       id="path18492"
       sodipodi:nodetypes="cc" />
  </g>
</svg>
