<?xml version="1.0" encoding="UTF-8" standalone="no"?>
<!-- Created with Inkscape (http://www.inkscape.org/) -->

<svg
   width="70.671165pt"
   height="203.99055pt"
   viewBox="0 0 24.931217 71.963334"
   version="1.1"
   id="svg5"
   inkscape:version="1.1.2 (0a00cf5339, 2022-02-04)"
   sodipodi:docname="book2_1d.svg"
   xmlns:inkscape="http://www.inkscape.org/namespaces/inkscape"
   xmlns:sodipodi="http://sodipodi.sourceforge.net/DTD/sodipodi-0.dtd"
   xmlns="http://www.w3.org/2000/svg"
   xmlns:svg="http://www.w3.org/2000/svg">
  <sodipodi:namedview
     id="namedview7"
     pagecolor="#ffffff"
     bordercolor="#666666"
     borderopacity="1.0"
     inkscape:pageshadow="2"
     inkscape:pageopacity="0.0"
     inkscape:pagecheckerboard="0"
     inkscape:document-units="mm"
     showgrid="false"
     inkscape:zoom="1.3421018"
     inkscape:cx="-135.60819"
     inkscape:cy="123.68659"
     inkscape:window-width="1920"
     inkscape:window-height="1022"
     inkscape:window-x="0"
     inkscape:window-y="0"
     inkscape:window-maximized="1"
     inkscape:current-layer="layer1"
     inkscape:snap-global="false"
     units="pt"
     lock-margins="true"
     fit-margin-top="1"
     fit-margin-left="1"
     fit-margin-right="1"
     fit-margin-bottom="1" />
  <defs
     id="defs2" />
  <g
     inkscape:label="Layer 1"
     inkscape:groupmode="layer"
     id="layer1"
     transform="translate(-133.44554,-45.619502)">
    <g
       aria-label="E"
       id="text18941"
       style="font-style:italic;font-size:4.23333px;line-height:1.25;font-family:'Times New Roman';-inkscape-font-specification:'Times New Roman, Italic';font-variant-ligatures:none;stroke-width:0.264583">
      <path
         d="m 145.90468,46.123175 -0.32039,1.107942 h 0.26252 q 0.28112,0 0.40721,-0.08475 0.12609,-0.08682 0.21704,-0.318327 h 0.0765 l -0.28732,1.016992 h -0.0827 q 0.0372,-0.128158 0.0372,-0.219108 0,-0.08888 -0.0372,-0.142627 -0.0351,-0.05374 -0.0992,-0.07855 -0.062,-0.02687 -0.26459,-0.02687 h -0.26665 l -0.27078,0.928108 q -0.0393,0.134359 -0.0393,0.204638 0,0.05374 0.0517,0.09508 0.0351,0.02894 0.1757,0.02894 h 0.24805 q 0.40307,0 0.64492,-0.142627 0.24391,-0.142627 0.43615,-0.496093 h 0.0765 l -0.26458,0.77928 h -2.16628 l 0.0269,-0.07648 q 0.16123,-0.0041 0.21704,-0.02894 0.0827,-0.03721 0.11989,-0.09508 0.0558,-0.08475 0.13229,-0.355533 l 0.49196,-1.690852 q 0.0579,-0.204638 0.0579,-0.312125 0,-0.07855 -0.0558,-0.121957 -0.0537,-0.04548 -0.21291,-0.04548 h -0.0434 l 0.0248,-0.07648 h 2.01331 l -0.17363,0.675927 h -0.0765 q 0.0145,-0.09508 0.0145,-0.159163 0,-0.109554 -0.0538,-0.183968 -0.0703,-0.09508 -0.20463,-0.144694 -0.0992,-0.03721 -0.45682,-0.03721 z"
         id="path47" />
    </g>
    <g
       aria-label="T"
       id="text18945"
       style="font-style:italic;font-size:4.23333px;line-height:1.25;font-family:'Times New Roman';-inkscape-font-specification:'Times New Roman, Italic';font-variant-ligatures:none;stroke-width:0.264583">
      <path
         d="m 144.92282,53.542452 h 2.12907 l -0.22945,0.74414 h -0.0785 q 0.0393,-0.163298 0.0393,-0.291455 0,-0.150895 -0.093,-0.227376 -0.0703,-0.05788 -0.36173,-0.05788 h -0.22118 l -0.55397,1.93063 q -0.10542,0.363802 -0.10542,0.448551 0,0.07855 0.0662,0.130224 0.0661,0.04961 0.23358,0.04961 h 0.0951 l -0.0248,0.07648 h -1.21957 l 0.0227,-0.07648 h 0.0537 q 0.16123,0 0.24805,-0.05168 0.0599,-0.03514 0.10749,-0.12609 0.0496,-0.09302 0.13642,-0.390673 l 0.58085,-1.990575 h -0.16744 q -0.24184,0 -0.39067,0.06201 -0.14676,0.06201 -0.23771,0.179834 -0.091,0.117822 -0.14883,0.334863 h -0.0765 z"
         id="path50" />
    </g>
    <g
       aria-label="F"
       id="text18949"
       style="font-style:italic;font-size:4.23333px;line-height:1.25;font-family:'Times New Roman';-inkscape-font-specification:'Times New Roman, Italic';font-variant-ligatures:none;stroke-width:0.264583">
      <path
         d="m 145.83853,61.261447 -0.33073,1.110009 h 0.36793 q 0.24805,0 0.37001,-0.07648 0.12402,-0.07648 0.25425,-0.326595 h 0.0785 l -0.29145,1.021126 h -0.0827 q 0.031,-0.124024 0.031,-0.204639 0,-0.12609 -0.0847,-0.194303 -0.0827,-0.07028 -0.31212,-0.07028 h -0.37207 l -0.24392,0.845426 q -0.0661,0.225309 -0.0661,0.299723 0,0.07648 0.0558,0.117822 0.0579,0.04134 0.27905,0.05581 l -0.0248,0.07648 h -1.10794 l 0.0269,-0.07648 q 0.16123,-0.0041 0.21497,-0.02894 0.0827,-0.03514 0.12196,-0.09509 0.0558,-0.08475 0.13229,-0.349332 l 0.49403,-1.688785 q 0.0599,-0.204638 0.0599,-0.320393 0,-0.05374 -0.0269,-0.09095 -0.0269,-0.03927 -0.0806,-0.05788 -0.0517,-0.0186 -0.20877,-0.0186 l 0.0248,-0.07648 h 2.17455 l -0.20671,0.709 h -0.0786 q 0.0227,-0.128157 0.0227,-0.21084 0,-0.136425 -0.0765,-0.214973 -0.0744,-0.08062 -0.19224,-0.113688 -0.0827,-0.02067 -0.37,-0.02067 z"
         id="path53" />
    </g>
    <path
       style="font-variation-settings:normal;opacity:1;vector-effect:none;fill:none;fill-opacity:1;stroke:#000000;stroke-width:0.141111;stroke-linecap:butt;stroke-linejoin:miter;stroke-miterlimit:4;stroke-dasharray:none;stroke-dashoffset:0;stroke-opacity:1;-inkscape-stroke:none;stop-color:#000000;stop-opacity:1"
       d="m 145.8251,49.379856 v 3.557952"
       id="path18955" />
    <path
       style="font-variation-settings:normal;opacity:1;vector-effect:none;fill:none;fill-opacity:1;stroke:#000000;stroke-width:0.141111;stroke-linecap:butt;stroke-linejoin:miter;stroke-miterlimit:4;stroke-dasharray:none;stroke-dashoffset:0;stroke-opacity:1;-inkscape-stroke:none;stop-color:#000000;stop-opacity:1"
       d="M 145.8251,56.911447 V 60.54655"
       id="path18957" />
    <path
       style="font-variation-settings:normal;opacity:1;vector-effect:none;fill:none;fill-opacity:1;stroke:#000000;stroke-width:0.141111;stroke-linecap:butt;stroke-linejoin:miter;stroke-miterlimit:4;stroke-dasharray:none;stroke-dashoffset:0;stroke-opacity:1;-inkscape-stroke:none;stop-color:#000000;stop-opacity:1"
       d="m 145.8251,64.421616 v 3.755109"
       id="path18959" />
    <g
       aria-label="E"
       id="text19043"
       style="font-style:italic;font-size:4.23333px;line-height:1.25;font-family:'Times New Roman';-inkscape-font-specification:'Times New Roman, Italic';font-variant-ligatures:none;stroke-width:0.264583">
      <path
         d="m 145.90468,68.922431 -0.32039,1.107941 h 0.26252 q 0.28112,0 0.40721,-0.08475 0.12609,-0.08682 0.21704,-0.318326 h 0.0765 l -0.28732,1.016991 h -0.0827 q 0.0372,-0.128158 0.0372,-0.219108 0,-0.08888 -0.0372,-0.142627 -0.0351,-0.05374 -0.0992,-0.07855 -0.062,-0.02687 -0.26459,-0.02687 h -0.26665 l -0.27078,0.928108 q -0.0393,0.134359 -0.0393,0.204639 0,0.05374 0.0517,0.09508 0.0351,0.02894 0.1757,0.02894 h 0.24805 q 0.40307,0 0.64492,-0.142627 0.24391,-0.142627 0.43615,-0.496093 h 0.0765 l -0.26458,0.77928 h -2.16628 l 0.0269,-0.07648 q 0.16123,-0.0041 0.21704,-0.02894 0.0827,-0.03721 0.11989,-0.09508 0.0558,-0.08475 0.13229,-0.355534 l 0.49196,-1.690851 q 0.0579,-0.204639 0.0579,-0.312126 0,-0.07855 -0.0558,-0.121956 -0.0537,-0.04547 -0.21291,-0.04547 h -0.0434 l 0.0248,-0.07648 h 2.01331 l -0.17363,0.675927 h -0.0765 q 0.0145,-0.09508 0.0145,-0.159164 0,-0.109553 -0.0538,-0.183967 -0.0703,-0.09508 -0.20463,-0.144694 -0.0992,-0.03721 -0.45682,-0.03721 z"
         id="path56" />
    </g>
    <g
       aria-label="T"
       id="text19047"
       style="font-style:italic;font-size:4.23333px;line-height:1.25;font-family:'Times New Roman';-inkscape-font-specification:'Times New Roman, Italic';font-variant-ligatures:none;stroke-width:0.264583">
      <path
         d="m 144.92282,76.341703 h 2.12907 l -0.22945,0.74414 h -0.0785 q 0.0393,-0.163297 0.0393,-0.291455 0,-0.150895 -0.093,-0.227376 -0.0703,-0.05788 -0.36173,-0.05788 h -0.22118 l -0.55397,1.930629 q -0.10542,0.363802 -0.10542,0.448552 0,0.07855 0.0662,0.130224 0.0661,0.04961 0.23358,0.04961 h 0.0951 l -0.0248,0.07648 h -1.21957 l 0.0227,-0.07648 h 0.0537 q 0.16123,0 0.24805,-0.05168 0.0599,-0.03514 0.10749,-0.12609 0.0496,-0.09302 0.13642,-0.390674 l 0.58085,-1.990574 h -0.16744 q -0.24184,0 -0.39067,0.06201 -0.14676,0.06201 -0.23771,0.179834 -0.091,0.117822 -0.14883,0.334863 h -0.0765 z"
         id="path59" />
    </g>
    <g
       aria-label="F"
       id="text19051"
       style="font-style:italic;font-size:4.23333px;line-height:1.25;font-family:'Times New Roman';-inkscape-font-specification:'Times New Roman, Italic';font-variant-ligatures:none;stroke-width:0.264583">
      <path
         d="m 145.83853,84.060699 -0.33073,1.110008 h 0.36793 q 0.24805,0 0.37001,-0.07648 0.12402,-0.07648 0.25425,-0.326594 h 0.0785 l -0.29145,1.021125 h -0.0827 q 0.031,-0.124023 0.031,-0.204638 0,-0.126091 -0.0847,-0.194304 -0.0827,-0.07028 -0.31212,-0.07028 h -0.37207 l -0.24392,0.845426 q -0.0661,0.225309 -0.0661,0.299723 0,0.07648 0.0558,0.117822 0.0579,0.04134 0.27905,0.05581 l -0.0248,0.07648 h -1.10794 l 0.0269,-0.07648 q 0.16123,-0.0041 0.21497,-0.02894 0.0827,-0.03514 0.12196,-0.09508 0.0558,-0.08475 0.13229,-0.349333 l 0.49403,-1.688784 q 0.0599,-0.204639 0.0599,-0.320394 0,-0.05374 -0.0269,-0.09095 -0.0269,-0.03927 -0.0806,-0.05788 -0.0517,-0.0186 -0.20877,-0.0186 l 0.0248,-0.07648 h 2.17455 l -0.20671,0.709 h -0.0786 q 0.0227,-0.128158 0.0227,-0.21084 0,-0.136426 -0.0765,-0.214974 -0.0744,-0.08062 -0.19224,-0.113688 -0.0827,-0.02067 -0.37,-0.02067 z"
         id="path62" />
    </g>
    <path
       style="font-variation-settings:normal;opacity:1;vector-effect:none;fill:none;fill-opacity:1;stroke:#000000;stroke-width:0.141111;stroke-linecap:butt;stroke-linejoin:miter;stroke-miterlimit:4;stroke-dasharray:none;stroke-dashoffset:0;stroke-opacity:1;-inkscape-stroke:none;stop-color:#000000;stop-opacity:1"
       d="m 145.8251,72.17911 v 3.557952"
       id="path19053" />
    <path
       style="font-variation-settings:normal;opacity:1;vector-effect:none;fill:none;fill-opacity:1;stroke:#000000;stroke-width:0.141111;stroke-linecap:butt;stroke-linejoin:miter;stroke-miterlimit:4;stroke-dasharray:none;stroke-dashoffset:0;stroke-opacity:1;-inkscape-stroke:none;stop-color:#000000;stop-opacity:1"
       d="m 145.8251,79.710701 v 3.635103"
       id="path19055" />
    <path
       style="font-variation-settings:normal;opacity:1;vector-effect:none;fill:none;fill-opacity:1;stroke:#000000;stroke-width:0.141111;stroke-linecap:butt;stroke-linejoin:miter;stroke-miterlimit:4;stroke-dasharray:none;stroke-dashoffset:0;stroke-opacity:1;-inkscape-stroke:none;stop-color:#000000;stop-opacity:1"
       d="m 145.8251,87.22087 v 3.755109"
       id="path19057" />
    <g
       aria-label="E"
       id="text19061"
       style="font-style:italic;font-size:4.23333px;line-height:1.25;font-family:'Times New Roman';-inkscape-font-specification:'Times New Roman, Italic';font-variant-ligatures:none;stroke-width:0.264583">
      <path
         d="m 145.90468,91.75421 -0.32039,1.107942 h 0.26252 q 0.28112,0 0.40721,-0.08475 0.12609,-0.08682 0.21704,-0.318327 h 0.0765 l -0.28732,1.016991 h -0.0827 q 0.0372,-0.128157 0.0372,-0.219108 0,-0.08888 -0.0372,-0.142626 -0.0351,-0.05374 -0.0992,-0.07855 -0.062,-0.02687 -0.26459,-0.02687 h -0.26665 l -0.27078,0.928108 q -0.0393,0.134358 -0.0393,0.204638 0,0.05374 0.0517,0.09508 0.0351,0.02894 0.1757,0.02894 h 0.24805 q 0.40307,0 0.64492,-0.142627 0.24391,-0.142627 0.43615,-0.496094 h 0.0765 l -0.26458,0.77928 h -2.16628 l 0.0269,-0.07648 q 0.16123,-0.0041 0.21704,-0.02894 0.0827,-0.03721 0.11989,-0.09508 0.0558,-0.08475 0.13229,-0.355534 l 0.49196,-1.690851 q 0.0579,-0.204639 0.0579,-0.312125 0,-0.07855 -0.0558,-0.121957 -0.0537,-0.04548 -0.21291,-0.04548 h -0.0434 l 0.0248,-0.07648 h 2.01331 l -0.17363,0.675927 h -0.0765 q 0.0145,-0.09508 0.0145,-0.159163 0,-0.109554 -0.0538,-0.183968 -0.0703,-0.09508 -0.20463,-0.144694 -0.0992,-0.03721 -0.45682,-0.03721 z"
         id="path65" />
    </g>
    <g
       aria-label="T"
       id="text19065"
       style="font-style:italic;font-size:4.23333px;line-height:1.25;font-family:'Times New Roman';-inkscape-font-specification:'Times New Roman, Italic';font-variant-ligatures:none;stroke-width:0.264583">
      <path
         d="m 144.92282,99.173483 h 2.12907 l -0.22945,0.74414 h -0.0785 q 0.0393,-0.163298 0.0393,-0.291455 0,-0.150895 -0.093,-0.227376 -0.0703,-0.05788 -0.36173,-0.05788 h -0.22118 l -0.55397,1.930626 q -0.10542,0.36381 -0.10542,0.44856 0,0.0785 0.0662,0.13022 0.0661,0.0496 0.23358,0.0496 h 0.0951 l -0.0248,0.0765 h -1.21957 l 0.0227,-0.0765 h 0.0537 q 0.16123,0 0.24805,-0.0517 0.0599,-0.0351 0.10749,-0.12609 0.0496,-0.093 0.13642,-0.39067 l 0.58085,-1.990576 h -0.16744 q -0.24184,0 -0.39067,0.06201 -0.14676,0.06201 -0.23771,0.179834 -0.091,0.117822 -0.14883,0.334863 h -0.0765 z"
         id="path68" />
    </g>
    <g
       aria-label="F"
       id="text19069"
       style="font-style:italic;font-size:4.23333px;line-height:1.25;font-family:'Times New Roman';-inkscape-font-specification:'Times New Roman, Italic';font-variant-ligatures:none;stroke-width:0.264583">
      <path
         d="m 145.83853,106.89248 -0.33073,1.11001 h 0.36793 q 0.24805,0 0.37001,-0.0765 0.12402,-0.0765 0.25425,-0.3266 h 0.0785 l -0.29145,1.02113 h -0.0827 q 0.031,-0.12403 0.031,-0.20464 0,-0.12609 -0.0847,-0.19431 -0.0827,-0.0703 -0.31212,-0.0703 h -0.37207 l -0.24392,0.84543 q -0.0661,0.22531 -0.0661,0.29972 0,0.0765 0.0558,0.11783 0.0579,0.0413 0.27905,0.0558 l -0.0248,0.0765 h -1.10794 l 0.0269,-0.0765 q 0.16123,-0.004 0.21497,-0.0289 0.0827,-0.0351 0.12196,-0.0951 0.0558,-0.0847 0.13229,-0.34933 l 0.49403,-1.68878 q 0.0599,-0.20464 0.0599,-0.3204 0,-0.0537 -0.0269,-0.091 -0.0269,-0.0393 -0.0806,-0.0579 -0.0517,-0.0186 -0.20877,-0.0186 l 0.0248,-0.0765 h 2.17455 l -0.20671,0.709 h -0.0786 q 0.0227,-0.12816 0.0227,-0.21084 0,-0.13643 -0.0765,-0.21497 -0.0744,-0.0806 -0.19224,-0.11369 -0.0827,-0.0207 -0.37,-0.0207 z"
         id="path71" />
    </g>
    <path
       style="font-variation-settings:normal;opacity:1;vector-effect:none;fill:none;fill-opacity:1;stroke:#000000;stroke-width:0.141111;stroke-linecap:butt;stroke-linejoin:miter;stroke-miterlimit:4;stroke-dasharray:none;stroke-dashoffset:0;stroke-opacity:1;-inkscape-stroke:none;stop-color:#000000;stop-opacity:1"
       d="m 145.8251,95.010891 v 3.557952"
       id="path19071" />
    <path
       style="font-variation-settings:normal;opacity:1;vector-effect:none;fill:none;fill-opacity:1;stroke:#000000;stroke-width:0.141111;stroke-linecap:butt;stroke-linejoin:miter;stroke-miterlimit:4;stroke-dasharray:none;stroke-dashoffset:0;stroke-opacity:1;-inkscape-stroke:none;stop-color:#000000;stop-opacity:1"
       d="m 145.8251,102.54248 v 3.63511"
       id="path19073" />
    <path
       style="font-variation-settings:normal;opacity:1;vector-effect:none;fill:none;fill-opacity:1;stroke:#000000;stroke-width:0.141111;stroke-linecap:butt;stroke-linejoin:miter;stroke-miterlimit:4;stroke-dasharray:none;stroke-dashoffset:0;stroke-opacity:1;-inkscape-stroke:none;stop-color:#000000;stop-opacity:1"
       d="m 145.8251,110.05265 v 3.75511"
       id="path19075" />
    <g
       aria-label="a"
       id="text19079"
       style="font-style:italic;font-size:4.23333px;line-height:1.25;font-family:'Times New Roman';-inkscape-font-specification:'Times New Roman, Italic';font-variant-ligatures:none;stroke-width:0.264583">
      <path
         d="m 146.3845,116.69263 v -0.25012 q -0.37827,0.31833 -0.80822,0.31833 -0.31213,0 -0.48783,-0.1571 -0.1757,-0.15916 -0.1757,-0.3886 0,-0.25218 0.23151,-0.44029 0.23151,-0.1881 0.67593,-0.1881 0.11989,0 0.26045,0.0165 0.14056,0.0145 0.30386,0.0475 v -0.28112 q 0,-0.14263 -0.13229,-0.24805 -0.1323,-0.10542 -0.39688,-0.10542 -0.20257,0 -0.56844,0.11783 -0.0661,0.0207 -0.0847,0.0207 -0.0331,0 -0.0579,-0.0248 -0.0227,-0.0248 -0.0227,-0.062 0,-0.0351 0.0207,-0.0558 0.0289,-0.031 0.23357,-0.0848 0.32246,-0.0868 0.48783,-0.0868 0.32866,0 0.51263,0.16329 0.18397,0.16123 0.18397,0.36587 v 1.14928 h 0.23151 q 0.0641,0 0.0909,0.0248 0.0269,0.0227 0.0269,0.062 0,0.0372 -0.0269,0.062 -0.0269,0.0248 -0.0909,0.0248 z m 0,-0.86403 q -0.12196,-0.0351 -0.25839,-0.0517 -0.13642,-0.0165 -0.28732,-0.0165 -0.37827,0 -0.59117,0.1633 -0.16123,0.12196 -0.16123,0.29146 0,0.15709 0.12195,0.26458 0.12403,0.10749 0.35967,0.10749 0.22531,0 0.41754,-0.0889 0.19431,-0.091 0.39895,-0.28732 z"
         style="font-style:normal;font-family:'Courier New';-inkscape-font-specification:'Courier New, Normal'"
         id="path74" />
    </g>
    <g
       aria-label="("
       id="text19083"
       style="font-style:italic;font-size:4.23333px;line-height:1.25;font-family:'Times New Roman';-inkscape-font-specification:'Times New Roman, Italic';font-variant-ligatures:none;stroke-width:0.264583">
      <path
         d="m 139.68007,115.66323 q 0,-0.23771 0.062,-0.50436 0.062,-0.26665 0.23772,-0.61598 0.1757,-0.34933 0.25631,-0.42168 0.0248,-0.0227 0.0537,-0.0227 0.0372,0 0.062,0.0248 0.0269,0.0248 0.0269,0.0599 0,0.0207 -0.0145,0.0455 -0.22738,0.41754 -0.32453,0.75654 -0.0971,0.339 -0.0971,0.67799 0,0.34107 0.0971,0.68006 0.0971,0.339 0.32453,0.75448 0.0145,0.0248 0.0145,0.0455 0,0.0351 -0.0269,0.0599 -0.0248,0.0269 -0.062,0.0269 -0.0289,0 -0.0537,-0.0227 -0.0765,-0.0703 -0.25011,-0.41134 -0.17364,-0.34106 -0.23978,-0.60358 -0.0661,-0.26252 -0.0661,-0.52917 z"
         style="font-style:normal;font-family:'Courier New';-inkscape-font-specification:'Courier New, Normal'"
         id="path77" />
    </g>
    <g
       aria-label=")"
       id="text19087"
       style="font-style:italic;font-size:4.23333px;line-height:1.25;font-family:'Times New Roman';-inkscape-font-specification:'Times New Roman, Italic';font-variant-ligatures:none;stroke-width:0.264583">
      <path
         d="m 152.14223,115.6653 q 0,0.23771 -0.062,0.50436 -0.062,0.26459 -0.23771,0.61392 -0.1757,0.3514 -0.25632,0.42168 -0.0248,0.0248 -0.0537,0.0248 -0.0372,0 -0.0641,-0.0269 -0.0248,-0.0248 -0.0248,-0.0599 0,-0.0207 0.0145,-0.0455 0.22738,-0.41548 0.32453,-0.75448 0.0971,-0.33899 0.0971,-0.67799 0,-0.34106 -0.0971,-0.68006 -0.0971,-0.339 -0.32453,-0.75654 -0.0145,-0.0248 -0.0145,-0.0455 0,-0.0351 0.0248,-0.0599 0.0269,-0.0248 0.0641,-0.0248 0.0289,0 0.0537,0.0227 0.0765,0.0703 0.25011,0.41134 0.17364,0.34107 0.23978,0.60358 0.0662,0.26252 0.0662,0.52917 z"
         style="font-style:normal;font-family:'Courier New';-inkscape-font-specification:'Courier New, Normal'"
         id="path80" />
    </g>
    <g
       aria-label=")"
       id="text24755"
       style="font-style:italic;font-size:4.23333px;line-height:1.25;font-family:'Times New Roman';-inkscape-font-specification:'Times New Roman, Italic';font-variant-ligatures:none;stroke-width:0.264583">
      <path
         d="m 158.02397,115.6653 q 0,0.23771 -0.062,0.50436 -0.062,0.26459 -0.23771,0.61392 -0.1757,0.3514 -0.25631,0.42168 -0.0248,0.0248 -0.0538,0.0248 -0.0372,0 -0.0641,-0.0269 -0.0248,-0.0248 -0.0248,-0.0599 0,-0.0207 0.0145,-0.0455 0.22737,-0.41548 0.32453,-0.75448 0.0971,-0.33899 0.0971,-0.67799 0,-0.34106 -0.0971,-0.68006 -0.0972,-0.339 -0.32453,-0.75654 -0.0145,-0.0248 -0.0145,-0.0455 0,-0.0351 0.0248,-0.0599 0.0269,-0.0248 0.0641,-0.0248 0.0289,0 0.0538,0.0227 0.0765,0.0703 0.25011,0.41134 0.17363,0.34107 0.23978,0.60358 0.0661,0.26252 0.0661,0.52917 z"
         style="font-style:normal;font-family:'Courier New';-inkscape-font-specification:'Courier New, Normal'"
         id="path83" />
    </g>
    <g
       aria-label="("
       id="text24759"
       style="font-style:italic;font-size:4.23333px;line-height:1.25;font-family:'Times New Roman';-inkscape-font-specification:'Times New Roman, Italic';font-variant-ligatures:none;stroke-width:0.264583">
      <path
         d="m 133.79831,115.66323 q 0,-0.23771 0.062,-0.50436 0.062,-0.26665 0.23771,-0.61598 0.1757,-0.34933 0.25631,-0.42168 0.0248,-0.0227 0.0537,-0.0227 0.0372,0 0.062,0.0248 0.0269,0.0248 0.0269,0.0599 0,0.0207 -0.0145,0.0455 -0.22738,0.41754 -0.32453,0.75654 -0.0971,0.339 -0.0971,0.67799 0,0.34107 0.0971,0.68006 0.0971,0.339 0.32453,0.75448 0.0145,0.0248 0.0145,0.0455 0,0.0351 -0.0269,0.0599 -0.0248,0.0269 -0.062,0.0269 -0.0289,0 -0.0537,-0.0227 -0.0765,-0.0703 -0.25011,-0.41134 -0.17364,-0.34106 -0.23978,-0.60358 -0.0662,-0.26252 -0.0662,-0.52917 z"
         style="font-style:normal;font-family:'Courier New';-inkscape-font-specification:'Courier New, Normal'"
         id="path86" />
    </g>
    <path
       style="font-variation-settings:normal;opacity:1;vector-effect:none;fill:none;fill-opacity:1;stroke:#000000;stroke-width:0.141111;stroke-linecap:butt;stroke-linejoin:miter;stroke-miterlimit:4;stroke-dasharray:none;stroke-dashoffset:0;stroke-opacity:1;-inkscape-stroke:none;stop-color:#000000;stop-opacity:1"
       d="m 145.37208,87.221 c 0,0 -3.49952,7.107828 -4.49382,11.511254 -0.9943,4.403426 -0.80153,14.557686 -0.80153,14.557686"
       id="path24794"
       sodipodi:nodetypes="czc" />
    <path
       style="font-variation-settings:normal;opacity:1;vector-effect:none;fill:none;fill-opacity:1;stroke:#000000;stroke-width:0.141111;stroke-linecap:butt;stroke-linejoin:miter;stroke-miterlimit:4;stroke-dasharray:none;stroke-dashoffset:0;stroke-opacity:1;-inkscape-stroke:none;stop-color:#000000;stop-opacity:1"
       d="m 146.36727,87.221 c 0,0 3.49952,7.107828 4.49382,11.511254 0.9943,4.403426 0.80153,14.557686 0.80153,14.557686"
       id="path25183"
       sodipodi:nodetypes="czc" />
    <path
       style="font-variation-settings:normal;opacity:1;vector-effect:none;fill:none;fill-opacity:1;stroke:#000000;stroke-width:0.141111;stroke-linecap:butt;stroke-linejoin:miter;stroke-miterlimit:4;stroke-dasharray:none;stroke-dashoffset:0;stroke-opacity:1;-inkscape-stroke:none;stop-color:#000000;stop-opacity:1"
       d="m 134.09822,113.12707 c 0,0 -0.6976,-23.412351 1.82509,-31.728741 C 138.446,73.081939 145.43355,64.422 145.43355,64.422"
       id="path25339"
       sodipodi:nodetypes="czc" />
    <path
       style="font-variation-settings:normal;opacity:1;vector-effect:none;fill:none;fill-opacity:1;stroke:#000000;stroke-width:0.141111;stroke-linecap:butt;stroke-linejoin:miter;stroke-miterlimit:4;stroke-dasharray:none;stroke-dashoffset:0;stroke-opacity:1;-inkscape-stroke:none;stop-color:#000000;stop-opacity:1"
       d="m 157.66196,113.12707 c 0,0 0.6976,-23.412351 -1.82509,-31.728741 C 153.31418,73.081939 146.32663,64.422 146.32663,64.422"
       id="path25767"
       sodipodi:nodetypes="czc" />
  </g>
</svg>
