<?xml version="1.0" encoding="UTF-8" standalone="no"?>
<!-- Created with Inkscape (http://www.inkscape.org/) -->

<svg
   width="172.7733pt"
   height="122.90701pt"
   viewBox="0 0 60.950582 43.358857"
   version="1.1"
   id="svg8"
   inkscape:version="1.1.2 (0a00cf5339, 2022-02-04)"
   sodipodi:docname="book2_5e.svg"
   inkscape:export-filename="/home/srt/classes/452/tex/final_pda.png"
   inkscape:export-xdpi="118.92"
   inkscape:export-ydpi="118.92"
   xmlns:inkscape="http://www.inkscape.org/namespaces/inkscape"
   xmlns:sodipodi="http://sodipodi.sourceforge.net/DTD/sodipodi-0.dtd"
   xmlns="http://www.w3.org/2000/svg"
   xmlns:svg="http://www.w3.org/2000/svg"
   xmlns:rdf="http://www.w3.org/1999/02/22-rdf-syntax-ns#"
   xmlns:cc="http://creativecommons.org/ns#"
   xmlns:dc="http://purl.org/dc/elements/1.1/">
  <defs
     id="defs2">
    <marker
       inkscape:stockid="Arrow1Lend"
       orient="auto"
       refY="0"
       refX="0"
       id="marker3736"
       style="overflow:visible"
       inkscape:isstock="true">
      <path
         id="path3734"
         d="M 0,0 5,-5 -12.5,0 5,5 Z"
         style="fill:#000000;fill-opacity:1;fill-rule:evenodd;stroke:#000000;stroke-width:1pt;stroke-opacity:1"
         transform="matrix(-0.8,0,0,-0.8,-10,0)"
         inkscape:connector-curvature="0" />
    </marker>
    <inkscape:path-effect
       effect="spiro"
       id="path-effect3726"
       is_visible="true"
       lpeversion="0" />
    <marker
       inkscape:isstock="true"
       style="overflow:visible"
       id="marker2300"
       refX="0"
       refY="0"
       orient="auto"
       inkscape:stockid="Arrow1Lend">
      <path
         inkscape:connector-curvature="0"
         transform="matrix(-0.8,0,0,-0.8,-10,0)"
         style="fill:#060606;fill-opacity:1;fill-rule:evenodd;stroke:#060606;stroke-width:1pt;stroke-opacity:1"
         d="M 0,0 5,-5 -12.5,0 5,5 Z"
         id="path2298" />
    </marker>
    <inkscape:path-effect
       effect="spiro"
       id="path-effect2290"
       is_visible="true"
       lpeversion="0" />
    <inkscape:path-effect
       effect="spiro"
       id="path-effect2286"
       is_visible="true"
       lpeversion="0" />
    <marker
       inkscape:stockid="Arrow1Lend"
       orient="auto"
       refY="0"
       refX="0"
       id="marker6028"
       style="overflow:visible"
       inkscape:isstock="true">
      <path
         id="path6026"
         d="M 0,0 5,-5 -12.5,0 5,5 Z"
         style="fill:#000000;fill-opacity:1;fill-rule:evenodd;stroke:#000000;stroke-width:1pt;stroke-opacity:1"
         transform="matrix(-0.8,0,0,-0.8,-10,0)"
         inkscape:connector-curvature="0" />
    </marker>
    <marker
       inkscape:isstock="true"
       style="overflow:visible"
       id="marker3669"
       refX="0"
       refY="0"
       orient="auto"
       inkscape:stockid="Arrow1Lend">
      <path
         transform="matrix(-0.8,0,0,-0.8,-10,0)"
         style="fill:#000000;fill-opacity:1;fill-rule:evenodd;stroke:#000000;stroke-width:1pt;stroke-opacity:1"
         d="M 0,0 5,-5 -12.5,0 5,5 Z"
         id="path3667"
         inkscape:connector-curvature="0" />
    </marker>
    <marker
       inkscape:isstock="true"
       style="overflow:visible"
       id="marker3111"
       refX="0"
       refY="0"
       orient="auto"
       inkscape:stockid="Arrow1Lend">
      <path
         transform="matrix(-0.8,0,0,-0.8,-10,0)"
         style="fill:#000000;fill-opacity:1;fill-rule:evenodd;stroke:#000000;stroke-width:1pt;stroke-opacity:1"
         d="M 0,0 5,-5 -12.5,0 5,5 Z"
         id="path3109"
         inkscape:connector-curvature="0" />
    </marker>
    <marker
       inkscape:stockid="Arrow1Mend"
       orient="auto"
       refY="0"
       refX="0"
       id="marker1546"
       style="overflow:visible"
       inkscape:isstock="true">
      <path
         id="path1544"
         d="M 0,0 5,-5 -12.5,0 5,5 Z"
         style="fill:#000000;fill-opacity:1;fill-rule:evenodd;stroke:#000000;stroke-width:1pt;stroke-opacity:1"
         transform="matrix(-0.4,0,0,-0.4,-4,0)"
         inkscape:connector-curvature="0" />
    </marker>
    <marker
       inkscape:isstock="true"
       style="overflow:visible"
       id="marker3691"
       refX="0"
       refY="0"
       orient="auto"
       inkscape:stockid="Arrow1Mstart">
      <path
         transform="matrix(0.4,0,0,0.4,4,0)"
         style="fill:#000000;fill-opacity:1;fill-rule:evenodd;stroke:#000000;stroke-width:1pt;stroke-opacity:1"
         d="M 0,0 5,-5 -12.5,0 5,5 Z"
         id="path3689"
         inkscape:connector-curvature="0" />
    </marker>
    <marker
       inkscape:stockid="Arrow1Mend"
       orient="auto"
       refY="0"
       refX="0"
       id="marker3231"
       style="overflow:visible"
       inkscape:isstock="true">
      <path
         id="path3229"
         d="M 0,0 5,-5 -12.5,0 5,5 Z"
         style="fill:#000000;fill-opacity:1;fill-rule:evenodd;stroke:#000000;stroke-width:1pt;stroke-opacity:1"
         transform="matrix(-0.4,0,0,-0.4,-4,0)"
         inkscape:connector-curvature="0" />
    </marker>
    <marker
       inkscape:isstock="true"
       style="overflow:visible"
       id="marker2864"
       refX="0"
       refY="0"
       orient="auto"
       inkscape:stockid="Arrow1Mend">
      <path
         transform="matrix(-0.4,0,0,-0.4,-4,0)"
         style="fill:#000000;fill-opacity:1;fill-rule:evenodd;stroke:#000000;stroke-width:1pt;stroke-opacity:1"
         d="M 0,0 5,-5 -12.5,0 5,5 Z"
         id="path2862"
         inkscape:connector-curvature="0" />
    </marker>
    <marker
       inkscape:isstock="true"
       style="overflow:visible"
       id="marker2598"
       refX="0"
       refY="0"
       orient="auto"
       inkscape:stockid="Arrow1Mend">
      <path
         transform="matrix(-0.4,0,0,-0.4,-4,0)"
         style="fill:#000000;fill-opacity:1;fill-rule:evenodd;stroke:#000000;stroke-width:1pt;stroke-opacity:1"
         d="M 0,0 5,-5 -12.5,0 5,5 Z"
         id="path2596"
         inkscape:connector-curvature="0" />
    </marker>
    <marker
       inkscape:isstock="true"
       style="overflow:visible"
       id="marker2922-2"
       refX="0"
       refY="0"
       orient="auto"
       inkscape:stockid="Arrow1Mstart">
      <path
         inkscape:connector-curvature="0"
         transform="matrix(0.4,0,0,0.4,4,0)"
         style="fill:#000000;fill-opacity:1;fill-rule:evenodd;stroke:#000000;stroke-width:1pt;stroke-opacity:1"
         d="M 0,0 5,-5 -12.5,0 5,5 Z"
         id="path2920-2" />
    </marker>
    <marker
       inkscape:isstock="true"
       style="overflow:visible"
       id="marker3669-7"
       refX="0"
       refY="0"
       orient="auto"
       inkscape:stockid="Arrow1Lend">
      <path
         inkscape:connector-curvature="0"
         transform="matrix(-0.8,0,0,-0.8,-10,0)"
         style="fill:#000000;fill-opacity:1;fill-rule:evenodd;stroke:#000000;stroke-width:1pt;stroke-opacity:1"
         d="M 0,0 5,-5 -12.5,0 5,5 Z"
         id="path3667-3" />
    </marker>
    <marker
       inkscape:isstock="true"
       style="overflow:visible"
       id="marker2300-8"
       refX="0"
       refY="0"
       orient="auto"
       inkscape:stockid="Arrow1Lend">
      <path
         inkscape:connector-curvature="0"
         transform="matrix(-0.8,0,0,-0.8,-10,0)"
         style="fill:#060606;fill-opacity:1;fill-rule:evenodd;stroke:#060606;stroke-width:1pt;stroke-opacity:1"
         d="M 0,0 5,-5 -12.5,0 5,5 Z"
         id="path2298-8" />
    </marker>
    <inkscape:path-effect
       effect="spiro"
       id="path-effect2290-6"
       is_visible="true"
       lpeversion="0" />
    <marker
       inkscape:isstock="true"
       style="overflow:visible"
       id="marker2406-7"
       refX="0"
       refY="0"
       orient="auto"
       inkscape:stockid="Arrow1Lend">
      <path
         inkscape:connector-curvature="0"
         transform="matrix(-0.8,0,0,-0.8,-10,0)"
         style="fill:#060606;fill-opacity:1;fill-rule:evenodd;stroke:#060606;stroke-width:1pt;stroke-opacity:1"
         d="M 0,0 5,-5 -12.5,0 5,5 Z"
         id="path2404-7" />
    </marker>
    <inkscape:path-effect
       effect="spiro"
       id="path-effect2286-4"
       is_visible="true"
       lpeversion="0" />
    <marker
       inkscape:stockid="Arrow1Lend"
       orient="auto"
       refY="0"
       refX="0"
       id="marker3736-3"
       style="overflow:visible"
       inkscape:isstock="true">
      <path
         id="path3734-8"
         d="M 0,0 5,-5 -12.5,0 5,5 Z"
         style="fill:#000000;fill-opacity:1;fill-rule:evenodd;stroke:#000000;stroke-width:1pt;stroke-opacity:1"
         transform="matrix(-0.8,0,0,-0.8,-10,0)"
         inkscape:connector-curvature="0" />
    </marker>
    <marker
       inkscape:stockid="Arrow1Lend"
       orient="auto"
       refY="0"
       refX="0"
       id="marker15037"
       style="overflow:visible"
       inkscape:isstock="true">
      <path
         id="path15035"
         d="M 0,0 5,-5 -12.5,0 5,5 Z"
         style="fill:#000000;fill-opacity:1;fill-rule:evenodd;stroke:#000000;stroke-width:1pt;stroke-opacity:1"
         transform="matrix(-0.8,0,0,-0.8,-10,0)"
         inkscape:connector-curvature="0" />
    </marker>
  </defs>
  <sodipodi:namedview
     id="base"
     pagecolor="#ffffff"
     bordercolor="#666666"
     borderopacity="1.0"
     inkscape:pageopacity="0.0"
     inkscape:pageshadow="2"
     inkscape:zoom="3.5075537"
     inkscape:cx="118.88628"
     inkscape:cy="56.877248"
     inkscape:document-units="mm"
     inkscape:current-layer="layer1"
     showgrid="false"
     inkscape:window-width="1920"
     inkscape:window-height="1022"
     inkscape:window-x="0"
     inkscape:window-y="0"
     inkscape:window-maximized="1"
     fit-margin-top="1"
     fit-margin-left="1"
     fit-margin-right="1"
     fit-margin-bottom="1"
     units="pt"
     inkscape:pagecheckerboard="0"
     lock-margins="true" />
  <metadata
     id="metadata5">
    <rdf:RDF>
      <cc:Work
         rdf:about="">
        <dc:format>image/svg+xml</dc:format>
        <dc:type
           rdf:resource="http://purl.org/dc/dcmitype/StillImage" />
      </cc:Work>
    </rdf:RDF>
  </metadata>
  <g
     inkscape:groupmode="layer"
     id="layer2"
     inkscape:label="arcs"
     transform="translate(-39.610532,-40.430122)">
    <g
       id="text1350"
       style="font-size:3.52778px;line-height:125%;-inkscape-font-specification:'sans-serif, Normal';text-align:center;letter-spacing:0px;word-spacing:0px;text-anchor:middle;stroke-width:0.264583px" />
    <g
       aria-label="1 , ε → ε"
       transform="rotate(-0.51795775)"
       id="text1983-3-9-3"
       style="font-size:4.23333px;line-height:125%;font-family:'Times New Roman';-inkscape-font-specification:'Times New Roman, Normal';letter-spacing:0px;word-spacing:0px;stroke-width:0.264583px">
      <path
         d="m 78.508027,59.795674 v 2.455662 h 0.595312 q 0.06201,0 0.08888,0.02481 0.02687,0.02274 0.02687,0.06201 0,0.03721 -0.02687,0.06201 -0.02687,0.02481 -0.08888,0.02481 h -1.364257 q -0.06201,0 -0.08888,-0.02481 -0.02687,-0.0248 -0.02687,-0.06201 0,-0.03927 0.02687,-0.06201 0.02687,-0.02481 0.08888,-0.02481 h 0.595312 v -2.215884 l -0.566373,0.177767 q -0.04134,0.0124 -0.05994,0.0124 -0.03101,0 -0.05788,-0.02481 -0.02481,-0.02687 -0.02481,-0.06201 0,-0.03101 0.02067,-0.05788 0.01654,-0.01654 0.06821,-0.03514 z"
         style="font-family:'Courier New';-inkscape-font-specification:'Courier New, Normal'"
         id="path137" />
      <path
         d="m 80.448993,63.129835 v -0.09095 q 0.212907,-0.07028 0.328662,-0.219108 0.117822,-0.146761 0.117822,-0.312125 0,-0.03927 -0.0186,-0.06615 -0.01447,-0.0186 -0.02894,-0.0186 -0.02274,0 -0.09922,0.04134 -0.03721,0.0186 -0.07855,0.0186 -0.101285,0 -0.16123,-0.05994 -0.05994,-0.05994 -0.05994,-0.165365 0,-0.101286 0.07648,-0.173632 0.07855,-0.07235 0.190169,-0.07235 0.136426,0 0.241846,0.119889 0.107487,0.117822 0.107487,0.314192 0,0.212907 -0.148828,0.394808 -0.146761,0.183968 -0.467155,0.289388 z"
         id="path139" />
      <path
         d="m 82.462307,61.422447 q -0.40721,-0.144694 -0.40721,-0.438216 0,-0.23151 0.214974,-0.370003 0.217041,-0.138493 0.537434,-0.138493 0.291455,0 0.463021,0.09715 0.171565,0.09508 0.171565,0.229443 0,0.07028 -0.05374,0.124023 -0.05374,0.05168 -0.124024,0.05168 -0.115755,0 -0.190169,-0.161231 -0.103352,-0.223242 -0.310058,-0.223242 -0.163297,0 -0.268717,0.107487 -0.10542,0.107487 -0.10542,0.299723 0,0.378272 0.390673,0.378272 0.04134,0 0.09509,-0.0083 0.09302,-0.0124 0.144694,-0.0124 0.12609,0 0.12609,0.07235 0,0.08062 -0.128157,0.08062 -0.04547,0 -0.136426,-0.01447 -0.06821,-0.0124 -0.10542,-0.0124 -0.413411,0 -0.413411,0.42168 0,0.204638 0.109554,0.330729 0.109554,0.124023 0.305924,0.124023 0.24598,0 0.326595,-0.254248 0.04134,-0.134358 0.09095,-0.186035 0.05168,-0.05168 0.136425,-0.05168 0.07028,0 0.126091,0.05168 0.05788,0.04961 0.05788,0.128158 0,0.188102 -0.210839,0.312125 -0.21084,0.121956 -0.510563,0.121956 -0.328662,0 -0.584977,-0.157096 -0.254248,-0.157096 -0.254248,-0.419612 0,-0.328662 0.506429,-0.483691 z"
         id="path141" />
      <path
         d="m 87.859389,60.614228 q 0.274918,0.299723 0.475422,0.456819 0.200505,0.155029 0.378272,0.231511 v 0.09302 q -0.204639,0.09922 -0.396875,0.254248 -0.192236,0.152962 -0.458886,0.450618 h -0.159164 q 0.194304,-0.415478 0.40721,-0.63872 h -3.296953 v -0.208773 h 3.296953 q -0.157096,-0.200504 -0.219108,-0.297656 -0.06201,-0.09715 -0.183968,-0.341064 z"
         id="path143" />
      <path
         d="m 90.060804,61.422447 q -0.40721,-0.144694 -0.40721,-0.438216 0,-0.23151 0.214974,-0.370003 0.217041,-0.138493 0.537435,-0.138493 0.291454,0 0.46302,0.09715 0.171566,0.09508 0.171566,0.229443 0,0.07028 -0.05374,0.124023 -0.05374,0.05168 -0.124023,0.05168 -0.115755,0 -0.190169,-0.161231 -0.103353,-0.223242 -0.310059,-0.223242 -0.163297,0 -0.268717,0.107487 -0.10542,0.107487 -0.10542,0.299723 0,0.378272 0.390674,0.378272 0.04134,0 0.09508,-0.0083 0.09302,-0.0124 0.144694,-0.0124 0.126091,0 0.126091,0.07235 0,0.08062 -0.128158,0.08062 -0.04548,0 -0.136425,-0.01447 -0.06821,-0.0124 -0.10542,-0.0124 -0.413411,0 -0.413411,0.42168 0,0.204638 0.109554,0.330729 0.109553,0.124023 0.305924,0.124023 0.245979,0 0.326595,-0.254248 0.04134,-0.134358 0.09095,-0.186035 0.05168,-0.05168 0.136426,-0.05168 0.07028,0 0.12609,0.05168 0.05788,0.04961 0.05788,0.128158 0,0.188102 -0.21084,0.312125 -0.21084,0.121956 -0.510563,0.121956 -0.328662,0 -0.584977,-0.157096 -0.254247,-0.157096 -0.254247,-0.419612 0,-0.328662 0.506428,-0.483691 z"
         id="path145" />
    </g>
    <g
       aria-label="ε , $ → ε"
       transform="rotate(1.1629693)"
       id="text1983-1-3-0-7-1-1"
       style="font-size:4.23333px;line-height:125%;font-family:'Times New Roman';-inkscape-font-specification:'Times New Roman, Normal';letter-spacing:0px;word-spacing:0px;stroke-width:0.264583px">
      <path
         d="m 60.702804,70.972614 q -0.40721,-0.144694 -0.40721,-0.438216 0,-0.23151 0.214973,-0.370003 0.217041,-0.138493 0.537435,-0.138493 0.291455,0 0.46302,0.09715 0.171566,0.09508 0.171566,0.229443 0,0.07028 -0.05374,0.124024 -0.05374,0.05168 -0.124023,0.05168 -0.115755,0 -0.190169,-0.16123 -0.103353,-0.223242 -0.310058,-0.223242 -0.163298,0 -0.268718,0.107486 -0.105419,0.107487 -0.105419,0.299724 0,0.378271 0.390673,0.378271 0.04134,0 0.09508,-0.0083 0.09302,-0.0124 0.144694,-0.0124 0.12609,0 0.12609,0.07235 0,0.08062 -0.128158,0.08062 -0.04547,0 -0.136425,-0.01447 -0.06821,-0.0124 -0.10542,-0.0124 -0.413411,0 -0.413411,0.421679 0,0.204638 0.109554,0.330729 0.109554,0.124023 0.305924,0.124023 0.24598,0 0.326595,-0.254248 0.04134,-0.134358 0.09095,-0.186035 0.05168,-0.05168 0.136426,-0.05168 0.07028,0 0.12609,0.05168 0.05788,0.04961 0.05788,0.128158 0,0.188102 -0.21084,0.312125 -0.210839,0.121956 -0.510563,0.121956 -0.328661,0 -0.584976,-0.157096 -0.254248,-0.157096 -0.254248,-0.419612 0,-0.328662 0.506429,-0.483691 z"
         id="path148" />
      <path
         d="m 62.583825,72.680002 v -0.09095 q 0.212907,-0.07028 0.328662,-0.219108 0.117822,-0.146761 0.117822,-0.312125 0,-0.03927 -0.0186,-0.06615 -0.01447,-0.0186 -0.02894,-0.0186 -0.02274,0 -0.09922,0.04134 -0.03721,0.0186 -0.07855,0.0186 -0.101286,0 -0.16123,-0.05994 -0.05995,-0.05994 -0.05995,-0.165365 0,-0.101285 0.07648,-0.173632 0.07855,-0.07235 0.190169,-0.07235 0.136426,0 0.241846,0.119889 0.107487,0.117822 0.107487,0.314192 0,0.212907 -0.148828,0.394808 -0.146761,0.183968 -0.467155,0.289388 z"
         id="path150" />
      <path
         d="m 65.124238,69.498803 v -0.219108 q 0,-0.06408 0.02274,-0.09095 0.0248,-0.02687 0.06408,-0.02687 0.03927,0 0.06201,0.02687 0.02481,0.02687 0.02481,0.09095 v 0.219108 q 0.140559,0.0124 0.23151,0.04548 0.09095,0.03101 0.214974,0.113689 0.0021,-0.05168 0.02687,-0.07648 0.02481,-0.0248 0.05994,-0.0248 0.03927,0 0.06408,0.02687 0.0248,0.02687 0.0248,0.08888 v 0.258382 q 0,0.06201 -0.0248,0.08888 -0.02481,0.02687 -0.06408,0.02687 -0.03307,0 -0.05581,-0.02067 -0.02274,-0.02274 -0.03101,-0.07441 -0.0124,-0.09715 -0.128158,-0.175699 -0.169498,-0.111621 -0.398942,-0.111621 -0.233577,0 -0.386539,0.136425 -0.150895,0.136426 -0.150895,0.307992 0,0.171565 0.134359,0.262516 0.101285,0.07028 0.425813,0.132291 0.326595,0.05994 0.44235,0.113688 0.165364,0.07235 0.24598,0.196371 0.08268,0.124023 0.08268,0.299723 0,0.235644 -0.183968,0.415478 -0.183968,0.177767 -0.529166,0.212907 v 0.510562 q 0,0.06408 -0.02481,0.09095 -0.02274,0.02687 -0.06201,0.02687 -0.03927,0 -0.06408,-0.02687 -0.02274,-0.02687 -0.02274,-0.09095 v -0.510562 q -0.318327,-0.02067 -0.535367,-0.206706 0,0.09095 -0.0083,0.111621 -0.0062,0.0186 -0.02894,0.03514 -0.02274,0.01447 -0.04961,0.01447 -0.03721,0 -0.06201,-0.02687 -0.02481,-0.02687 -0.02481,-0.08888 v -0.338997 q 0,-0.06201 0.02274,-0.08888 0.02481,-0.02894 0.06408,-0.02894 0.03721,0 0.06408,0.02687 0.0186,0.0186 0.02274,0.08268 0.0124,0.109554 0.175699,0.225309 0.165365,0.113688 0.446484,0.113688 0.291455,0 0.458887,-0.138493 0.167431,-0.138492 0.167431,-0.32246 0,-0.121957 -0.06201,-0.208773 -0.06201,-0.08682 -0.194303,-0.142627 -0.08682,-0.03514 -0.363802,-0.08682 -0.401008,-0.07855 -0.556038,-0.202572 -0.157096,-0.124023 -0.157096,-0.363801 0,-0.223242 0.169499,-0.398942 0.169498,-0.1757 0.450618,-0.208773 z"
         style="font-family:'Courier New';-inkscape-font-specification:'Courier New, Normal'"
         id="path152" />
      <path
         d="m 70.227799,70.164395 q 0.274919,0.299723 0.475423,0.456819 0.200504,0.15503 0.378271,0.231511 v 0.09302 q -0.204638,0.09922 -0.396874,0.254248 -0.192237,0.152962 -0.458887,0.450618 h -0.159163 q 0.194303,-0.415478 0.40721,-0.63872 h -3.296954 v -0.208773 h 3.296954 q -0.157096,-0.200504 -0.219108,-0.297656 -0.06201,-0.09715 -0.183968,-0.341064 z"
         id="path154" />
      <path
         d="m 72.429214,70.972614 q -0.40721,-0.144694 -0.40721,-0.438216 0,-0.23151 0.214974,-0.370003 0.217041,-0.138493 0.537435,-0.138493 0.291454,0 0.46302,0.09715 0.171566,0.09508 0.171566,0.229443 0,0.07028 -0.05374,0.124024 -0.05374,0.05168 -0.124023,0.05168 -0.115755,0 -0.190169,-0.16123 -0.103353,-0.223242 -0.310059,-0.223242 -0.163297,0 -0.268717,0.107486 -0.10542,0.107487 -0.10542,0.299724 0,0.378271 0.390674,0.378271 0.04134,0 0.09508,-0.0083 0.09302,-0.0124 0.144694,-0.0124 0.126091,0 0.126091,0.07235 0,0.08062 -0.128158,0.08062 -0.04547,0 -0.136425,-0.01447 -0.06821,-0.0124 -0.10542,-0.0124 -0.413411,0 -0.413411,0.421679 0,0.204638 0.109554,0.330729 0.109554,0.124023 0.305924,0.124023 0.245979,0 0.326595,-0.254248 0.04134,-0.134358 0.09095,-0.186035 0.05168,-0.05168 0.136426,-0.05168 0.07028,0 0.12609,0.05168 0.05788,0.04961 0.05788,0.128158 0,0.188102 -0.21084,0.312125 -0.21084,0.121956 -0.510563,0.121956 -0.328662,0 -0.584976,-0.157096 -0.254248,-0.157096 -0.254248,-0.419612 0,-0.328662 0.506428,-0.483691 z"
         id="path156" />
    </g>
    <path
       style="font-variation-settings:normal;fill:none;fill-opacity:1;stroke:#000000;stroke-width:0.14;stroke-linecap:butt;stroke-linejoin:miter;stroke-miterlimit:4;stroke-dasharray:none;stroke-dashoffset:0;stroke-opacity:1;marker-end:url(#marker3736-3);stop-color:#000000"
       d="m 79.187161,46.344604 c 0,0 1.75876,-1.357132 3.65561,-1.284545 1.89684,0.07259 2.5298,1.4388 2.54177,2.963956 0.012,1.525156 -1.47067,2.811721 -2.7505,2.566917 -0.77609,-0.265922 -2.06795,-0.713057 -2.06795,-0.713057"
       id="path14666"
       sodipodi:nodetypes="czzcc" />
    <g
       aria-label="ε , ε → $"
       transform="rotate(1.1629693)"
       id="text91158"
       style="font-size:4.23333px;line-height:125%;font-family:'Times New Roman';-inkscape-font-specification:'Times New Roman, Normal';letter-spacing:0px;word-spacing:0px;stroke-width:0.264583px">
      <path
         d="m 57.522433,45.550327 q -0.40721,-0.144694 -0.40721,-0.438216 0,-0.23151 0.214974,-0.370003 0.217041,-0.138493 0.537434,-0.138493 0.291455,0 0.463021,0.09715 0.171566,0.09508 0.171566,0.229443 0,0.07028 -0.05374,0.124024 -0.05374,0.05168 -0.124023,0.05168 -0.115755,0 -0.190169,-0.16123 -0.103353,-0.223242 -0.310059,-0.223242 -0.163297,0 -0.268717,0.107486 -0.10542,0.107487 -0.10542,0.299724 0,0.378271 0.390674,0.378271 0.04134,0 0.09508,-0.0083 0.09302,-0.0124 0.144694,-0.0124 0.126091,0 0.126091,0.07235 0,0.08062 -0.128158,0.08062 -0.04548,0 -0.136426,-0.01447 -0.06821,-0.0124 -0.105419,-0.0124 -0.413411,0 -0.413411,0.421679 0,0.204638 0.109553,0.330729 0.109554,0.124023 0.305925,0.124023 0.245979,0 0.326594,-0.254248 0.04134,-0.134358 0.09095,-0.186035 0.05168,-0.05168 0.136426,-0.05168 0.07028,0 0.12609,0.05168 0.05788,0.04961 0.05788,0.128158 0,0.188102 -0.21084,0.312125 -0.21084,0.121956 -0.510563,0.121956 -0.328662,0 -0.584977,-0.157096 -0.254247,-0.157096 -0.254247,-0.419612 0,-0.328662 0.506428,-0.483691 z"
         id="path159" />
      <path
         d="m 59.403455,47.257715 v -0.09095 q 0.212907,-0.07028 0.328662,-0.219108 0.117822,-0.146761 0.117822,-0.312125 0,-0.03927 -0.0186,-0.06615 -0.01447,-0.0186 -0.02894,-0.0186 -0.02274,0 -0.09922,0.04134 -0.03721,0.0186 -0.07855,0.0186 -0.101286,0 -0.16123,-0.05994 -0.05994,-0.05994 -0.05994,-0.165365 0,-0.101285 0.07648,-0.173632 0.07855,-0.07235 0.190169,-0.07235 0.136426,0 0.241846,0.119889 0.107486,0.117822 0.107486,0.314192 0,0.212907 -0.148828,0.394808 -0.14676,0.183968 -0.467154,0.289388 z"
         id="path161" />
      <path
         d="m 61.416768,45.550327 q -0.407209,-0.144694 -0.407209,-0.438216 0,-0.23151 0.214973,-0.370003 0.217041,-0.138493 0.537435,-0.138493 0.291455,0 0.46302,0.09715 0.171566,0.09508 0.171566,0.229443 0,0.07028 -0.05374,0.124024 -0.05374,0.05168 -0.124023,0.05168 -0.115755,0 -0.190169,-0.16123 -0.103353,-0.223242 -0.310058,-0.223242 -0.163298,0 -0.268718,0.107486 -0.105419,0.107487 -0.105419,0.299724 0,0.378271 0.390673,0.378271 0.04134,0 0.09508,-0.0083 0.09302,-0.0124 0.144693,-0.0124 0.126091,0 0.126091,0.07235 0,0.08062 -0.128158,0.08062 -0.04547,0 -0.136425,-0.01447 -0.06821,-0.0124 -0.10542,-0.0124 -0.413411,0 -0.413411,0.421679 0,0.204638 0.109554,0.330729 0.109554,0.124023 0.305924,0.124023 0.24598,0 0.326595,-0.254248 0.04134,-0.134358 0.09095,-0.186035 0.05168,-0.05168 0.136426,-0.05168 0.07028,0 0.12609,0.05168 0.05788,0.04961 0.05788,0.128158 0,0.188102 -0.21084,0.312125 -0.21084,0.121956 -0.510563,0.121956 -0.328661,0 -0.584976,-0.157096 -0.254248,-0.157096 -0.254248,-0.419612 0,-0.328662 0.506428,-0.483691 z"
         id="path163" />
      <path
         d="m 66.284685,44.742108 q 0.274919,0.299723 0.475423,0.456819 0.200505,0.15503 0.378271,0.231511 v 0.09302 q -0.204638,0.09922 -0.396874,0.254248 -0.192236,0.152962 -0.458887,0.450618 h -0.159163 q 0.194303,-0.415478 0.40721,-0.63872 h -3.296954 v -0.208773 h 3.296954 q -0.157096,-0.200504 -0.219108,-0.297656 -0.06201,-0.09715 -0.183968,-0.341064 z"
         id="path165" />
      <path
         d="m 69.0132,44.076516 v -0.219108 q 0,-0.06408 0.02274,-0.09095 0.0248,-0.02687 0.06408,-0.02687 0.03927,0 0.06201,0.02687 0.0248,0.02687 0.0248,0.09095 v 0.219108 q 0.14056,0.0124 0.23151,0.04548 0.09095,0.03101 0.214974,0.113689 0.0021,-0.05168 0.02687,-0.07648 0.0248,-0.0248 0.05994,-0.0248 0.03927,0 0.06408,0.02687 0.02481,0.02687 0.02481,0.08888 v 0.258382 q 0,0.06201 -0.02481,0.08888 -0.02481,0.02687 -0.06408,0.02687 -0.03307,0 -0.05581,-0.02067 -0.02274,-0.02274 -0.03101,-0.07441 -0.0124,-0.09715 -0.128158,-0.175699 -0.169498,-0.111621 -0.398941,-0.111621 -0.233578,0 -0.38654,0.136425 -0.150895,0.136426 -0.150895,0.307992 0,0.171565 0.134359,0.262516 0.101286,0.07028 0.425813,0.132291 0.326595,0.05994 0.44235,0.113688 0.165365,0.07235 0.24598,0.196371 0.08268,0.124023 0.08268,0.299723 0,0.235644 -0.183968,0.415478 -0.183968,0.177767 -0.529166,0.212907 v 0.510562 q 0,0.06408 -0.0248,0.09095 -0.02274,0.02687 -0.06201,0.02687 -0.03927,0 -0.06408,-0.02687 -0.02274,-0.02687 -0.02274,-0.09095 v -0.510562 q -0.318326,-0.02067 -0.535367,-0.206706 0,0.09095 -0.0083,0.111621 -0.0062,0.0186 -0.02894,0.03514 -0.02274,0.01447 -0.04961,0.01447 -0.03721,0 -0.06201,-0.02687 -0.02481,-0.02687 -0.02481,-0.08888 v -0.338997 q 0,-0.06201 0.02274,-0.08888 0.0248,-0.02894 0.06408,-0.02894 0.03721,0 0.06408,0.02687 0.0186,0.0186 0.02274,0.08268 0.0124,0.109554 0.1757,0.225309 0.165364,0.113688 0.446484,0.113688 0.291454,0 0.458886,-0.138493 0.167431,-0.138492 0.167431,-0.32246 0,-0.121957 -0.06201,-0.208773 -0.06201,-0.08682 -0.194304,-0.142627 -0.08682,-0.03514 -0.363801,-0.08682 -0.401009,-0.07855 -0.556038,-0.202572 -0.157096,-0.124023 -0.157096,-0.363801 0,-0.223242 0.169498,-0.398942 0.169499,-0.1757 0.450618,-0.208773 z"
         style="font-family:'Courier New';-inkscape-font-specification:'Courier New, Normal'"
         id="path167" />
    </g>
    <g
       aria-label="0 , ε → 0"
       transform="rotate(-0.51795775)"
       id="text15908"
       style="font-size:4.23333px;line-height:125%;font-family:'Times New Roman';-inkscape-font-specification:'Times New Roman, Normal';letter-spacing:0px;word-spacing:0px;stroke-width:0.264583px">
      <path
         d="m 87.555421,42.832038 v 0.429948 q 0,0.560172 -0.26665,0.886767 -0.208773,0.256314 -0.5271,0.256314 -0.152962,0 -0.289387,-0.06201 -0.134359,-0.05994 -0.229444,-0.169499 -0.05994,-0.06821 -0.132291,-0.219108 -0.07028,-0.150895 -0.101286,-0.276985 -0.04754,-0.177767 -0.04754,-0.415478 v -0.429948 q 0,-0.562239 0.26665,-0.888834 0.208773,-0.256315 0.527099,-0.256315 0.155029,0 0.289388,0.06201 0.134359,0.05995 0.229443,0.169499 0.06201,0.07028 0.132292,0.221175 0.07028,0.150895 0.103353,0.274918 0.04547,0.177767 0.04547,0.417545 z m -0.173633,0.02274 q 0,-0.24598 -0.07028,-0.45682 -0.06821,-0.212906 -0.155029,-0.338997 -0.05168,-0.07235 -0.134359,-0.124023 -0.117822,-0.07235 -0.264583,-0.07235 -0.291455,0 -0.456819,0.297656 -0.165364,0.297656 -0.165364,0.694531 v 0.382405 q 0,0.24598 0.06821,0.458886 0.07028,0.212907 0.159164,0.338997 0.04961,0.07028 0.132291,0.121957 0.117822,0.07441 0.26665,0.07441 0.289388,0 0.454753,-0.297656 0.165364,-0.299723 0.165364,-0.696598 z"
         style="font-family:'Courier New';-inkscape-font-specification:'Courier New, Normal'"
         id="path170" />
      <path
         d="m 88.78532,45.047922 v -0.09095 q 0.212907,-0.07028 0.328662,-0.219108 0.117822,-0.146761 0.117822,-0.312125 0,-0.03927 -0.0186,-0.06615 -0.01447,-0.0186 -0.02894,-0.0186 -0.02274,0 -0.09922,0.04134 -0.03721,0.0186 -0.07855,0.0186 -0.101286,0 -0.16123,-0.05994 -0.05994,-0.05994 -0.05994,-0.165365 0,-0.101285 0.07648,-0.173632 0.07855,-0.07235 0.190169,-0.07235 0.136426,0 0.241846,0.119889 0.107486,0.117822 0.107486,0.314192 0,0.212907 -0.148828,0.394808 -0.14676,0.183968 -0.467154,0.289388 z"
         id="path172" />
      <path
         d="m 90.798633,43.340534 q -0.407209,-0.144694 -0.407209,-0.438216 0,-0.23151 0.214973,-0.370003 0.217041,-0.138493 0.537435,-0.138493 0.291455,0 0.46302,0.09715 0.171566,0.09508 0.171566,0.229443 0,0.07028 -0.05374,0.124023 -0.05374,0.05168 -0.124023,0.05168 -0.115755,0 -0.190169,-0.16123 -0.103353,-0.223242 -0.310058,-0.223242 -0.163298,0 -0.268718,0.107486 -0.105419,0.107487 -0.105419,0.299723 0,0.378272 0.390673,0.378272 0.04134,0 0.09508,-0.0083 0.09302,-0.0124 0.144693,-0.0124 0.126091,0 0.126091,0.07235 0,0.08062 -0.128158,0.08062 -0.04547,0 -0.136425,-0.01447 -0.06821,-0.0124 -0.10542,-0.0124 -0.413411,0 -0.413411,0.42168 0,0.204638 0.109554,0.330729 0.109554,0.124023 0.305924,0.124023 0.24598,0 0.326595,-0.254248 0.04134,-0.134358 0.09095,-0.186035 0.05168,-0.05168 0.136426,-0.05168 0.07028,0 0.12609,0.05168 0.05788,0.04961 0.05788,0.128158 0,0.188102 -0.21084,0.312125 -0.21084,0.121956 -0.510563,0.121956 -0.328661,0 -0.584976,-0.157096 -0.254248,-0.157096 -0.254248,-0.419612 0,-0.328662 0.506428,-0.483691 z"
         id="path174" />
      <path
         d="m 96.195715,42.532315 q 0.274919,0.299723 0.475423,0.456819 0.200504,0.15503 0.378271,0.231511 v 0.09302 q -0.204638,0.09922 -0.396874,0.254248 -0.192237,0.152962 -0.458887,0.450618 h -0.159163 q 0.194303,-0.415478 0.40721,-0.63872 h -3.296954 v -0.208773 h 3.296954 q -0.157096,-0.200504 -0.219108,-0.297656 -0.06201,-0.09715 -0.183968,-0.341064 z"
         id="path176" />
      <path
         d="m 99.810997,42.832038 v 0.429948 q 0,0.560172 -0.26665,0.886767 -0.208773,0.256314 -0.527099,0.256314 -0.152963,0 -0.289388,-0.06201 -0.134359,-0.05994 -0.229443,-0.169499 -0.05994,-0.06821 -0.132292,-0.219108 -0.07028,-0.150895 -0.101286,-0.276985 -0.04754,-0.177767 -0.04754,-0.415478 v -0.429948 q 0,-0.562239 0.26665,-0.888834 0.208773,-0.256315 0.527099,-0.256315 0.15503,0 0.289388,0.06201 0.134359,0.05995 0.229443,0.169499 0.06201,0.07028 0.132292,0.221175 0.07028,0.150895 0.103353,0.274918 0.04547,0.177767 0.04547,0.417545 z m -0.173633,0.02274 q 0,-0.24598 -0.07028,-0.45682 -0.06821,-0.212906 -0.155029,-0.338997 -0.05168,-0.07235 -0.134358,-0.124023 -0.117823,-0.07235 -0.264584,-0.07235 -0.291454,0 -0.456819,0.297656 -0.165364,0.297656 -0.165364,0.694531 v 0.382405 q 0,0.24598 0.06821,0.458886 0.07028,0.212907 0.159163,0.338997 0.04961,0.07028 0.132291,0.121957 0.117823,0.07441 0.266651,0.07441 0.289387,0 0.454752,-0.297656 0.165364,-0.299723 0.165364,-0.696598 z"
         style="font-family:'Courier New';-inkscape-font-specification:'Courier New, Normal'"
         id="path178" />
    </g>
    <path
       style="font-variation-settings:normal;opacity:1;vector-effect:none;fill:none;fill-opacity:1;fill-rule:evenodd;stroke:#000000;stroke-width:0.176389;stroke-linecap:butt;stroke-linejoin:miter;stroke-miterlimit:4;stroke-dasharray:none;stroke-dashoffset:0;stroke-opacity:1;-inkscape-stroke:none;marker-end:url(#marker3736);stop-color:#000000;stop-opacity:1"
       d="M 53.464429,48.889671 H 72.442747"
       id="path15943" />
    <path
       style="font-variation-settings:normal;opacity:1;vector-effect:none;fill:none;fill-opacity:1;fill-rule:evenodd;stroke:#000000;stroke-width:0.176389;stroke-linecap:butt;stroke-linejoin:miter;stroke-miterlimit:4;stroke-dasharray:none;stroke-dashoffset:0;stroke-opacity:1;-inkscape-stroke:none;marker-end:url(#marker3736);stop-color:#000000;stop-opacity:1"
       d="M 76.535263,52.129615 V 70.122638"
       id="path15945" />
    <path
       style="font-variation-settings:normal;opacity:1;vector-effect:none;fill:none;fill-opacity:1;fill-rule:evenodd;stroke:#000000;stroke-width:0.176389;stroke-linecap:butt;stroke-linejoin:miter;stroke-miterlimit:4;stroke-dasharray:none;stroke-dashoffset:0;stroke-opacity:1;-inkscape-stroke:none;marker-end:url(#marker3736);stop-color:#000000;stop-opacity:1"
       d="M 72.987773,74.347834 H 54.850127"
       id="path15947" />
    <g
       aria-label="0 , ε → ε"
       transform="rotate(-0.51795775)"
       id="text31927"
       style="font-size:4.23333px;line-height:125%;font-family:'Times New Roman';-inkscape-font-specification:'Times New Roman, Normal';letter-spacing:0px;word-spacing:0px;stroke-width:0.264583px">
      <path
         d="m 79.256051,56.624454 v 0.429947 q 0,0.560172 -0.26665,0.886767 -0.208773,0.256315 -0.527099,0.256315 -0.152963,0 -0.289388,-0.06201 -0.134359,-0.05994 -0.229443,-0.169498 -0.05994,-0.06821 -0.132292,-0.219108 -0.07028,-0.150895 -0.101286,-0.276986 -0.04754,-0.177766 -0.04754,-0.415478 v -0.429947 q 0,-0.562239 0.26665,-0.888834 0.208773,-0.256315 0.527099,-0.256315 0.15503,0 0.289388,0.06201 0.134359,0.05994 0.229443,0.169498 0.06201,0.07028 0.132292,0.221175 0.07028,0.150895 0.103353,0.274919 0.04547,0.177766 0.04547,0.417545 z m -0.173633,0.02274 q 0,-0.245979 -0.07028,-0.456819 -0.06821,-0.212907 -0.155029,-0.338997 -0.05168,-0.07235 -0.134358,-0.124023 -0.117823,-0.07235 -0.264584,-0.07235 -0.291454,0 -0.456819,0.297656 -0.165364,0.297656 -0.165364,0.69453 v 0.382406 q 0,0.245979 0.06821,0.458886 0.07028,0.212907 0.159163,0.338997 0.04961,0.07028 0.132291,0.121956 0.117823,0.07441 0.266651,0.07441 0.289387,0 0.454752,-0.297656 0.165364,-0.299723 0.165364,-0.696597 z"
         style="font-family:'Courier New';-inkscape-font-specification:'Courier New, Normal'"
         id="path181" />
      <path
         d="m 80.48595,58.840337 v -0.09095 q 0.212907,-0.07028 0.328662,-0.219108 0.117822,-0.146761 0.117822,-0.312125 0,-0.03927 -0.0186,-0.06615 -0.01447,-0.0186 -0.02894,-0.0186 -0.02274,0 -0.09922,0.04134 -0.03721,0.0186 -0.07855,0.0186 -0.101286,0 -0.16123,-0.05994 -0.05994,-0.05994 -0.05994,-0.165364 0,-0.101286 0.07648,-0.173633 0.07855,-0.07235 0.190169,-0.07235 0.136426,0 0.241846,0.119889 0.107487,0.117823 0.107487,0.314193 0,0.212907 -0.148828,0.394808 -0.146761,0.183967 -0.467155,0.289387 z"
         id="path183" />
      <path
         d="m 82.499264,57.132949 q -0.40721,-0.144693 -0.40721,-0.438215 0,-0.231511 0.214973,-0.370003 0.217041,-0.138493 0.537435,-0.138493 0.291455,0 0.46302,0.09715 0.171566,0.09508 0.171566,0.229443 0,0.07028 -0.05374,0.124023 -0.05374,0.05168 -0.124024,0.05168 -0.115755,0 -0.190169,-0.16123 -0.103353,-0.223242 -0.310058,-0.223242 -0.163298,0 -0.268717,0.107487 -0.10542,0.107487 -0.10542,0.299723 0,0.378271 0.390673,0.378271 0.04134,0 0.09508,-0.0083 0.09302,-0.0124 0.144694,-0.0124 0.12609,0 0.12609,0.07235 0,0.08061 -0.128157,0.08061 -0.04548,0 -0.136426,-0.01447 -0.06821,-0.0124 -0.10542,-0.0124 -0.413411,0 -0.413411,0.421679 0,0.204639 0.109554,0.330729 0.109554,0.124024 0.305924,0.124024 0.24598,0 0.326595,-0.254248 0.04134,-0.134359 0.09095,-0.186035 0.05168,-0.05168 0.136426,-0.05168 0.07028,0 0.12609,0.05168 0.05788,0.04961 0.05788,0.128157 0,0.188102 -0.21084,0.312126 -0.210839,0.121956 -0.510562,0.121956 -0.328662,0 -0.584977,-0.157096 -0.254248,-0.157097 -0.254248,-0.419613 0,-0.328661 0.506429,-0.483691 z"
         id="path185" />
      <path
         d="m 87.896345,56.324731 q 0.274919,0.299723 0.475423,0.456819 0.200505,0.155029 0.378271,0.23151 v 0.09302 q -0.204638,0.09922 -0.396874,0.254248 -0.192236,0.152962 -0.458887,0.450618 h -0.159163 q 0.194303,-0.415479 0.40721,-0.638721 h -3.296954 v -0.208772 h 3.296954 q -0.157096,-0.200505 -0.219108,-0.297656 -0.06201,-0.09715 -0.183968,-0.341064 z"
         id="path187" />
      <path
         d="m 90.097761,57.132949 q -0.40721,-0.144693 -0.40721,-0.438215 0,-0.231511 0.214974,-0.370003 0.217041,-0.138493 0.537434,-0.138493 0.291455,0 0.463021,0.09715 0.171565,0.09508 0.171565,0.229443 0,0.07028 -0.05374,0.124023 -0.05374,0.05168 -0.124023,0.05168 -0.115756,0 -0.19017,-0.16123 -0.103352,-0.223242 -0.310058,-0.223242 -0.163297,0 -0.268717,0.107487 -0.10542,0.107487 -0.10542,0.299723 0,0.378271 0.390674,0.378271 0.04134,0 0.09508,-0.0083 0.09302,-0.0124 0.144694,-0.0124 0.12609,0 0.12609,0.07235 0,0.08061 -0.128157,0.08061 -0.04548,0 -0.136426,-0.01447 -0.06821,-0.0124 -0.10542,-0.0124 -0.413411,0 -0.413411,0.421679 0,0.204639 0.109554,0.330729 0.109554,0.124024 0.305925,0.124024 0.245979,0 0.326594,-0.254248 0.04134,-0.134359 0.09095,-0.186035 0.05168,-0.05168 0.136425,-0.05168 0.07028,0 0.126091,0.05168 0.05788,0.04961 0.05788,0.128157 0,0.188102 -0.210839,0.312126 -0.21084,0.121956 -0.510563,0.121956 -0.328662,0 -0.584977,-0.157096 -0.254248,-0.157097 -0.254248,-0.419613 0,-0.328661 0.506429,-0.483691 z"
         id="path189" />
    </g>
    <g
       aria-label="ε , ε → ε"
       transform="rotate(-0.51795775)"
       id="text41135"
       style="font-size:4.23333px;line-height:125%;font-family:'Times New Roman';-inkscape-font-specification:'Times New Roman, Normal';letter-spacing:0px;word-spacing:0px;stroke-width:0.264583px">
      <path
         d="m 78.087333,65.435108 q -0.40721,-0.144694 -0.40721,-0.438216 0,-0.23151 0.214973,-0.370003 0.217041,-0.138493 0.537435,-0.138493 0.291455,0 0.46302,0.09715 0.171566,0.09508 0.171566,0.229443 0,0.07028 -0.05374,0.124023 -0.05374,0.05168 -0.124024,0.05168 -0.115755,0 -0.190169,-0.161231 -0.103353,-0.223242 -0.310058,-0.223242 -0.163298,0 -0.268717,0.107487 -0.10542,0.107487 -0.10542,0.299723 0,0.378272 0.390673,0.378272 0.04134,0 0.09508,-0.0083 0.09302,-0.0124 0.144694,-0.0124 0.12609,0 0.12609,0.07235 0,0.08061 -0.128157,0.08061 -0.04548,0 -0.136426,-0.01447 -0.06821,-0.0124 -0.10542,-0.0124 -0.413411,0 -0.413411,0.42168 0,0.204638 0.109554,0.330729 0.109554,0.124023 0.305924,0.124023 0.24598,0 0.326595,-0.254248 0.04134,-0.134358 0.09095,-0.186035 0.05168,-0.05168 0.136426,-0.05168 0.07028,0 0.12609,0.05168 0.05788,0.04961 0.05788,0.128158 0,0.188102 -0.21084,0.312125 -0.210839,0.121956 -0.510562,0.121956 -0.328662,0 -0.584977,-0.157096 -0.254248,-0.157096 -0.254248,-0.419612 0,-0.328662 0.506429,-0.483691 z"
         id="path192" />
      <path
         d="m 79.968354,67.142496 v -0.09095 q 0.212907,-0.07028 0.328662,-0.219108 0.117822,-0.146761 0.117822,-0.312125 0,-0.03927 -0.0186,-0.06615 -0.01447,-0.0186 -0.02894,-0.0186 -0.02274,0 -0.09922,0.04134 -0.03721,0.0186 -0.07855,0.0186 -0.101285,0 -0.16123,-0.05994 -0.05994,-0.05994 -0.05994,-0.165365 0,-0.101286 0.07648,-0.173632 0.07855,-0.07235 0.19017,-0.07235 0.136425,0 0.241845,0.119889 0.107487,0.117822 0.107487,0.314192 0,0.212907 -0.148828,0.394808 -0.146761,0.183968 -0.467155,0.289388 z"
         id="path194" />
      <path
         d="m 81.981668,65.435108 q -0.40721,-0.144694 -0.40721,-0.438216 0,-0.23151 0.214974,-0.370003 0.217041,-0.138493 0.537434,-0.138493 0.291455,0 0.463021,0.09715 0.171565,0.09508 0.171565,0.229443 0,0.07028 -0.05374,0.124023 -0.05374,0.05168 -0.124024,0.05168 -0.115755,0 -0.190169,-0.161231 -0.103352,-0.223242 -0.310058,-0.223242 -0.163297,0 -0.268717,0.107487 -0.10542,0.107487 -0.10542,0.299723 0,0.378272 0.390673,0.378272 0.04134,0 0.09508,-0.0083 0.09302,-0.0124 0.144694,-0.0124 0.12609,0 0.12609,0.07235 0,0.08061 -0.128157,0.08061 -0.04547,0 -0.136426,-0.01447 -0.06821,-0.0124 -0.10542,-0.0124 -0.413411,0 -0.413411,0.42168 0,0.204638 0.109554,0.330729 0.109554,0.124023 0.305924,0.124023 0.24598,0 0.326595,-0.254248 0.04134,-0.134358 0.09095,-0.186035 0.05168,-0.05168 0.136425,-0.05168 0.07028,0 0.126091,0.05168 0.05788,0.04961 0.05788,0.128158 0,0.188102 -0.210839,0.312125 -0.21084,0.121956 -0.510563,0.121956 -0.328662,0 -0.584977,-0.157096 -0.254248,-0.157096 -0.254248,-0.419612 0,-0.328662 0.506429,-0.483691 z"
         id="path196" />
      <path
         d="m 87.37875,64.626889 q 0.274918,0.299723 0.475422,0.456819 0.200505,0.155029 0.378272,0.231511 v 0.09302 q -0.204639,0.09922 -0.396875,0.254248 -0.192236,0.152962 -0.458886,0.450618 h -0.159164 q 0.194304,-0.415478 0.40721,-0.63872 h -3.296953 v -0.208773 h 3.296953 q -0.157096,-0.200504 -0.219108,-0.297656 -0.06201,-0.09715 -0.183968,-0.341064 z"
         id="path198" />
      <path
         d="m 89.580165,65.435108 q -0.40721,-0.144694 -0.40721,-0.438216 0,-0.23151 0.214974,-0.370003 0.21704,-0.138493 0.537434,-0.138493 0.291455,0 0.463021,0.09715 0.171565,0.09508 0.171565,0.229443 0,0.07028 -0.05374,0.124023 -0.05374,0.05168 -0.124024,0.05168 -0.115755,0 -0.190169,-0.161231 -0.103353,-0.223242 -0.310058,-0.223242 -0.163297,0 -0.268717,0.107487 -0.10542,0.107487 -0.10542,0.299723 0,0.378272 0.390673,0.378272 0.04134,0 0.09508,-0.0083 0.09302,-0.0124 0.144694,-0.0124 0.12609,0 0.12609,0.07235 0,0.08061 -0.128157,0.08061 -0.04547,0 -0.136426,-0.01447 -0.06821,-0.0124 -0.10542,-0.0124 -0.413411,0 -0.413411,0.42168 0,0.204638 0.109554,0.330729 0.109554,0.124023 0.305924,0.124023 0.24598,0 0.326595,-0.254248 0.04134,-0.134358 0.09095,-0.186035 0.05168,-0.05168 0.136425,-0.05168 0.07028,0 0.126091,0.05168 0.05788,0.04961 0.05788,0.128158 0,0.188102 -0.21084,0.312125 -0.210839,0.121956 -0.510562,0.121956 -0.328662,0 -0.584977,-0.157096 -0.254248,-0.157096 -0.254248,-0.419612 0,-0.328662 0.506429,-0.483691 z"
         id="path200" />
    </g>
    <path
       style="font-variation-settings:normal;fill:none;fill-opacity:1;stroke:#000000;stroke-width:0.14;stroke-linecap:butt;stroke-linejoin:miter;stroke-miterlimit:4;stroke-dasharray:none;stroke-dashoffset:0;stroke-opacity:1;marker-end:url(#marker3736-3);stop-color:#000000"
       d="m 78.378992,73.39066 c 0,0 1.75876,-1.357132 3.65561,-1.284545 1.89684,0.07259 2.5298,1.4388 2.54177,2.963956 0.012,1.525156 -1.47067,2.811721 -2.7505,2.566917 -0.77609,-0.265922 -2.06795,-0.713057 -2.06795,-0.713057"
       id="path52691"
       sodipodi:nodetypes="czzcc" />
    <g
       aria-label="1 , ε → 1"
       transform="rotate(-0.51795775)"
       id="text52705"
       style="font-size:4.23333px;line-height:125%;font-family:'Times New Roman';-inkscape-font-specification:'Times New Roman, Normal';letter-spacing:0px;word-spacing:0px;stroke-width:0.264583px">
      <path
         d="m 86.810975,45.406094 v 2.455662 h 0.595312 q 0.06201,0 0.08888,0.02481 0.02687,0.02274 0.02687,0.06201 0,0.03721 -0.02687,0.06201 -0.02687,0.02481 -0.08888,0.02481 H 86.04203 q -0.06201,0 -0.08888,-0.02481 -0.02687,-0.0248 -0.02687,-0.06201 0,-0.03927 0.02687,-0.06201 0.02687,-0.02481 0.08888,-0.02481 h 0.595312 v -2.215883 l -0.566373,0.177767 q -0.04134,0.0124 -0.05994,0.0124 -0.03101,0 -0.05788,-0.02481 -0.02481,-0.02687 -0.02481,-0.06201 0,-0.03101 0.02067,-0.05788 0.01654,-0.01654 0.06821,-0.03514 z"
         style="font-family:'Courier New';-inkscape-font-specification:'Courier New, Normal'"
         id="path203" />
      <path
         d="m 88.751941,48.740255 v -0.09095 q 0.212907,-0.07028 0.328662,-0.219107 0.117822,-0.146761 0.117822,-0.312126 0,-0.03927 -0.0186,-0.06615 -0.01447,-0.0186 -0.02894,-0.0186 -0.02274,0 -0.09922,0.04134 -0.03721,0.0186 -0.07855,0.0186 -0.101285,0 -0.16123,-0.05994 -0.05994,-0.05994 -0.05994,-0.165365 0,-0.101285 0.07648,-0.173632 0.07855,-0.07235 0.190169,-0.07235 0.136426,0 0.241846,0.119889 0.107487,0.117822 0.107487,0.314193 0,0.212906 -0.148828,0.394807 -0.146761,0.183968 -0.467155,0.289388 z"
         id="path205" />
      <path
         d="m 90.765255,47.032867 q -0.40721,-0.144694 -0.40721,-0.438216 0,-0.23151 0.214974,-0.370003 0.217041,-0.138492 0.537434,-0.138492 0.291455,0 0.463021,0.09715 0.171565,0.09508 0.171565,0.229443 0,0.07028 -0.05374,0.124024 -0.05374,0.05168 -0.124024,0.05168 -0.115755,0 -0.190169,-0.16123 -0.103352,-0.223242 -0.310058,-0.223242 -0.163297,0 -0.268717,0.107487 -0.10542,0.107487 -0.10542,0.299723 0,0.378271 0.390673,0.378271 0.04134,0 0.09509,-0.0083 0.09302,-0.0124 0.144694,-0.0124 0.12609,0 0.12609,0.07235 0,0.08062 -0.128157,0.08062 -0.04547,0 -0.136426,-0.01447 -0.06821,-0.0124 -0.10542,-0.0124 -0.413411,0 -0.413411,0.421679 0,0.204639 0.109554,0.330729 0.109554,0.124023 0.305924,0.124023 0.24598,0 0.326595,-0.254248 0.04134,-0.134358 0.09095,-0.186035 0.05168,-0.05168 0.136425,-0.05168 0.07028,0 0.126091,0.05168 0.05788,0.04961 0.05788,0.128158 0,0.188102 -0.210839,0.312125 -0.21084,0.121957 -0.510563,0.121957 -0.328662,0 -0.584977,-0.157097 -0.254248,-0.157096 -0.254248,-0.419612 0,-0.328662 0.506429,-0.483691 z"
         id="path207" />
      <path
         d="m 96.162337,46.224648 q 0.274918,0.299723 0.475422,0.45682 0.200505,0.155029 0.378272,0.23151 v 0.09302 q -0.204639,0.09922 -0.396875,0.254248 -0.192236,0.152962 -0.458886,0.450618 h -0.159164 q 0.194304,-0.415478 0.40721,-0.63872 h -3.296953 v -0.208773 h 3.296953 q -0.157096,-0.200504 -0.219108,-0.297656 -0.06201,-0.09715 -0.183968,-0.341064 z"
         id="path209" />
      <path
         d="m 99.066551,45.406094 v 2.455662 h 0.595312 q 0.06201,0 0.08888,0.02481 0.02687,0.02274 0.02687,0.06201 0,0.03721 -0.02687,0.06201 -0.02687,0.02481 -0.08888,0.02481 h -1.364257 q -0.06201,0 -0.08888,-0.02481 -0.02687,-0.0248 -0.02687,-0.06201 0,-0.03927 0.02687,-0.06201 0.02687,-0.02481 0.08888,-0.02481 h 0.595312 v -2.215883 l -0.566373,0.177767 q -0.04134,0.0124 -0.05994,0.0124 -0.03101,0 -0.05788,-0.02481 -0.02481,-0.02687 -0.02481,-0.06201 0,-0.03101 0.02067,-0.05788 0.01654,-0.01654 0.06821,-0.03514 z"
         style="font-family:'Courier New';-inkscape-font-specification:'Courier New, Normal'"
         id="path211" />
    </g>
    <g
       aria-label="0 , 0 → ε"
       transform="rotate(-0.51795775)"
       id="text62645"
       style="font-size:4.23333px;line-height:125%;font-family:'Times New Roman';-inkscape-font-specification:'Times New Roman, Normal';letter-spacing:0px;word-spacing:0px;stroke-width:0.264583px">
      <path
         d="m 85.889634,77.830398 v 0.429947 q 0,0.560172 -0.26665,0.886767 -0.208773,0.256315 -0.527099,0.256315 -0.152962,0 -0.289388,-0.06201 -0.134359,-0.05994 -0.229443,-0.169498 -0.05994,-0.06821 -0.132292,-0.219108 -0.07028,-0.150895 -0.101286,-0.276985 -0.04754,-0.177767 -0.04754,-0.415479 v -0.429947 q 0,-0.562239 0.26665,-0.888834 0.208773,-0.256315 0.527099,-0.256315 0.15503,0 0.289388,0.06201 0.134359,0.05994 0.229443,0.169498 0.06201,0.07028 0.132292,0.221175 0.07028,0.150895 0.103353,0.274919 0.04547,0.177766 0.04547,0.417545 z m -0.173633,0.02274 q 0,-0.245979 -0.07028,-0.456819 -0.06821,-0.212907 -0.155029,-0.338997 -0.05168,-0.07235 -0.134358,-0.124023 -0.117823,-0.07235 -0.264583,-0.07235 -0.291455,0 -0.45682,0.297656 -0.165364,0.297656 -0.165364,0.69453 v 0.382406 q 0,0.245979 0.06821,0.458886 0.07028,0.212907 0.159163,0.338997 0.04961,0.07028 0.132291,0.121956 0.117823,0.07441 0.266651,0.07441 0.289387,0 0.454752,-0.297656 0.165364,-0.299723 0.165364,-0.696597 z"
         style="font-family:'Courier New';-inkscape-font-specification:'Courier New, Normal'"
         id="path214" />
      <path
         d="m 87.119533,80.046281 v -0.09095 q 0.212907,-0.07028 0.328662,-0.219108 0.117822,-0.146761 0.117822,-0.312125 0,-0.03927 -0.0186,-0.06615 -0.01447,-0.0186 -0.02894,-0.0186 -0.02274,0 -0.09922,0.04134 -0.03721,0.0186 -0.07855,0.0186 -0.101286,0 -0.16123,-0.05994 -0.05994,-0.05994 -0.05994,-0.165364 0,-0.101286 0.07648,-0.173633 0.07855,-0.07235 0.190169,-0.07235 0.136426,0 0.241846,0.11989 0.107487,0.117822 0.107487,0.314192 0,0.212907 -0.148828,0.394808 -0.146761,0.183968 -0.467155,0.289387 z"
         id="path216" />
      <path
         d="m 90.546713,77.830398 v 0.429947 q 0,0.560172 -0.26665,0.886767 -0.208773,0.256315 -0.5271,0.256315 -0.152962,0 -0.289387,-0.06201 -0.134359,-0.05994 -0.229444,-0.169498 -0.05994,-0.06821 -0.132291,-0.219108 -0.07028,-0.150895 -0.101286,-0.276985 -0.04754,-0.177767 -0.04754,-0.415479 v -0.429947 q 0,-0.562239 0.26665,-0.888834 0.208773,-0.256315 0.527099,-0.256315 0.155029,0 0.289388,0.06201 0.134359,0.05994 0.229443,0.169498 0.06201,0.07028 0.132292,0.221175 0.07028,0.150895 0.103353,0.274919 0.04547,0.177766 0.04547,0.417545 z m -0.173633,0.02274 q 0,-0.245979 -0.07028,-0.456819 -0.06821,-0.212907 -0.155029,-0.338997 -0.05168,-0.07235 -0.134359,-0.124023 -0.117822,-0.07235 -0.264583,-0.07235 -0.291455,0 -0.456819,0.297656 -0.165364,0.297656 -0.165364,0.69453 v 0.382406 q 0,0.245979 0.06821,0.458886 0.07028,0.212907 0.159164,0.338997 0.04961,0.07028 0.132291,0.121956 0.117822,0.07441 0.26665,0.07441 0.289388,0 0.454753,-0.297656 0.165364,-0.299723 0.165364,-0.696597 z"
         style="font-family:'Courier New';-inkscape-font-specification:'Courier New, Normal'"
         id="path218" />
      <path
         d="m 95.292672,77.530675 q 0.274918,0.299723 0.475423,0.456819 0.200504,0.155029 0.378271,0.23151 v 0.09302 q -0.204639,0.09922 -0.396875,0.254248 -0.192236,0.152962 -0.458886,0.450618 h -0.159163 q 0.194303,-0.415478 0.40721,-0.63872 h -3.296954 v -0.208773 h 3.296954 q -0.157097,-0.200504 -0.219108,-0.297656 -0.06201,-0.09715 -0.183968,-0.341064 z"
         id="path220" />
      <path
         d="m 97.494087,78.338893 q -0.40721,-0.144693 -0.40721,-0.438215 0,-0.231511 0.214974,-0.370003 0.217041,-0.138493 0.537434,-0.138493 0.291455,0 0.463021,0.09715 0.171565,0.09508 0.171565,0.229443 0,0.07028 -0.05374,0.124023 -0.05374,0.05168 -0.124023,0.05168 -0.115755,0 -0.190169,-0.161231 -0.103353,-0.223242 -0.310059,-0.223242 -0.163297,0 -0.268717,0.107487 -0.10542,0.107487 -0.10542,0.299723 0,0.378271 0.390674,0.378271 0.04134,0 0.09508,-0.0083 0.09302,-0.0124 0.144694,-0.0124 0.126091,0 0.126091,0.07235 0,0.08062 -0.128158,0.08062 -0.04547,0 -0.136426,-0.01447 -0.06821,-0.0124 -0.105419,-0.0124 -0.413412,0 -0.413412,0.421679 0,0.204639 0.109554,0.330729 0.109554,0.124024 0.305925,0.124024 0.245979,0 0.326594,-0.254248 0.04134,-0.134359 0.09095,-0.186035 0.05168,-0.05168 0.136426,-0.05168 0.07028,0 0.12609,0.05168 0.05788,0.04961 0.05788,0.128157 0,0.188102 -0.210839,0.312126 -0.21084,0.121956 -0.510563,0.121956 -0.328662,0 -0.584977,-0.157096 -0.254247,-0.157096 -0.254247,-0.419613 0,-0.328661 0.506428,-0.483691 z"
         id="path222" />
    </g>
    <g
       aria-label="1 , 1 → ε"
       transform="rotate(-0.51795775)"
       id="text85665"
       style="font-size:4.23333px;line-height:125%;font-family:'Times New Roman';-inkscape-font-specification:'Times New Roman, Normal';letter-spacing:0px;word-spacing:0px;stroke-width:0.264583px">
      <path
         d="m 85.140771,80.892701 v 2.455662 h 0.595312 q 0.06201,0 0.08888,0.02481 0.02687,0.02274 0.02687,0.06201 0,0.03721 -0.02687,0.06201 -0.02687,0.02481 -0.08888,0.02481 h -1.364257 q -0.06201,0 -0.08888,-0.02481 -0.02687,-0.02481 -0.02687,-0.06201 0,-0.03927 0.02687,-0.06201 0.02687,-0.02481 0.08888,-0.02481 h 0.595312 v -2.215884 l -0.566373,0.177767 q -0.04134,0.0124 -0.05995,0.0124 -0.031,0 -0.05788,-0.0248 -0.02481,-0.02687 -0.02481,-0.06201 0,-0.03101 0.02067,-0.05788 0.01654,-0.01654 0.06821,-0.03514 z"
         style="font-family:'Courier New';-inkscape-font-specification:'Courier New, Normal'"
         id="path225" />
      <path
         d="m 87.081737,84.226861 v -0.09095 q 0.212907,-0.07028 0.328662,-0.219108 0.117822,-0.146761 0.117822,-0.312125 0,-0.03927 -0.0186,-0.06615 -0.01447,-0.0186 -0.02894,-0.0186 -0.02274,0 -0.09922,0.04134 -0.03721,0.0186 -0.07855,0.0186 -0.101286,0 -0.16123,-0.05995 -0.05994,-0.05994 -0.05994,-0.165364 0,-0.101286 0.07648,-0.173633 0.07855,-0.07235 0.190169,-0.07235 0.136426,0 0.241846,0.11989 0.107487,0.117822 0.107487,0.314192 0,0.212907 -0.148828,0.394808 -0.146761,0.183968 -0.467155,0.289387 z"
         id="path227" />
      <path
         d="m 89.79785,80.892701 v 2.455662 h 0.595312 q 0.06201,0 0.08888,0.02481 0.02687,0.02274 0.02687,0.06201 0,0.03721 -0.02687,0.06201 -0.02687,0.02481 -0.08888,0.02481 h -1.364257 q -0.06201,0 -0.08888,-0.02481 -0.02687,-0.02481 -0.02687,-0.06201 0,-0.03927 0.02687,-0.06201 0.02687,-0.02481 0.08888,-0.02481 h 0.595312 v -2.215884 l -0.566373,0.177767 q -0.04134,0.0124 -0.05994,0.0124 -0.03101,0 -0.05788,-0.0248 -0.02481,-0.02687 -0.02481,-0.06201 0,-0.03101 0.02067,-0.05788 0.01654,-0.01654 0.06821,-0.03514 z"
         style="font-family:'Courier New';-inkscape-font-specification:'Courier New, Normal'"
         id="path229" />
      <path
         d="m 95.254876,81.711255 q 0.274918,0.299723 0.475423,0.456819 0.200504,0.155029 0.378271,0.23151 v 0.09302 q -0.204639,0.09922 -0.396875,0.254248 -0.192236,0.152962 -0.458886,0.450618 h -0.159163 q 0.194303,-0.415478 0.40721,-0.63872 h -3.296954 v -0.208773 h 3.296954 q -0.157097,-0.200504 -0.219108,-0.297656 -0.06201,-0.09715 -0.183968,-0.341064 z"
         id="path231" />
      <path
         d="m 97.456291,82.519474 q -0.40721,-0.144694 -0.40721,-0.438216 0,-0.23151 0.214974,-0.370003 0.217041,-0.138493 0.537434,-0.138493 0.291455,0 0.463021,0.09715 0.171565,0.09508 0.171565,0.229443 0,0.07028 -0.05374,0.124023 -0.05374,0.05168 -0.124023,0.05168 -0.115755,0 -0.190169,-0.161231 -0.103353,-0.223242 -0.310059,-0.223242 -0.163297,0 -0.268717,0.107487 -0.10542,0.107487 -0.10542,0.299723 0,0.378271 0.390674,0.378271 0.04134,0 0.09508,-0.0083 0.09302,-0.0124 0.144694,-0.0124 0.12609,0 0.12609,0.07235 0,0.08061 -0.128157,0.08061 -0.04547,0 -0.136426,-0.01447 -0.06821,-0.0124 -0.105419,-0.0124 -0.413412,0 -0.413412,0.42168 0,0.204638 0.109554,0.330728 0.109554,0.124024 0.305925,0.124024 0.245979,0 0.326594,-0.254248 0.04134,-0.134359 0.09095,-0.186035 0.05168,-0.05168 0.136425,-0.05168 0.07028,0 0.126091,0.05168 0.05788,0.04961 0.05788,0.128157 0,0.188102 -0.210839,0.312126 -0.21084,0.121956 -0.510563,0.121956 -0.328662,0 -0.584977,-0.157096 -0.254248,-0.157096 -0.254248,-0.419612 0,-0.328662 0.506429,-0.483691 z"
         id="path233" />
    </g>
    <path
       style="font-variation-settings:normal;opacity:1;vector-effect:none;fill:none;fill-opacity:1;fill-rule:evenodd;stroke:#000000;stroke-width:0.176389;stroke-linecap:butt;stroke-linejoin:miter;stroke-miterlimit:4;stroke-dasharray:none;stroke-dashoffset:0;stroke-opacity:1;-inkscape-stroke:none;marker-end:url(#marker3736);stop-color:#000000;stop-opacity:1"
       d="m 39.96331,48.889671 h 6.720748"
       id="path1079" />
  </g>
  <g
     inkscape:label="Layer 1"
     inkscape:groupmode="layer"
     id="layer1"
     transform="translate(-39.610532,-40.430122)">
    <g
       id="g1116">
      <path
         id="path825"
         style="fill:#d9d9d9;stroke:#000000;stroke-width:0.176389"
         d="m 54.628377,48.889671 a 3.8805556,3.8805556 0 0 1 -3.880555,3.880556 3.8805556,3.8805556 0 0 1 -3.880556,-3.880556 3.8805556,3.8805556 0 0 1 3.880556,-3.880555 3.8805556,3.8805556 0 0 1 3.880555,3.880555 z" />
      <g
         aria-label="q"
         id="text817"
         style="font-style:italic;font-size:4.93889px;line-height:125%;font-family:'Times New Roman';-inkscape-font-specification:'Times New Roman, Italic';letter-spacing:0px;word-spacing:0px;stroke-width:0.264583px">
        <path
           d="m 51.607963,47.257908 -0.788583,2.725071 q -0.05305,0.188102 -0.05305,0.241157 0,0.05547 0.02653,0.09405 0.02894,0.041 0.07717,0.06029 0.07476,0.02894 0.195337,0.02894 l -0.02412,0.08923 h -1.15514 l 0.02411,-0.08923 q 0.236334,-0.01929 0.294211,-0.041 0.09164,-0.03617 0.149518,-0.118167 0.06029,-0.08199 0.132636,-0.344854 l 0.332796,-1.188902 q -0.318327,0.465432 -0.593245,0.653534 -0.195337,0.132636 -0.364147,0.132636 -0.241157,0 -0.364147,-0.195336 -0.12299,-0.197749 -0.12299,-0.426848 0,-0.364147 0.224276,-0.764467 0.224276,-0.40032 0.590834,-0.655946 0.284565,-0.20016 0.516075,-0.20016 0.171222,0 0.282154,0.0844 0.110932,0.08199 0.166398,0.265272 l 0.07476,-0.270095 z m -0.549838,0.470255 q 0,-0.15434 -0.09405,-0.253214 -0.09405,-0.09887 -0.23151,-0.09887 -0.294212,0 -0.619773,0.506429 -0.325562,0.506429 -0.325562,0.95498 0,0.180868 0.07958,0.274919 0.08199,0.09405 0.197749,0.09405 0.147105,0 0.332796,-0.163986 0.282153,-0.248392 0.470255,-0.636654 0.190514,-0.390674 0.190514,-0.677651 z"
           id="path237" />
      </g>
      <g
         aria-label="0"
         id="text821"
         style="font-size:2.82222px;line-height:125%;font-family:'Times New Roman';-inkscape-font-specification:'Times New Roman, Normal';letter-spacing:0px;word-spacing:0px;stroke-width:0.264583px">
        <path
           d="m 51.34214,49.348776 q 0,-0.319705 0.09646,-0.549837 0.09646,-0.231511 0.256315,-0.34451 0.124023,-0.08957 0.256315,-0.08957 0.214974,0 0.38585,0.219108 0.213596,0.271473 0.213596,0.735872 0,0.325216 -0.09371,0.552593 -0.09371,0.227376 -0.239779,0.330729 -0.144694,0.101974 -0.279741,0.101974 -0.26734,0 -0.445106,-0.31557 -0.150207,-0.265961 -0.150207,-0.640787 z m 0.270096,0.03445 q 0,0.385851 0.09508,0.629763 0.07855,0.205328 0.234267,0.205328 0.07441,0 0.15434,-0.06615 0.07993,-0.06752 0.121267,-0.22462 0.06339,-0.237022 0.06339,-0.668348 0,-0.319705 -0.06615,-0.5333 -0.04961,-0.158475 -0.128157,-0.22462 -0.0565,-0.04548 -0.136426,-0.04548 -0.09371,0 -0.166743,0.08406 -0.09922,0.114377 -0.135047,0.359667 -0.03583,0.245291 -0.03583,0.483691 z"
           id="path240" />
      </g>
    </g>
    <g
       id="g1109"
       transform="translate(-13.765514,25.593474)">
      <path
         id="path825-6"
         style="fill:#d9d9d9;stroke:#000000;stroke-width:0.176389"
         d="m 68.393892,48.75436 a 3.8805556,3.8805556 0 0 1 -3.880556,3.880556 3.8805556,3.8805556 0 0 1 -3.880555,-3.880556 3.8805556,3.8805556 0 0 1 3.880555,-3.880555 3.8805556,3.8805556 0 0 1 3.880556,3.880555 z" />
      <g
         aria-label="q"
         id="text817-7"
         style="font-style:italic;font-size:4.93889px;line-height:125%;font-family:'Times New Roman';-inkscape-font-specification:'Times New Roman, Italic';letter-spacing:0px;word-spacing:0px;stroke-width:0.264583px">
        <path
           d="m 65.335475,47.122597 -0.788583,2.725071 q -0.05305,0.188102 -0.05305,0.241157 0,0.05547 0.02653,0.09405 0.02894,0.041 0.07717,0.06029 0.07476,0.02894 0.195337,0.02894 l -0.02412,0.08923 h -1.155141 l 0.02412,-0.08923 q 0.236333,-0.01929 0.294211,-0.041 0.09164,-0.03617 0.149517,-0.118167 0.06029,-0.08199 0.132636,-0.344854 l 0.332796,-1.188903 q -0.318326,0.465433 -0.593245,0.653535 -0.195337,0.132636 -0.364147,0.132636 -0.241157,0 -0.364146,-0.195337 -0.12299,-0.197748 -0.12299,-0.426847 0,-0.364147 0.224275,-0.764467 0.224276,-0.40032 0.590834,-0.655946 0.284565,-0.20016 0.516076,-0.20016 0.171221,0 0.282153,0.08441 0.110932,0.08199 0.166398,0.265272 l 0.07476,-0.270096 z m -0.549837,0.470255 q 0,-0.15434 -0.09405,-0.253214 -0.09405,-0.09887 -0.231511,-0.09887 -0.294211,0 -0.619773,0.50643 -0.325561,0.506429 -0.325561,0.95498 0,0.180868 0.07958,0.274919 0.08199,0.09405 0.197749,0.09405 0.147105,0 0.332796,-0.163986 0.282154,-0.248392 0.470256,-0.636654 0.190514,-0.390674 0.190514,-0.677651 z"
           id="path244" />
      </g>
      <g
         aria-label="3"
         id="text821-6"
         style="font-size:2.82222px;line-height:125%;font-family:'Times New Roman';-inkscape-font-specification:'Times New Roman, Normal';letter-spacing:0px;word-spacing:0px;stroke-width:0.264583px">
        <path
           d="m 65.110464,48.457302 q 0.07993,-0.188791 0.201193,-0.290766 0.122645,-0.103353 0.304546,-0.103353 0.22462,0 0.34451,0.146072 0.09095,0.108865 0.09095,0.232888 0,0.20395 -0.256315,0.42168 0.172255,0.06752 0.260449,0.192925 0.08819,0.125401 0.08819,0.2949 0,0.242534 -0.154341,0.420301 -0.201193,0.23151 -0.582909,0.23151 -0.188791,0 -0.257693,-0.04685 -0.06752,-0.04685 -0.06752,-0.100597 0,-0.03996 0.03169,-0.07028 0.03307,-0.03032 0.07855,-0.03032 0.03445,0 0.07028,0.01102 0.02343,0.0069 0.106109,0.05099 0.08268,0.04272 0.114377,0.05099 0.05099,0.01516 0.108865,0.01516 0.140559,0 0.243912,-0.108865 0.104731,-0.108865 0.104731,-0.257693 0,-0.108865 -0.04823,-0.212217 -0.03583,-0.07717 -0.07855,-0.117134 -0.05926,-0.05512 -0.162609,-0.09922 -0.103353,-0.04547 -0.210839,-0.04547 h -0.0441 v -0.04134 q 0.108865,-0.01378 0.21773,-0.07855 0.110243,-0.06477 0.159853,-0.155718 0.04961,-0.09095 0.04961,-0.199815 0,-0.141938 -0.08957,-0.228754 -0.08819,-0.08819 -0.220485,-0.08819 -0.213596,0 -0.356912,0.228754 z"
           id="path247" />
      </g>
      <path
         id="path825-7-5"
         style="fill:none;stroke:#000000;stroke-width:0.176389"
         d="m 67.688336,48.75436 a 3.175,3.175 0 0 1 -3.175,3.175 3.175,3.175 0 0 1 -3.175,-3.175 3.175,3.175 0 0 1 3.175,-3.175 3.175,3.175 0 0 1 3.175,3.175 z" />
    </g>
    <g
       id="g1110"
       transform="translate(25.787441,-0.04109098)">
      <path
         id="circle1100"
         style="fill:#d9d9d9;stroke:#000000;stroke-width:0.176389"
         d="m 54.628377,48.889671 a 3.8805556,3.8805556 0 0 1 -3.880555,3.880556 3.8805556,3.8805556 0 0 1 -3.880556,-3.880556 3.8805556,3.8805556 0 0 1 3.880556,-3.880555 3.8805556,3.8805556 0 0 1 3.880555,3.880555 z" />
      <g
         aria-label="q"
         id="text1104"
         style="font-style:italic;font-size:4.93889px;line-height:125%;font-family:'Times New Roman';-inkscape-font-specification:'Times New Roman, Italic';letter-spacing:0px;word-spacing:0px;stroke-width:0.264583px">
        <path
           d="m 51.607963,47.257908 -0.788583,2.725071 q -0.05305,0.188102 -0.05305,0.241157 0,0.05547 0.02653,0.09405 0.02894,0.041 0.07717,0.06029 0.07476,0.02894 0.195337,0.02894 l -0.02412,0.08923 h -1.15514 l 0.02411,-0.08923 q 0.236334,-0.01929 0.294211,-0.041 0.09164,-0.03617 0.149518,-0.118167 0.06029,-0.08199 0.132636,-0.344854 l 0.332796,-1.188902 q -0.318327,0.465432 -0.593245,0.653534 -0.195337,0.132636 -0.364147,0.132636 -0.241157,0 -0.364147,-0.195336 -0.12299,-0.197749 -0.12299,-0.426848 0,-0.364147 0.224276,-0.764467 0.224276,-0.40032 0.590834,-0.655946 0.284565,-0.20016 0.516075,-0.20016 0.171222,0 0.282154,0.0844 0.110932,0.08199 0.166398,0.265272 l 0.07476,-0.270095 z m -0.549838,0.470255 q 0,-0.15434 -0.09405,-0.253214 -0.09405,-0.09887 -0.23151,-0.09887 -0.294212,0 -0.619773,0.506429 -0.325562,0.506429 -0.325562,0.95498 0,0.180868 0.07958,0.274919 0.08199,0.09405 0.197749,0.09405 0.147105,0 0.332796,-0.163986 0.282153,-0.248392 0.470255,-0.636654 0.190514,-0.390674 0.190514,-0.677651 z"
           id="path252" />
      </g>
      <g
         aria-label="1"
         id="text1108"
         style="font-size:2.82222px;line-height:125%;font-family:'Times New Roman';-inkscape-font-specification:'Times New Roman, Normal';letter-spacing:0px;word-spacing:0px;stroke-width:0.264583px">
        <path
           d="m 51.570895,48.586721 0.454752,-0.221864 h 0.04548 v 1.577853 q 0,0.157096 0.0124,0.195681 0.01378,0.03859 0.05512,0.05926 0.04134,0.02067 0.16812,0.02343 v 0.05099 h -0.702798 v -0.05099 q 0.132291,-0.0028 0.170876,-0.02205 0.03858,-0.02067 0.05374,-0.05374 0.01516,-0.03445 0.01516,-0.202571 v -1.008724 q 0,-0.203949 -0.01378,-0.261827 -0.0096,-0.0441 -0.03583,-0.06477 -0.02481,-0.02067 -0.06063,-0.02067 -0.05099,0 -0.141938,0.04272 z"
           id="path255" />
      </g>
    </g>
    <g
       id="g1122"
       transform="translate(25.787441,25.458163)">
      <path
         id="circle1112"
         style="fill:#d9d9d9;stroke:#000000;stroke-width:0.176389"
         d="m 54.628377,48.889671 a 3.8805556,3.8805556 0 0 1 -3.880555,3.880556 3.8805556,3.8805556 0 0 1 -3.880556,-3.880556 3.8805556,3.8805556 0 0 1 3.880556,-3.880555 3.8805556,3.8805556 0 0 1 3.880555,3.880555 z" />
      <g
         aria-label="q"
         id="text1116"
         style="font-style:italic;font-size:4.93889px;line-height:125%;font-family:'Times New Roman';-inkscape-font-specification:'Times New Roman, Italic';letter-spacing:0px;word-spacing:0px;stroke-width:0.264583px">
        <path
           d="m 51.607963,47.257908 -0.788583,2.725071 q -0.05305,0.188102 -0.05305,0.241157 0,0.05547 0.02653,0.09405 0.02894,0.041 0.07717,0.06029 0.07476,0.02894 0.195337,0.02894 l -0.02412,0.08923 h -1.15514 l 0.02411,-0.08923 q 0.236334,-0.01929 0.294211,-0.041 0.09164,-0.03617 0.149518,-0.118167 0.06029,-0.08199 0.132636,-0.344854 l 0.332796,-1.188902 q -0.318327,0.465432 -0.593245,0.653534 -0.195337,0.132636 -0.364147,0.132636 -0.241157,0 -0.364147,-0.195336 -0.12299,-0.197749 -0.12299,-0.426848 0,-0.364147 0.224276,-0.764467 0.224276,-0.40032 0.590834,-0.655946 0.284565,-0.20016 0.516075,-0.20016 0.171222,0 0.282154,0.0844 0.110932,0.08199 0.166398,0.265272 l 0.07476,-0.270095 z m -0.549838,0.470255 q 0,-0.15434 -0.09405,-0.253214 -0.09405,-0.09887 -0.23151,-0.09887 -0.294212,0 -0.619773,0.506429 -0.325562,0.506429 -0.325562,0.95498 0,0.180868 0.07958,0.274919 0.08199,0.09405 0.197749,0.09405 0.147105,0 0.332796,-0.163986 0.282153,-0.248392 0.470255,-0.636654 0.190514,-0.390674 0.190514,-0.677651 z"
           id="path259" />
      </g>
      <g
         aria-label="2"
         id="text1120"
         style="font-size:2.82222px;line-height:125%;font-family:'Times New Roman';-inkscape-font-specification:'Times New Roman, Normal';letter-spacing:0px;word-spacing:0px;stroke-width:0.264583px">
        <path
           d="m 52.534143,49.912393 -0.130914,0.359667 h -1.10243 v -0.05099 q 0.486447,-0.443728 0.684885,-0.724848 0.198437,-0.281119 0.198437,-0.514007 0,-0.177767 -0.108865,-0.292144 -0.108865,-0.114377 -0.260449,-0.114377 -0.137804,0 -0.248046,0.0813 -0.108865,0.07993 -0.161231,0.235644 h -0.05099 q 0.03445,-0.254937 0.176389,-0.391362 0.143315,-0.136426 0.356911,-0.136426 0.227376,0 0.37896,0.146072 0.152963,0.146072 0.152963,0.344509 0,0.141938 -0.06615,0.283876 -0.101975,0.223242 -0.330729,0.472667 -0.343131,0.374826 -0.42857,0.451996 h 0.487825 q 0.148828,0 0.208084,-0.01103 0.06063,-0.01102 0.108865,-0.0441 0.04823,-0.03445 0.08406,-0.09646 z"
           id="path262" />
      </g>
    </g>
  </g>
</svg>
