<?xml version="1.0" encoding="UTF-8" standalone="no"?>
<!-- Created with Inkscape (http://www.inkscape.org/) -->

<svg
   width="108.46461pt"
   height="47.970428pt"
   viewBox="0 0 38.263903 16.922901"
   version="1.1"
   id="svg8"
   inkscape:version="1.1.2 (0a00cf5339, 2022-02-04)"
   sodipodi:docname="book1_4fa.svg"
   inkscape:export-filename="/home/srt/classes/452/tex/final_pda.png"
   inkscape:export-xdpi="118.92"
   inkscape:export-ydpi="118.92"
   xmlns:inkscape="http://www.inkscape.org/namespaces/inkscape"
   xmlns:sodipodi="http://sodipodi.sourceforge.net/DTD/sodipodi-0.dtd"
   xmlns="http://www.w3.org/2000/svg"
   xmlns:svg="http://www.w3.org/2000/svg"
   xmlns:rdf="http://www.w3.org/1999/02/22-rdf-syntax-ns#"
   xmlns:cc="http://creativecommons.org/ns#"
   xmlns:dc="http://purl.org/dc/elements/1.1/">
  <defs
     id="defs2">
    <marker
       inkscape:stockid="Arrow1Lend"
       orient="auto"
       refY="0"
       refX="0"
       id="marker3736"
       style="overflow:visible"
       inkscape:isstock="true">
      <path
         id="path3734"
         d="M 0,0 5,-5 -12.5,0 5,5 Z"
         style="fill:#000000;fill-opacity:1;fill-rule:evenodd;stroke:#000000;stroke-width:1pt;stroke-opacity:1"
         transform="matrix(-0.8,0,0,-0.8,-10,0)"
         inkscape:connector-curvature="0" />
    </marker>
    <inkscape:path-effect
       effect="spiro"
       id="path-effect3726"
       is_visible="true"
       lpeversion="0" />
    <marker
       inkscape:isstock="true"
       style="overflow:visible"
       id="marker2300"
       refX="0"
       refY="0"
       orient="auto"
       inkscape:stockid="Arrow1Lend">
      <path
         inkscape:connector-curvature="0"
         transform="matrix(-0.8,0,0,-0.8,-10,0)"
         style="fill:#060606;fill-opacity:1;fill-rule:evenodd;stroke:#060606;stroke-width:1pt;stroke-opacity:1"
         d="M 0,0 5,-5 -12.5,0 5,5 Z"
         id="path2298" />
    </marker>
    <inkscape:path-effect
       effect="spiro"
       id="path-effect2290"
       is_visible="true"
       lpeversion="0" />
    <inkscape:path-effect
       effect="spiro"
       id="path-effect2286"
       is_visible="true"
       lpeversion="0" />
    <marker
       inkscape:stockid="Arrow1Lend"
       orient="auto"
       refY="0"
       refX="0"
       id="marker6028"
       style="overflow:visible"
       inkscape:isstock="true">
      <path
         id="path6026"
         d="M 0,0 5,-5 -12.5,0 5,5 Z"
         style="fill:#000000;fill-opacity:1;fill-rule:evenodd;stroke:#000000;stroke-width:1pt;stroke-opacity:1"
         transform="matrix(-0.8,0,0,-0.8,-10,0)"
         inkscape:connector-curvature="0" />
    </marker>
    <marker
       inkscape:isstock="true"
       style="overflow:visible"
       id="marker3669"
       refX="0"
       refY="0"
       orient="auto"
       inkscape:stockid="Arrow1Lend">
      <path
         transform="matrix(-0.8,0,0,-0.8,-10,0)"
         style="fill:#000000;fill-opacity:1;fill-rule:evenodd;stroke:#000000;stroke-width:1pt;stroke-opacity:1"
         d="M 0,0 5,-5 -12.5,0 5,5 Z"
         id="path3667"
         inkscape:connector-curvature="0" />
    </marker>
    <marker
       inkscape:isstock="true"
       style="overflow:visible"
       id="marker3111"
       refX="0"
       refY="0"
       orient="auto"
       inkscape:stockid="Arrow1Lend">
      <path
         transform="matrix(-0.8,0,0,-0.8,-10,0)"
         style="fill:#000000;fill-opacity:1;fill-rule:evenodd;stroke:#000000;stroke-width:1pt;stroke-opacity:1"
         d="M 0,0 5,-5 -12.5,0 5,5 Z"
         id="path3109"
         inkscape:connector-curvature="0" />
    </marker>
    <marker
       inkscape:stockid="Arrow1Mend"
       orient="auto"
       refY="0"
       refX="0"
       id="marker1546"
       style="overflow:visible"
       inkscape:isstock="true">
      <path
         id="path1544"
         d="M 0,0 5,-5 -12.5,0 5,5 Z"
         style="fill:#000000;fill-opacity:1;fill-rule:evenodd;stroke:#000000;stroke-width:1pt;stroke-opacity:1"
         transform="matrix(-0.4,0,0,-0.4,-4,0)"
         inkscape:connector-curvature="0" />
    </marker>
    <marker
       inkscape:isstock="true"
       style="overflow:visible"
       id="marker3691"
       refX="0"
       refY="0"
       orient="auto"
       inkscape:stockid="Arrow1Mstart">
      <path
         transform="matrix(0.4,0,0,0.4,4,0)"
         style="fill:#000000;fill-opacity:1;fill-rule:evenodd;stroke:#000000;stroke-width:1pt;stroke-opacity:1"
         d="M 0,0 5,-5 -12.5,0 5,5 Z"
         id="path3689"
         inkscape:connector-curvature="0" />
    </marker>
    <marker
       inkscape:stockid="Arrow1Mend"
       orient="auto"
       refY="0"
       refX="0"
       id="marker3231"
       style="overflow:visible"
       inkscape:isstock="true">
      <path
         id="path3229"
         d="M 0,0 5,-5 -12.5,0 5,5 Z"
         style="fill:#000000;fill-opacity:1;fill-rule:evenodd;stroke:#000000;stroke-width:1pt;stroke-opacity:1"
         transform="matrix(-0.4,0,0,-0.4,-4,0)"
         inkscape:connector-curvature="0" />
    </marker>
    <marker
       inkscape:isstock="true"
       style="overflow:visible"
       id="marker2864"
       refX="0"
       refY="0"
       orient="auto"
       inkscape:stockid="Arrow1Mend">
      <path
         transform="matrix(-0.4,0,0,-0.4,-4,0)"
         style="fill:#000000;fill-opacity:1;fill-rule:evenodd;stroke:#000000;stroke-width:1pt;stroke-opacity:1"
         d="M 0,0 5,-5 -12.5,0 5,5 Z"
         id="path2862"
         inkscape:connector-curvature="0" />
    </marker>
    <marker
       inkscape:isstock="true"
       style="overflow:visible"
       id="marker2598"
       refX="0"
       refY="0"
       orient="auto"
       inkscape:stockid="Arrow1Mend">
      <path
         transform="matrix(-0.4,0,0,-0.4,-4,0)"
         style="fill:#000000;fill-opacity:1;fill-rule:evenodd;stroke:#000000;stroke-width:1pt;stroke-opacity:1"
         d="M 0,0 5,-5 -12.5,0 5,5 Z"
         id="path2596"
         inkscape:connector-curvature="0" />
    </marker>
    <marker
       inkscape:isstock="true"
       style="overflow:visible"
       id="marker2922-2"
       refX="0"
       refY="0"
       orient="auto"
       inkscape:stockid="Arrow1Mstart">
      <path
         inkscape:connector-curvature="0"
         transform="matrix(0.4,0,0,0.4,4,0)"
         style="fill:#000000;fill-opacity:1;fill-rule:evenodd;stroke:#000000;stroke-width:1pt;stroke-opacity:1"
         d="M 0,0 5,-5 -12.5,0 5,5 Z"
         id="path2920-2" />
    </marker>
    <marker
       inkscape:isstock="true"
       style="overflow:visible"
       id="marker3669-7"
       refX="0"
       refY="0"
       orient="auto"
       inkscape:stockid="Arrow1Lend">
      <path
         inkscape:connector-curvature="0"
         transform="matrix(-0.8,0,0,-0.8,-10,0)"
         style="fill:#000000;fill-opacity:1;fill-rule:evenodd;stroke:#000000;stroke-width:1pt;stroke-opacity:1"
         d="M 0,0 5,-5 -12.5,0 5,5 Z"
         id="path3667-3" />
    </marker>
    <marker
       inkscape:isstock="true"
       style="overflow:visible"
       id="marker2300-8"
       refX="0"
       refY="0"
       orient="auto"
       inkscape:stockid="Arrow1Lend">
      <path
         inkscape:connector-curvature="0"
         transform="matrix(-0.8,0,0,-0.8,-10,0)"
         style="fill:#060606;fill-opacity:1;fill-rule:evenodd;stroke:#060606;stroke-width:1pt;stroke-opacity:1"
         d="M 0,0 5,-5 -12.5,0 5,5 Z"
         id="path2298-8" />
    </marker>
    <inkscape:path-effect
       effect="spiro"
       id="path-effect2290-6"
       is_visible="true"
       lpeversion="0" />
    <marker
       inkscape:isstock="true"
       style="overflow:visible"
       id="marker2406-7"
       refX="0"
       refY="0"
       orient="auto"
       inkscape:stockid="Arrow1Lend">
      <path
         inkscape:connector-curvature="0"
         transform="matrix(-0.8,0,0,-0.8,-10,0)"
         style="fill:#060606;fill-opacity:1;fill-rule:evenodd;stroke:#060606;stroke-width:1pt;stroke-opacity:1"
         d="M 0,0 5,-5 -12.5,0 5,5 Z"
         id="path2404-7" />
    </marker>
    <inkscape:path-effect
       effect="spiro"
       id="path-effect2286-4"
       is_visible="true"
       lpeversion="0" />
    <marker
       inkscape:stockid="Arrow1Lend"
       orient="auto"
       refY="0"
       refX="0"
       id="marker3736-3"
       style="overflow:visible"
       inkscape:isstock="true">
      <path
         id="path3734-8"
         d="M 0,0 5,-5 -12.5,0 5,5 Z"
         style="fill:#000000;fill-opacity:1;fill-rule:evenodd;stroke:#000000;stroke-width:1pt;stroke-opacity:1"
         transform="matrix(-0.8,0,0,-0.8,-10,0)"
         inkscape:connector-curvature="0" />
    </marker>
    <marker
       inkscape:stockid="Arrow1Lend"
       orient="auto"
       refY="0"
       refX="0"
       id="marker15037"
       style="overflow:visible"
       inkscape:isstock="true">
      <path
         id="path15035"
         d="M 0,0 5,-5 -12.5,0 5,5 Z"
         style="fill:#000000;fill-opacity:1;fill-rule:evenodd;stroke:#000000;stroke-width:1pt;stroke-opacity:1"
         transform="matrix(-0.8,0,0,-0.8,-10,0)"
         inkscape:connector-curvature="0" />
    </marker>
    <marker
       inkscape:stockid="Arrow1Lend"
       orient="auto"
       refY="0"
       refX="0"
       id="marker3736-8"
       style="overflow:visible"
       inkscape:isstock="true">
      <path
         id="path3734-7"
         d="M 0,0 5,-5 -12.5,0 5,5 Z"
         style="fill:#000000;fill-opacity:1;fill-rule:evenodd;stroke:#000000;stroke-width:1pt;stroke-opacity:1"
         transform="matrix(-0.8,0,0,-0.8,-10,0)"
         inkscape:connector-curvature="0" />
    </marker>
  </defs>
  <sodipodi:namedview
     id="base"
     pagecolor="#ffffff"
     bordercolor="#666666"
     borderopacity="1.0"
     inkscape:pageopacity="0.0"
     inkscape:pageshadow="2"
     inkscape:zoom="7.3968244"
     inkscape:cx="72.328336"
     inkscape:cy="32.040777"
     inkscape:document-units="mm"
     inkscape:current-layer="layer1"
     showgrid="false"
     inkscape:window-width="1920"
     inkscape:window-height="1022"
     inkscape:window-x="0"
     inkscape:window-y="0"
     inkscape:window-maximized="1"
     fit-margin-top="1"
     fit-margin-left="1"
     fit-margin-right="1"
     fit-margin-bottom="1"
     units="pt"
     inkscape:pagecheckerboard="0"
     lock-margins="true" />
  <metadata
     id="metadata5">
    <rdf:RDF>
      <cc:Work
         rdf:about="">
        <dc:format>image/svg+xml</dc:format>
        <dc:type
           rdf:resource="http://purl.org/dc/dcmitype/StillImage" />
      </cc:Work>
    </rdf:RDF>
  </metadata>
  <g
     inkscape:groupmode="layer"
     id="layer2"
     inkscape:label="arcs"
     transform="translate(-33.802392,-43.476787)">
    <g
       id="text1350"
       style="font-size:3.52778px;line-height:125%;-inkscape-font-specification:'sans-serif, Normal';text-align:center;letter-spacing:0px;word-spacing:0px;text-anchor:middle;stroke-width:0.264583px" />
    <g
       aria-label="a"
       transform="rotate(-0.51795775)"
       id="text1983-3-9-3"
       style="font-size:4.23333px;line-height:125%;font-family:'Courier New';-inkscape-font-specification:'Courier New, Normal';letter-spacing:0px;word-spacing:0px;stroke-width:0.264583px">
      <path
         d="m 56.596603,51.232559 v -0.208428 q -0.315227,0.265272 -0.673517,0.265272 -0.260105,0 -0.406521,-0.130913 -0.146417,-0.132637 -0.146417,-0.32384 0,-0.210151 0.192925,-0.366902 0.192926,-0.156752 0.563274,-0.156752 0.09991,0 0.217041,0.01378 0.117133,0.01206 0.253215,0.03962 v -0.234267 q 0,-0.118856 -0.110243,-0.206706 -0.110244,-0.08785 -0.33073,-0.08785 -0.16881,0 -0.473701,0.09819 -0.05512,0.01723 -0.07062,0.01723 -0.02756,0 -0.04823,-0.02067 -0.01895,-0.02067 -0.01895,-0.05168 0,-0.02928 0.01723,-0.04651 0.02411,-0.02584 0.194648,-0.07062 0.268717,-0.07235 0.406521,-0.07235 0.273886,0 0.427192,0.136082 0.153307,0.134359 0.153307,0.304891 v 0.957737 h 0.192926 q 0.0534,0 0.07579,0.02067 0.02239,0.01895 0.02239,0.05168 0,0.03101 -0.02239,0.05168 -0.02239,0.02067 -0.07579,0.02067 z m 0,-0.720025 q -0.101631,-0.02928 -0.215319,-0.04306 -0.113688,-0.01378 -0.239434,-0.01378 -0.315227,0 -0.492649,0.136081 -0.134359,0.10163 -0.134359,0.242879 0,0.130914 0.10163,0.220487 0.103353,0.08957 0.299724,0.08957 0.187758,0 0.347955,-0.07407 0.161919,-0.07579 0.332452,-0.239435 z"
         style="font-size:3.52778px"
         id="path76" />
    </g>
    <g
       aria-label="b"
       id="text1983-1-4-0-5"
       style="font-size:4.23333px;line-height:125%;font-family:'Courier New';-inkscape-font-specification:'Courier New, Normal';letter-spacing:0px;word-spacing:0px;stroke-width:0.264583px">
      <path
         d="m 44.317164,43.829565 v 0.959459 q 0.261827,-0.341064 0.632175,-0.341064 0.316949,0 0.542603,0.230821 0.225654,0.229099 0.225654,0.563274 0,0.337619 -0.229099,0.571886 -0.227376,0.234267 -0.539158,0.234267 -0.37896,0 -0.632175,-0.341065 v 0.284221 h -0.339342 q -0.05168,0 -0.07407,-0.02067 -0.02239,-0.02067 -0.02239,-0.05168 0,-0.03273 0.02239,-0.05168 0.02239,-0.02067 0.07407,-0.02067 h 0.194648 v -1.870688 h -0.194648 q -0.05168,0 -0.07407,-0.02067 -0.02239,-0.02067 -0.02239,-0.0534 0,-0.03101 0.02239,-0.05168 0.02239,-0.02067 0.07407,-0.02067 z m 1.255738,1.41938 q 0,-0.273885 -0.187758,-0.463366 -0.187758,-0.191203 -0.43925,-0.191203 -0.251492,0 -0.43925,0.191203 -0.187757,0.189481 -0.187757,0.463366 0,0.273885 0.187757,0.465088 0.187758,0.189481 0.43925,0.189481 0.251492,0 0.43925,-0.189481 0.187758,-0.191203 0.187758,-0.465088 z"
         style="font-size:3.52778px"
         id="path79" />
    </g>
    <path
       style="font-variation-settings:normal;fill:none;fill-opacity:1;stroke:#000000;stroke-width:0.14;stroke-linecap:butt;stroke-linejoin:miter;stroke-miterlimit:4;stroke-dasharray:none;stroke-dashoffset:0;stroke-opacity:1;marker-end:url(#marker3736-3);stop-color:#000000"
       d="m 44.741329,55.474434 c 0,0 7.40601,-3.256067 10.69511,-3.264219 3.2891,-0.0082 7.0386,1.330967 7.58475,1.583955 0.53976,0.254387 1.14805,0.553952 1.14805,0.553952"
       id="path14664"
       sodipodi:nodetypes="czcc" />
    <path
       style="font-variation-settings:normal;fill:none;fill-opacity:1;stroke:#000000;stroke-width:0.14;stroke-linecap:butt;stroke-linejoin:miter;stroke-miterlimit:4;stroke-dasharray:none;stroke-dashoffset:0;stroke-opacity:1;marker-end:url(#marker3736-3);stop-color:#000000"
       d="m 46.666261,53.448612 c 0,0 1.357132,-1.75876 1.284545,-3.65561 -0.07259,-1.89684 -1.4388,-2.5298 -2.963956,-2.54177 -1.525156,-0.012 -2.811721,1.47067 -2.566917,2.7505 0.265922,0.77609 0.713057,2.06795 0.713057,2.06795"
       id="path14666"
       sodipodi:nodetypes="czzcc" />
    <path
       style="font-variation-settings:normal;fill:none;fill-opacity:1;stroke:#000000;stroke-width:0.14;stroke-linecap:butt;stroke-linejoin:miter;stroke-miterlimit:4;stroke-dasharray:none;stroke-dashoffset:0;stroke-opacity:1;marker-end:url(#marker3736-3);stop-color:#000000"
       d="m 67.743195,56.624741 c 0,0 -7.40601,3.256067 -10.69511,3.264219 -3.2891,0.0082 -7.0386,-1.330967 -7.58475,-1.583955 -0.53976,-0.254387 -1.14805,-0.553952 -1.14805,-0.553952"
       id="path14412"
       sodipodi:nodetypes="czcc" />
    <path
       style="font-variation-settings:normal;fill:none;fill-opacity:1;stroke:#000000;stroke-width:0.14;stroke-linecap:butt;stroke-linejoin:miter;stroke-miterlimit:4;stroke-dasharray:none;stroke-dashoffset:0;stroke-opacity:1;marker-end:url(#marker3736-3);stop-color:#000000"
       d="m 69.693947,53.448612 c 0,0 1.357132,-1.75876 1.284545,-3.65561 -0.07259,-1.89684 -1.4388,-2.5298 -2.963956,-2.54177 -1.525156,-0.012 -2.811721,1.47067 -2.566917,2.7505 0.265922,0.77609 0.713057,2.06795 0.713057,2.06795"
       id="path14414"
       sodipodi:nodetypes="czzcc" />
    <g
       aria-label="a"
       transform="rotate(-0.51795775)"
       id="text14420"
       style="font-size:4.23333px;line-height:125%;font-family:'Courier New';-inkscape-font-specification:'Courier New, Normal';letter-spacing:0px;word-spacing:0px;stroke-width:0.264583px">
      <path
         d="m 56.526664,58.969067 v -0.208429 q -0.315226,0.265273 -0.673517,0.265273 -0.260104,0 -0.406521,-0.130914 -0.146417,-0.132636 -0.146417,-0.323839 0,-0.210151 0.192926,-0.366903 0.192925,-0.156752 0.563273,-0.156752 0.09991,0 0.217041,0.01378 0.117134,0.01206 0.253215,0.03962 v -0.234267 q 0,-0.118856 -0.110243,-0.206706 -0.110243,-0.08785 -0.33073,-0.08785 -0.168809,0 -0.4737,0.09819 -0.05512,0.01722 -0.07063,0.01722 -0.02756,0 -0.04823,-0.02067 -0.01895,-0.02067 -0.01895,-0.05168 0,-0.02928 0.01722,-0.04651 0.02412,-0.02584 0.194648,-0.07062 0.268718,-0.07235 0.406522,-0.07235 0.273885,0 0.427192,0.136081 0.153307,0.134359 0.153307,0.304891 v 0.957738 h 0.192925 q 0.0534,0 0.07579,0.02067 0.02239,0.01895 0.02239,0.05168 0,0.03101 -0.02239,0.05168 -0.02239,0.02067 -0.07579,0.02067 z m 0,-0.720026 q -0.10163,-0.02928 -0.215319,-0.04306 -0.113688,-0.01378 -0.239434,-0.01378 -0.315226,0 -0.492649,0.136081 -0.134359,0.101631 -0.134359,0.24288 0,0.130914 0.101631,0.220486 0.103353,0.08957 0.299723,0.08957 0.187758,0 0.347955,-0.07407 0.16192,-0.07579 0.332452,-0.239434 z"
         style="font-size:3.52778px"
         id="path82" />
    </g>
    <g
       aria-label="b"
       id="text14426"
       style="font-size:4.23333px;line-height:125%;font-family:'Courier New';-inkscape-font-specification:'Courier New, Normal';letter-spacing:0px;word-spacing:0px;stroke-width:0.264583px">
      <path
         d="m 67.367537,43.829565 v 0.959459 q 0.261828,-0.341064 0.632176,-0.341064 0.316949,0 0.542602,0.230821 0.225654,0.229099 0.225654,0.563274 0,0.337619 -0.229099,0.571886 -0.227376,0.234267 -0.539157,0.234267 -0.378961,0 -0.632176,-0.341065 v 0.284221 h -0.339342 q -0.05168,0 -0.07407,-0.02067 -0.02239,-0.02067 -0.02239,-0.05168 0,-0.03273 0.02239,-0.05168 0.02239,-0.02067 0.07407,-0.02067 h 0.194648 v -1.870688 h -0.194648 q -0.05168,0 -0.07407,-0.02067 -0.02239,-0.02067 -0.02239,-0.0534 0,-0.03101 0.02239,-0.05168 0.02239,-0.02067 0.07407,-0.02067 z m 1.255738,1.41938 q 0,-0.273885 -0.187758,-0.463366 -0.187757,-0.191203 -0.43925,-0.191203 -0.251492,0 -0.43925,0.191203 -0.187757,0.189481 -0.187757,0.463366 0,0.273885 0.187757,0.465088 0.187758,0.189481 0.43925,0.189481 0.251493,0 0.43925,-0.189481 0.187758,-0.191203 0.187758,-0.465088 z"
         style="font-size:3.52778px"
         id="path85" />
    </g>
    <path
       style="font-variation-settings:normal;vector-effect:none;fill:none;fill-opacity:1;stroke:#000000;stroke-width:0.141111;stroke-linecap:butt;stroke-linejoin:miter;stroke-miterlimit:4;stroke-dasharray:none;stroke-dashoffset:0;stroke-opacity:1;-inkscape-stroke:none;marker-end:url(#marker3736-8);stop-color:#000000"
       d="m 34.15517,56.07816 h 6.660252"
       id="path1529" />
  </g>
  <g
     inkscape:label="Layer 1"
     inkscape:groupmode="layer"
     id="layer1"
     transform="translate(-33.802392,-43.476787)">
    <g
       id="g14182">
      <path
         id="path825"
         style="fill:#d9d9d9;stroke:#000000;stroke-width:0.176389"
         d="m 48.715311,56.078159 a 3.8805556,3.8805556 0 0 1 -3.880556,3.880556 3.8805556,3.8805556 0 0 1 -3.880556,-3.880556 3.8805556,3.8805556 0 0 1 3.880556,-3.880555 3.8805556,3.8805556 0 0 1 3.880556,3.880555 z" />
      <g
         aria-label="A"
         id="text817"
         style="font-size:4.23333px;line-height:125%;font-family:'Times New Roman';-inkscape-font-specification:'Times New Roman, Normal';letter-spacing:0px;word-spacing:0px;stroke-width:0.264583px">
        <path
           d="m 45.711269,54.412043 -0.212907,2.331639 q -0.01654,0.163297 -0.01654,0.214973 0,0.08268 0.03101,0.126091 0.03928,0.05994 0.10542,0.08888 0.06821,0.02894 0.227376,0.02894 l -0.02274,0.07648 h -1.103808 l 0.02274,-0.07648 h 0.04754 q 0.134359,0 0.219108,-0.05788 0.05994,-0.03927 0.09302,-0.130224 0.02274,-0.06408 0.04341,-0.30179 l 0.03307,-0.355534 h -0.802017 l -0.285254,0.38654 q -0.09715,0.130224 -0.121956,0.188102 -0.02481,0.05581 -0.02481,0.105419 0,0.06615 0.05374,0.113688 0.05374,0.04754 0.177767,0.05168 l -0.02274,0.07648 H 43.32382 l 0.02274,-0.07648 q 0.152962,-0.0062 0.268717,-0.101286 0.117823,-0.09715 0.349333,-0.411344 l 1.674315,-2.277895 z m -0.409277,0.688329 -0.812353,1.105875 h 0.704866 z"
           style="font-style:italic;-inkscape-font-specification:'Times New Roman, Italic'"
           id="path89" />
      </g>
    </g>
    <g
       id="g14177">
      <path
         id="path825-6"
         style="fill:#d9d9d9;stroke:#000000;stroke-width:0.176389"
         d="m 71.625322,56.078159 a 3.8805556,3.8805556 0 0 1 -3.880556,3.880556 3.8805556,3.8805556 0 0 1 -3.880555,-3.880556 3.8805556,3.8805556 0 0 1 3.880555,-3.880555 3.8805556,3.8805556 0 0 1 3.880556,3.880555 z" />
      <g
         aria-label="B"
         id="text817-7"
         style="font-size:4.23333px;line-height:125%;font-family:'Times New Roman';-inkscape-font-specification:'Times New Roman, Normal';letter-spacing:0px;word-spacing:0px;stroke-width:0.264583px">
        <path
           d="m 67.170126,54.753176 0.02894,-0.07648 h 1.000454 q 0.252181,0 0.448552,0.07855 0.198437,0.07855 0.295588,0.219108 0.09922,0.140559 0.09922,0.297656 0,0.241845 -0.1757,0.438215 -0.173632,0.194304 -0.56844,0.287321 0.254248,0.09508 0.374137,0.252181 0.119889,0.157096 0.119889,0.345198 0,0.208773 -0.107486,0.398942 -0.107487,0.190169 -0.276986,0.295589 -0.167431,0.10542 -0.405143,0.155029 -0.169498,0.03514 -0.529166,0.03514 h -1.027327 l 0.02687,-0.07648 q 0.16123,-0.0041 0.219108,-0.03101 0.08268,-0.03514 0.117822,-0.09302 0.04961,-0.07855 0.132292,-0.359667 l 0.502294,-1.697053 q 0.06408,-0.214974 0.06408,-0.30179 0,-0.07648 -0.05788,-0.119889 -0.05581,-0.04548 -0.214973,-0.04548 -0.03514,0 -0.06615,-0.0021 z m 0.419612,1.163752 q 0.134359,0.0041 0.194303,0.0041 0.429948,0 0.63872,-0.186035 0.21084,-0.188102 0.21084,-0.469222 0,-0.212906 -0.128157,-0.330728 -0.128158,-0.11989 -0.409277,-0.11989 -0.07441,0 -0.190169,0.02481 z m -0.40721,1.380793 q 0.223242,0.02894 0.349333,0.02894 0.32246,0 0.570507,-0.194303 0.250114,-0.194304 0.250114,-0.5271 0,-0.254247 -0.15503,-0.396874 -0.152962,-0.142627 -0.496093,-0.142627 -0.06615,0 -0.16123,0.0062 z"
           style="font-style:italic;-inkscape-font-specification:'Times New Roman, Italic'"
           id="path93" />
      </g>
      <path
         id="path825-7-5"
         style="fill:none;stroke:#000000;stroke-width:0.176389"
         d="m 70.919766,56.078159 a 3.175,3.175 0 0 1 -3.175,3.175 3.175,3.175 0 0 1 -3.175,-3.175 3.175,3.175 0 0 1 3.175,-3.175 3.175,3.175 0 0 1 3.175,3.175 z" />
    </g>
    <g
       id="g4492"
       transform="translate(6.783963,-4.4184113)" />
  </g>
</svg>
