<?xml version="1.0" encoding="UTF-8" standalone="no"?>
<!-- Created with Inkscape (http://www.inkscape.org/) -->

<svg
   width="268.3877pt"
   height="217.30994pt"
   viewBox="0 0 94.681215 76.662116"
   version="1.1"
   id="svg8"
   inkscape:version="1.1.2 (0a00cf5339, 2022-02-04)"
   sodipodi:docname="tm_book3_8b.svg"
   inkscape:export-filename="/home/srt/classes/452/tex/final_pda.png"
   inkscape:export-xdpi="118.92"
   inkscape:export-ydpi="118.92"
   xmlns:inkscape="http://www.inkscape.org/namespaces/inkscape"
   xmlns:sodipodi="http://sodipodi.sourceforge.net/DTD/sodipodi-0.dtd"
   xmlns="http://www.w3.org/2000/svg"
   xmlns:svg="http://www.w3.org/2000/svg"
   xmlns:rdf="http://www.w3.org/1999/02/22-rdf-syntax-ns#"
   xmlns:cc="http://creativecommons.org/ns#"
   xmlns:dc="http://purl.org/dc/elements/1.1/">
  <defs
     id="defs2">
    <marker
       inkscape:stockid="Arrow1Lend"
       orient="auto"
       refY="0"
       refX="0"
       id="marker3736"
       style="overflow:visible"
       inkscape:isstock="true">
      <path
         id="path3734"
         d="M 0,0 5,-5 -12.5,0 5,5 Z"
         style="fill:#000000;fill-opacity:1;fill-rule:evenodd;stroke:#000000;stroke-width:1pt;stroke-opacity:1"
         transform="matrix(-0.8,0,0,-0.8,-10,0)"
         inkscape:connector-curvature="0" />
    </marker>
    <inkscape:path-effect
       effect="spiro"
       id="path-effect3726"
       is_visible="true"
       lpeversion="0" />
    <marker
       inkscape:isstock="true"
       style="overflow:visible"
       id="marker2300"
       refX="0"
       refY="0"
       orient="auto"
       inkscape:stockid="Arrow1Lend">
      <path
         inkscape:connector-curvature="0"
         transform="matrix(-0.8,0,0,-0.8,-10,0)"
         style="fill:#060606;fill-opacity:1;fill-rule:evenodd;stroke:#060606;stroke-width:1pt;stroke-opacity:1"
         d="M 0,0 5,-5 -12.5,0 5,5 Z"
         id="path2298" />
    </marker>
    <inkscape:path-effect
       effect="spiro"
       id="path-effect2290"
       is_visible="true"
       lpeversion="0" />
    <inkscape:path-effect
       effect="spiro"
       id="path-effect2286"
       is_visible="true"
       lpeversion="0" />
    <marker
       inkscape:stockid="Arrow1Lend"
       orient="auto"
       refY="0"
       refX="0"
       id="marker6028"
       style="overflow:visible"
       inkscape:isstock="true">
      <path
         id="path6026"
         d="M 0,0 5,-5 -12.5,0 5,5 Z"
         style="fill:#000000;fill-opacity:1;fill-rule:evenodd;stroke:#000000;stroke-width:1pt;stroke-opacity:1"
         transform="matrix(-0.8,0,0,-0.8,-10,0)"
         inkscape:connector-curvature="0" />
    </marker>
    <marker
       inkscape:isstock="true"
       style="overflow:visible"
       id="marker3669"
       refX="0"
       refY="0"
       orient="auto"
       inkscape:stockid="Arrow1Lend">
      <path
         transform="matrix(-0.8,0,0,-0.8,-10,0)"
         style="fill:#000000;fill-opacity:1;fill-rule:evenodd;stroke:#000000;stroke-width:1pt;stroke-opacity:1"
         d="M 0,0 5,-5 -12.5,0 5,5 Z"
         id="path3667"
         inkscape:connector-curvature="0" />
    </marker>
    <marker
       inkscape:isstock="true"
       style="overflow:visible"
       id="marker3111"
       refX="0"
       refY="0"
       orient="auto"
       inkscape:stockid="Arrow1Lend">
      <path
         transform="matrix(-0.8,0,0,-0.8,-10,0)"
         style="fill:#000000;fill-opacity:1;fill-rule:evenodd;stroke:#000000;stroke-width:1pt;stroke-opacity:1"
         d="M 0,0 5,-5 -12.5,0 5,5 Z"
         id="path3109"
         inkscape:connector-curvature="0" />
    </marker>
    <marker
       inkscape:stockid="Arrow1Mend"
       orient="auto"
       refY="0"
       refX="0"
       id="marker1546"
       style="overflow:visible"
       inkscape:isstock="true">
      <path
         id="path1544"
         d="M 0,0 5,-5 -12.5,0 5,5 Z"
         style="fill:#000000;fill-opacity:1;fill-rule:evenodd;stroke:#000000;stroke-width:1pt;stroke-opacity:1"
         transform="matrix(-0.4,0,0,-0.4,-4,0)"
         inkscape:connector-curvature="0" />
    </marker>
    <marker
       inkscape:isstock="true"
       style="overflow:visible"
       id="marker3691"
       refX="0"
       refY="0"
       orient="auto"
       inkscape:stockid="Arrow1Mstart">
      <path
         transform="matrix(0.4,0,0,0.4,4,0)"
         style="fill:#000000;fill-opacity:1;fill-rule:evenodd;stroke:#000000;stroke-width:1pt;stroke-opacity:1"
         d="M 0,0 5,-5 -12.5,0 5,5 Z"
         id="path3689"
         inkscape:connector-curvature="0" />
    </marker>
    <marker
       inkscape:stockid="Arrow1Mend"
       orient="auto"
       refY="0"
       refX="0"
       id="marker3231"
       style="overflow:visible"
       inkscape:isstock="true">
      <path
         id="path3229"
         d="M 0,0 5,-5 -12.5,0 5,5 Z"
         style="fill:#000000;fill-opacity:1;fill-rule:evenodd;stroke:#000000;stroke-width:1pt;stroke-opacity:1"
         transform="matrix(-0.4,0,0,-0.4,-4,0)"
         inkscape:connector-curvature="0" />
    </marker>
    <marker
       inkscape:isstock="true"
       style="overflow:visible"
       id="marker2864"
       refX="0"
       refY="0"
       orient="auto"
       inkscape:stockid="Arrow1Mend">
      <path
         transform="matrix(-0.4,0,0,-0.4,-4,0)"
         style="fill:#000000;fill-opacity:1;fill-rule:evenodd;stroke:#000000;stroke-width:1pt;stroke-opacity:1"
         d="M 0,0 5,-5 -12.5,0 5,5 Z"
         id="path2862"
         inkscape:connector-curvature="0" />
    </marker>
    <marker
       inkscape:isstock="true"
       style="overflow:visible"
       id="marker2598"
       refX="0"
       refY="0"
       orient="auto"
       inkscape:stockid="Arrow1Mend">
      <path
         transform="matrix(-0.4,0,0,-0.4,-4,0)"
         style="fill:#000000;fill-opacity:1;fill-rule:evenodd;stroke:#000000;stroke-width:1pt;stroke-opacity:1"
         d="M 0,0 5,-5 -12.5,0 5,5 Z"
         id="path2596"
         inkscape:connector-curvature="0" />
    </marker>
    <marker
       inkscape:isstock="true"
       style="overflow:visible"
       id="marker2922-2"
       refX="0"
       refY="0"
       orient="auto"
       inkscape:stockid="Arrow1Mstart">
      <path
         inkscape:connector-curvature="0"
         transform="matrix(0.4,0,0,0.4,4,0)"
         style="fill:#000000;fill-opacity:1;fill-rule:evenodd;stroke:#000000;stroke-width:1pt;stroke-opacity:1"
         d="M 0,0 5,-5 -12.5,0 5,5 Z"
         id="path2920-2" />
    </marker>
    <marker
       inkscape:isstock="true"
       style="overflow:visible"
       id="marker3669-7"
       refX="0"
       refY="0"
       orient="auto"
       inkscape:stockid="Arrow1Lend">
      <path
         inkscape:connector-curvature="0"
         transform="matrix(-0.8,0,0,-0.8,-10,0)"
         style="fill:#000000;fill-opacity:1;fill-rule:evenodd;stroke:#000000;stroke-width:1pt;stroke-opacity:1"
         d="M 0,0 5,-5 -12.5,0 5,5 Z"
         id="path3667-3" />
    </marker>
    <marker
       inkscape:isstock="true"
       style="overflow:visible"
       id="marker2300-8"
       refX="0"
       refY="0"
       orient="auto"
       inkscape:stockid="Arrow1Lend">
      <path
         inkscape:connector-curvature="0"
         transform="matrix(-0.8,0,0,-0.8,-10,0)"
         style="fill:#060606;fill-opacity:1;fill-rule:evenodd;stroke:#060606;stroke-width:1pt;stroke-opacity:1"
         d="M 0,0 5,-5 -12.5,0 5,5 Z"
         id="path2298-8" />
    </marker>
    <inkscape:path-effect
       effect="spiro"
       id="path-effect2290-6"
       is_visible="true"
       lpeversion="0" />
    <marker
       inkscape:isstock="true"
       style="overflow:visible"
       id="marker2406-7"
       refX="0"
       refY="0"
       orient="auto"
       inkscape:stockid="Arrow1Lend">
      <path
         inkscape:connector-curvature="0"
         transform="matrix(-0.8,0,0,-0.8,-10,0)"
         style="fill:#060606;fill-opacity:1;fill-rule:evenodd;stroke:#060606;stroke-width:1pt;stroke-opacity:1"
         d="M 0,0 5,-5 -12.5,0 5,5 Z"
         id="path2404-7" />
    </marker>
    <inkscape:path-effect
       effect="spiro"
       id="path-effect2286-4"
       is_visible="true"
       lpeversion="0" />
    <marker
       inkscape:stockid="Arrow1Lend"
       orient="auto"
       refY="0"
       refX="0"
       id="marker3736-3"
       style="overflow:visible"
       inkscape:isstock="true">
      <path
         id="path3734-8"
         d="M 0,0 5,-5 -12.5,0 5,5 Z"
         style="fill:#000000;fill-opacity:1;fill-rule:evenodd;stroke:#000000;stroke-width:1pt;stroke-opacity:1"
         transform="matrix(-0.8,0,0,-0.8,-10,0)"
         inkscape:connector-curvature="0" />
    </marker>
    <marker
       inkscape:stockid="Arrow1Lend"
       orient="auto"
       refY="0"
       refX="0"
       id="marker15037"
       style="overflow:visible"
       inkscape:isstock="true">
      <path
         id="path15035"
         d="M 0,0 5,-5 -12.5,0 5,5 Z"
         style="fill:#000000;fill-opacity:1;fill-rule:evenodd;stroke:#000000;stroke-width:1pt;stroke-opacity:1"
         transform="matrix(-0.8,0,0,-0.8,-10,0)"
         inkscape:connector-curvature="0" />
    </marker>
  </defs>
  <sodipodi:namedview
     id="base"
     pagecolor="#ffffff"
     bordercolor="#666666"
     borderopacity="1.0"
     inkscape:pageopacity="0.0"
     inkscape:pageshadow="2"
     inkscape:zoom="1.8999986"
     inkscape:cx="210.52647"
     inkscape:cy="156.84222"
     inkscape:document-units="mm"
     inkscape:current-layer="layer2"
     showgrid="false"
     inkscape:window-width="1920"
     inkscape:window-height="1022"
     inkscape:window-x="0"
     inkscape:window-y="0"
     inkscape:window-maximized="1"
     fit-margin-top="1"
     fit-margin-left="1"
     fit-margin-right="1"
     fit-margin-bottom="1"
     units="pt"
     inkscape:pagecheckerboard="0"
     lock-margins="true" />
  <metadata
     id="metadata5">
    <rdf:RDF>
      <cc:Work
         rdf:about="">
        <dc:format>image/svg+xml</dc:format>
        <dc:type
           rdf:resource="http://purl.org/dc/dcmitype/StillImage" />
      </cc:Work>
    </rdf:RDF>
  </metadata>
  <g
     inkscape:groupmode="layer"
     id="layer2"
     inkscape:label="arcs"
     transform="translate(-32.758683,-70.274555)">
    <g
       id="text1350"
       style="font-size:3.52778px;line-height:125%;-inkscape-font-specification:'sans-serif, Normal';text-align:center;letter-spacing:0px;word-spacing:0px;text-anchor:middle;stroke-width:0.264583px" />
    <path
       style="font-variation-settings:normal;fill:none;fill-opacity:1;stroke:#000000;stroke-width:0.14;stroke-linecap:butt;stroke-linejoin:miter;stroke-miterlimit:4;stroke-dasharray:none;stroke-dashoffset:0;stroke-opacity:1;marker-end:url(#marker3736-3);stop-color:#000000"
       d="m 93.255785,96.887917 c 0,0 1.75876,-1.357132 3.655606,-1.284545 1.89684,0.07259 2.5298,1.4388 2.54177,2.963956 0.012,1.525152 -1.47067,2.811722 -2.7505,2.566922 -0.77609,-0.26593 -2.067946,-0.71306 -2.067946,-0.71306"
       id="path14666"
       sodipodi:nodetypes="czzcc" />
    <g
       aria-label="0,1,y → L"
       id="text1760"
       style="font-size:4.23333px;line-height:125%;font-family:'Times New Roman';-inkscape-font-specification:'Times New Roman, Normal';letter-spacing:0px;word-spacing:0px;stroke-width:0.264583px">
      <path
         d="m 87.535973,137.32683 v 0.42994 q 0,0.56018 -0.26665,0.88677 -0.208772,0.25632 -0.527099,0.25632 -0.152962,0 -0.289388,-0.062 -0.134358,-0.0599 -0.229443,-0.16949 -0.05994,-0.0682 -0.132291,-0.21911 -0.07028,-0.1509 -0.101286,-0.27699 -0.04754,-0.17776 -0.04754,-0.41548 v -0.42994 q 0,-0.56224 0.26665,-0.88884 0.208772,-0.25631 0.527099,-0.25631 0.155029,0 0.289388,0.062 0.134358,0.0599 0.229443,0.1695 0.06201,0.0703 0.132291,0.22117 0.07028,0.1509 0.103353,0.27492 0.04547,0.17777 0.04547,0.41755 z m -0.173632,0.0227 q 0,-0.24597 -0.07028,-0.45681 -0.06821,-0.21291 -0.155029,-0.339 -0.05168,-0.0724 -0.134359,-0.12402 -0.117822,-0.0724 -0.264583,-0.0724 -0.291455,0 -0.456819,0.29765 -0.165365,0.29766 -0.165365,0.69453 v 0.38241 q 0,0.24598 0.06821,0.45889 0.07028,0.2129 0.159163,0.33899 0.04961,0.0703 0.132292,0.12196 0.117822,0.0744 0.26665,0.0744 0.289388,0 0.454752,-0.29765 0.165365,-0.29973 0.165365,-0.6966 z"
         style="font-family:'Courier New';-inkscape-font-specification:'Courier New, Normal'"
         id="path187" />
      <path
         d="m 88.236705,139.54271 v -0.0909 q 0.212907,-0.0703 0.328662,-0.21911 0.117822,-0.14676 0.117822,-0.31212 0,-0.0393 -0.0186,-0.0662 -0.01447,-0.0186 -0.02894,-0.0186 -0.02274,0 -0.09922,0.0413 -0.03721,0.0186 -0.07855,0.0186 -0.101286,0 -0.16123,-0.0599 -0.05994,-0.0599 -0.05994,-0.16537 0,-0.10128 0.07648,-0.17363 0.07855,-0.0724 0.190169,-0.0724 0.136426,0 0.241846,0.11989 0.107487,0.11783 0.107487,0.3142 0,0.2129 -0.148828,0.3948 -0.146761,0.18397 -0.467155,0.28939 z"
         id="path189" />
      <path
         d="m 90.42365,136.20855 v 2.45566 h 0.595312 q 0.06201,0 0.08888,0.0248 0.02687,0.0227 0.02687,0.062 0,0.0372 -0.02687,0.062 -0.02687,0.0248 -0.08888,0.0248 h -1.364257 q -0.06201,0 -0.08888,-0.0248 -0.02687,-0.0248 -0.02687,-0.062 0,-0.0393 0.02687,-0.062 0.02687,-0.0248 0.08888,-0.0248 h 0.595312 v -2.21588 l -0.566373,0.17777 q -0.04134,0.0124 -0.05994,0.0124 -0.03101,0 -0.05788,-0.0248 -0.02481,-0.0269 -0.02481,-0.062 0,-0.031 0.02067,-0.0579 0.01654,-0.0165 0.06821,-0.0351 z"
         style="font-family:'Courier New';-inkscape-font-specification:'Courier New, Normal'"
         id="path191" />
      <path
         d="m 91.835449,139.54271 v -0.0909 q 0.212907,-0.0703 0.328662,-0.21911 0.117822,-0.14676 0.117822,-0.31212 0,-0.0393 -0.0186,-0.0662 -0.01447,-0.0186 -0.02894,-0.0186 -0.02274,0 -0.09922,0.0413 -0.03721,0.0186 -0.07855,0.0186 -0.101286,0 -0.161231,-0.0599 -0.05994,-0.0599 -0.05994,-0.16537 0,-0.10128 0.07648,-0.17363 0.07855,-0.0724 0.190169,-0.0724 0.136426,0 0.241846,0.11989 0.107486,0.11783 0.107486,0.3142 0,0.2129 -0.148828,0.3948 -0.146761,0.18397 -0.467154,0.28939 z"
         id="path193" />
      <path
         d="m 93.94798,138.83784 -0.806152,-1.61437 h -0.05168 q -0.06201,0 -0.08888,-0.0248 -0.02687,-0.0248 -0.02687,-0.062 0,-0.0269 0.0124,-0.0475 0.01447,-0.0227 0.03514,-0.031 0.02274,-0.0103 0.06821,-0.0103 h 0.475422 q 0.06201,0 0.08888,0.0248 0.02687,0.0248 0.02687,0.0641 0,0.0372 -0.02687,0.062 -0.02687,0.0248 -0.08888,0.0248 h -0.233577 l 0.709,1.42421 0.698665,-1.42421 h -0.233577 q -0.06201,0 -0.08888,-0.0248 -0.02687,-0.0248 -0.02687,-0.0641 0,-0.0372 0.02687,-0.062 0.02687,-0.0248 0.08888,-0.0248 h 0.473355 q 0.06408,0 0.09095,0.0248 0.02687,0.0248 0.02687,0.0641 0,0.0269 -0.01654,0.0496 -0.01654,0.0227 -0.03721,0.031 -0.02067,0.006 -0.115755,0.006 l -1.099674,2.23863 h 0.270785 q 0.06201,0 0.08888,0.0227 0.02687,0.0248 0.02687,0.0641 0,0.0372 -0.02687,0.062 -0.02687,0.0248 -0.08888,0.0248 H 93.09842 q -0.06201,0 -0.08888,-0.0248 -0.02687,-0.0227 -0.02687,-0.062 0,-0.0393 0.02687,-0.0641 0.02687,-0.0227 0.08888,-0.0227 h 0.543635 z"
         style="font-family:'Courier New';-inkscape-font-specification:'Courier New, Normal'"
         id="path195" />
      <path
         d="m 98.950255,137.0271 q 0.274919,0.29973 0.475423,0.45682 0.200504,0.15503 0.378271,0.23151 v 0.093 q -0.204638,0.0992 -0.396874,0.25425 -0.192237,0.15296 -0.458887,0.45062 h -0.159163 q 0.194303,-0.41548 0.40721,-0.63872 h -3.296954 v -0.20878 h 3.296954 q -0.157096,-0.2005 -0.219108,-0.29765 -0.06201,-0.0971 -0.183968,-0.34107 z"
         id="path197" />
      <path
         d="m 102.9252,138.0627 0.0682,0.0145 -0.23978,0.76067 h -2.17041 v -0.0765 h 0.10542 q 0.17777,0 0.25425,-0.11575 0.0434,-0.0661 0.0434,-0.30593 v -1.80867 q 0,-0.26252 -0.0579,-0.32866 -0.0806,-0.0909 -0.23978,-0.0909 h -0.10542 v -0.0765 h 1.26917 v 0.0765 q -0.22324,-0.002 -0.31419,0.0413 -0.0889,0.0434 -0.12196,0.10955 -0.0331,0.0661 -0.0331,0.31626 v 1.76113 q 0,0.17157 0.0331,0.23565 0.0248,0.0434 0.0765,0.0641 0.0517,0.0207 0.32247,0.0207 h 0.20463 q 0.32246,0 0.45269,-0.0475 0.13022,-0.0476 0.23771,-0.16744 0.10749,-0.12195 0.21497,-0.3824 z"
         id="path199" />
    </g>
    <path
       style="font-variation-settings:normal;fill:none;fill-opacity:1;stroke:#000000;stroke-width:0.14;stroke-linecap:butt;stroke-linejoin:miter;stroke-miterlimit:4;stroke-dasharray:none;stroke-dashoffset:0;stroke-opacity:1;marker-end:url(#marker3736-3);stop-color:#000000"
       d="m 93.255785,118.36244 c 0,0 1.75876,-1.35713 3.655606,-1.28455 1.89684,0.0726 2.5298,1.4388 2.54177,2.96396 0.012,1.52515 -1.47067,2.81172 -2.7505,2.56692 -0.77609,-0.26593 -2.067946,-0.71306 -2.067946,-0.71306"
       id="path12262"
       sodipodi:nodetypes="czzcc" />
    <path
       style="font-variation-settings:normal;fill:none;fill-opacity:1;stroke:#000000;stroke-width:0.14;stroke-linecap:butt;stroke-linejoin:miter;stroke-miterlimit:4;stroke-dasharray:none;stroke-dashoffset:0;stroke-opacity:1;marker-end:url(#marker3736-3);stop-color:#000000"
       d="m 59.894386,96.863532 c 0,0 -1.75876,-1.357132 -3.655606,-1.284545 -1.89684,0.07259 -2.5298,1.4388 -2.54177,2.963956 -0.012,1.525157 1.47067,2.811727 2.7505,2.566927 0.77609,-0.26593 2.067946,-0.71306 2.067946,-0.71306"
       id="path12264"
       sodipodi:nodetypes="czzcc" />
    <path
       style="font-variation-settings:normal;fill:none;fill-opacity:1;stroke:#000000;stroke-width:0.14;stroke-linecap:butt;stroke-linejoin:miter;stroke-miterlimit:4;stroke-dasharray:none;stroke-dashoffset:0;stroke-opacity:1;marker-end:url(#marker3736-3);stop-color:#000000"
       d="m 59.894386,118.4662 c 0,0 -1.75876,-1.35713 -3.655606,-1.28455 -1.89684,0.0726 -2.5298,1.4388 -2.54177,2.96396 -0.012,1.52516 1.47067,2.81173 2.7505,2.56693 0.77609,-0.26593 2.067946,-0.71306 2.067946,-0.71306"
       id="path12266"
       sodipodi:nodetypes="czzcc" />
    <path
       style="font-variation-settings:normal;opacity:1;vector-effect:none;fill:none;fill-opacity:1;stroke:#000000;stroke-width:0.141111;stroke-linecap:butt;stroke-linejoin:miter;stroke-miterlimit:4;stroke-dasharray:none;stroke-dashoffset:0;stroke-opacity:1;-inkscape-stroke:none;marker-end:url(#marker3736);stop-color:#000000;stop-opacity:1"
       d="M 74.168001,84.560399 64.606295,95.318251"
       id="path12301" />
    <path
       style="font-variation-settings:normal;opacity:1;vector-effect:none;fill:none;fill-opacity:1;stroke:#000000;stroke-width:0.141111;stroke-linecap:butt;stroke-linejoin:miter;stroke-miterlimit:4;stroke-dasharray:none;stroke-dashoffset:0;stroke-opacity:1;-inkscape-stroke:none;marker-end:url(#marker3736);stop-color:#000000;stop-opacity:1"
       d="M 79.017806,84.966124 88.24725,95.470005"
       id="path12303" />
    <path
       style="font-variation-settings:normal;opacity:1;vector-effect:none;fill:none;fill-opacity:1;stroke:#000000;stroke-width:0.141111;stroke-linecap:butt;stroke-linejoin:miter;stroke-miterlimit:4;stroke-dasharray:none;stroke-dashoffset:0;stroke-opacity:1;-inkscape-stroke:none;marker-end:url(#marker3736);stop-color:#000000;stop-opacity:1"
       d="m 90.930423,102.36624 v 13.63313"
       id="path12305" />
    <path
       style="font-variation-settings:normal;opacity:1;vector-effect:none;fill:none;fill-opacity:1;stroke:#000000;stroke-width:0.141111;stroke-linecap:butt;stroke-linejoin:miter;stroke-miterlimit:4;stroke-dasharray:none;stroke-dashoffset:0;stroke-opacity:1;-inkscape-stroke:none;marker-end:url(#marker3736);stop-color:#000000;stop-opacity:1"
       d="m 62.268844,102.2705 v 13.66767"
       id="path12307" />
    <path
       style="font-variation-settings:normal;opacity:1;vector-effect:none;fill:none;fill-opacity:1;stroke:#000000;stroke-width:0.141111;stroke-linecap:butt;stroke-linejoin:miter;stroke-miterlimit:4;stroke-dasharray:none;stroke-dashoffset:0;stroke-opacity:1;-inkscape-stroke:none;marker-end:url(#marker3736);stop-color:#000000;stop-opacity:1"
       d="m 63.858973,123.08539 9.917224,11.29286"
       id="path12309" />
    <path
       style="font-variation-settings:normal;opacity:1;vector-effect:none;fill:none;fill-opacity:1;stroke:#000000;stroke-width:0.141111;stroke-linecap:butt;stroke-linejoin:miter;stroke-miterlimit:4;stroke-dasharray:none;stroke-dashoffset:0;stroke-opacity:1;-inkscape-stroke:none;marker-end:url(#marker3736);stop-color:#000000;stop-opacity:1"
       d="m 88.342488,122.95894 -8.898933,11.29118"
       id="path12311" />
    <path
       style="font-variation-settings:normal;opacity:1;vector-effect:none;fill:none;fill-opacity:1;stroke:#000000;stroke-width:0.141111;stroke-linecap:butt;stroke-linejoin:miter;stroke-miterlimit:4;stroke-dasharray:none;stroke-dashoffset:0;stroke-opacity:1;-inkscape-stroke:none;marker-end:url(#marker3736);stop-color:#000000;stop-opacity:1"
       d="M 80.101048,82.234211 H 113.48962"
       id="path12506" />
    <path
       style="font-variation-settings:normal;fill:none;fill-opacity:1;stroke:#000000;stroke-width:0.14;stroke-linecap:butt;stroke-linejoin:miter;stroke-miterlimit:4;stroke-dasharray:none;stroke-dashoffset:0;stroke-opacity:1;marker-end:url(#marker3736-3);stop-color:#000000"
       d="m 77.196123,78.618434 c 0,0 0.534784,-2.156166 2.066124,-3.277903 1.531336,-1.121731 2.876178,-0.444555 3.833218,0.743014 0.95706,1.187547 0.594757,3.116876 -0.560137,3.720294 -0.773326,0.273862 -2.063361,0.72622 -2.063361,0.72622"
       id="path12748"
       sodipodi:nodetypes="czzcc" />
    <path
       style="font-variation-settings:normal;fill:none;fill-opacity:1;stroke:#000000;stroke-width:0.14;stroke-linecap:butt;stroke-linejoin:miter;stroke-miterlimit:4;stroke-dasharray:none;stroke-dashoffset:0;stroke-opacity:1;marker-end:url(#marker3736-3);stop-color:#000000"
       d="m 78.727088,136.13127 c 0,0 1.75876,-1.35713 3.655606,-1.28455 1.89684,0.0726 2.5298,1.4388 2.54177,2.96396 0.012,1.52515 -1.47067,2.81172 -2.7505,2.56692 -0.77609,-0.26593 -2.067946,-0.71306 -2.067946,-0.71306"
       id="path12750"
       sodipodi:nodetypes="czzcc" />
    <path
       style="font-variation-settings:normal;opacity:1;vector-effect:none;fill:none;fill-opacity:1;stroke:#000000;stroke-width:0.141111;stroke-linecap:butt;stroke-linejoin:miter;stroke-miterlimit:4;stroke-dasharray:none;stroke-dashoffset:0;stroke-opacity:1;-inkscape-stroke:none;marker-end:url(#marker3736);stop-color:#000000;stop-opacity:1"
       d="m 76.766515,140.76912 v 2.86868 c 0,0 0.199049,2.86869 -2.5763,2.86869 -3.51679,0.008 -37.575361,0 -37.575361,0 0,0 -3.365971,0.33965 -3.423361,-3.76168 -0.02132,-8.48535 0,-57.508005 0,-57.508005 -0.02008,-2.890611 2.34157,-2.51401 2.34157,-2.51401 l 36.879929,-0.0221"
       id="path12785"
       sodipodi:nodetypes="cccccccc" />
    <g
       aria-label="␣ → R"
       id="text16004"
       style="font-size:4.23333px;line-height:125%;font-family:'Times New Roman';-inkscape-font-specification:'Times New Roman, Normal';letter-spacing:0px;word-spacing:0px;stroke-width:0.264583px">
      <path
         d="m 92.032766,81.100784 v -1.189565 c 0,-0.04657 -0.04233,-0.0889 -0.0889,-0.0889 -0.04657,0 -0.08467,0.04233 -0.08467,0.0889 l -0.0042,1.011765 -1.650998,0.0042 v -1.015999 c 0,-0.04657 -0.04233,-0.0889 -0.0889,-0.0889 -0.04657,0 -0.08467,0.04233 -0.08467,0.0889 v 1.185332 z"
         style="font-family:'Courier New';-inkscape-font-specification:'Courier New, Normal'"
         id="path202" />
      <path
         d="m 96.042898,78.896344 q 0.274919,0.299723 0.475423,0.456819 0.200504,0.155029 0.378271,0.23151 v 0.09302 q -0.204638,0.09922 -0.396874,0.254248 -0.192237,0.152962 -0.458887,0.450618 h -0.159163 q 0.194303,-0.415478 0.40721,-0.63872 h -3.296954 v -0.208773 h 3.296954 q -0.157096,-0.200504 -0.219108,-0.297656 -0.06201,-0.09715 -0.183968,-0.341064 z"
         id="path204" />
      <path
         d="m 100.45193,80.707085 h -0.748275 l -0.948779,-1.310514 q -0.105419,0.0041 -0.171565,0.0041 -0.02687,0 -0.05788,0 -0.03101,-0.0021 -0.06408,-0.0041 v 0.81442 q 0,0.264583 0.05788,0.328662 0.07855,0.09095 0.235644,0.09095 h 0.109554 v 0.07648 h -1.200959 v -0.07648 h 0.10542 q 0.177767,0 0.254248,-0.115756 0.04341,-0.06408 0.04341,-0.303857 v -1.81074 q 0,-0.264583 -0.05788,-0.328662 -0.08061,-0.09095 -0.239778,-0.09095 h -0.10542 v -0.07648 h 1.021125 q 0.446484,0 0.657324,0.06615 0.212907,0.06408 0.359668,0.239779 0.148828,0.173632 0.148828,0.415478 0,0.258382 -0.169499,0.448551 -0.167431,0.190169 -0.520898,0.268717 l 0.578776,0.804085 q 0.198437,0.276985 0.341065,0.367935 0.14263,0.09095 0.37207,0.115756 z m -1.990576,-1.440738 q 0.03928,0 0.06821,0.0021 0.02894,0 0.04754,0 0.401008,0 0.60358,-0.173633 0.204638,-0.173632 0.204638,-0.44235 0,-0.262516 -0.165364,-0.425813 -0.163298,-0.165364 -0.434082,-0.165364 -0.119889,0 -0.324528,0.03927 z"
         id="path206" />
    </g>
    <g
       aria-label="y → R"
       id="text20394"
       style="font-size:4.23333px;line-height:125%;font-family:'Times New Roman';-inkscape-font-specification:'Times New Roman, Normal';letter-spacing:0px;word-spacing:0px;stroke-width:0.264583px">
      <path
         d="m 78.818913,73.43026 -0.806152,-1.614371 h -0.05168 q -0.06201,0 -0.08888,-0.0248 -0.02687,-0.02481 -0.02687,-0.06201 0,-0.02687 0.0124,-0.04754 0.01447,-0.02274 0.03514,-0.03101 0.02274,-0.01033 0.06821,-0.01033 h 0.475422 q 0.06201,0 0.08888,0.0248 0.02687,0.02481 0.02687,0.06408 0,0.03721 -0.02687,0.06201 -0.02687,0.0248 -0.08888,0.0248 H 78.20293 l 0.709,1.424202 0.698665,-1.424202 h -0.233577 q -0.06201,0 -0.08888,-0.0248 -0.02687,-0.02481 -0.02687,-0.06408 0,-0.03721 0.02687,-0.06201 0.02687,-0.0248 0.08888,-0.0248 h 0.473355 q 0.06408,0 0.09095,0.0248 0.02687,0.02481 0.02687,0.06408 0,0.02687 -0.01654,0.04961 -0.01654,0.02274 -0.03721,0.03101 -0.02067,0.0062 -0.115755,0.0062 l -1.099674,2.238621 h 0.270785 q 0.06201,0 0.08888,0.02274 0.02687,0.02481 0.02687,0.06408 0,0.03721 -0.02687,0.06201 -0.02687,0.02481 -0.08888,0.02481 h -1.000455 q -0.06201,0 -0.08888,-0.02481 -0.02687,-0.02274 -0.02687,-0.06201 0,-0.03927 0.02687,-0.06408 0.02687,-0.02274 0.08888,-0.02274 h 0.543635 z"
         style="font-family:'Courier New';-inkscape-font-specification:'Courier New, Normal'"
         id="path209" />
      <path
         d="m 83.821188,71.619519 q 0.274919,0.299723 0.475423,0.456819 0.200504,0.155029 0.378271,0.231511 v 0.09302 q -0.204638,0.09922 -0.396874,0.254248 -0.192237,0.152962 -0.458887,0.450618 h -0.159163 q 0.194303,-0.415478 0.40721,-0.63872 h -3.296954 v -0.208773 h 3.296954 q -0.157096,-0.200504 -0.219108,-0.297656 -0.06201,-0.09715 -0.183968,-0.341064 z"
         id="path211" />
      <path
         d="m 88.230219,73.43026 h -0.748274 l -0.948778,-1.310514 q -0.10542,0.0041 -0.171566,0.0041 -0.02687,0 -0.05788,0 -0.03101,-0.0021 -0.06408,-0.0041 v 0.81442 q 0,0.264583 0.05788,0.328662 0.07855,0.09095 0.235645,0.09095 h 0.109554 v 0.07648 h -1.20096 v -0.07648 h 0.10542 q 0.177767,0 0.254248,-0.115755 0.04341,-0.06408 0.04341,-0.303858 v -1.81074 q 0,-0.264583 -0.05788,-0.328662 -0.08062,-0.09095 -0.239779,-0.09095 h -0.10542 v -0.07648 h 1.021126 q 0.446484,0 0.657323,0.06615 0.212907,0.06408 0.359668,0.239779 0.148828,0.173632 0.148828,0.415478 0,0.258382 -0.169499,0.448551 -0.167431,0.190169 -0.520898,0.268717 l 0.578776,0.804085 q 0.198437,0.276985 0.341064,0.367936 0.142627,0.09095 0.37207,0.115755 z m -1.990574,-1.440738 q 0.03927,0 0.06821,0.0021 0.02894,0 0.04754,0 0.401009,0 0.60358,-0.173633 0.204639,-0.173632 0.204639,-0.44235 0,-0.262516 -0.165365,-0.425813 -0.163297,-0.165364 -0.434082,-0.165364 -0.119889,0 -0.324527,0.03927 z"
         id="path213" />
    </g>
    <g
       aria-label="1 → x,R"
       transform="rotate(-0.64644961)"
       id="text23336"
       style="font-size:4.23333px;line-height:125%;font-family:'Times New Roman';-inkscape-font-specification:'Times New Roman, Normal';letter-spacing:0px;word-spacing:0px;stroke-width:0.264583px">
      <path
         d="m 55.081849,87.998727 v 2.455662 h 0.595312 q 0.06201,0 0.08888,0.0248 0.02687,0.02274 0.02687,0.06201 0,0.03721 -0.02687,0.06201 -0.02687,0.0248 -0.08888,0.0248 h -1.364257 q -0.06201,0 -0.08888,-0.0248 -0.02687,-0.02481 -0.02687,-0.06201 0,-0.03927 0.02687,-0.06201 0.02687,-0.0248 0.08888,-0.0248 h 0.595312 v -2.215884 l -0.566373,0.177767 q -0.04134,0.0124 -0.05994,0.0124 -0.03101,0 -0.05788,-0.02481 -0.02481,-0.02687 -0.02481,-0.06201 0,-0.03101 0.02067,-0.05788 0.01654,-0.01654 0.06821,-0.03514 z"
         style="font-family:'Courier New';-inkscape-font-specification:'Courier New, Normal'"
         id="path216" />
      <path
         d="m 60.009711,88.817281 q 0.274918,0.299723 0.475422,0.456819 0.200505,0.155029 0.378272,0.23151 v 0.09302 q -0.204639,0.09922 -0.396875,0.254247 -0.192236,0.152963 -0.458886,0.450619 H 59.84848 q 0.194304,-0.415479 0.40721,-0.638721 h -3.296953 v -0.208772 h 3.296953 q -0.157096,-0.200505 -0.219108,-0.297656 -0.06201,-0.09715 -0.183968,-0.341064 z"
         id="path218" />
      <path
         d="m 62.946998,89.691645 0.795816,0.762744 q 0.07855,0 0.09922,0.0083 0.02067,0.0062 0.03514,0.02894 0.01654,0.02274 0.01654,0.04961 0,0.03721 -0.02687,0.06201 -0.02687,0.0248 -0.09095,0.0248 h -0.558105 q -0.06408,0 -0.09095,-0.0248 -0.02687,-0.02481 -0.02687,-0.06201 0,-0.03927 0.02687,-0.06201 0.02687,-0.0248 0.09095,-0.0248 h 0.287321 L 62.829176,89.8074 62.157383,90.454389 h 0.289388 q 0.06201,0 0.08888,0.0248 0.02687,0.02274 0.02687,0.06201 0,0.03721 -0.02687,0.06201 -0.02687,0.0248 -0.08888,0.0248 h -0.564307 q -0.06201,0 -0.08888,-0.0248 -0.02687,-0.02481 -0.02687,-0.06201 0,-0.02687 0.01447,-0.04961 0.01654,-0.02274 0.03514,-0.02894 0.02067,-0.0083 0.09922,-0.0083 l 0.795817,-0.762744 -0.706933,-0.677994 q -0.07441,0 -0.09508,-0.0083 -0.0186,-0.0083 -0.03514,-0.03101 -0.01447,-0.02274 -0.01447,-0.04961 0,-0.03721 0.02687,-0.06201 0.02687,-0.02481 0.09095,-0.02481 h 0.473356 q 0.06408,0 0.08888,0.02481 0.02687,0.0248 0.02687,0.06408 0,0.03721 -0.02687,0.06201 -0.02481,0.02481 -0.08888,0.02481 h -0.206706 l 0.584977,0.564306 0.589111,-0.564306 h -0.206706 q -0.06201,0 -0.09095,-0.02481 -0.02687,-0.0248 -0.02687,-0.06408 0,-0.03721 0.02687,-0.06201 0.02687,-0.02481 0.09095,-0.02481 h 0.473356 q 0.06201,0 0.08888,0.02481 0.02687,0.0248 0.02687,0.06408 0,0.0248 -0.01654,0.04754 -0.01447,0.02274 -0.03514,0.03101 -0.0186,0.0083 -0.09302,0.0083 z"
         style="font-family:'Courier New';-inkscape-font-specification:'Courier New, Normal'"
         id="path220" />
      <path
         d="m 64.325724,91.332887 v -0.09095 q 0.212906,-0.07028 0.328662,-0.219108 0.117822,-0.146761 0.117822,-0.312126 0,-0.03927 -0.0186,-0.06614 -0.01447,-0.0186 -0.02894,-0.0186 -0.02274,0 -0.09922,0.04134 -0.03721,0.0186 -0.07855,0.0186 -0.101286,0 -0.161231,-0.05995 -0.05994,-0.05994 -0.05994,-0.165364 0,-0.101286 0.07648,-0.173633 0.07855,-0.07235 0.190169,-0.07235 0.136426,0 0.241845,0.119889 0.107487,0.117823 0.107487,0.314193 0,0.212907 -0.148828,0.394807 -0.146761,0.183968 -0.467154,0.289388 z"
         id="path222" />
      <path
         d="m 68.017485,90.628021 h -0.748274 l -0.948779,-1.310513 q -0.105419,0.0041 -0.171565,0.0041 -0.02687,0 -0.05788,0 -0.03101,-0.0021 -0.06408,-0.0041 v 0.81442 q 0,0.264583 0.05788,0.328662 0.07855,0.09095 0.235644,0.09095 h 0.109554 v 0.07648 h -1.200959 v -0.07648 h 0.10542 q 0.177767,0 0.254248,-0.115755 0.04341,-0.06408 0.04341,-0.303857 v -1.810741 q 0,-0.264583 -0.05788,-0.328662 -0.08061,-0.09095 -0.239778,-0.09095 h -0.10542 v -0.07648 h 1.021125 q 0.446484,0 0.657324,0.06615 0.212907,0.06408 0.359668,0.239778 0.148828,0.173633 0.148828,0.415478 0,0.258382 -0.169499,0.448551 -0.167431,0.190169 -0.520898,0.268718 l 0.578776,0.804084 q 0.198437,0.276986 0.341064,0.367936 0.142627,0.09095 0.37207,0.115755 z M 66.02691,89.187284 q 0.03928,0 0.06821,0.0021 0.02894,0 0.04754,0 0.401008,0 0.60358,-0.173633 0.204638,-0.173633 0.204638,-0.44235 0,-0.262516 -0.165364,-0.425813 -0.163298,-0.165365 -0.434082,-0.165365 -0.119889,0 -0.324528,0.03927 z"
         id="path224" />
    </g>
    <g
       aria-label="0 → x,R"
       id="text23350"
       style="font-size:4.23333px;line-height:125%;font-family:'Times New Roman';-inkscape-font-specification:'Times New Roman, Normal';letter-spacing:0px;word-spacing:0px;stroke-width:0.264583px">
      <path
         d="m 86.133462,88.165977 v 0.429947 q 0,0.560172 -0.26665,0.886767 -0.208773,0.256315 -0.5271,0.256315 -0.152962,0 -0.289387,-0.06201 -0.134359,-0.05994 -0.229443,-0.169498 -0.05994,-0.06821 -0.132292,-0.219108 -0.07028,-0.150895 -0.101286,-0.276986 -0.04754,-0.177766 -0.04754,-0.415478 v -0.429947 q 0,-0.562239 0.26665,-0.888834 0.208773,-0.256315 0.527099,-0.256315 0.155029,0 0.289388,0.06201 0.134359,0.05994 0.229443,0.169498 0.06201,0.07028 0.132292,0.221175 0.07028,0.150895 0.103353,0.274918 0.04547,0.177767 0.04547,0.417546 z m -0.173633,0.02274 q 0,-0.245979 -0.07028,-0.456819 -0.06821,-0.212907 -0.155029,-0.338997 -0.05168,-0.07235 -0.134359,-0.124023 -0.117822,-0.07235 -0.264583,-0.07235 -0.291454,0 -0.456819,0.297656 -0.165364,0.297656 -0.165364,0.69453 v 0.382406 q 0,0.245979 0.06821,0.458886 0.07028,0.212907 0.159164,0.338997 0.04961,0.07028 0.132291,0.121956 0.117822,0.07441 0.26665,0.07441 0.289388,0 0.454753,-0.297656 0.165364,-0.299723 0.165364,-0.696597 z"
         style="font-family:'Courier New';-inkscape-font-specification:'Courier New, Normal'"
         id="path227" />
      <path
         d="m 90.350256,87.866254 q 0.274919,0.299723 0.475423,0.456819 0.200504,0.155029 0.378271,0.23151 v 0.09302 q -0.204638,0.09922 -0.396874,0.254247 -0.192237,0.152963 -0.458887,0.450619 h -0.159163 q 0.194303,-0.415479 0.40721,-0.638721 h -3.296954 v -0.208772 h 3.296954 q -0.157096,-0.200505 -0.219108,-0.297656 -0.06201,-0.09715 -0.183968,-0.341064 z"
         id="path229" />
      <path
         d="m 93.287544,88.740618 0.795816,0.762744 q 0.07855,0 0.09922,0.0083 0.02067,0.0062 0.03514,0.02894 0.01654,0.02274 0.01654,0.04961 0,0.03721 -0.02687,0.06201 -0.02687,0.0248 -0.09095,0.0248 h -0.558105 q -0.06408,0 -0.09095,-0.0248 -0.02687,-0.02481 -0.02687,-0.06201 0,-0.03927 0.02687,-0.06201 0.02687,-0.0248 0.09095,-0.0248 h 0.287321 l -0.675928,-0.646989 -0.671793,0.646989 h 0.289388 q 0.06201,0 0.08888,0.0248 0.02687,0.02274 0.02687,0.06201 0,0.03721 -0.02687,0.06201 -0.02687,0.0248 -0.08888,0.0248 H 92.22301 q -0.06201,0 -0.08888,-0.0248 -0.02687,-0.02481 -0.02687,-0.06201 0,-0.02687 0.01447,-0.04961 0.01654,-0.02274 0.03514,-0.02894 0.02067,-0.0083 0.09922,-0.0083 l 0.795816,-0.762744 -0.706933,-0.677994 q -0.07441,0 -0.09508,-0.0083 -0.0186,-0.0083 -0.03514,-0.03101 -0.01447,-0.02274 -0.01447,-0.04961 0,-0.03721 0.02687,-0.06201 0.02687,-0.02481 0.09095,-0.02481 h 0.473355 q 0.06408,0 0.08888,0.02481 0.02687,0.02481 0.02687,0.06408 0,0.03721 -0.02687,0.06201 -0.02481,0.02481 -0.08888,0.02481 h -0.206705 l 0.584976,0.564306 0.589111,-0.564306 h -0.206705 q -0.06201,0 -0.09095,-0.02481 -0.02687,-0.0248 -0.02687,-0.06408 0,-0.03721 0.02687,-0.06201 0.02687,-0.02481 0.09095,-0.02481 h 0.473355 q 0.06201,0 0.08888,0.02481 0.02687,0.02481 0.02687,0.06408 0,0.0248 -0.01654,0.04754 -0.01447,0.02274 -0.03514,0.03101 -0.0186,0.0083 -0.09302,0.0083 z"
         style="font-family:'Courier New';-inkscape-font-specification:'Courier New, Normal'"
         id="path231" />
      <path
         d="m 94.666269,90.38186 v -0.09095 q 0.212907,-0.07028 0.328662,-0.219108 0.117822,-0.146761 0.117822,-0.312125 0,-0.03927 -0.0186,-0.06615 -0.01447,-0.0186 -0.02894,-0.0186 -0.02274,0 -0.09922,0.04134 -0.03721,0.0186 -0.07855,0.0186 -0.101285,0 -0.16123,-0.05994 -0.05994,-0.05994 -0.05994,-0.165364 0,-0.101286 0.07648,-0.173633 0.07855,-0.07235 0.19017,-0.07235 0.136425,0 0.241845,0.119889 0.107487,0.117823 0.107487,0.314193 0,0.212907 -0.148828,0.394807 -0.146761,0.183968 -0.467155,0.289388 z"
         id="path233" />
      <path
         d="m 98.358031,89.676994 h -0.748274 l -0.948779,-1.310513 q -0.10542,0.0041 -0.171566,0.0041 -0.02687,0 -0.05788,0 -0.03101,-0.0021 -0.06408,-0.0041 v 0.81442 q 0,0.264583 0.05788,0.328662 0.07855,0.09095 0.235644,0.09095 h 0.109554 v 0.07648 h -1.200959 v -0.07648 h 0.10542 q 0.177766,0 0.254247,-0.115755 0.04341,-0.06408 0.04341,-0.303857 V 87.37016 q 0,-0.264583 -0.05788,-0.328662 -0.08062,-0.09095 -0.239778,-0.09095 h -0.10542 v -0.07648 h 1.021125 q 0.446484,0 0.657324,0.06615 0.212907,0.06408 0.359667,0.239778 0.148828,0.173633 0.148828,0.415478 0,0.258382 -0.169498,0.448551 -0.167432,0.19017 -0.520898,0.268718 l 0.578775,0.804084 q 0.198438,0.276986 0.341065,0.367936 0.142626,0.09095 0.37207,0.115755 z m -1.990575,-1.440737 q 0.03927,0 0.06821,0.0021 0.02894,0 0.04754,0 0.401009,0 0.60358,-0.173633 0.204639,-0.173633 0.204639,-0.44235 0,-0.262516 -0.165364,-0.425813 -0.163298,-0.165365 -0.434082,-0.165365 -0.119889,0 -0.324528,0.03927 z"
         id="path235" />
    </g>
    <g
       aria-label="1,y → R"
       id="text26884"
       style="font-size:4.23333px;line-height:125%;font-family:'Times New Roman';-inkscape-font-specification:'Times New Roman, Normal';letter-spacing:0px;word-spacing:0px;stroke-width:0.264583px">
      <path
         d="m 40.092526,96.684693 v 2.455662 h 0.595312 q 0.06201,0 0.08888,0.02481 0.02687,0.02274 0.02687,0.06201 0,0.03721 -0.02687,0.06201 -0.02687,0.02481 -0.08888,0.02481 h -1.364256 q -0.06201,0 -0.08888,-0.02481 -0.02687,-0.02481 -0.02687,-0.06201 0,-0.03927 0.02687,-0.06201 0.02687,-0.02481 0.08888,-0.02481 h 0.595312 v -2.215883 l -0.566374,0.177766 q -0.04134,0.0124 -0.05994,0.0124 -0.03101,0 -0.05788,-0.02481 -0.0248,-0.02687 -0.0248,-0.06201 0,-0.03101 0.02067,-0.05788 0.01654,-0.01654 0.06821,-0.03514 z"
         style="font-family:'Courier New';-inkscape-font-specification:'Courier New, Normal'"
         id="path238" />
      <path
         d="m 41.504325,100.01885 v -0.09095 q 0.212907,-0.07028 0.328662,-0.219108 0.117822,-0.146761 0.117822,-0.312125 0,-0.03927 -0.0186,-0.06615 -0.01447,-0.0186 -0.02894,-0.0186 -0.02274,0 -0.09922,0.04134 -0.03721,0.0186 -0.07855,0.0186 -0.101285,0 -0.16123,-0.05994 -0.05994,-0.05994 -0.05994,-0.165365 0,-0.101285 0.07648,-0.173632 0.07855,-0.07235 0.190169,-0.07235 0.136426,0 0.241846,0.119889 0.107487,0.117822 0.107487,0.314192 0,0.212907 -0.148828,0.394808 -0.146761,0.183968 -0.467155,0.289384 z"
         id="path240" />
      <path
         d="m 43.616856,99.313988 -0.806152,-1.614371 h -0.05168 q -0.06201,0 -0.08888,-0.0248 -0.02687,-0.02481 -0.02687,-0.06201 0,-0.02687 0.0124,-0.04754 0.01447,-0.02274 0.03514,-0.03101 0.02274,-0.01034 0.06821,-0.01034 h 0.475423 q 0.06201,0 0.08888,0.0248 0.02687,0.02481 0.02687,0.06408 0,0.03721 -0.02687,0.06201 -0.02687,0.0248 -0.08888,0.0248 h -0.233578 l 0.709001,1.424202 0.698664,-1.424202 h -0.233577 q -0.06201,0 -0.08888,-0.0248 -0.02687,-0.02481 -0.02687,-0.06408 0,-0.03721 0.02687,-0.06201 0.02687,-0.0248 0.08888,-0.0248 h 0.473356 q 0.06408,0 0.09095,0.0248 0.02687,0.02481 0.02687,0.06408 0,0.02687 -0.01654,0.04961 -0.01654,0.02274 -0.03721,0.03101 -0.02067,0.0062 -0.115755,0.0062 l -1.099673,2.238622 h 0.270784 q 0.06201,0 0.08888,0.02274 0.02687,0.02481 0.02687,0.06407 0,0.0372 -0.02687,0.062 -0.02687,0.0248 -0.08888,0.0248 h -1.000455 q -0.06201,0 -0.08888,-0.0248 -0.02687,-0.0227 -0.02687,-0.062 0,-0.03927 0.02687,-0.06407 0.02687,-0.02274 0.08888,-0.02274 h 0.543636 z"
         style="font-family:'Courier New';-inkscape-font-specification:'Courier New, Normal'"
         id="path242" />
      <path
         d="m 48.619132,97.503247 q 0.274918,0.299723 0.475423,0.456819 0.200504,0.15503 0.378271,0.231511 v 0.09302 q -0.204639,0.09922 -0.396875,0.254248 -0.192236,0.152962 -0.458886,0.450618 h -0.159163 q 0.194303,-0.415478 0.407209,-0.63872 h -3.296953 v -0.208773 h 3.296953 q -0.157096,-0.200504 -0.219107,-0.297656 -0.06201,-0.09715 -0.183968,-0.341064 z"
         id="path244" />
      <path
         d="M 53.028162,99.313988 H 52.279888 L 51.33111,98.003475 q -0.10542,0.0041 -0.171566,0.0041 -0.02687,0 -0.05788,0 -0.03101,-0.0021 -0.06408,-0.0041 v 0.814419 q 0,0.264584 0.05788,0.328662 0.07855,0.09095 0.235645,0.09095 h 0.109554 v 0.07648 h -1.20096 v -0.07648 h 0.10542 q 0.177767,0 0.254248,-0.115755 0.04341,-0.06408 0.04341,-0.303858 v -1.81074 q 0,-0.264583 -0.05788,-0.328662 -0.08062,-0.09095 -0.239779,-0.09095 h -0.10542 v -0.07648 h 1.021126 q 0.446484,0 0.657323,0.06615 0.212907,0.06408 0.359668,0.239779 0.148828,0.173632 0.148828,0.415478 0,0.258382 -0.169498,0.448551 -0.167432,0.190169 -0.520898,0.268717 l 0.578775,0.804085 q 0.198437,0.276985 0.341064,0.367936 0.142627,0.09095 0.37207,0.115755 z M 51.037588,97.87325 q 0.03927,0 0.06821,0.0021 0.02894,0 0.04754,0 0.401009,0 0.60358,-0.173633 0.204639,-0.173632 0.204639,-0.442349 0,-0.262517 -0.165365,-0.425814 -0.163297,-0.165364 -0.434081,-0.165364 -0.11989,0 -0.324528,0.03927 z"
         id="path246" />
    </g>
    <g
       aria-label="0 → y,R"
       id="text28548"
       style="font-size:4.23333px;line-height:125%;font-family:'Times New Roman';-inkscape-font-specification:'Times New Roman, Normal';letter-spacing:0px;word-spacing:0px;stroke-width:0.264583px">
      <path
         d="m 49.099503,108.45367 v 0.42995 q 0,0.56017 -0.26665,0.88677 -0.208772,0.25631 -0.527099,0.25631 -0.152962,0 -0.289388,-0.062 -0.134358,-0.0599 -0.229443,-0.1695 -0.05994,-0.0682 -0.132291,-0.21911 -0.07028,-0.15089 -0.101286,-0.27698 -0.04754,-0.17777 -0.04754,-0.41548 v -0.42995 q 0,-0.56224 0.26665,-0.88883 0.208772,-0.25632 0.527099,-0.25632 0.155029,0 0.289388,0.062 0.134358,0.0599 0.229443,0.16949 0.06201,0.0703 0.132291,0.22118 0.07028,0.15089 0.103353,0.27492 0.04547,0.17777 0.04547,0.41754 z m -0.173632,0.0227 q 0,-0.24598 -0.07028,-0.45682 -0.06821,-0.2129 -0.155029,-0.339 -0.05168,-0.0723 -0.134359,-0.12402 -0.117822,-0.0724 -0.264583,-0.0724 -0.291455,0 -0.456819,0.29766 -0.165365,0.29766 -0.165365,0.69453 v 0.38241 q 0,0.24598 0.06821,0.45888 0.07028,0.21291 0.159163,0.339 0.04961,0.0703 0.132292,0.12196 0.117822,0.0744 0.26665,0.0744 0.289388,0 0.454752,-0.29766 0.165365,-0.29972 0.165365,-0.69659 z"
         style="font-family:'Courier New';-inkscape-font-specification:'Courier New, Normal'"
         id="path249" />
      <path
         d="m 53.316298,108.15395 q 0.274918,0.29972 0.475423,0.45682 0.200504,0.15503 0.378271,0.23151 v 0.093 q -0.204639,0.0992 -0.396875,0.25425 -0.192236,0.15296 -0.458886,0.45061 h -0.159163 q 0.194303,-0.41547 0.407209,-0.63872 h -3.296953 v -0.20877 h 3.296953 q -0.157096,-0.2005 -0.219107,-0.29766 -0.06201,-0.0971 -0.183968,-0.34106 z"
         id="path251" />
      <path
         d="m 56.146098,109.96469 -0.806151,-1.61437 h -0.05168 q -0.06201,0 -0.08888,-0.0248 -0.02687,-0.0248 -0.02687,-0.062 0,-0.0269 0.0124,-0.0475 0.01447,-0.0227 0.03514,-0.031 0.02274,-0.0103 0.06821,-0.0103 h 0.475423 q 0.06201,0 0.08888,0.0248 0.02687,0.0248 0.02687,0.0641 0,0.0372 -0.02687,0.062 -0.02687,0.0248 -0.08888,0.0248 h -0.233577 l 0.709,1.4242 0.698665,-1.4242 h -0.233578 q -0.06201,0 -0.08888,-0.0248 -0.02687,-0.0248 -0.02687,-0.0641 0,-0.0372 0.02687,-0.062 0.02687,-0.0248 0.08888,-0.0248 h 0.473356 q 0.06408,0 0.09095,0.0248 0.02687,0.0248 0.02687,0.0641 0,0.0269 -0.01654,0.0496 -0.01654,0.0227 -0.03721,0.031 -0.02067,0.006 -0.115755,0.006 l -1.099674,2.23862 h 0.270784 q 0.06201,0 0.08888,0.0227 0.02687,0.0248 0.02687,0.0641 0,0.0372 -0.02687,0.062 -0.02687,0.0248 -0.08888,0.0248 h -1.000455 q -0.06201,0 -0.08888,-0.0248 -0.02687,-0.0227 -0.02687,-0.062 0,-0.0393 0.02687,-0.0641 0.02687,-0.0227 0.08888,-0.0227 h 0.543636 z"
         style="font-family:'Courier New';-inkscape-font-specification:'Courier New, Normal'"
         id="path253" />
      <path
         d="m 57.632311,110.66956 v -0.091 q 0.212907,-0.0703 0.328662,-0.21911 0.117822,-0.14676 0.117822,-0.31213 0,-0.0393 -0.0186,-0.0661 -0.01447,-0.0186 -0.02894,-0.0186 -0.02274,0 -0.09922,0.0413 -0.03721,0.0186 -0.07855,0.0186 -0.101286,0 -0.16123,-0.06 -0.05994,-0.0599 -0.05994,-0.16536 0,-0.10129 0.07648,-0.17363 0.07855,-0.0724 0.190169,-0.0724 0.136426,0 0.241846,0.11989 0.107487,0.11782 0.107487,0.31419 0,0.21291 -0.148828,0.39481 -0.146761,0.18397 -0.467155,0.28939 z"
         id="path255" />
      <path
         d="m 61.324072,109.96469 h -0.748274 l -0.948778,-1.31051 q -0.10542,0.004 -0.171566,0.004 -0.02687,0 -0.05788,0 -0.03101,-0.002 -0.06408,-0.004 v 0.81442 q 0,0.26458 0.05788,0.32866 0.07855,0.091 0.235645,0.091 h 0.109554 v 0.0765 h -1.20096 v -0.0765 h 0.10542 q 0.177767,0 0.254248,-0.11576 0.04341,-0.0641 0.04341,-0.30385 v -1.81074 q 0,-0.26459 -0.05788,-0.32866 -0.08062,-0.091 -0.239779,-0.091 h -0.10542 v -0.0765 h 1.021126 q 0.446484,0 0.657323,0.0661 0.212907,0.0641 0.359668,0.23978 0.148828,0.17363 0.148828,0.41548 0,0.25838 -0.169499,0.44855 -0.167431,0.19017 -0.520898,0.26871 l 0.578776,0.80409 q 0.198437,0.27698 0.341064,0.36793 0.142627,0.091 0.37207,0.11576 z m -1.990574,-1.44074 q 0.03927,0 0.06821,0.002 0.02894,0 0.04754,0 0.401009,0 0.60358,-0.17363 0.204639,-0.17363 0.204639,-0.44235 0,-0.26252 -0.165365,-0.42582 -0.163297,-0.16536 -0.434082,-0.16536 -0.119889,0 -0.324527,0.0393 z"
         id="path257" />
    </g>
    <g
       aria-label="1,y → R"
       id="text33180"
       style="font-size:4.23333px;line-height:125%;font-family:'Times New Roman';-inkscape-font-specification:'Times New Roman, Normal';letter-spacing:0px;word-spacing:0px;stroke-width:0.264583px">
      <path
         d="m 40.092526,118.62502 v 2.45567 h 0.595312 q 0.06201,0 0.08888,0.0248 0.02687,0.0227 0.02687,0.062 0,0.0372 -0.02687,0.062 -0.02687,0.0248 -0.08888,0.0248 h -1.364256 q -0.06201,0 -0.08888,-0.0248 -0.02687,-0.0248 -0.02687,-0.062 0,-0.0393 0.02687,-0.062 0.02687,-0.0248 0.08888,-0.0248 h 0.595312 v -2.21589 l -0.566374,0.17777 q -0.04134,0.0124 -0.05994,0.0124 -0.03101,0 -0.05788,-0.0248 -0.0248,-0.0269 -0.0248,-0.062 0,-0.031 0.02067,-0.0579 0.01654,-0.0165 0.06821,-0.0351 z"
         style="font-family:'Courier New';-inkscape-font-specification:'Courier New, Normal'"
         id="path260" />
      <path
         d="m 41.504325,121.95918 v -0.091 q 0.212907,-0.0703 0.328662,-0.2191 0.117822,-0.14677 0.117822,-0.31213 0,-0.0393 -0.0186,-0.0662 -0.01447,-0.0186 -0.02894,-0.0186 -0.02274,0 -0.09922,0.0413 -0.03721,0.0186 -0.07855,0.0186 -0.101285,0 -0.16123,-0.06 -0.05994,-0.0599 -0.05994,-0.16536 0,-0.10129 0.07648,-0.17364 0.07855,-0.0723 0.190169,-0.0723 0.136426,0 0.241846,0.11989 0.107487,0.11782 0.107487,0.31419 0,0.21291 -0.148828,0.39481 -0.146761,0.18396 -0.467155,0.28938 z"
         id="path262" />
      <path
         d="m 43.616856,121.25432 -0.806152,-1.61437 h -0.05168 q -0.06201,0 -0.08888,-0.0248 -0.02687,-0.0248 -0.02687,-0.062 0,-0.0269 0.0124,-0.0475 0.01447,-0.0227 0.03514,-0.031 0.02274,-0.0103 0.06821,-0.0103 h 0.475423 q 0.06201,0 0.08888,0.0248 0.02687,0.0248 0.02687,0.0641 0,0.0372 -0.02687,0.062 -0.02687,0.0248 -0.08888,0.0248 h -0.233578 l 0.709001,1.4242 0.698664,-1.4242 h -0.233577 q -0.06201,0 -0.08888,-0.0248 -0.02687,-0.0248 -0.02687,-0.0641 0,-0.0372 0.02687,-0.062 0.02687,-0.0248 0.08888,-0.0248 h 0.473356 q 0.06408,0 0.09095,0.0248 0.02687,0.0248 0.02687,0.0641 0,0.0269 -0.01654,0.0496 -0.01654,0.0227 -0.03721,0.031 -0.02067,0.006 -0.115755,0.006 l -1.099673,2.23862 h 0.270784 q 0.06201,0 0.08888,0.0227 0.02687,0.0248 0.02687,0.0641 0,0.0372 -0.02687,0.062 -0.02687,0.0248 -0.08888,0.0248 h -1.000455 q -0.06201,0 -0.08888,-0.0248 -0.02687,-0.0227 -0.02687,-0.062 0,-0.0393 0.02687,-0.0641 0.02687,-0.0227 0.08888,-0.0227 h 0.543636 z"
         style="font-family:'Courier New';-inkscape-font-specification:'Courier New, Normal'"
         id="path264" />
      <path
         d="m 48.619132,119.44358 q 0.274918,0.29972 0.475423,0.45682 0.200504,0.15503 0.378271,0.23151 v 0.093 q -0.204639,0.0992 -0.396875,0.25425 -0.192236,0.15296 -0.458886,0.45062 h -0.159163 q 0.194303,-0.41548 0.407209,-0.63872 h -3.296953 v -0.20877 h 3.296953 q -0.157096,-0.20051 -0.219107,-0.29766 -0.06201,-0.0971 -0.183968,-0.34106 z"
         id="path266" />
      <path
         d="m 53.028162,121.25432 h -0.748274 l -0.948778,-1.31051 q -0.10542,0.004 -0.171566,0.004 -0.02687,0 -0.05788,0 -0.03101,-0.002 -0.06408,-0.004 v 0.81441 q 0,0.26459 0.05788,0.32867 0.07855,0.091 0.235645,0.091 h 0.109554 v 0.0765 h -1.20096 v -0.0765 h 0.10542 q 0.177767,0 0.254248,-0.11576 0.04341,-0.0641 0.04341,-0.30386 v -1.81074 q 0,-0.26458 -0.05788,-0.32866 -0.08062,-0.091 -0.239779,-0.091 h -0.10542 v -0.0765 h 1.021126 q 0.446484,0 0.657323,0.0661 0.212907,0.0641 0.359668,0.23978 0.148828,0.17363 0.148828,0.41547 0,0.25839 -0.169498,0.44855 -0.167432,0.19017 -0.520898,0.26872 l 0.578775,0.80409 q 0.198437,0.27698 0.341064,0.36793 0.142627,0.091 0.37207,0.11576 z m -1.990574,-1.44074 q 0.03927,0 0.06821,0.002 0.02894,0 0.04754,0 0.401009,0 0.60358,-0.17364 0.204639,-0.17363 0.204639,-0.44234 0,-0.26252 -0.165365,-0.42582 -0.163297,-0.16536 -0.434081,-0.16536 -0.11989,0 -0.324528,0.0393 z"
         id="path268" />
    </g>
    <g
       aria-label="0 → y,L"
       id="text33192"
       style="font-size:4.23333px;line-height:125%;font-family:'Times New Roman';-inkscape-font-specification:'Times New Roman, Normal';letter-spacing:0px;word-spacing:0px;stroke-width:0.264583px">
      <path
         d="m 55.806107,129.3678 v 0.42994 q 0,0.56018 -0.26665,0.88677 -0.208772,0.25632 -0.527099,0.25632 -0.152962,0 -0.289388,-0.062 -0.134358,-0.0599 -0.229443,-0.16949 -0.05994,-0.0682 -0.132291,-0.21911 -0.07028,-0.1509 -0.101286,-0.27699 -0.04754,-0.17776 -0.04754,-0.41548 v -0.42994 q 0,-0.56224 0.26665,-0.88884 0.208772,-0.25631 0.527099,-0.25631 0.155029,0 0.289388,0.062 0.134358,0.0599 0.229443,0.1695 0.06201,0.0703 0.132291,0.22117 0.07028,0.1509 0.103353,0.27492 0.04547,0.17777 0.04547,0.41755 z m -0.173632,0.0227 q 0,-0.24597 -0.07028,-0.45681 -0.06821,-0.21291 -0.155029,-0.339 -0.05168,-0.0724 -0.134359,-0.12403 -0.117822,-0.0723 -0.264583,-0.0723 -0.291455,0 -0.456819,0.29765 -0.165365,0.29766 -0.165365,0.69453 v 0.38241 q 0,0.24598 0.06821,0.45889 0.07028,0.2129 0.159163,0.33899 0.04961,0.0703 0.132292,0.12196 0.117822,0.0744 0.26665,0.0744 0.289388,0 0.454752,-0.29765 0.165365,-0.29973 0.165365,-0.6966 z"
         style="font-family:'Courier New';-inkscape-font-specification:'Courier New, Normal'"
         id="path271" />
      <path
         d="m 60.022902,129.06807 q 0.274918,0.29973 0.475423,0.45682 0.200504,0.15503 0.378271,0.23151 v 0.093 q -0.204639,0.0992 -0.396875,0.25425 -0.192236,0.15296 -0.458886,0.45062 h -0.159163 q 0.194303,-0.41548 0.407209,-0.63872 h -3.296953 v -0.20878 h 3.296953 q -0.157096,-0.2005 -0.219107,-0.29765 -0.06201,-0.0971 -0.183968,-0.34107 z"
         id="path273" />
      <path
         d="m 62.852702,130.87881 -0.806151,-1.61437 h -0.05168 q -0.06201,0 -0.08888,-0.0248 -0.02687,-0.0248 -0.02687,-0.062 0,-0.0269 0.0124,-0.0475 0.01447,-0.0227 0.03514,-0.031 0.02274,-0.0103 0.06821,-0.0103 h 0.475423 q 0.06201,0 0.08888,0.0248 0.02687,0.0248 0.02687,0.0641 0,0.0372 -0.02687,0.062 -0.02687,0.0248 -0.08888,0.0248 H 62.23672 l 0.709,1.42421 0.698665,-1.42421 h -0.233578 q -0.06201,0 -0.08888,-0.0248 -0.02687,-0.0248 -0.02687,-0.0641 0,-0.0372 0.02687,-0.062 0.02687,-0.0248 0.08888,-0.0248 h 0.473356 q 0.06408,0 0.09095,0.0248 0.02687,0.0248 0.02687,0.0641 0,0.0269 -0.01654,0.0496 -0.01654,0.0227 -0.03721,0.031 -0.02067,0.006 -0.115755,0.006 l -1.099674,2.23863 h 0.270784 q 0.06201,0 0.08888,0.0227 0.02687,0.0248 0.02687,0.0641 0,0.0372 -0.02687,0.062 -0.02687,0.0248 -0.08888,0.0248 h -1.000454 q -0.06201,0 -0.08888,-0.0248 -0.02687,-0.0227 -0.02687,-0.062 0,-0.0393 0.02687,-0.0641 0.02687,-0.0227 0.08888,-0.0227 h 0.543635 z"
         style="font-family:'Courier New';-inkscape-font-specification:'Courier New, Normal'"
         id="path275" />
      <path
         d="m 64.338915,131.58368 v -0.0909 q 0.212907,-0.0703 0.328662,-0.21911 0.117822,-0.14676 0.117822,-0.31212 0,-0.0393 -0.0186,-0.0661 -0.01447,-0.0186 -0.02894,-0.0186 -0.02274,0 -0.09922,0.0413 -0.03721,0.0186 -0.07855,0.0186 -0.101286,0 -0.16123,-0.0599 -0.05994,-0.0599 -0.05994,-0.16537 0,-0.10128 0.07648,-0.17363 0.07855,-0.0724 0.190169,-0.0724 0.136426,0 0.241846,0.11989 0.107487,0.11782 0.107487,0.3142 0,0.2129 -0.148828,0.3948 -0.146761,0.18397 -0.467155,0.28939 z"
         id="path277" />
      <path
         d="m 67.596595,130.10367 0.06821,0.0145 -0.239778,0.76067 h -2.170408 v -0.0765 h 0.105419 q 0.177767,0 0.254248,-0.11575 0.04341,-0.0661 0.04341,-0.30593 v -1.80867 q 0,-0.26252 -0.05788,-0.32866 -0.08061,-0.091 -0.239779,-0.091 h -0.105419 v -0.0765 h 1.269172 v 0.0765 q -0.223242,-0.002 -0.314193,0.0413 -0.08888,0.0434 -0.121956,0.10955 -0.03307,0.0661 -0.03307,0.31626 v 1.76113 q 0,0.17157 0.03307,0.23565 0.02481,0.0434 0.07648,0.0641 0.05168,0.0207 0.322461,0.0207 h 0.204638 q 0.322461,0 0.452685,-0.0475 0.130225,-0.0476 0.237712,-0.16744 0.107487,-0.12195 0.214974,-0.3824 z"
         id="path279" />
    </g>
    <g
       aria-label="y → R"
       id="text34228"
       style="font-size:4.23333px;line-height:125%;font-family:'Times New Roman';-inkscape-font-specification:'Times New Roman, Normal';letter-spacing:0px;word-spacing:0px;stroke-width:0.264583px">
      <path
         d="m 101.2826,99.026382 -0.80615,-1.61437 h -0.0517 q -0.062,0 -0.0889,-0.02481 -0.0269,-0.0248 -0.0269,-0.06201 0,-0.02687 0.0124,-0.04754 0.0145,-0.02274 0.0351,-0.03101 0.0227,-0.01034 0.0682,-0.01034 h 0.47542 q 0.062,0 0.0889,0.02481 0.0269,0.02481 0.0269,0.06408 0,0.03721 -0.0269,0.06201 -0.0269,0.02481 -0.0889,0.02481 h -0.23358 l 0.709,1.424201 0.69867,-1.424201 h -0.23358 q -0.062,0 -0.0889,-0.02481 -0.0269,-0.0248 -0.0269,-0.06408 0,-0.03721 0.0269,-0.06201 0.0269,-0.02481 0.0889,-0.02481 h 0.47336 q 0.0641,0 0.091,0.02481 0.0269,0.02481 0.0269,0.06408 0,0.02687 -0.0165,0.04961 -0.0165,0.02274 -0.0372,0.03101 -0.0207,0.0062 -0.11576,0.0062 l -1.09967,2.238621 h 0.27078 q 0.062,0 0.0889,0.02274 0.0269,0.02481 0.0269,0.06408 0,0.03721 -0.0269,0.06201 -0.0269,0.02481 -0.0889,0.02481 h -1.00045 q -0.062,0 -0.0889,-0.02481 -0.0269,-0.02274 -0.0269,-0.06201 0,-0.03927 0.0269,-0.06408 0.0269,-0.02274 0.0889,-0.02274 h 0.54363 z"
         style="font-family:'Courier New';-inkscape-font-specification:'Courier New, Normal'"
         id="path282" />
      <path
         d="m 106.28487,97.215642 q 0.27492,0.299723 0.47543,0.456819 0.2005,0.155029 0.37827,0.23151 v 0.09302 q -0.20464,0.09922 -0.39688,0.254248 -0.19223,0.152962 -0.45888,0.450618 h -0.15917 q 0.19431,-0.415478 0.40721,-0.63872 h -3.29695 v -0.208773 h 3.29695 q -0.15709,-0.200504 -0.21911,-0.297656 -0.062,-0.09715 -0.18396,-0.341064 z"
         id="path284" />
      <path
         d="m 110.6939,99.026382 h -0.74827 l -0.94878,-1.310513 q -0.10542,0.0041 -0.17156,0.0041 -0.0269,0 -0.0579,0 -0.031,-0.0021 -0.0641,-0.0041 v 0.81442 q 0,0.264583 0.0579,0.328662 0.0785,0.09095 0.23564,0.09095 h 0.10955 v 0.07648 h -1.20095 v -0.07648 h 0.10542 q 0.17776,0 0.25424,-0.115755 0.0434,-0.06408 0.0434,-0.303857 v -1.810741 q 0,-0.264583 -0.0579,-0.328661 -0.0806,-0.09095 -0.23977,-0.09095 h -0.10542 v -0.07648 h 1.02112 q 0.44648,0 0.65732,0.06615 0.21291,0.06408 0.35967,0.239778 0.14883,0.173633 0.14883,0.415479 0,0.258381 -0.1695,0.448551 -0.16743,0.190169 -0.5209,0.268717 l 0.57878,0.804084 q 0.19844,0.276986 0.34106,0.367936 0.14263,0.09095 0.37207,0.115755 z m -1.99057,-1.440737 q 0.0393,0 0.0682,0.0021 0.0289,0 0.0475,0 0.40101,0 0.60358,-0.173633 0.20464,-0.173633 0.20464,-0.44235 0,-0.262516 -0.16536,-0.425813 -0.1633,-0.165365 -0.43408,-0.165365 -0.11989,0 -0.32453,0.03927 z"
         id="path286" />
    </g>
    <g
       aria-label="0 → y,R"
       id="text34240"
       style="font-size:4.23333px;line-height:125%;font-family:'Times New Roman';-inkscape-font-specification:'Times New Roman, Normal';letter-spacing:0px;word-spacing:0px;stroke-width:0.264583px">
      <path
         d="m 93.89689,108.45367 v 0.42995 q 0,0.56017 -0.266651,0.88677 -0.208772,0.25631 -0.527099,0.25631 -0.152962,0 -0.289388,-0.062 -0.134358,-0.0599 -0.229443,-0.1695 -0.05994,-0.0682 -0.132291,-0.21911 -0.07028,-0.15089 -0.101286,-0.27698 -0.04754,-0.17777 -0.04754,-0.41548 v -0.42995 q 0,-0.56224 0.26665,-0.88883 0.208772,-0.25632 0.527099,-0.25632 0.155029,0 0.289388,0.062 0.134358,0.0599 0.229443,0.16949 0.06201,0.0703 0.132292,0.22118 0.07028,0.15089 0.103352,0.27492 0.04548,0.17777 0.04548,0.41754 z m -0.173633,0.0227 q 0,-0.24598 -0.07028,-0.45682 -0.06821,-0.2129 -0.155029,-0.339 -0.05168,-0.0723 -0.134359,-0.12402 -0.117822,-0.0724 -0.264583,-0.0724 -0.291455,0 -0.456819,0.29766 -0.165365,0.29766 -0.165365,0.69453 v 0.38241 q 0,0.24598 0.06821,0.45888 0.07028,0.21291 0.159163,0.339 0.04961,0.0703 0.132292,0.12196 0.117822,0.0744 0.26665,0.0744 0.289388,0 0.454752,-0.29766 0.165365,-0.29972 0.165365,-0.69659 z"
         style="font-family:'Courier New';-inkscape-font-specification:'Courier New, Normal'"
         id="path289" />
      <path
         d="m 98.113684,108.15395 q 0.274918,0.29972 0.475423,0.45682 0.200504,0.15503 0.378271,0.23151 v 0.093 q -0.204639,0.0992 -0.396875,0.25425 -0.192236,0.15296 -0.458886,0.45061 h -0.159163 q 0.194303,-0.41547 0.40721,-0.63872 H 95.06271 v -0.20877 h 3.296954 q -0.157097,-0.2005 -0.219108,-0.29766 -0.06201,-0.0971 -0.183968,-0.34106 z"
         id="path291" />
      <path
         d="m 100.94348,109.96469 -0.80615,-1.61437 h -0.0517 q -0.062,0 -0.08889,-0.0248 -0.02687,-0.0248 -0.02687,-0.062 0,-0.0269 0.0124,-0.0475 0.01447,-0.0227 0.03514,-0.031 0.0227,-0.0103 0.0682,-0.0103 h 0.47542 q 0.062,0 0.0889,0.0248 0.0269,0.0248 0.0269,0.0641 0,0.0372 -0.0269,0.062 -0.0269,0.0248 -0.0889,0.0248 h -0.23358 l 0.709,1.4242 0.69867,-1.4242 h -0.23358 q -0.062,0 -0.0889,-0.0248 -0.0269,-0.0248 -0.0269,-0.0641 0,-0.0372 0.0269,-0.062 0.0269,-0.0248 0.0889,-0.0248 h 0.47336 q 0.0641,0 0.0909,0.0248 0.0269,0.0248 0.0269,0.0641 0,0.0269 -0.0165,0.0496 -0.0165,0.0227 -0.0372,0.031 -0.0207,0.006 -0.11575,0.006 l -1.09967,2.23862 h 0.27078 q 0.062,0 0.0889,0.0227 0.0269,0.0248 0.0269,0.0641 0,0.0372 -0.0269,0.062 -0.0269,0.0248 -0.0889,0.0248 h -1.00046 q -0.062,0 -0.0889,-0.0248 -0.02687,-0.0227 -0.02687,-0.062 0,-0.0393 0.02687,-0.0641 0.0269,-0.0227 0.0889,-0.0227 h 0.54364 z"
         style="font-family:'Courier New';-inkscape-font-specification:'Courier New, Normal'"
         id="path293" />
      <path
         d="m 102.4297,110.66956 v -0.091 q 0.2129,-0.0703 0.32866,-0.21911 0.11782,-0.14676 0.11782,-0.31213 0,-0.0393 -0.0186,-0.0661 -0.0145,-0.0186 -0.0289,-0.0186 -0.0227,0 -0.0992,0.0413 -0.0372,0.0186 -0.0786,0.0186 -0.10128,0 -0.16123,-0.06 -0.0599,-0.0599 -0.0599,-0.16536 0,-0.10129 0.0765,-0.17363 0.0785,-0.0724 0.19017,-0.0724 0.13642,0 0.24184,0.11989 0.10749,0.11782 0.10749,0.31419 0,0.21291 -0.14883,0.39481 -0.14676,0.18397 -0.46715,0.28939 z"
         id="path295" />
      <path
         d="m 106.12146,109.96469 h -0.74828 l -0.94877,-1.31051 q -0.10542,0.004 -0.17157,0.004 -0.0269,0 -0.0579,0 -0.031,-0.002 -0.0641,-0.004 v 0.81442 q 0,0.26458 0.0579,0.32866 0.0785,0.091 0.23565,0.091 h 0.10955 v 0.0765 H 103.333 v -0.0765 h 0.10542 q 0.17777,0 0.25425,-0.11576 0.0434,-0.0641 0.0434,-0.30385 v -1.81074 q 0,-0.26459 -0.0579,-0.32866 -0.0806,-0.091 -0.23978,-0.091 H 103.333 v -0.0765 h 1.02113 q 0.44648,0 0.65732,0.0661 0.21291,0.0641 0.35967,0.23978 0.14883,0.17363 0.14883,0.41548 0,0.25838 -0.1695,0.44855 -0.16743,0.19017 -0.5209,0.26871 l 0.57877,0.80409 q 0.19844,0.27698 0.34107,0.36793 0.14263,0.091 0.37207,0.11576 z m -1.99058,-1.44074 q 0.0393,0 0.0682,0.002 0.0289,0 0.0475,0 0.40101,0 0.60358,-0.17363 0.20464,-0.17363 0.20464,-0.44235 0,-0.26252 -0.16537,-0.42582 -0.16329,-0.16536 -0.43408,-0.16536 -0.11989,0 -0.32453,0.0393 z"
         id="path297" />
    </g>
    <g
       aria-label="1 → y,L"
       id="text34252"
       style="font-size:4.23333px;line-height:125%;font-family:'Times New Roman';-inkscape-font-specification:'Times New Roman, Normal';letter-spacing:0px;word-spacing:0px;stroke-width:0.264583px">
      <path
         d="m 85.800828,128.24952 v 2.45566 h 0.595312 q 0.06201,0 0.08888,0.0248 0.02687,0.0227 0.02687,0.062 0,0.0372 -0.02687,0.062 -0.02687,0.0248 -0.08888,0.0248 h -1.364257 q -0.06201,0 -0.08888,-0.0248 -0.02687,-0.0248 -0.02687,-0.062 0,-0.0393 0.02687,-0.062 0.02687,-0.0248 0.08888,-0.0248 h 0.595312 v -2.21588 l -0.566373,0.17777 q -0.04134,0.0124 -0.05994,0.0124 -0.03101,0 -0.05788,-0.0248 -0.02481,-0.0269 -0.02481,-0.062 0,-0.031 0.02067,-0.0579 0.01654,-0.0165 0.06821,-0.0351 z"
         style="font-family:'Courier New';-inkscape-font-specification:'Courier New, Normal'"
         id="path300" />
      <path
         d="m 90.72869,129.06807 q 0.274918,0.29973 0.475422,0.45682 0.200505,0.15503 0.378271,0.23151 v 0.093 q -0.204638,0.0992 -0.396874,0.25425 -0.192236,0.15296 -0.458887,0.45062 h -0.159163 q 0.194303,-0.41548 0.40721,-0.63872 h -3.296953 v -0.20878 h 3.296953 q -0.157096,-0.2005 -0.219108,-0.29765 -0.06201,-0.0971 -0.183968,-0.34107 z"
         id="path302" />
      <path
         d="m 93.55849,130.87881 -0.806152,-1.61437 h -0.05168 q -0.06201,0 -0.08888,-0.0248 -0.02687,-0.0248 -0.02687,-0.062 0,-0.0269 0.0124,-0.0475 0.01447,-0.0227 0.03514,-0.031 0.02274,-0.0103 0.06821,-0.0103 h 0.475423 q 0.06201,0 0.08888,0.0248 0.02687,0.0248 0.02687,0.0641 0,0.0372 -0.02687,0.062 -0.02687,0.0248 -0.08888,0.0248 h -0.233578 l 0.709,1.42421 0.698665,-1.42421 h -0.233577 q -0.06201,0 -0.08888,-0.0248 -0.02687,-0.0248 -0.02687,-0.0641 0,-0.0372 0.02687,-0.062 0.02687,-0.0248 0.08888,-0.0248 h 0.473356 q 0.06408,0 0.09095,0.0248 0.02687,0.0248 0.02687,0.0641 0,0.0269 -0.01654,0.0496 -0.01654,0.0227 -0.03721,0.031 -0.02067,0.006 -0.115755,0.006 l -1.099673,2.23863 h 0.270784 q 0.06201,0 0.08888,0.0227 0.02687,0.0248 0.02687,0.0641 0,0.0372 -0.02687,0.062 -0.02687,0.0248 -0.08888,0.0248 H 92.70893 q -0.06201,0 -0.08888,-0.0248 -0.02687,-0.0227 -0.02687,-0.062 0,-0.0393 0.02687,-0.0641 0.02687,-0.0227 0.08888,-0.0227 h 0.543636 z"
         style="font-family:'Courier New';-inkscape-font-specification:'Courier New, Normal'"
         id="path304" />
      <path
         d="m 95.044703,131.58368 v -0.0909 q 0.212906,-0.0703 0.328661,-0.21911 0.117823,-0.14676 0.117823,-0.31212 0,-0.0393 -0.0186,-0.0661 -0.01447,-0.0186 -0.02894,-0.0186 -0.02274,0 -0.09922,0.0413 -0.03721,0.0186 -0.07855,0.0186 -0.101286,0 -0.161231,-0.0599 -0.05994,-0.0599 -0.05994,-0.16537 0,-0.10128 0.07648,-0.17363 0.07855,-0.0724 0.190169,-0.0724 0.136425,0 0.241845,0.11989 0.107487,0.11782 0.107487,0.3142 0,0.2129 -0.148828,0.3948 -0.146761,0.18397 -0.467154,0.28939 z"
         id="path306" />
      <path
         d="m 98.302382,130.10367 0.06821,0.0145 -0.239778,0.76067 h -2.170409 v -0.0765 h 0.10542 q 0.177767,0 0.254248,-0.11575 0.04341,-0.0661 0.04341,-0.30593 v -1.80867 q 0,-0.26252 -0.05788,-0.32866 -0.08062,-0.091 -0.239779,-0.091 h -0.10542 v -0.0765 h 1.269172 v 0.0765 q -0.223242,-0.002 -0.314192,0.0413 -0.08888,0.0434 -0.121956,0.10955 -0.03307,0.0661 -0.03307,0.31626 v 1.76113 q 0,0.17157 0.03307,0.23565 0.0248,0.0434 0.07648,0.0641 0.05168,0.0207 0.32246,0.0207 h 0.204639 q 0.322461,0 0.452685,-0.0475 0.130225,-0.0476 0.237711,-0.16744 0.107487,-0.12195 0.214974,-0.3824 z"
         id="path308" />
    </g>
    <path
       style="font-variation-settings:normal;opacity:1;vector-effect:none;fill:none;fill-opacity:1;stroke:#000000;stroke-width:0.141111;stroke-linecap:butt;stroke-linejoin:miter;stroke-miterlimit:4;stroke-dasharray:none;stroke-dashoffset:0;stroke-opacity:1;-inkscape-stroke:none;marker-end:url(#marker3736);stop-color:#000000;stop-opacity:1"
       d="M 88.372672,101.03528 66.086948,118.25392"
       id="path37221" />
    <g
       aria-label="1 → y,R"
       transform="rotate(-37.03904)"
       id="text37313"
       style="font-size:4.23333px;line-height:125%;font-family:'Times New Roman';-inkscape-font-specification:'Times New Roman, Normal';letter-spacing:0px;word-spacing:0px;stroke-width:0.264583px">
      <path
         d="m -10.485082,130.04192 v 2.45567 h 0.5953123 q 0.062012,0 0.088883,0.0248 0.026872,0.0227 0.026872,0.062 0,0.0372 -0.026872,0.062 -0.026872,0.0248 -0.088883,0.0248 h -1.3642563 q -0.06201,0 -0.08888,-0.0248 -0.02687,-0.0248 -0.02687,-0.062 0,-0.0393 0.02687,-0.062 0.02687,-0.0248 0.08888,-0.0248 h 0.595312 v -2.21589 l -0.566374,0.17777 q -0.04134,0.0124 -0.05994,0.0124 -0.03101,0 -0.05788,-0.0248 -0.0248,-0.0269 -0.0248,-0.062 0,-0.031 0.02067,-0.0579 0.01654,-0.0165 0.06821,-0.0351 z"
         style="font-family:'Courier New';-inkscape-font-specification:'Courier New, Normal'"
         id="path311" />
      <path
         d="m -5.5572201,130.86048 q 0.2749183,0.29972 0.4754227,0.45682 0.2005044,0.15503 0.3782712,0.23151 v 0.093 q -0.2046385,0.0992 -0.3968747,0.25424 -0.1922361,0.15297 -0.4588863,0.45062 h -0.1591633 q 0.1943032,-0.41548 0.40721,-0.63872 h -3.2969536 v -0.20877 h 3.2969536 q -0.1570963,-0.20051 -0.2191079,-0.29766 -0.062012,-0.0971 -0.183968,-0.34106 z"
         id="path313" />
      <path
         d="m -2.7274197,132.67122 -0.8061516,-1.61437 h -0.051676 q -0.062012,0 -0.088883,-0.0248 -0.026872,-0.0248 -0.026872,-0.062 0,-0.0269 0.012402,-0.0475 0.014469,-0.0227 0.03514,-0.031 0.022738,-0.0103 0.068213,-0.0103 h 0.4754228 q 0.062012,0 0.088883,0.0248 0.026872,0.0248 0.026872,0.0641 0,0.0372 -0.026872,0.062 -0.026872,0.0248 -0.088883,0.0248 h -0.2335773 l 0.709,1.4242 0.6986648,-1.4242 h -0.2335773 q -0.062012,0 -0.088883,-0.0248 -0.026872,-0.0248 -0.026872,-0.0641 0,-0.0372 0.026872,-0.062 0.026872,-0.0248 0.088883,-0.0248 h 0.4733558 q 0.064079,0 0.09095,0.0248 0.026872,0.0248 0.026872,0.0641 0,0.0269 -0.016536,0.0496 -0.016537,0.0227 -0.037207,0.031 -0.020671,0.006 -0.1157551,0.006 l -1.0996736,2.23862 h 0.2707843 q 0.062012,0 0.088883,0.0227 0.026872,0.0248 0.026872,0.0641 0,0.0372 -0.026872,0.062 -0.026872,0.0248 -0.088883,0.0248 h -1.0004549 q -0.062012,0 -0.088883,-0.0248 -0.026872,-0.0227 -0.026872,-0.062 0,-0.0393 0.026872,-0.0641 0.026872,-0.0227 0.088883,-0.0227 h 0.5436356 z"
         style="font-family:'Courier New';-inkscape-font-specification:'Courier New, Normal'"
         id="path315" />
      <path
         d="m -1.241207,133.37608 v -0.0909 q 0.2129067,-0.0703 0.32866184,-0.2191 0.11782216,-0.14676 0.11782216,-0.31213 0,-0.0393 -0.0186035,-0.0661 -0.0144694,-0.0186 -0.0289388,-0.0186 -0.0227376,0 -0.0992187,0.0413 -0.037207,0.0186 -0.0785482,0.0186 -0.1012857,0 -0.1612303,-0.0599 -0.059945,-0.0599 -0.059945,-0.16536 0,-0.10129 0.076481,-0.17364 0.078548,-0.0723 0.19016907,-0.0723 0.13642567,0 0.2418455,0.11989 0.10748689,0.11782 0.10748689,0.31419 0,0.21291 -0.148828,0.39481 -0.14676095,0.18396 -0.46715456,0.28938 z"
         id="path317" />
      <path
         d="M 2.4505542,132.67122 H 1.7022801 l -0.94877849,-1.31051 q -0.10541983,0.004 -0.17156561,0.004 -0.0268717,0 -0.0578776,0 -0.0310058,-0.002 -0.0640787,-0.004 v 0.81442 q 0,0.26458 0.0578776,0.32866 0.0785481,0.0909 0.23564433,0.0909 h 0.10955395 v 0.0765 h -1.20095928 v -0.0765 h 0.10541983 q 0.17776678,0 0.25424784,-0.11576 0.04340816,-0.0641 0.04340816,-0.30385 v -1.81075 q 0,-0.26458 -0.05787755,-0.32866 -0.08061517,-0.0909 -0.23977845,-0.0909 h -0.10541983 v -0.0765 h 1.02112544 q 0.44648398,0 0.65732368,0.0661 0.2129067,0.0641 0.3596677,0.23978 0.148828,0.17363 0.148828,0.41547 0,0.25839 -0.1694986,0.44855 -0.1674315,0.19017 -0.520898,0.26872 l 0.5787756,0.80409 q 0.1984373,0.27698 0.3410641,0.36793 0.1426269,0.0909 0.37207,0.11576 z m -1.99057448,-1.44074 q 0.0392741,0 0.0682128,0.002 0.0289388,0 0.0475423,0 0.40100877,0 0.60358026,-0.17363 0.2046385,-0.17364 0.2046385,-0.44235 0,-0.26252 -0.1653645,-0.42582 -0.1632974,-0.16536 -0.43408165,-0.16536 -0.11988923,0 -0.32452773,0.0393 z"
         id="path319" />
    </g>
    <g
       aria-label="x → R"
       id="text42061"
       style="font-size:4.23333px;line-height:125%;font-family:'Times New Roman';-inkscape-font-specification:'Times New Roman, Normal';letter-spacing:0px;word-spacing:0px;stroke-width:0.264583px">
      <path
         d="m 60.095852,144.19882 0.795817,0.76274 q 0.07855,0 0.09922,0.008 0.02067,0.006 0.03514,0.0289 0.01654,0.0227 0.01654,0.0496 0,0.0372 -0.02687,0.062 -0.02687,0.0248 -0.09095,0.0248 h -0.558105 q -0.06408,0 -0.09095,-0.0248 -0.02687,-0.0248 -0.02687,-0.062 0,-0.0393 0.02687,-0.062 0.02687,-0.0248 0.09095,-0.0248 h 0.28732 l -0.675927,-0.64699 -0.671793,0.64699 h 0.289388 q 0.06201,0 0.08888,0.0248 0.02687,0.0227 0.02687,0.062 0,0.0372 -0.02687,0.062 -0.02687,0.0248 -0.08888,0.0248 h -0.564306 q -0.06201,0 -0.08888,-0.0248 -0.02687,-0.0248 -0.02687,-0.062 0,-0.0269 0.01447,-0.0496 0.01654,-0.0227 0.03514,-0.0289 0.02067,-0.008 0.09922,-0.008 l 0.795816,-0.76274 -0.706933,-0.678 q -0.07441,0 -0.09508,-0.008 -0.0186,-0.008 -0.03514,-0.031 -0.01447,-0.0227 -0.01447,-0.0496 0,-0.0372 0.02687,-0.062 0.02687,-0.0248 0.09095,-0.0248 h 0.473356 q 0.06408,0 0.08888,0.0248 0.02687,0.0248 0.02687,0.0641 0,0.0372 -0.02687,0.062 -0.0248,0.0248 -0.08888,0.0248 h -0.206706 l 0.584977,0.56431 0.589111,-0.56431 h -0.206706 q -0.06201,0 -0.09095,-0.0248 -0.02687,-0.0248 -0.02687,-0.0641 0,-0.0372 0.02687,-0.062 0.02687,-0.0248 0.09095,-0.0248 h 0.473356 q 0.06201,0 0.08888,0.0248 0.02687,0.0248 0.02687,0.0641 0,0.0248 -0.01654,0.0475 -0.01447,0.0227 -0.03514,0.031 -0.0186,0.008 -0.09302,0.008 z"
         style="font-family:'Courier New';-inkscape-font-specification:'Courier New, Normal'"
         id="path322" />
      <path
         d="m 64.990641,143.32445 q 0.274918,0.29973 0.475423,0.45682 0.200504,0.15503 0.378271,0.23151 v 0.093 q -0.204639,0.0992 -0.396875,0.25425 -0.192236,0.15296 -0.458886,0.45062 h -0.159163 q 0.194303,-0.41548 0.40721,-0.63873 h -3.296954 v -0.20877 h 3.296954 q -0.157097,-0.2005 -0.219108,-0.29765 -0.06201,-0.0972 -0.183968,-0.34107 z"
         id="path324" />
      <path
         d="m 69.399672,145.13519 h -0.748274 l -0.948779,-1.31051 q -0.10542,0.004 -0.171565,0.004 -0.02687,0 -0.05788,0 -0.03101,-0.002 -0.06408,-0.004 v 0.81442 q 0,0.26458 0.05788,0.32866 0.07855,0.0909 0.235644,0.0909 h 0.109554 v 0.0765 h -1.200959 v -0.0765 h 0.10542 q 0.177767,0 0.254248,-0.11575 0.04341,-0.0641 0.04341,-0.30386 v -1.81074 q 0,-0.26458 -0.05788,-0.32866 -0.08061,-0.0909 -0.239778,-0.0909 h -0.10542 v -0.0765 h 1.021125 q 0.446484,0 0.657324,0.0661 0.212907,0.0641 0.359668,0.23978 0.148828,0.17363 0.148828,0.41548 0,0.25838 -0.169499,0.44855 -0.167431,0.19017 -0.520898,0.26872 l 0.578776,0.80408 q 0.198437,0.27699 0.341064,0.36794 0.142627,0.0909 0.37207,0.11575 z m -1.990575,-1.44073 q 0.03927,0 0.06821,0.002 0.02894,0 0.04754,0 0.401009,0 0.603581,-0.17363 0.204638,-0.17363 0.204638,-0.44235 0,-0.26252 -0.165364,-0.42581 -0.163298,-0.16537 -0.434082,-0.16537 -0.119889,0 -0.324528,0.0393 z"
         id="path326" />
    </g>
    <path
       id="path46609"
       style="fill:#ffffff;stroke:#000000;stroke-width:0.264583"
       d="m 70.931783,111.11592 a 0.00989256,0.00989256 0 0 1 -0.0099,0.01 0.00989256,0.00989256 0 0 1 -0.0099,-0.01 0.00989256,0.00989256 0 0 1 0.0099,-0.01 0.00989256,0.00989256 0 0 1 0.0099,0.01 z" />
  </g>
  <g
     inkscape:label="Layer 1"
     inkscape:groupmode="layer"
     id="layer1"
     transform="translate(-32.758683,-70.274555)">
    <g
       id="g3878"
       transform="translate(35.611159,42.113182)">
      <path
         id="path825"
         style="fill:#d9d9d9;stroke:#000000;stroke-width:0.176389"
         d="m 44.869031,40.121029 a 3.8805556,3.8805556 0 0 1 -3.880555,3.880556 3.8805556,3.8805556 0 0 1 -3.880556,-3.880556 3.8805556,3.8805556 0 0 1 3.880556,-3.880556 3.8805556,3.8805556 0 0 1 3.880555,3.880556 z" />
      <g
         aria-label="q"
         id="text817"
         style="font-style:italic;font-size:4.93889px;line-height:125%;font-family:'Times New Roman';-inkscape-font-specification:'Times New Roman, Italic';letter-spacing:0px;word-spacing:0px;stroke-width:0.264583px">
        <path
           d="m 41.840045,38.698288 -0.788583,2.725071 q -0.05305,0.188102 -0.05305,0.241157 0,0.05547 0.02653,0.09405 0.02894,0.041 0.07717,0.06029 0.07476,0.02894 0.195337,0.02894 l -0.02411,0.08923 h -1.155141 l 0.02412,-0.08923 q 0.236333,-0.01929 0.294211,-0.041 0.09164,-0.03617 0.149517,-0.118167 0.06029,-0.08199 0.132636,-0.344854 l 0.332796,-1.188902 q -0.318326,0.465432 -0.593245,0.653534 -0.195337,0.132637 -0.364147,0.132637 -0.241157,0 -0.364146,-0.195337 -0.12299,-0.197749 -0.12299,-0.426848 0,-0.364146 0.224275,-0.764467 0.224276,-0.40032 0.590834,-0.655946 0.284565,-0.20016 0.516076,-0.20016 0.171221,0 0.282153,0.08441 0.110932,0.08199 0.166398,0.265272 l 0.07476,-0.270095 z m -0.549837,0.470256 q 0,-0.154341 -0.09405,-0.253215 -0.09405,-0.09887 -0.231511,-0.09887 -0.294211,0 -0.619773,0.506429 -0.325561,0.506429 -0.325561,0.954981 0,0.180867 0.07958,0.274918 0.08199,0.09405 0.197749,0.09405 0.147105,0 0.332796,-0.163986 0.282154,-0.248392 0.470256,-0.636654 0.190514,-0.390674 0.190514,-0.67765 z"
           id="path331" />
      </g>
      <g
         aria-label="1"
         id="text821"
         style="font-size:2.82222px;line-height:125%;font-family:'Times New Roman';-inkscape-font-specification:'Times New Roman, Normal';letter-spacing:0px;word-spacing:0px;stroke-width:0.264583px">
        <path
           d="m 41.843401,39.96861 0.454753,-0.221864 h 0.04548 v 1.577853 q 0,0.157096 0.0124,0.195681 0.01378,0.03858 0.05512,0.05926 0.04134,0.02067 0.16812,0.02343 v 0.05099 h -0.702799 v -0.05099 q 0.132292,-0.0028 0.170877,-0.02205 0.03858,-0.02067 0.05374,-0.05374 0.01516,-0.03445 0.01516,-0.202571 v -1.008723 q 0,-0.20395 -0.01378,-0.261827 -0.0096,-0.0441 -0.03583,-0.06477 -0.0248,-0.02067 -0.06063,-0.02067 -0.05099,0 -0.141938,0.04272 z"
           id="path334" />
      </g>
    </g>
    <g
       id="g3890"
       transform="translate(21.280368,58.491771)">
      <path
         id="circle3880"
         style="fill:#d9d9d9;stroke:#000000;stroke-width:0.176389"
         d="m 44.869031,40.121029 a 3.8805556,3.8805556 0 0 1 -3.880555,3.880556 3.8805556,3.8805556 0 0 1 -3.880556,-3.880556 3.8805556,3.8805556 0 0 1 3.880556,-3.880556 3.8805556,3.8805556 0 0 1 3.880555,3.880556 z" />
      <g
         aria-label="q"
         id="text3884"
         style="font-style:italic;font-size:4.93889px;line-height:125%;font-family:'Times New Roman';-inkscape-font-specification:'Times New Roman, Italic';letter-spacing:0px;word-spacing:0px;stroke-width:0.264583px">
        <path
           d="m 41.840045,38.698288 -0.788583,2.725071 q -0.05305,0.188102 -0.05305,0.241157 0,0.05547 0.02653,0.09405 0.02894,0.041 0.07717,0.06029 0.07476,0.02894 0.195337,0.02894 l -0.02411,0.08923 h -1.155141 l 0.02412,-0.08923 q 0.236333,-0.01929 0.294211,-0.041 0.09164,-0.03617 0.149517,-0.118167 0.06029,-0.08199 0.132636,-0.344854 l 0.332796,-1.188902 q -0.318326,0.465432 -0.593245,0.653534 -0.195337,0.132637 -0.364147,0.132637 -0.241157,0 -0.364146,-0.195337 -0.12299,-0.197749 -0.12299,-0.426848 0,-0.364146 0.224275,-0.764467 0.224276,-0.40032 0.590834,-0.655946 0.284565,-0.20016 0.516076,-0.20016 0.171221,0 0.282153,0.08441 0.110932,0.08199 0.166398,0.265272 l 0.07476,-0.270095 z m -0.549837,0.470256 q 0,-0.154341 -0.09405,-0.253215 -0.09405,-0.09887 -0.231511,-0.09887 -0.294211,0 -0.619773,0.506429 -0.325561,0.506429 -0.325561,0.954981 0,0.180867 0.07958,0.274918 0.08199,0.09405 0.197749,0.09405 0.147105,0 0.332796,-0.163986 0.282154,-0.248392 0.470256,-0.636654 0.190514,-0.390674 0.190514,-0.67765 z"
           id="path338" />
      </g>
      <g
         aria-label="2"
         id="text3888"
         style="font-size:2.82222px;line-height:125%;font-family:'Times New Roman';-inkscape-font-specification:'Times New Roman, Normal';letter-spacing:0px;word-spacing:0px;stroke-width:0.264583px">
        <path
           d="m 42.806649,41.294282 -0.130913,0.359668 h -1.10243 v -0.05099 q 0.486447,-0.443728 0.684885,-0.724847 0.198437,-0.28112 0.198437,-0.514008 0,-0.177767 -0.108865,-0.292144 -0.108865,-0.114377 -0.260449,-0.114377 -0.137804,0 -0.248047,0.0813 -0.108865,0.07993 -0.16123,0.235645 h -0.05099 q 0.03445,-0.254937 0.176388,-0.391363 0.143316,-0.136426 0.356912,-0.136426 0.227376,0 0.37896,0.146072 0.152962,0.146072 0.152962,0.34451 0,0.141937 -0.06615,0.283875 -0.101974,0.223242 -0.330728,0.472667 -0.343132,0.374826 -0.42857,0.451996 h 0.487825 q 0.148828,0 0.208084,-0.01102 0.06063,-0.01102 0.108865,-0.0441 0.04823,-0.03445 0.08406,-0.09646 z"
           id="path341" />
      </g>
    </g>
    <g
       id="g3902"
       transform="translate(21.280368,80.029564)">
      <path
         id="circle3892"
         style="fill:#d9d9d9;stroke:#000000;stroke-width:0.176389"
         d="m 44.869031,40.121029 a 3.8805556,3.8805556 0 0 1 -3.880555,3.880556 3.8805556,3.8805556 0 0 1 -3.880556,-3.880556 3.8805556,3.8805556 0 0 1 3.880556,-3.880556 3.8805556,3.8805556 0 0 1 3.880555,3.880556 z" />
      <g
         aria-label="q"
         id="text3896"
         style="font-style:italic;font-size:4.93889px;line-height:125%;font-family:'Times New Roman';-inkscape-font-specification:'Times New Roman, Italic';letter-spacing:0px;word-spacing:0px;stroke-width:0.264583px">
        <path
           d="m 41.840045,38.698288 -0.788583,2.725071 q -0.05305,0.188102 -0.05305,0.241157 0,0.05547 0.02653,0.09405 0.02894,0.041 0.07717,0.06029 0.07476,0.02894 0.195337,0.02894 l -0.02411,0.08923 h -1.155141 l 0.02412,-0.08923 q 0.236333,-0.01929 0.294211,-0.041 0.09164,-0.03617 0.149517,-0.118167 0.06029,-0.08199 0.132636,-0.344854 l 0.332796,-1.188902 q -0.318326,0.465432 -0.593245,0.653534 -0.195337,0.132637 -0.364147,0.132637 -0.241157,0 -0.364146,-0.195337 -0.12299,-0.197749 -0.12299,-0.426848 0,-0.364146 0.224275,-0.764467 0.224276,-0.40032 0.590834,-0.655946 0.284565,-0.20016 0.516076,-0.20016 0.171221,0 0.282153,0.08441 0.110932,0.08199 0.166398,0.265272 l 0.07476,-0.270095 z m -0.549837,0.470256 q 0,-0.154341 -0.09405,-0.253215 -0.09405,-0.09887 -0.231511,-0.09887 -0.294211,0 -0.619773,0.506429 -0.325561,0.506429 -0.325561,0.954981 0,0.180867 0.07958,0.274918 0.08199,0.09405 0.197749,0.09405 0.147105,0 0.332796,-0.163986 0.282154,-0.248392 0.470256,-0.636654 0.190514,-0.390674 0.190514,-0.67765 z"
           id="path345" />
      </g>
      <g
         aria-label="4"
         id="text3900"
         style="font-size:2.82222px;line-height:125%;font-family:'Times New Roman';-inkscape-font-specification:'Times New Roman, Normal';letter-spacing:0px;word-spacing:0px;stroke-width:0.264583px">
        <path
           d="m 42.825942,40.964931 v 0.195681 H 42.575139 V 41.65395 H 42.347763 V 41.160612 H 41.55677 v -0.176388 l 0.866785,-1.237478 h 0.151584 v 1.218185 z m -0.478179,0 v -0.927419 l -0.655946,0.927419 z"
           id="path348" />
      </g>
    </g>
    <g
       id="g3914"
       transform="translate(49.941947,58.491771)">
      <path
         id="circle3904"
         style="fill:#d9d9d9;stroke:#000000;stroke-width:0.176389"
         d="m 44.869031,40.121029 a 3.8805556,3.8805556 0 0 1 -3.880555,3.880556 3.8805556,3.8805556 0 0 1 -3.880556,-3.880556 3.8805556,3.8805556 0 0 1 3.880556,-3.880556 3.8805556,3.8805556 0 0 1 3.880555,3.880556 z" />
      <g
         aria-label="q"
         id="text3908"
         style="font-style:italic;font-size:4.93889px;line-height:125%;font-family:'Times New Roman';-inkscape-font-specification:'Times New Roman, Italic';letter-spacing:0px;word-spacing:0px;stroke-width:0.264583px">
        <path
           d="m 41.840045,38.698288 -0.788583,2.725071 q -0.05305,0.188102 -0.05305,0.241157 0,0.05547 0.02653,0.09405 0.02894,0.041 0.07717,0.06029 0.07476,0.02894 0.195337,0.02894 l -0.02411,0.08923 h -1.155141 l 0.02412,-0.08923 q 0.236333,-0.01929 0.294211,-0.041 0.09164,-0.03617 0.149517,-0.118167 0.06029,-0.08199 0.132636,-0.344854 l 0.332796,-1.188902 q -0.318326,0.465432 -0.593245,0.653534 -0.195337,0.132637 -0.364147,0.132637 -0.241157,0 -0.364146,-0.195337 -0.12299,-0.197749 -0.12299,-0.426848 0,-0.364146 0.224275,-0.764467 0.224276,-0.40032 0.590834,-0.655946 0.284565,-0.20016 0.516076,-0.20016 0.171221,0 0.282153,0.08441 0.110932,0.08199 0.166398,0.265272 l 0.07476,-0.270095 z m -0.549837,0.470256 q 0,-0.154341 -0.09405,-0.253215 -0.09405,-0.09887 -0.231511,-0.09887 -0.294211,0 -0.619773,0.506429 -0.325561,0.506429 -0.325561,0.954981 0,0.180867 0.07958,0.274918 0.08199,0.09405 0.197749,0.09405 0.147105,0 0.332796,-0.163986 0.282154,-0.248392 0.470256,-0.636654 0.190514,-0.390674 0.190514,-0.67765 z"
           id="path352" />
      </g>
      <g
         aria-label="3"
         id="text3912"
         style="font-size:2.82222px;line-height:125%;font-family:'Times New Roman';-inkscape-font-specification:'Times New Roman, Normal';letter-spacing:0px;word-spacing:0px;stroke-width:0.264583px">
        <path
           d="m 41.655988,40.140865 q 0.07993,-0.188791 0.201194,-0.290766 0.122645,-0.103353 0.304546,-0.103353 0.22462,0 0.344509,0.146072 0.09095,0.108865 0.09095,0.232889 0,0.203949 -0.256315,0.421679 0.172254,0.06752 0.260449,0.192925 0.08819,0.125401 0.08819,0.2949 0,0.242535 -0.15434,0.420301 -0.201193,0.231511 -0.58291,0.231511 -0.188791,0 -0.257693,-0.04685 -0.06752,-0.04685 -0.06752,-0.100596 0,-0.03996 0.03169,-0.07028 0.03307,-0.03032 0.07855,-0.03032 0.03445,0 0.07028,0.01102 0.02343,0.0069 0.106109,0.05099 0.08268,0.04272 0.114377,0.05099 0.05099,0.01516 0.108865,0.01516 0.14056,0 0.243913,-0.108865 0.104731,-0.108864 0.104731,-0.257692 0,-0.108865 -0.04823,-0.212218 -0.03583,-0.07717 -0.07855,-0.117133 -0.05926,-0.05512 -0.162608,-0.09922 -0.103353,-0.04547 -0.21084,-0.04547 h -0.0441 v -0.04134 q 0.108865,-0.01378 0.21773,-0.07855 0.110243,-0.06477 0.159852,-0.155719 0.04961,-0.09095 0.04961,-0.199815 0,-0.141938 -0.08957,-0.228754 -0.08819,-0.08819 -0.220486,-0.08819 -0.213596,0 -0.356911,0.228755 z"
           id="path355" />
      </g>
    </g>
    <g
       id="g3926"
       transform="translate(49.941947,80.029564)">
      <path
         id="circle3916"
         style="fill:#d9d9d9;stroke:#000000;stroke-width:0.176389"
         d="m 44.869031,40.121029 a 3.8805556,3.8805556 0 0 1 -3.880555,3.880556 3.8805556,3.8805556 0 0 1 -3.880556,-3.880556 3.8805556,3.8805556 0 0 1 3.880556,-3.880556 3.8805556,3.8805556 0 0 1 3.880555,3.880556 z" />
      <g
         aria-label="q"
         id="text3920"
         style="font-style:italic;font-size:4.93889px;line-height:125%;font-family:'Times New Roman';-inkscape-font-specification:'Times New Roman, Italic';letter-spacing:0px;word-spacing:0px;stroke-width:0.264583px">
        <path
           d="m 41.840045,38.698288 -0.788583,2.725071 q -0.05305,0.188102 -0.05305,0.241157 0,0.05547 0.02653,0.09405 0.02894,0.041 0.07717,0.06029 0.07476,0.02894 0.195337,0.02894 l -0.02411,0.08923 h -1.155141 l 0.02412,-0.08923 q 0.236333,-0.01929 0.294211,-0.041 0.09164,-0.03617 0.149517,-0.118167 0.06029,-0.08199 0.132636,-0.344854 l 0.332796,-1.188902 q -0.318326,0.465432 -0.593245,0.653534 -0.195337,0.132637 -0.364147,0.132637 -0.241157,0 -0.364146,-0.195337 -0.12299,-0.197749 -0.12299,-0.426848 0,-0.364146 0.224275,-0.764467 0.224276,-0.40032 0.590834,-0.655946 0.284565,-0.20016 0.516076,-0.20016 0.171221,0 0.282153,0.08441 0.110932,0.08199 0.166398,0.265272 l 0.07476,-0.270095 z m -0.549837,0.470256 q 0,-0.154341 -0.09405,-0.253215 -0.09405,-0.09887 -0.231511,-0.09887 -0.294211,0 -0.619773,0.506429 -0.325561,0.506429 -0.325561,0.954981 0,0.180867 0.07958,0.274918 0.08199,0.09405 0.197749,0.09405 0.147105,0 0.332796,-0.163986 0.282154,-0.248392 0.470256,-0.636654 0.190514,-0.390674 0.190514,-0.67765 z"
           id="path359" />
      </g>
      <g
         aria-label="5"
         id="text3924"
         style="font-size:2.82222px;line-height:125%;font-family:'Times New Roman';-inkscape-font-specification:'Times New Roman, Normal';letter-spacing:0px;word-spacing:0px;stroke-width:0.264583px">
        <path
           d="m 42.737747,39.785331 -0.107486,0.234267 h -0.56224 L 41.945376,40.2704 q 0.36518,0.05374 0.578776,0.271474 0.183279,0.187413 0.183279,0.440972 0,0.14745 -0.06063,0.272851 -0.05926,0.125401 -0.150206,0.213596 -0.09095,0.08819 -0.202572,0.141938 -0.158474,0.07579 -0.325216,0.07579 -0.168121,0 -0.245291,-0.0565 -0.07579,-0.05788 -0.07579,-0.126779 0,-0.03858 0.03169,-0.06752 0.03169,-0.03032 0.07993,-0.03032 0.03583,0 0.06201,0.01102 0.02756,0.01102 0.09233,0.0565 0.103353,0.07166 0.209462,0.07166 0.16123,0 0.282497,-0.121267 0.122646,-0.122646 0.122646,-0.297656 0,-0.169499 -0.108865,-0.315571 -0.108865,-0.14745 -0.300412,-0.227376 -0.150206,-0.06201 -0.409277,-0.07166 l 0.358289,-0.726226 z"
           id="path362" />
      </g>
    </g>
    <g
       id="g3938"
       transform="translate(35.611159,97.208453)">
      <path
         id="circle3928"
         style="fill:#d9d9d9;stroke:#000000;stroke-width:0.176389"
         d="m 44.869031,40.121029 a 3.8805556,3.8805556 0 0 1 -3.880555,3.880556 3.8805556,3.8805556 0 0 1 -3.880556,-3.880556 3.8805556,3.8805556 0 0 1 3.880556,-3.880556 3.8805556,3.8805556 0 0 1 3.880555,3.880556 z" />
      <g
         aria-label="q"
         id="text3932"
         style="font-style:italic;font-size:4.93889px;line-height:125%;font-family:'Times New Roman';-inkscape-font-specification:'Times New Roman, Italic';letter-spacing:0px;word-spacing:0px;stroke-width:0.264583px">
        <path
           d="m 41.840045,38.698288 -0.788583,2.725071 q -0.05305,0.188102 -0.05305,0.241157 0,0.05547 0.02653,0.09405 0.02894,0.041 0.07717,0.06029 0.07476,0.02894 0.195337,0.02894 l -0.02411,0.08923 h -1.155141 l 0.02412,-0.08923 q 0.236333,-0.01929 0.294211,-0.041 0.09164,-0.03617 0.149517,-0.118167 0.06029,-0.08199 0.132636,-0.344854 l 0.332796,-1.188902 q -0.318326,0.465432 -0.593245,0.653534 -0.195337,0.132637 -0.364147,0.132637 -0.241157,0 -0.364146,-0.195337 -0.12299,-0.197749 -0.12299,-0.426848 0,-0.364146 0.224275,-0.764467 0.224276,-0.40032 0.590834,-0.655946 0.284565,-0.20016 0.516076,-0.20016 0.171221,0 0.282153,0.08441 0.110932,0.08199 0.166398,0.265272 l 0.07476,-0.270095 z m -0.549837,0.470256 q 0,-0.154341 -0.09405,-0.253215 -0.09405,-0.09887 -0.231511,-0.09887 -0.294211,0 -0.619773,0.506429 -0.325561,0.506429 -0.325561,0.954981 0,0.180867 0.07958,0.274918 0.08199,0.09405 0.197749,0.09405 0.147105,0 0.332796,-0.163986 0.282154,-0.248392 0.470256,-0.636654 0.190514,-0.390674 0.190514,-0.67765 z"
           id="path366" />
      </g>
      <g
         aria-label="6"
         id="text3936"
         style="font-size:2.82222px;line-height:125%;font-family:'Times New Roman';-inkscape-font-specification:'Times New Roman, Normal';letter-spacing:0px;word-spacing:0px;stroke-width:0.264583px">
        <path
           d="m 42.777711,39.746746 v 0.05099 q -0.181901,0.01791 -0.297656,0.07304 -0.114378,0.05374 -0.227377,0.165364 -0.111621,0.111621 -0.186035,0.249425 -0.07304,0.136426 -0.122645,0.325217 0.198437,-0.136426 0.398253,-0.136426 0.191547,0 0.332107,0.15434 0.14056,0.15434 0.14056,0.396875 0,0.234266 -0.141938,0.427191 -0.170877,0.234267 -0.451996,0.234267 -0.191548,0 -0.325217,-0.12678 -0.261827,-0.246668 -0.261827,-0.639409 0,-0.250803 0.100596,-0.476801 0.100597,-0.225998 0.286632,-0.401009 0.187413,-0.17501 0.35829,-0.235644 0.170876,-0.06063 0.318326,-0.06063 z m -0.85714,0.964626 q -0.0248,0.186035 -0.0248,0.300412 0,0.132292 0.04823,0.28801 0.04961,0.15434 0.146072,0.245291 0.07028,0.06477 0.170877,0.06477 0.119889,0 0.213595,-0.112999 0.09508,-0.113 0.09508,-0.322461 0,-0.235645 -0.09371,-0.407899 -0.09371,-0.172255 -0.265961,-0.172255 -0.05236,0 -0.112999,0.02205 -0.05926,0.02205 -0.176389,0.09508 z"
           id="path369" />
      </g>
    </g>
    <g
       id="g67750"
       transform="translate(32.528101,30.631435)">
      <path
         id="ellipse15991"
         style="fill:#d9d9d9;stroke:#000000;stroke-width:0.227918"
         d="m 94.445063,51.602776 a 6.522265,3.8547914 0 0 1 -6.522265,3.854791 6.522265,3.8547914 0 0 1 -6.522265,-3.854791 6.522265,3.8547914 0 0 1 6.522265,-3.854792 6.522265,3.8547914 0 0 1 6.522265,3.854792 z" />
      <g
         aria-label="q"
         id="text15995"
         style="font-style:italic;font-size:4.93889px;line-height:125%;font-family:'Times New Roman';-inkscape-font-specification:'Times New Roman, Italic';letter-spacing:0px;word-spacing:0px;stroke-width:0.264583px">
        <path
           d="m 85.33179,50.038284 -0.788583,2.725071 q -0.05305,0.188103 -0.05305,0.241157 0,0.05547 0.02653,0.09405 0.02894,0.041 0.07717,0.06029 0.07476,0.02894 0.195337,0.02894 l -0.02411,0.08923 h -1.155141 l 0.02412,-0.08923 q 0.236333,-0.01929 0.294211,-0.041 0.09164,-0.03617 0.149517,-0.118167 0.06029,-0.08199 0.132636,-0.344854 l 0.332796,-1.188903 q -0.318326,0.465432 -0.593245,0.653535 -0.195337,0.132636 -0.364147,0.132636 -0.241157,0 -0.364146,-0.195337 -0.12299,-0.197749 -0.12299,-0.426847 0,-0.364147 0.224275,-0.764467 0.224276,-0.400321 0.590834,-0.655947 0.284565,-0.20016 0.516076,-0.20016 0.171221,0 0.282153,0.08441 0.110932,0.08199 0.166398,0.265273 l 0.07476,-0.270096 z m -0.549837,0.470256 q 0,-0.15434 -0.09405,-0.253215 -0.09405,-0.09887 -0.231511,-0.09887 -0.294211,0 -0.619773,0.506429 -0.325561,0.506429 -0.325561,0.954981 0,0.180867 0.07958,0.274919 0.08199,0.09405 0.197749,0.09405 0.147105,0 0.332796,-0.163987 0.282154,-0.248391 0.470256,-0.636654 0.190514,-0.390674 0.190514,-0.67765 z"
           id="path373" />
      </g>
      <g
         aria-label="accept"
         id="text15999"
         style="font-size:2.82222px;line-height:125%;font-family:'Times New Roman';-inkscape-font-specification:'Times New Roman, Normal';letter-spacing:0px;word-spacing:0px;stroke-width:0.264583px">
        <path
           d="m 85.909444,52.51044 q -0.194303,0.150206 -0.243912,0.173633 -0.07441,0.03445 -0.158475,0.03445 -0.130913,0 -0.216351,-0.08957 -0.08406,-0.08957 -0.08406,-0.235644 0,-0.09233 0.04134,-0.159853 0.0565,-0.09371 0.195682,-0.176388 0.140559,-0.08268 0.465776,-0.201194 v -0.04961 q 0,-0.188791 -0.06063,-0.259071 -0.05926,-0.07028 -0.173633,-0.07028 -0.08682,0 -0.137804,0.04685 -0.05236,0.04685 -0.05236,0.107487 l 0.0028,0.07993 q 0,0.06339 -0.03307,0.09784 -0.03169,0.03445 -0.08406,0.03445 -0.05099,0 -0.08406,-0.03583 -0.03169,-0.03583 -0.03169,-0.09784 0,-0.118511 0.121267,-0.21773 0.121267,-0.09922 0.340375,-0.09922 0.168121,0 0.275607,0.0565 0.08131,0.04272 0.11989,0.13367 0.0248,0.05926 0.0248,0.242534 v 0.42857 q 0,0.180523 0.0069,0.221864 0.0069,0.03996 0.02205,0.05374 0.01654,0.01378 0.03721,0.01378 0.02205,0 0.03858,-0.0096 0.02894,-0.01792 0.111621,-0.100597 v 0.07717 q -0.15434,0.206706 -0.2949,0.206706 -0.06752,0 -0.107487,-0.04685 -0.03996,-0.04685 -0.04134,-0.159852 z m 0,-0.08957 v -0.480935 q -0.208083,0.08268 -0.268717,0.117133 -0.108865,0.06063 -0.155718,0.126779 -0.04685,0.06615 -0.04685,0.144694 0,0.09922 0.05925,0.165365 0.05926,0.06477 0.136426,0.06477 0.104731,0 0.275607,-0.137803 z"
           id="path376" />
        <path
           d="m 87.518992,52.212784 q -0.05099,0.249425 -0.199816,0.384472 -0.148828,0.13367 -0.329351,0.13367 -0.214973,0 -0.374826,-0.180523 -0.159852,-0.180523 -0.159852,-0.487825 0,-0.297656 0.176389,-0.483691 0.177766,-0.186035 0.425813,-0.186035 0.186035,0 0.305924,0.09922 0.11989,0.09784 0.11989,0.20395 0,0.05237 -0.03445,0.08544 -0.03307,0.03169 -0.09371,0.03169 -0.0813,0 -0.122645,-0.05237 -0.02343,-0.02894 -0.03169,-0.110243 -0.0069,-0.0813 -0.05512,-0.124024 -0.04823,-0.04134 -0.13367,-0.04134 -0.137804,0 -0.221864,0.101975 -0.111621,0.135048 -0.111621,0.356912 0,0.225998 0.110243,0.39963 0.111621,0.172255 0.300412,0.172255 0.135048,0 0.242535,-0.09233 0.07579,-0.06339 0.14745,-0.230133 z"
           id="path378" />
        <path
           d="m 88.771627,52.212784 q -0.05099,0.249425 -0.199815,0.384472 -0.148828,0.13367 -0.329351,0.13367 -0.214974,0 -0.374826,-0.180523 -0.159852,-0.180523 -0.159852,-0.487825 0,-0.297656 0.176388,-0.483691 0.177767,-0.186035 0.425814,-0.186035 0.186035,0 0.305924,0.09922 0.119889,0.09784 0.119889,0.20395 0,0.05237 -0.03445,0.08544 -0.03307,0.03169 -0.09371,0.03169 -0.0813,0 -0.122645,-0.05237 -0.02343,-0.02894 -0.03169,-0.110243 -0.0069,-0.0813 -0.05512,-0.124024 -0.04823,-0.04134 -0.133669,-0.04134 -0.137804,0 -0.221864,0.101975 -0.111621,0.135048 -0.111621,0.356912 0,0.225998 0.110243,0.39963 0.111621,0.172255 0.300412,0.172255 0.135047,0 0.242534,-0.09233 0.07579,-0.06339 0.14745,-0.230133 z"
           id="path380" />
        <path
           d="m 89.164368,51.905482 q -0.0014,0.281119 0.136426,0.440972 0.137803,0.159852 0.323838,0.159852 0.124024,0 0.214974,-0.06752 0.09233,-0.0689 0.15434,-0.234266 l 0.04272,0.02756 q -0.02894,0.188792 -0.16812,0.34451 -0.139182,0.15434 -0.348644,0.15434 -0.227376,0 -0.389984,-0.176389 -0.16123,-0.177767 -0.16123,-0.476801 0,-0.323838 0.165364,-0.504361 0.166743,-0.181901 0.417545,-0.181901 0.212218,0 0.348644,0.14056 0.136425,0.139181 0.136425,0.373448 z m 0,-0.07993 h 0.584288 q -0.0069,-0.121267 -0.02894,-0.170876 -0.03445,-0.07717 -0.103353,-0.121267 -0.06752,-0.0441 -0.141938,-0.0441 -0.114377,0 -0.205327,0.08957 -0.08957,0.08819 -0.104731,0.246668 z"
           id="path382" />
        <path
           d="m 90.113835,51.55546 0.388607,-0.157096 h 0.05236 v 0.2949 q 0.09784,-0.166743 0.195682,-0.232888 0.09922,-0.06752 0.208083,-0.06752 0.190169,0 0.316949,0.148828 0.155718,0.181901 0.155718,0.474045 0,0.326594 -0.187413,0.54019 -0.15434,0.175011 -0.388607,0.175011 -0.101974,0 -0.176388,-0.02894 -0.05512,-0.02067 -0.124024,-0.08268 v 0.384472 q 0,0.129536 0.01516,0.163987 0.01654,0.03583 0.05512,0.0565 0.03996,0.02067 0.143316,0.02067 v 0.05099 h -0.661458 v -0.05099 h 0.03445 q 0.07579,0.0014 0.129536,-0.02894 0.02618,-0.01516 0.03996,-0.04961 0.01516,-0.03307 0.01516,-0.170877 v -1.19338 q 0,-0.122645 -0.01102,-0.155718 -0.01102,-0.03307 -0.03583,-0.04961 -0.02343,-0.01654 -0.06477,-0.01654 -0.03307,0 -0.08406,0.01929 z m 0.440972,0.219108 v 0.471289 q 0,0.152962 0.0124,0.201193 0.01929,0.07993 0.09371,0.14056 0.07579,0.06063 0.190169,0.06063 0.137804,0 0.223242,-0.107487 0.111621,-0.14056 0.111621,-0.395497 0,-0.289388 -0.126779,-0.445106 -0.08819,-0.107487 -0.209462,-0.107487 -0.06615,0 -0.130913,0.03307 -0.04961,0.02481 -0.163987,0.148828 z"
           id="path384" />
        <path
           d="m 91.982454,51.01527 v 0.414789 h 0.2949 v 0.09646 h -0.2949 v 0.818554 q 0,0.122646 0.03445,0.165365 0.03583,0.04272 0.09095,0.04272 0.04547,0 0.08819,-0.02756 0.04272,-0.02894 0.06615,-0.08406 h 0.05374 q -0.04823,0.135048 -0.136426,0.20395 -0.08819,0.06752 -0.181901,0.06752 -0.06339,0 -0.124023,-0.03445 -0.06063,-0.03583 -0.08957,-0.100596 -0.02894,-0.06615 -0.02894,-0.202572 v -0.848871 h -0.199816 v -0.04548 q 0.07579,-0.03032 0.15434,-0.101975 0.07993,-0.07304 0.141938,-0.172254 0.03169,-0.05237 0.08819,-0.191547 z"
           id="path386" />
      </g>
      <path
         id="ellipse21210"
         style="fill:none;stroke:#000000;stroke-width:0.187639"
         d="m 93.471076,51.602776 a 5.5482779,3.0713589 0 0 1 -5.548278,3.071358 5.5482779,3.0713589 0 0 1 -5.548278,-3.071358 5.5482779,3.0713589 0 0 1 5.548278,-3.071359 5.5482779,3.0713589 0 0 1 5.548278,3.071359 z" />
    </g>
  </g>
</svg>
