<svg xmlns="http://www.w3.org/2000/svg" viewBox="0 0 181.5 55.3"><defs><style>.cls-1{fill:#939598;}.cls-2{fill:#fff;}</style></defs><title>Asset 1</title><g id="Layer_2" data-name="Layer 2"><g id="Layer_1-2" data-name="Layer 1"><path class="cls-1" d="M32.7.7V30.9A111.14,111.14,0,0,1,32,46.3c-.5,3.1-1.7,5.4-3.5,6.8s-7.9,2.1-12.3,2.1-10.1-.6-12-2.1S1.1,49.4.7,46.3A112.1,112.1,0,0,1,0,30.9V.7H9.4V34.6c0,4,.1,6.8.2,8.4s.5,2.6,1.1,3.1,2.3,1.2,5.7,1.2c2.6,0,5.1-.7,5.7-1.2a5.35,5.35,0,0,0,1.1-3c.2-1.5.2-4.3.2-8.4V.8h9.3Z"/><path class="cls-1" d="M76.2,54.7,60.7,24.2h-.3V54.7h-9V.7h8.9L75.6,32.1V.7h8.9v54Z"/><path class="cls-1" d="M121.8,55c-1.4.1-3.9.3-5.1.3-4.1,0-7.2-.8-9.1-2.4s-3.2-4.3-3.8-8a118.87,118.87,0,0,1-.9-17.2c0-7.6.3-13.4,1-17.2s2-6.5,3.9-8.1,4.9-2.4,9-2.4c1.4,0,3.4.1,4.8.1a58.53,58.53,0,0,1,8.5,1V9c-2-.4-10-.5-11.5-.5a6.74,6.74,0,0,0-4.3,1.1c-.8.8-1.3,2.4-1.6,4.8s-.4,6.8-.4,13.1a130,130,0,0,0,.4,13.1c.2,2.5.8,4.1,1.6,4.8s2.2,1.1,4.3,1.1,10-.2,11.7-.5v7.9C129.2,54.4,123.1,54.9,121.8,55Z"/><path class="cls-2" d="M167.8,32.5V23h13.7V53.6a34.46,34.46,0,0,1-5.8,1.2,51.43,51.43,0,0,1-6.6.5c-4.2,0-12.8-.7-14.9-2.2s-3.5-4.2-4.4-8-1.2-9.6-1.2-17.4.4-13.6,1.3-17.4,2.4-6.5,4.7-8,7.5-2.2,12-2.2a40.05,40.05,0,0,1,5.7.4c2.1.3,7.6.7,9.1,1.1v9c-3.6-.5-10-.8-12-.8a14.23,14.23,0,0,0-5.7.8c-1,.5-3.5,2-3.9,4.3a88.58,88.58,0,0,0-.6,12.7q0,8.7.3,12.3c.2,2.4.6,4,1.2,4.7s7.2,1.2,8.6,1.2a19.42,19.42,0,0,0,2.4-.2V32.5Z"/></g></g></svg>