<?xml version="1.0" encoding="UTF-8" standalone="no"?>
<!-- Created with Inkscape (http://www.inkscape.org/) -->

<svg
   width="10.178821mm"
   height="7.3758492mm"
   viewBox="0 0 10.178821 7.3758492"
   version="1.1"
   id="svg5"
   inkscape:version="1.1.2 (0a00cf5339, 2022-02-04)"
   sodipodi:docname="initials.svg"
   xmlns:inkscape="http://www.inkscape.org/namespaces/inkscape"
   xmlns:sodipodi="http://sodipodi.sourceforge.net/DTD/sodipodi-0.dtd"
   xmlns="http://www.w3.org/2000/svg"
   xmlns:svg="http://www.w3.org/2000/svg">
  <sodipodi:namedview
     id="namedview7"
     pagecolor="#ffffff"
     bordercolor="#666666"
     borderopacity="1.0"
     inkscape:pageshadow="2"
     inkscape:pageopacity="0.0"
     inkscape:pagecheckerboard="0"
     inkscape:document-units="mm"
     showgrid="false"
     inkscape:zoom="6.6624262"
     inkscape:cx="9.4560147"
     inkscape:cy="-0.60038188"
     inkscape:window-width="1920"
     inkscape:window-height="1022"
     inkscape:window-x="0"
     inkscape:window-y="0"
     inkscape:window-maximized="1"
     inkscape:current-layer="layer1"
     lock-margins="true"
     fit-margin-top="1"
     fit-margin-left="1"
     fit-margin-right="1"
     fit-margin-bottom="1" />
  <defs
     id="defs2" />
  <g
     inkscape:label="Layer 1"
     inkscape:groupmode="layer"
     id="layer1"
     transform="translate(-57.609545,-92.264849)">
    <g
       aria-label="S"
       id="text1904"
       style="font-size:3.52777px;line-height:1.25;-inkscape-font-specification:'sans-serif, Normal';font-variant-ligatures:none;fill:#5b5b5b;stroke-width:0.264583">
      <path
         d="m 60.756496,94.557452 q -0.01929,0.0028 -0.03583,-0.01102 -0.01378,-0.01378 -0.01929,-0.03583 -0.06063,-0.336241 -0.261827,-0.531922 -0.220486,-0.209462 -0.562239,-0.209462 -0.333485,0 -0.515386,0.148828 -0.179145,0.146072 -0.179145,0.416167 0,0.237023 0.21773,0.432704 0.21773,0.192925 0.683506,0.366558 0.545703,0.206705 0.790994,0.487825 0.24529,0.281119 0.24529,0.700043 0,0.556727 -0.402387,0.8847 -0.39963,0.325216 -1.083137,0.325216 -0.289388,0 -0.501605,-0.05236 -0.176389,-0.04685 -0.377582,-0.146072 -0.03583,-0.01654 -0.05512,-0.0441 -0.01654,-0.02756 -0.02205,-0.0689 l -0.06339,-0.66697 q -0.0028,-0.02205 0.0083,-0.03859 0.01378,-0.01654 0.03307,-0.01929 l 0.118511,-0.01929 q 0.01929,-0.0028 0.03583,0.0083 0.01929,0.01102 0.02756,0.03307 0.110243,0.322461 0.338997,0.52641 0.245291,0.220486 0.531922,0.220486 0.402387,0 0.620117,-0.170876 0.21773,-0.173633 0.21773,-0.493338 0,-0.214974 -0.181901,-0.38585 -0.181901,-0.168121 -0.567751,-0.314193 -0.625629,-0.237022 -0.906749,-0.542946 -0.281119,-0.305924 -0.281119,-0.746896 0,-0.465777 0.388606,-0.785482 0.388607,-0.32246 0.953602,-0.32246 0.281119,0 0.490581,0.05237 0.159852,0.03858 0.336241,0.12678 0.05512,0.02756 0.08268,0.0689 0.02756,0.03858 0.03032,0.09646 l 0.02756,0.633897 q 0,0.02205 -0.01378,0.03858 -0.01103,0.01654 -0.03032,0.01929 z"
         style="font-weight:bold;font-size:5.64444px;font-family:Garamond;-inkscape-font-specification:'Garamond, Bold'"
         id="path17406" />
    </g>
    <g
       aria-label="R"
       id="text2370"
       style="font-size:3.52777px;line-height:1.25;-inkscape-font-specification:'sans-serif, Normal';font-variant-ligatures:none;fill:#5b5b5b;stroke-width:0.264583">
      <path
         d="m 61.350684,97.827075 v -2.304078 q 0,-0.289388 -0.0689,-0.413411 -0.06615,-0.126779 -0.23151,-0.146072 l -0.173633,-0.01929 q -0.03032,-0.0028 -0.04134,-0.01378 -0.01102,-0.01102 -0.01102,-0.03858 v -0.129535 q 0,-0.03583 0.01929,-0.0441 0.02205,-0.01102 0.08544,-0.0083 l 0.774457,0.02756 h 0.01929 0.08544 l 0.617361,-0.02205 q 0.719335,0 1.124478,0.242535 0.407899,0.242534 0.407899,0.672482 0,0.427192 -0.377582,0.669726 -0.209462,0.132292 -0.509874,0.192925 v 0 l 0.07166,0.03583 q 0.20395,0.118511 0.314193,0.292144 l 0.708311,1.121722 q 0.162608,0.256315 0.261827,0.341754 0.101974,0.08268 0.270095,0.101974 l 0.15434,0.01929 q 0.03032,0.0028 0.04134,0.01378 0.01102,0.01103 0.01102,0.03858 v 0.129536 q 0,0.03583 -0.02205,0.0441 -0.01929,0.01102 -0.08268,0.0083 l -0.564996,-0.03032 -0.383094,0.0055 q -0.0441,-0.0083 -0.07993,-0.03307 -0.03583,-0.02756 -0.06615,-0.07441 l -0.873675,-1.375281 q -0.165365,-0.261828 -0.305925,-0.35829 -0.137803,-0.09922 -0.336241,-0.09922 h -0.09095 v 0 1.152039 q 0,0.292144 0.07166,0.418924 0.07441,0.124023 0.250803,0.140559 l 0.187413,0.01929 q 0.03583,0.0028 0.04685,0.01378 0.01102,0.01103 0.01102,0.03858 v 0.129536 q 0,0.03583 -0.02205,0.0441 -0.01929,0.01102 -0.08268,0.0083 -0.471288,-0.02756 -0.813042,-0.02756 -0.344509,0 -0.818554,0.02756 -0.06339,0.0028 -0.08544,-0.0083 -0.01929,-0.0083 -0.01929,-0.0441 v -0.129536 q 0,-0.02756 0.01102,-0.03858 0.01102,-0.01102 0.04134,-0.01378 l 0.173633,-0.01929 q 0.165364,-0.01929 0.234266,-0.146072 0.06615,-0.124023 0.06615,-0.413411 z m 0.746896,-1.430402 v 0 q 0.135048,0.01102 0.278363,0.01102 0.366558,0 0.581532,-0.192925 0.21773,-0.195681 0.21773,-0.52641 0,-0.308681 -0.195681,-0.496094 -0.168121,-0.157096 -0.427192,-0.179145 -0.228754,-0.01929 -0.341753,0.09371 -0.112999,0.110243 -0.112999,0.355534 z"
         style="font-weight:bold;font-size:5.64444px;font-family:Garamond;-inkscape-font-specification:'Garamond, Bold'"
         id="path17409" />
    </g>
    <g
       aria-label="T"
       id="text3066"
       style="font-size:3.52777px;line-height:1.25;-inkscape-font-specification:'sans-serif, Normal';font-variant-ligatures:none;fill:#5b5b5b;stroke-width:0.264583">
      <path
         d="m 64.605152,96.668605 v -2.80844 0 h -0.512629 q -0.253559,0 -0.396875,0.0689 -0.14056,0.0689 -0.234266,0.237023 l -0.06339,0.146072 q -0.02756,0.04961 -0.06063,0.0441 l -0.121267,-0.01929 q -0.02205,-0.0055 -0.03583,-0.02205 -0.01378,-0.01929 -0.01102,-0.04134 0.05512,-0.270096 0.08544,-0.465777 0.03032,-0.195681 0.06063,-0.468533 0.0055,-0.02756 0.0248,-0.04134 0.02205,-0.01654 0.04961,-0.01378 l 0.140559,0.0248 q 0.01378,0.0028 0.05237,0.07166 l 0.03032,0.05512 q 0.04685,0.07993 0.212217,0.112999 0.168121,0.03032 0.534679,0.03032 h 0.600824 0.01654 0.07717 0.661457 q 0.322461,0 0.49885,-0.04961 0.179145,-0.04961 0.292144,-0.16812 l 0.04134,-0.0441 0.05788,-0.05237 0.129536,0.01103 q 0.02481,0 0.03858,0.01929 0.01654,0.01654 0.01378,0.03858 -0.06063,0.272852 -0.09646,0.471289 -0.03583,0.198437 -0.07166,0.476801 0,0.02205 -0.01929,0.03583 -0.01654,0.01378 -0.03858,0.01378 l -0.124023,-0.0083 q -0.02205,0 -0.03583,-0.01654 -0.01378,-0.01929 -0.01378,-0.0441 l -0.01929,-0.242534 q -0.0028,-0.08819 -0.115755,-0.124024 -0.112999,-0.03583 -0.391363,-0.03583 h -0.509873 v 0 2.80844 q 0,0.292144 0.07441,0.418923 0.07717,0.124024 0.261827,0.14056 l 0.192925,0.01929 q 0.03583,0.0028 0.04685,0.01378 0.01102,0.01102 0.01102,0.03858 v 0.129536 q 0,0.03307 -0.02205,0.0441 -0.01929,0.01102 -0.08268,0.0083 -0.496094,-0.02756 -0.854383,-0.02756 -0.361046,0 -0.85714,0.02756 -0.06339,0.0028 -0.08544,-0.0083 -0.01929,-0.01102 -0.01929,-0.0441 v -0.129536 q 0,-0.02756 0.01102,-0.03858 0.01102,-0.01102 0.04685,-0.01378 l 0.192925,-0.01929 q 0.184657,-0.01654 0.261827,-0.143316 0.07441,-0.124023 0.07441,-0.416167 z"
         style="font-weight:bold;font-size:5.64444px;font-family:Garamond;-inkscape-font-specification:'Garamond, Bold'"
         id="path17412" />
    </g>
  </g>
</svg>
